<svg width="64" height="60" viewBox="0 0 64 60" fill="none" xmlns="http://www.w3.org/2000/svg">
<g clip-path="url(#clip0_939_517)">
<path d="M13.293 4C9.64126 4 6.93899 7.3227 7.05999 10.9261C7.17624 14.3878 7.02524 18.8717 5.9395 22.5281C4.85048 26.1952 3.0085 28.5181 0 28.8164V32.1836C3.0085 32.4819 4.85048 34.8048 5.9395 38.4721C7.02524 42.1286 7.17624 46.612 7.05999 50.074C6.93899 53.6769 9.64126 57 13.2935 57H50.7117C54.3639 57 57.0654 53.6773 56.9442 50.074C56.8282 46.612 56.9788 42.1286 58.0646 38.4721C59.1544 34.8051 60.9916 32.4817 64 32.1836V28.8164C60.9916 28.5181 59.1544 26.1952 58.0649 22.5281C56.9788 18.8723 56.8282 14.3881 56.9442 10.9261C57.0654 7.32322 54.3639 4 50.7117 4H13.293ZM43.3901 36.6248C43.3901 41.5867 39.8298 44.5957 33.922 44.5957H23.8645C23.5769 44.5957 23.301 44.4769 23.0977 44.2652C22.8943 44.0536 22.7801 43.767 22.78 43.468V17.532C22.78 17.2329 22.8943 16.946 23.0977 16.7345C23.3011 16.523 23.577 16.4041 23.8647 16.404H33.8645C38.7908 16.404 42.0239 19.1784 42.0239 23.4375C42.0239 26.427 39.8487 29.1033 37.078 29.5719V29.7281C40.8501 30.1583 43.3901 32.8738 43.3901 36.6248ZM32.825 19.9789H27.0907V28.3993H31.9208C35.6542 28.3993 37.7133 26.8363 37.7133 24.0425C37.7133 21.4246 35.9425 19.9789 32.825 19.9789ZM27.091 31.7405V41.0199H33.0365C36.9235 41.0199 38.9832 39.3984 38.9832 36.3509C38.9832 33.3029 36.8663 31.7399 32.7865 31.7399L27.091 31.7405Z" fill="#7E13F8"/>
</g>
<defs>
<clipPath id="clip0_939_517">
<rect width="64" height="53" fill="white" transform="translate(0 4)"/>
</clipPath>
</defs>
</svg>
