<svg width="48" height="48" viewBox="0 0 48 48" fill="none" xmlns="http://www.w3.org/2000/svg">
<g clip-path="url(#clip0_1459_304)">
<g clip-path="url(#clip1_1459_304)">
<path d="M36.75 0H11.25C5.0368 0 0 5.0368 0 11.25V36.75C0 42.9632 5.0368 48 11.25 48H36.75C42.9632 48 48 42.9632 48 36.75V11.25C48 5.0368 42.9632 0 36.75 0Z" fill="#242938"/>
<path d="M38.7579 17.1077C38.682 17.027 38.6012 16.9464 38.5206 16.8704C38.4398 16.7945 38.3638 16.709 38.2832 16.6331C38.2026 16.5571 38.1266 16.4717 38.0458 16.3957C37.9652 16.3198 37.8893 16.2343 37.8084 16.1584C37.7278 16.0824 37.6519 15.997 37.5713 15.921C37.4904 15.8451 37.4145 15.7596 37.3339 15.6837C37.2531 15.6077 37.1771 15.5223 37.0965 15.4464C39.4509 17.7603 40.7998 20.9082 40.8512 24.2091C40.8512 32.0745 32.8671 38.4733 23.0505 38.4733C17.5537 38.4733 12.636 36.4654 9.36545 33.3182L9.60279 33.5556L9.84012 33.793L10.0775 34.0302L10.3148 34.2675L10.5522 34.5049L10.7895 34.7423L11.0268 34.9796C14.2927 38.2596 19.3196 40.372 24.9493 40.372C34.7657 40.372 42.75 33.9733 42.75 26.1315C42.75 22.7801 41.307 19.6046 38.7579 17.1077Z" fill="black"/>
<path d="M39.6645 24.2089C39.6645 31.4287 32.2264 37.2817 23.0507 37.2817C13.875 37.2817 6.43671 31.4287 6.43671 24.2089C6.43671 19.7327 9.28481 15.7785 13.6614 13.4335C18.038 11.0886 20.7626 8.68671 23.0507 8.68671C25.3386 8.68671 27.2944 10.6471 32.4399 13.4335C36.8166 15.7785 39.6645 19.7327 39.6645 24.2089Z" fill="#FBF0DF"/>
<path d="M39.6645 24.2089C39.6623 23.2813 39.5346 22.3585 39.2848 21.4652C37.989 37.2722 18.7073 38.0316 11.1266 33.3038C14.5344 35.9451 18.7396 37.348 23.0507 37.2816C32.2121 37.2816 39.6645 31.4194 39.6645 24.2089Z" fill="#F6DECE"/>
<path d="M16.6567 12.5649C18.7785 11.2927 21.5981 8.90507 24.3703 8.90031C23.9438 8.76247 23.4988 8.69044 23.0507 8.68671C21.9019 8.68671 20.6773 9.28007 19.1346 10.1725C18.5981 10.4857 18.0427 10.8323 17.4541 11.193C16.3481 11.8766 15.0807 12.6503 13.6567 13.424C9.13766 15.8687 6.43671 19.8988 6.43671 24.2089C6.43671 24.3988 6.43671 24.5886 6.43671 24.7738C9.31329 14.6108 14.5396 13.837 16.6567 12.5649Z" fill="#FFFEFC"/>
<path fill-rule="evenodd" clip-rule="evenodd" d="M21.6834 9.88767C21.6902 11.0085 21.4549 12.1176 20.9936 13.1391C20.5324 14.1607 19.8561 15.0707 19.011 15.807C18.8781 15.9257 18.9825 16.1535 19.1535 16.087C20.7531 15.4652 22.9129 13.6044 22.0016 9.8497C21.9636 9.6361 21.6834 9.69306 21.6834 9.88767ZM22.761 9.88767C23.3419 10.8353 23.7109 11.8974 23.8429 13.001C23.9747 14.1047 23.8663 15.2238 23.5253 16.2817C23.4683 16.4478 23.6724 16.5902 23.7864 16.4526C24.8259 15.1234 25.7325 12.4842 23.0173 9.6361C22.8797 9.51267 22.6661 9.70255 22.761 9.86869V9.88767ZM24.0713 9.80697C24.9808 10.4509 25.7417 11.2824 26.3025 12.2454C26.8635 13.2083 27.2113 14.2804 27.3227 15.3893C27.318 15.4292 27.3287 15.4695 27.3529 15.5017C27.3769 15.534 27.4125 15.5557 27.4523 15.5624C27.4918 15.5691 27.5325 15.5603 27.5659 15.5378C27.5993 15.5153 27.6227 15.4808 27.6313 15.4415C28.068 13.7848 27.8213 10.9604 24.2278 9.49369C24.0379 9.41774 23.9145 9.67407 24.0713 9.78799V9.80697ZM15.3085 14.7437C16.3904 14.4205 17.3922 13.873 18.2485 13.1369C19.1048 12.4008 19.7964 11.4927 20.2785 10.4715C20.3638 10.3007 20.6346 10.3671 20.5918 10.557C19.7706 14.3544 17.0221 15.1472 15.3133 15.0427C15.1329 15.0475 15.1376 14.7959 15.3085 14.7437Z" fill="#CCBEA7"/>
<path d="M23.0507 38.4731C13.2342 38.4731 5.25 32.0743 5.25 24.2089C5.25 19.4621 8.18355 15.0332 13.0965 12.3797C14.5206 11.6203 15.7405 10.856 16.8275 10.1867C17.4256 9.81645 17.9905 9.46993 18.5364 9.14715C20.2026 8.15981 21.6266 7.5 23.0507 7.5C24.4747 7.5 25.7184 8.06963 27.2752 8.99051C27.75 9.26108 28.2247 9.55538 28.7327 9.87818C29.9145 10.6092 31.2484 11.4351 33.0047 12.3797C37.9177 15.0332 40.8514 19.4572 40.8514 24.2089C40.8514 32.0743 32.8671 38.4731 23.0507 38.4731ZM23.0507 8.68671C21.9019 8.68671 20.6773 9.28007 19.1346 10.1725C18.5981 10.4858 18.0427 10.8323 17.4541 11.193C16.3481 11.8766 15.0807 12.6503 13.6567 13.4241C9.13766 15.8687 6.43671 19.8988 6.43671 24.2089C6.43671 31.4194 13.8892 37.2864 23.0507 37.2864C32.2121 37.2864 39.6645 31.4194 39.6645 24.2089C39.6645 19.8988 36.9636 15.8687 32.4399 13.4335C30.6456 12.4842 29.2453 11.5918 28.1107 10.8893C27.5934 10.5712 27.1187 10.2769 26.6867 10.0158C25.2484 9.1614 24.1993 8.68671 23.0507 8.68671Z" fill="black"/>
<path d="M26.3972 27.6742C26.184 28.5476 25.6986 29.3304 25.0112 29.91C24.495 30.4102 23.8269 30.7243 23.1124 30.8023C22.3764 30.7367 21.6848 30.4219 21.1519 29.91C20.4714 29.3278 19.9929 28.5452 19.7848 27.6742C19.7779 27.6225 19.7829 27.5698 19.7996 27.5203C19.8161 27.471 19.8439 27.426 19.8804 27.3889C19.9172 27.3517 19.9618 27.3234 20.0109 27.3064C20.0603 27.2891 20.1128 27.2835 20.1645 27.2897H26.0222C26.0736 27.2842 26.1257 27.2904 26.1743 27.308C26.2228 27.3255 26.2669 27.3538 26.3031 27.3909C26.3391 27.4279 26.3664 27.4727 26.3828 27.5216C26.3991 27.5707 26.4039 27.6229 26.3972 27.6742Z" fill="#B71422"/>
<path d="M21.1519 29.9479C21.6838 30.4599 22.3729 30.7778 23.1077 30.8498C23.8408 30.7766 24.528 30.459 25.0586 29.9479C25.2283 29.7896 25.3869 29.6199 25.5332 29.4399C25.2409 29.1081 24.8837 28.8398 24.4835 28.6511C24.0836 28.4625 23.6494 28.3579 23.2072 28.3434C22.7344 28.3545 22.2712 28.4805 21.8578 28.7104C21.4444 28.9403 21.093 29.2673 20.8339 29.6631C20.943 29.7626 21.038 29.8577 21.1519 29.9479Z" fill="#FF6164"/>
<path d="M21.2278 29.5729C21.4633 29.2686 21.7644 29.0218 22.1089 28.8508C22.4535 28.6796 22.8323 28.5891 23.2168 28.5855C23.9276 28.6065 24.6051 28.8926 25.1156 29.3876C25.2248 29.269 25.3292 29.1456 25.4288 29.0222C24.825 28.4471 24.0268 28.1201 23.193 28.1061C22.7475 28.1098 22.3082 28.2124 21.9069 28.4061C21.5055 28.5998 21.1521 28.8799 20.8719 29.2264C20.9841 29.3483 21.1029 29.464 21.2278 29.5729Z" fill="black"/>
<path d="M23.0934 31.0871C22.3024 31.0178 21.558 30.6833 20.9811 30.1376C20.2463 29.5163 19.7291 28.6765 19.5049 27.7406C19.4888 27.6572 19.4914 27.5713 19.5128 27.4892C19.5341 27.4071 19.5735 27.3308 19.6283 27.2659C19.6933 27.1873 19.7754 27.1247 19.8684 27.0827C19.9613 27.0407 20.0627 27.0206 20.1647 27.0238H26.0222C26.124 27.0216 26.2251 27.0422 26.3177 27.0842C26.4105 27.126 26.4928 27.1881 26.5586 27.2659C26.6126 27.331 26.6514 27.4075 26.6721 27.4898C26.6925 27.5719 26.6944 27.6576 26.6773 27.7406C26.4531 28.6765 25.9358 29.5163 25.2009 30.1376C24.6253 30.6823 23.8828 31.0166 23.0934 31.0871ZM20.1647 27.5743C20.0886 27.5743 20.0696 27.6077 20.0649 27.6171C20.2656 28.4288 20.7195 29.1553 21.3608 29.6916C21.8297 30.1536 22.4394 30.4459 23.0934 30.5222C23.7456 30.4466 24.3546 30.1581 24.8259 29.701C25.4653 29.1638 25.9174 28.4374 26.1171 27.6266C26.1068 27.6115 26.0925 27.5995 26.0756 27.592C26.0589 27.5843 26.0404 27.5816 26.0222 27.5839L20.1647 27.5743Z" fill="black"/>
<path d="M30.2754 27.9683C31.809 27.9683 33.0523 27.2372 33.0523 26.3353C33.0523 25.4336 31.809 24.7026 30.2754 24.7026C28.7417 24.7026 27.4986 25.4336 27.4986 26.3353C27.4986 27.2372 28.7417 27.9683 30.2754 27.9683Z" fill="#FEBBD0"/>
<path d="M15.9067 27.9683C17.4403 27.9683 18.6836 27.2372 18.6836 26.3353C18.6836 25.4336 17.4403 24.7026 15.9067 24.7026C14.3731 24.7026 13.1298 25.4336 13.1298 26.3353C13.1298 27.2372 14.3731 27.9683 15.9067 27.9683Z" fill="#FEBBD0"/>
<path fill-rule="evenodd" clip-rule="evenodd" d="M17.2121 25.6804C17.7296 25.6813 18.2358 25.5287 18.6665 25.2418C19.0973 24.9549 19.4333 24.5469 19.6318 24.069C19.8306 23.5913 19.8831 23.0651 19.7828 22.5576C19.6823 22.0498 19.4336 21.5833 19.068 21.2171C18.7024 20.8508 18.2364 20.6012 17.7289 20.4999C17.2214 20.3987 16.6952 20.4501 16.217 20.6479C15.7388 20.8457 15.3301 21.1809 15.0425 21.6113C14.7549 22.0414 14.6013 22.5473 14.6013 23.0648C14.6013 23.7578 14.8763 24.4223 15.3657 24.9126C15.8552 25.4029 16.5192 25.6791 17.2121 25.6804ZM28.9701 25.6804C29.4881 25.6841 29.9957 25.5339 30.4283 25.2488C30.8608 24.9638 31.1991 24.5565 31.3999 24.0789C31.6009 23.6014 31.6553 23.0749 31.5566 22.5664C31.4578 22.0577 31.2101 21.5899 30.8453 21.2222C30.4802 20.8545 30.0143 20.6034 29.5063 20.5011C28.9984 20.3985 28.4715 20.4493 27.9924 20.6466C27.5136 20.844 27.1039 21.1793 26.8157 21.6098C26.5273 22.0403 26.3736 22.5467 26.3736 23.0648C26.3723 23.7557 26.6447 24.4187 27.1314 24.909C27.6182 25.3991 28.2793 25.6766 28.9701 25.6804Z" fill="black"/>
<path fill-rule="evenodd" clip-rule="evenodd" d="M16.4051 23.2309C16.5997 23.2318 16.7901 23.175 16.9523 23.0678C17.1145 22.9603 17.2412 22.8071 17.3163 22.6277C17.3914 22.4483 17.4115 22.2505 17.3742 22.0596C17.3368 21.8687 17.2436 21.6932 17.1064 21.5552C16.9691 21.4174 16.7941 21.3233 16.6033 21.285C16.4126 21.2468 16.2148 21.2659 16.035 21.3401C15.8551 21.4144 15.7014 21.5404 15.5932 21.702C15.485 21.8636 15.4273 22.0538 15.4273 22.2484C15.4273 22.5081 15.5301 22.7575 15.7134 22.9416C15.8966 23.1257 16.1453 23.2298 16.4051 23.2309ZM28.1631 23.2309C28.3575 23.2318 28.548 23.175 28.7102 23.0678C28.8724 22.9603 28.9991 22.8071 29.0743 22.6277C29.1493 22.4483 29.1694 22.2505 29.1321 22.0596C29.0948 21.8687 29.0016 21.6932 28.8643 21.5552C28.7271 21.4174 28.5519 21.3233 28.3613 21.285C28.1706 21.2468 27.9728 21.2659 27.7929 21.3401C27.6131 21.4144 27.4594 21.5404 27.3512 21.702C27.243 21.8636 27.1853 22.0538 27.1853 22.2484C27.1853 22.5066 27.2867 22.7543 27.468 22.9382C27.6491 23.1221 27.8955 23.2271 28.1535 23.2309H28.1631Z" fill="white"/>
</g>
</g>
<defs>
<clipPath id="clip0_1459_304">
<rect width="48" height="48" fill="white"/>
</clipPath>
<clipPath id="clip1_1459_304">
<rect width="48" height="48" fill="white"/>
</clipPath>
</defs>
</svg>
