<svg width="60" height="60" viewBox="0 0 60 60" fill="none" xmlns="http://www.w3.org/2000/svg">
<path d="M53.6127 19.8231C53.4897 19.6972 53.363 19.575 53.2329 19.4566C53.1038 19.3398 52.9823 19.2079 52.8532 19.0906C52.724 18.9734 52.6025 18.8414 52.4734 18.7247C52.3443 18.6074 52.2228 18.4754 52.0937 18.3582C51.9645 18.2409 51.843 18.1095 51.7139 17.9922C51.5848 17.875 51.4633 17.743 51.3342 17.6257C51.205 17.5085 51.0835 17.377 50.9544 17.2598C54.7215 20.8294 56.8799 25.6864 56.9621 30.7793C56.9621 42.9147 44.1873 52.7872 28.4808 52.7872C19.6858 52.7872 11.8174 49.6894 6.58447 44.8334L6.96422 45.1998L7.34397 45.5658L7.72372 45.9323L8.10347 46.2983L8.48322 46.6647L8.86297 47.0307L9.24272 47.3967C14.4681 52.4578 22.5112 55.7165 31.5188 55.7165C47.2253 55.7165 60 45.8445 60 33.7456C60 28.5749 57.6912 23.6752 53.6127 19.8231Z" fill="black"/>
<path d="M55.0636 30.7795C55.0636 41.919 43.1623 50.9489 28.4812 50.9489C13.8 50.9489 1.89868 41.919 1.89868 30.7795C1.89868 23.8728 6.45568 17.7726 13.4583 14.1545C20.4608 10.5364 24.8204 6.83057 28.4812 6.83057C32.1419 6.83057 35.2711 9.85527 43.504 14.155C50.5066 17.7716 55.0636 23.8728 55.0636 30.7795Z" fill="#FBF0DF"/>
<path d="M55.0629 30.7796C55.0592 29.3471 54.8546 27.9222 54.4553 26.5464C52.3819 50.9344 21.5311 52.1064 9.40186 44.8123C14.8541 48.8871 21.5823 51.0516 28.4805 50.9491C43.1388 50.9491 55.0629 41.9044 55.0629 30.7796Z" fill="#F6DECE"/>
<path d="M18.2507 12.8145C21.6457 10.8516 26.1571 7.16759 30.5926 7.16047C29.9087 6.94767 29.1973 6.83651 28.4812 6.83057C26.6432 6.83057 24.6837 7.74671 22.2153 9.1233C21.357 9.60654 20.4684 10.141 19.5267 10.6978C17.757 11.7526 15.7292 12.946 13.4507 14.1398C6.22023 17.9117 1.89868 24.1296 1.89868 30.7795V31.651C6.50125 15.9707 14.8633 14.7773 18.2507 12.8145Z" fill="#FFFEFC"/>
<path d="M26.2933 8.68373C26.3031 10.4172 25.926 12.131 25.1896 13.7002C24.4439 15.2865 23.3613 16.6911 22.0173 17.8162C21.8046 17.9995 21.9717 18.3512 22.2451 18.2482C24.8046 17.2893 28.2604 14.4184 26.8021 8.62534C26.7414 8.29543 26.2933 8.38325 26.2933 8.68373ZM28.0173 8.68373C28.943 10.137 29.5341 11.7778 29.748 13.4876C29.9593 15.1903 29.786 16.9167 29.2401 18.5487C29.149 18.805 29.4756 19.0248 29.6578 18.8126C31.3211 16.7619 32.7718 12.6896 28.4275 8.29543C28.2072 8.10556 27.8654 8.39797 28.0173 8.6543V8.68373ZM30.1135 8.55936C31.5595 9.54295 32.777 10.8259 33.6837 12.3213C34.5784 13.7982 35.1358 15.4547 35.3161 17.1721C35.3085 17.2338 35.3256 17.2955 35.3641 17.3453C35.4039 17.3951 35.4608 17.4284 35.5238 17.4386C35.5867 17.4489 35.6513 17.4354 35.7049 17.4009C35.7313 17.3842 35.7541 17.3625 35.7721 17.337C35.7901 17.3115 35.8029 17.2827 35.8098 17.2523C36.5085 14.6966 36.1136 10.339 30.3642 8.07565C30.0604 7.95888 29.8629 8.3543 30.1135 8.52993V8.55936ZM16.0932 16.1757C17.8152 15.6822 19.4167 14.8383 20.7973 13.6969C22.1587 12.5714 23.2657 11.1697 24.0452 9.58468C24.1819 9.32076 24.6148 9.42329 24.5464 9.71617C23.2325 15.5752 18.835 16.7985 16.1008 16.6371C15.8122 16.6447 15.8198 16.2564 16.0932 16.1757Z" fill="#CCBEA7"/>
<path d="M28.4812 52.7877C12.7748 52.7877 0 42.9151 0 30.7798C0 23.4558 4.6937 16.6232 12.5545 12.529C14.833 11.357 16.7849 10.1779 18.5242 9.14544C19.4812 8.57439 20.385 8.03942 21.2584 7.54147C23.9242 6.0182 26.2027 5 28.4812 5C30.7597 5 32.7496 5.87912 35.2408 7.29986C36.0003 7.71758 36.7598 8.17138 37.5724 8.66933C39.4636 9.79719 41.5978 11.0712 44.4079 12.529C52.2687 16.6232 56.9624 23.4487 56.9624 30.7798C56.9624 42.9151 44.1877 52.7877 28.4812 52.7877ZM28.4812 6.83134C26.6432 6.83134 24.6837 7.74654 22.2153 9.12361C21.3571 9.60684 20.4685 10.1413 19.5267 10.6981C17.7571 11.7529 15.7292 12.9463 13.4507 14.1401C6.2203 17.912 1.89875 24.1299 1.89875 30.7798C1.89875 41.9045 13.8229 50.9568 28.4812 50.9568C43.1395 50.9568 55.0637 41.9045 55.0637 30.7798C55.0637 24.1294 50.7421 17.912 43.5041 14.1548C40.6332 12.6899 38.3927 11.3133 36.5775 10.2292C35.7496 9.7388 34.9901 9.28452 34.299 8.88199C31.9977 7.56331 30.3192 6.83134 28.4812 6.83134Z" fill="black"/>
<path d="M33.8355 36.1259C33.4942 37.4735 32.7176 38.6811 31.6178 39.5754C30.7815 40.352 29.7151 40.8352 28.5798 40.952C27.4103 40.8542 26.3067 40.3699 25.443 39.5754C24.3546 38.6773 23.5889 37.4697 23.2557 36.1259C23.2452 36.046 23.2533 35.9647 23.2794 35.8885C23.306 35.8117 23.3503 35.7421 23.4085 35.6853C23.4685 35.6281 23.5403 35.5847 23.6189 35.5582C23.6975 35.5318 23.7809 35.523 23.8633 35.5325H33.2355C33.3173 35.5243 33.3999 35.5341 33.4776 35.5612C33.5552 35.5882 33.626 35.6319 33.685 35.6891C33.7428 35.7449 33.7866 35.8135 33.8128 35.8894C33.8389 35.9653 33.8467 36.0463 33.8355 36.1259Z" fill="#B71422"/>
<path d="M25.4429 39.6337C26.3047 40.4289 27.4044 40.918 28.5721 41.0255C29.7371 40.9164 30.8339 40.4274 31.6936 39.6337C31.9642 39.3901 32.2179 39.1284 32.4531 38.8505C31.9812 38.3356 31.4099 37.9216 30.7737 37.6334C30.1308 37.3424 29.4369 37.1811 28.7316 37.1587C27.9773 37.1748 27.2375 37.3686 26.5722 37.7245C25.9154 38.0749 25.3533 38.5794 24.9341 39.1946C25.1088 39.3479 25.2607 39.4946 25.4429 39.6337Z" fill="#FF6164"/>
<path d="M25.564 39.0553C25.9442 38.5827 26.4261 38.2019 26.9738 37.9412C27.5274 37.6763 28.1326 37.5366 28.7463 37.532C29.8759 37.5612 30.956 38.0014 31.7843 38.77C31.959 38.5868 32.1261 38.3964 32.2856 38.2061C31.3196 37.3184 30.0422 36.8138 28.7083 36.7925C27.9972 36.7982 27.2956 36.956 26.6506 37.2553C26.0124 37.5506 25.447 37.9826 24.9944 38.5208C25.1741 38.7091 25.364 38.8873 25.564 39.0553Z" fill="black"/>
<path d="M28.5488 41.3915C27.2918 41.2882 26.1039 40.7733 25.169 39.9266C23.9932 38.9677 23.1659 37.6718 22.807 36.2283C22.7814 36.1001 22.7856 35.9672 22.8198 35.8405C22.8539 35.7129 22.9171 35.5949 23.0045 35.4959C23.1097 35.3739 23.2412 35.2774 23.389 35.2134C23.5381 35.1481 23.7 35.117 23.8627 35.1223H33.2349C33.3977 35.119 33.5591 35.1508 33.7077 35.2153C33.8553 35.2793 33.9869 35.3751 34.0932 35.4959C34.1796 35.5965 34.2417 35.7142 34.2745 35.8414C34.3077 35.9682 34.3106 36.1001 34.283 36.2283C33.9242 37.6723 33.0963 38.9677 31.921 39.9266C30.9882 40.7718 29.8032 41.2865 28.5488 41.3915ZM23.8627 35.972C23.7412 35.972 23.7108 36.0232 23.7032 36.038C24.0241 37.2902 24.7504 38.4109 25.7766 39.2383C26.5367 39.9557 27.5099 40.4057 28.5488 40.52C29.5852 40.407 30.5575 39.9625 31.321 39.2525C32.3439 38.4242 33.0674 37.3035 33.3868 36.0527C33.3701 36.029 33.3471 36.0104 33.3204 35.999C33.2935 35.9875 33.264 35.9832 33.2349 35.9867L23.8627 35.972Z" fill="black"/>
<path d="M40.04 36.5801C42.4942 36.5801 44.4831 35.4517 44.4831 34.0604C44.4831 32.6691 42.4942 31.5413 40.04 31.5413C37.5859 31.5413 35.597 32.6691 35.597 34.0604C35.597 35.4517 37.5859 36.5801 40.04 36.5801ZM17.05 36.5801C19.5041 36.5801 21.4931 35.4517 21.4931 34.0604C21.4931 32.6691 19.5041 31.5413 17.05 31.5413C14.5959 31.5413 12.6069 32.6691 12.6069 34.0604C12.6069 35.4517 14.5959 36.5801 17.05 36.5801Z" fill="#FEBBD0"/>
<path d="M19.1392 33.0501C19.9636 33.0526 20.7714 32.8178 21.4661 32.3737C22.1492 31.9372 22.6869 31.3073 23.0107 30.5642C23.3289 29.83 23.4131 29.0157 23.2518 28.232C23.0886 27.443 22.69 26.7219 22.1088 26.1638C21.5172 25.5948 20.7726 25.2105 19.9661 25.0578C19.1545 24.9007 18.315 24.9798 17.5471 25.2857C16.7882 25.5859 16.1345 26.1028 15.6673 26.7719C15.2094 27.4303 14.9633 28.2128 14.9619 29.0148C14.9619 30.0838 15.4019 31.1091 16.1852 31.8653C16.9684 32.6219 18.0308 33.0482 19.1392 33.0501ZM37.952 33.0501C38.7775 33.0569 39.5875 32.8257 40.285 32.3841C40.9711 31.9505 41.5124 31.3221 41.8396 30.5794C42.1614 29.8457 42.2489 29.0306 42.0903 28.2453C41.9293 27.455 41.5324 26.732 40.952 26.1719C40.3614 25.6006 39.6171 25.214 38.8102 25.0592C37.9979 24.9005 37.1571 24.9784 36.3879 25.2838C35.6278 25.5833 34.9729 26.1 34.5048 26.7695C34.0457 27.4284 33.7989 28.2118 33.7975 29.0148C33.7956 30.0805 34.2314 31.1034 35.0103 31.8601C35.7888 32.6162 36.8469 33.0444 37.952 33.0501Z" fill="black"/>
<path d="M17.8475 29.2711C18.1575 29.2728 18.4613 29.1853 18.7228 29.019C18.9825 28.8529 19.1852 28.617 19.3053 28.3402C19.425 28.0643 19.4573 27.7583 19.3979 27.4635C19.3369 27.1669 19.1877 26.8956 18.9697 26.6855C18.7475 26.4714 18.4677 26.3265 18.1646 26.2687C17.8596 26.2096 17.544 26.2391 17.2551 26.3536C16.9699 26.4665 16.7242 26.6606 16.5483 26.9119C16.3756 27.1591 16.2829 27.4534 16.283 27.7549C16.283 28.1556 16.4477 28.5401 16.7406 28.8244C17.0382 29.1104 17.4348 29.2707 17.8475 29.2711ZM36.6603 29.2711C36.9702 29.2728 37.2741 29.1853 37.5356 29.019C37.7953 28.8529 37.998 28.617 38.1181 28.3402C38.2378 28.0643 38.2701 27.7583 38.2106 27.4635C38.1497 27.1669 38.0005 26.8956 37.7825 26.6855C37.5602 26.4714 37.2805 26.3265 36.9774 26.2687C36.6723 26.2096 36.3568 26.2391 36.0679 26.3536C35.7827 26.4665 35.537 26.6606 35.3611 26.9119C35.1884 27.1591 35.0957 27.4534 35.0958 27.7549C35.0958 28.1537 35.2581 28.5353 35.5481 28.8192C35.8377 29.103 36.2317 29.2654 36.6451 29.2711H36.6603Z" fill="white"/>
</svg>
