<svg width="60" height="60" viewBox="0 0 60 60" fill="none" xmlns="http://www.w3.org/2000/svg">
<g clip-path="url(#clip0_939_514)">
<path d="M51.875 2H8.125C4.74226 2 2 4.74226 2 8.125V51.875C2 55.2577 4.74226 58 8.125 58H51.875C55.2577 58 58 55.2577 58 51.875V8.125C58 4.74226 55.2577 2 51.875 2Z" fill="#092E20"/>
<path d="M42.7702 22.6058V37.0928C42.7702 42.0848 42.4048 44.4788 41.3093 46.5484C40.2947 48.5371 38.9556 49.795 36.1961 51.1747L30.3927 48.4153C33.1524 47.1168 34.4916 45.9807 35.3436 44.2349C36.2366 42.4499 36.521 40.38 36.521 34.9423V22.6058H42.7702ZM32.8282 12.9546V41.8818C29.6225 42.4905 27.2687 42.7341 24.7122 42.7341C17.0828 42.7341 13.106 39.2848 13.106 32.6699C13.106 26.2986 17.3265 22.1596 23.8597 22.1596C24.8743 22.1596 25.6453 22.2405 26.5788 22.484V12.955L32.8282 12.9546ZM24.4687 27.1913C21.3034 27.1913 19.477 29.1393 19.477 32.5478C19.477 35.8759 21.2222 37.7018 24.4282 37.7018C25.1177 37.7018 25.686 37.6612 26.5788 37.5401V27.5157C25.8483 27.2725 25.2398 27.1913 24.4687 27.1913ZM42.7702 12.9878V19.3998H36.521V12.9881L42.7702 12.9878Z" fill="#FFFFFD"/>
</g>
<defs>
<clipPath id="clip0_939_514">
<rect width="56" height="56" fill="white" transform="translate(2 2)"/>
</clipPath>
</defs>
</svg>
