<svg width="60" height="60" viewBox="0 0 60 60" fill="none" xmlns="http://www.w3.org/2000/svg">
<g clip-path="url(#clip0_939_514)">
<path d="M53.4375 0H6.5625C2.93813 0 0 2.93813 0 6.5625V53.4375C0 57.0619 2.93813 60 6.5625 60H53.4375C57.0619 60 60 57.0619 60 53.4375V6.5625C60 2.93813 57.0619 0 53.4375 0Z" fill="#092E20"/>
<path d="M43.6823 22.0777V37.5994C43.6823 42.948 43.2908 45.513 42.117 47.7304C41.0299 49.8611 39.5952 51.2089 36.6386 52.6871L30.4206 49.7306C33.3775 48.3394 34.8123 47.1221 35.7252 45.2516C36.682 43.3391 36.9867 41.1214 36.9867 35.2953V22.0777H43.6823ZM33.0302 11.7371V42.7305C29.5954 43.3826 27.0735 43.6436 24.3344 43.6436C16.1601 43.6436 11.8992 39.948 11.8992 32.8606C11.8992 26.0342 16.4212 21.5996 23.421 21.5996C24.5081 21.5996 25.3342 21.6863 26.3343 21.9471V11.7375L33.0302 11.7371ZM24.0735 26.9907C20.6821 26.9907 18.7253 29.0778 18.7253 32.7298C18.7253 36.2956 20.5952 38.2519 24.0302 38.2519C24.7689 38.2519 25.3778 38.2084 26.3343 38.0786V27.3383C25.5517 27.0776 24.8997 26.9907 24.0735 26.9907ZM43.6823 11.7727V18.6427H36.9867V11.7729L43.6823 11.7727Z" fill="#FFFFFD"/>
</g>
<defs>
<clipPath id="clip0_939_514">
<rect width="60" height="60" fill="white"/>
</clipPath>
</defs>
</svg>
