<svg width="107" height="60" viewBox="0 0 107 60" fill="none" xmlns="http://www.w3.org/2000/svg">
<g clip-path="url(#clip0_939_8)">
<path d="M52.9221 10.8314V14.3522H36.7795L36.7552 14.3292L36.7322 14.3514H5.13579C5.12039 14.3514 5.10563 14.3574 5.09474 14.3682C5.08386 14.379 5.07777 14.3936 5.07777 14.4088V29.9578H0V30.3H5.07859V45.6537C5.0788 45.6687 5.08501 45.6831 5.09587 45.6939C5.10675 45.7044 5.12136 45.7104 5.13661 45.7104H20.7495V52.7157H21.0952V45.7104H36.583V45.7677H36.674L36.7546 45.8472L36.8383 45.7677H36.9286V45.7104H52.9221V48.2091H53.2667V45.7104H69.3281V45.7677H69.4184L69.5015 45.8472L69.5818 45.7677H69.6731V45.7104H85.1524V49.1187H85.4974V45.7104H101.122C101.137 45.7101 101.152 45.7038 101.162 45.6933C101.173 45.6825 101.179 45.6681 101.179 45.6528V30.3006H105.269V29.9587H101.179V14.4088C101.179 14.3936 101.173 14.379 101.162 14.3682C101.151 14.3574 101.136 14.3514 101.121 14.3514H85.4974V14.3407H85.1524V14.3522H69.5254L69.5021 14.3292L69.4781 14.3514H53.2676V10.8323L52.9221 10.8314ZM5.2742 14.4654H20.7495V29.8135L5.2742 14.4654ZM21.0952 14.4654H36.583V14.4982L21.0952 29.8036V14.4654ZM36.9286 14.4654H52.9221V29.8102L36.9286 14.495V14.4654ZM53.2676 14.4654H69.329V14.495L53.2676 29.8758V14.4654ZM69.6737 14.4654H85.1524V29.793L69.6737 14.499V14.4654ZM85.4974 14.4654H100.982L85.4974 29.8225V14.4654ZM5.19299 14.5466L20.7321 29.9578H5.19299V14.5466ZM101.062 14.5466V29.9578H85.5228L101.062 14.5466ZM36.9268 14.6533L52.9078 29.9578H36.9268V14.6533ZM69.3266 14.6533V29.9578H53.3456L69.3266 14.6533ZM36.5812 14.6598V29.957H21.1001L36.5812 14.6598ZM69.6722 14.6598L85.1509 29.9546V29.9578H69.6722V14.6598ZM5.19214 30.2991H20.5912L5.19214 45.516V30.2991ZM21.2386 30.2991H36.5812V45.516L21.2386 30.2991ZM36.9268 30.2991H52.8232L36.9268 45.5232V30.2991ZM53.431 30.2991H69.3272V45.5232L53.431 30.2991ZM69.6731 30.2991H85.0157L69.6731 45.516V30.2991ZM85.4964 30.2991H85.4998L100.98 45.597H85.4955L85.4964 30.2991ZM85.6629 30.2991H101.062V45.516L85.6629 30.2991ZM53.2658 30.3L69.2387 45.597H53.2658V30.3ZM20.7487 30.3048V45.5955H5.2742L20.7487 30.3048ZM21.0943 30.3162L36.5018 45.5955H21.0943V30.3162ZM85.1509 30.3261V45.5964H69.7549L85.1509 30.3261ZM52.9212 30.3648V45.5955H37.0165L52.9212 30.3648Z" fill="#CECECE"/>
<path d="M53.0951 18.9302C52.8705 18.931 52.651 18.9958 52.4627 19.1169C52.2745 19.238 52.1253 19.4103 52.0332 19.613C51.9413 19.8158 51.9101 20.0405 51.9441 20.2603C51.9777 20.48 52.0744 20.6855 52.2233 20.8522L24.1844 36.6252L24.2143 36.6753C26.0022 39.6636 28.1855 42.4041 30.891 44.8161L30.934 44.8545L30.9722 44.811L52.3127 20.9424C52.453 21.0691 52.6228 21.16 52.8068 21.2073C52.9908 21.2545 53.1836 21.2566 53.3685 21.2133C53.5537 21.1701 53.7253 21.0829 53.8684 20.9592C54.0118 20.8355 54.1224 20.6791 54.1906 20.5036C54.2591 20.328 54.2831 20.1386 54.2606 19.9518C54.2385 19.765 54.1703 19.5864 54.0627 19.4315C53.9548 19.2766 53.8102 19.15 53.6419 19.0628C53.4734 18.9756 53.2851 18.9295 53.0951 18.9302ZM53.0951 19.0434C53.2682 19.0435 53.4385 19.0858 53.591 19.1666C53.7438 19.2475 53.8738 19.3642 53.9699 19.5066C54.066 19.649 54.1251 19.8127 54.1421 19.9831C54.1591 20.1535 54.1333 20.3255 54.0669 20.4837C54.0008 20.6419 53.8963 20.7815 53.7626 20.8902C53.6289 20.9989 53.4701 21.0733 53.3003 21.1068C53.1308 21.1403 52.9553 21.1319 52.7898 21.0824C52.624 21.0328 52.4733 20.9436 52.3509 20.8226C52.2032 20.677 52.1029 20.4913 52.062 20.2891C52.0214 20.0868 52.042 19.8772 52.1217 19.6867C52.2014 19.4961 52.3366 19.3333 52.5097 19.2188C52.6831 19.1043 52.8868 19.0432 53.0951 19.0434ZM93.1627 19.3928V19.5077H94.4477V44.8635H93.1627V44.9784H95.8475V44.8635H94.5629V19.5077H95.8475V19.3928H93.1627ZM15.52 19.8136L15.462 19.8161L15.4015 19.8194L15.3477 19.8227V23.1974L15.4106 23.1909L15.4629 23.1876C15.533 23.191 15.6017 23.208 15.6652 23.2377C15.7286 23.2674 15.7855 23.3092 15.8327 23.3606C15.8798 23.4121 15.9162 23.4722 15.9399 23.5376C15.9636 23.603 15.974 23.6723 15.9706 23.7417C15.9671 23.8111 15.9499 23.8791 15.9199 23.9419C15.8899 24.0047 15.8477 24.061 15.7958 24.1077C15.7438 24.1543 15.683 24.1904 15.6169 24.2138C15.5508 24.2372 15.4807 24.2476 15.4106 24.2442L15.3477 24.2376V27.614L15.4024 27.6165L15.4604 27.6181C16.505 27.6257 17.5124 27.2223 18.2566 26.4967C19.0007 25.771 19.423 24.7825 19.4307 23.7487C19.4384 22.7148 19.0308 21.7203 18.2976 20.9839C17.5644 20.2475 16.5655 19.8295 15.5209 19.8218L15.52 19.8136ZM15.4637 19.9301C15.9662 19.9301 16.4637 20.0281 16.928 20.2185C17.3922 20.4088 17.8139 20.6878 18.1692 21.0395C18.5244 21.3913 18.8062 21.8088 18.9983 22.2683C19.1904 22.7278 19.2892 23.2202 19.289 23.7175C19.2891 24.2148 19.1902 24.7072 18.998 25.1667C18.8057 25.6261 18.5239 26.0436 18.1686 26.3953C17.8133 26.7469 17.3915 27.0258 16.9272 27.2161C16.4629 27.4063 15.9654 27.5042 15.4629 27.5041V24.3606C15.6313 24.3547 15.7908 24.2843 15.9079 24.1642C16.0249 24.0442 16.0903 23.8839 16.0903 23.7171C16.0903 23.5503 16.0249 23.39 15.9079 23.27C15.7908 23.1499 15.6313 23.0795 15.4629 23.0736L15.4637 19.9301ZM65.1796 20.0876C64.6297 20.1063 64.1086 20.338 63.7264 20.7296C63.3438 21.1211 63.1301 21.6444 63.1301 22.1889C63.1301 22.7334 63.3438 23.2566 63.7264 23.6482C64.1086 24.0397 64.6297 24.269 65.1796 24.2876V35.4414H65.1744C64.6185 35.4522 64.0889 35.6784 63.6997 36.0717C63.3101 36.4647 63.0922 36.993 63.0922 37.5435C63.0922 38.094 63.3101 38.6223 63.6997 39.0153C64.0889 39.4083 64.6185 39.6348 65.1744 39.6456C65.7249 39.6426 66.253 39.4278 66.6465 39.0471C67.0402 38.6661 67.2691 38.1489 67.2846 37.6041C67.3003 37.0596 67.1015 36.5304 66.7301 36.1281C66.3588 35.7258 65.8441 35.4819 65.2948 35.448V24.2868C66.4394 24.2565 67.3603 23.3295 67.3603 22.1884C67.3603 21.0474 66.4403 20.1196 65.2948 20.0893L65.1796 20.0876ZM65.1796 20.2041V24.1744C64.6476 24.1744 64.1374 23.9653 63.7612 23.593C63.385 23.2207 63.1737 22.7158 63.1737 22.1893C63.1737 21.6628 63.385 21.1579 63.7612 20.7856C64.1374 20.4133 64.6476 20.2041 65.1796 20.2041ZM65.2948 20.2041C65.8268 20.2041 66.337 20.4133 66.7131 20.7856C67.0893 21.1579 67.3006 21.6628 67.3006 22.1893C67.3006 22.7158 67.0893 23.2207 66.7131 23.593C66.337 23.9653 65.8268 24.1744 65.2948 24.1744V20.2041ZM52.0192 21.0982L30.9258 44.6904C28.265 42.3099 26.1116 39.6093 24.3444 36.6654L52.0192 21.0982ZM26.2525 21.798V24.455H26.3669V23.1835H31.8086V24.455H31.9247V21.798H31.8086V23.0695H26.3669V21.798H26.2525ZM46.8869 32.22V32.334H48.1715V40.593H46.8869V40.707H49.5708V40.5921H48.2858V32.3349H49.5708V32.2209L46.8869 32.22ZM65.1744 35.5545H65.1796V39.5298H65.1744C64.9107 39.5304 64.6491 39.4791 64.4054 39.3795C64.1614 39.2796 63.9398 39.1335 63.753 38.9487C63.5666 38.7642 63.4184 38.5449 63.3177 38.3034C63.2168 38.0622 63.1649 37.8033 63.1652 37.5423C63.1649 37.281 63.2168 37.0224 63.3177 36.7809C63.4184 36.5397 63.5666 36.3204 63.753 36.1359C63.9398 35.9511 64.1614 35.8047 64.4054 35.7051C64.6491 35.6052 64.9107 35.5542 65.1744 35.5545ZM65.2939 35.5605C65.805 35.5896 66.2857 35.811 66.6371 36.1794C66.9887 36.5478 67.1845 37.0356 67.1845 37.5423C67.1845 38.049 66.9887 38.5365 66.6371 38.9049C66.2857 39.2736 65.805 39.495 65.2939 39.5241V35.5605ZM76.2707 35.9172V38.5749H76.3868V37.3035H86.3518V38.5749H86.4679V35.9172H86.3518V37.1886H76.3868V35.9172H76.2707Z" fill="#6C6C6C"/>
<path d="M66.7808 13.6965L66.5347 13.6973C65.2791 13.717 62.5876 13.712 60.1773 14.7916C57.7677 15.8711 55.6491 18.1089 55.6491 22.3778C55.6491 24.1825 56.2575 25.7411 57.2124 27.0782H37.9738V18.4559H50.6037V14.0664H32.8945V18.4551L32.896 27.0782L32.8945 31.467L32.896 41.6856L29.9286 41.6676L25.8223 41.6862L19.3943 31.8033C20.9012 31.188 22.3758 30.3036 23.5106 29.0642C24.7456 27.7164 25.5712 25.9552 25.5712 23.7756V23.1489C25.5712 19.9604 24.3428 17.6725 22.3385 16.214C20.3351 14.7555 17.5939 14.1107 14.547 14.0426H4.76611V18.4805H4.79097V28.9059H4.76611V33.0492H4.79097V46.0545H9.86874V33.0363L14.9747 33.0222L21.9846 44.3088L21.9945 44.322C22.5888 45.0996 23.8222 46.8273 25.8157 48.0708L25.9856 48.1776L30.0148 46.0734L33.2425 46.0545H50.6028V41.4927H37.9729V31.467H62.9456L62.9713 31.4793C64.5188 32.1789 66.3965 32.8122 67.8585 33.7251C69.3199 34.6374 70.3427 35.7669 70.3427 37.5603C70.3427 39.4911 69.4624 40.5018 68.2207 41.1153C66.9791 41.7291 65.3585 41.8809 64.0241 41.8809C61.4653 41.8962 58.4531 40.8201 55.8828 39.9711L55.4284 39.8211V44.6469L55.63 44.7378C58.153 45.8766 61.8897 46.3212 64.0308 46.2399C65.5674 46.2399 68.3723 45.9414 70.8483 44.715C73.3283 43.4868 75.4775 41.2614 75.4775 37.5603C75.4775 34.6956 74.3883 32.6415 72.8642 31.1715C71.3391 29.7016 69.3969 28.8009 67.6621 28.1315C67.003 27.8797 65.7556 27.3867 64.5149 26.7181C63.2763 26.0512 62.0513 25.1981 61.4396 24.3031C61.0582 23.6912 60.8236 23.0103 60.783 22.3664C60.7863 20.414 61.7057 19.3616 62.8968 18.7406C64.0887 18.1188 65.5741 17.9859 66.5447 18.0556C68.4969 18.1951 71.8605 19.2861 72.9363 19.7397L73.2786 19.8849L73.776 18.437H87.2413V46.0545H92.3188V18.4362H101.445V14.0853H92.3188V14.0656H87.2413V14.0853H69.697C68.7221 13.8523 67.7439 13.7055 66.7808 13.6965ZM66.7745 14.3798C67.686 14.388 68.6318 14.5299 69.5842 14.7604L69.6249 14.7703H87.9343V14.7506H91.631V14.7703H100.757V17.7537H91.631V45.3711H87.9343V17.7537H73.2843L72.8617 18.9818C71.5049 18.4485 68.5896 17.5167 66.5968 17.3739C65.5195 17.2976 63.9377 17.4264 62.5769 18.1368C61.215 18.8464 60.0934 20.1958 60.0934 22.3778V22.3983C60.1416 23.1809 60.4201 23.9684 60.8585 24.6706L60.8618 24.6764L60.8661 24.6821C61.5972 25.7551 62.901 26.6262 64.1875 27.3194C65.4737 28.0126 66.7478 28.5146 67.415 28.7689C69.1144 29.4251 70.9693 30.2979 72.3834 31.662C73.7984 33.0264 74.7888 34.8645 74.7888 37.5603C74.7888 41.0055 72.8724 42.9495 70.5415 44.1045C68.2107 45.2595 65.467 45.5574 64.0265 45.5574H64.0126C62.0589 45.6321 58.4755 45.1947 56.1214 44.1957V40.7709C58.5816 41.592 61.4305 42.5805 64.0284 42.5649C65.4125 42.5649 67.1216 42.4245 68.5324 41.7273C69.9432 41.0301 71.0357 39.7095 71.0357 37.5603C71.0357 35.502 69.7922 34.1232 68.2289 33.147C66.6656 32.1708 64.7568 31.5351 63.2605 30.8583L63.1696 30.8157L63.1008 30.7845H37.2833V42.1761H49.9131V45.3705H33.241L29.8424 45.39L26.0246 47.3835C24.2698 46.2375 23.15 44.7009 22.5557 43.9218L15.3609 32.3373L9.17744 32.3538V45.3705H5.48309V32.3661H5.45823V29.5892H5.48309V17.7972H5.45823V14.726H14.5329C17.4895 14.7924 20.0922 15.4265 21.9307 16.7644C23.77 18.1032 24.8824 20.1302 24.8824 23.1489V23.7756C24.8824 25.7854 24.138 27.3629 23.0008 28.6056C21.8627 29.8476 20.3218 30.7467 18.7569 31.3323L18.359 31.4817C20.7321 35.1051 23.087 38.7405 25.4477 42.3714L29.9295 42.3507L33.5881 42.372V30.7836L33.5865 27.7616L33.5881 17.7718L33.5865 14.7497H49.9156V17.7718H37.2833V27.7616H58.6074L58.1439 27.2029C57.0265 25.8551 56.3402 24.2678 56.3402 22.3778C56.3402 18.3255 58.2309 16.4142 60.4632 15.4134C62.6946 14.4143 65.2767 14.4003 66.5471 14.3806C66.6229 14.3795 66.6984 14.3787 66.7745 14.3798ZM9.17744 17.798V29.59H13.3691C15.1313 29.59 16.9839 29.3341 18.4361 28.4687C19.8875 27.6032 20.9004 26.0897 20.9004 23.7765V23.1497C20.9004 20.8078 19.5717 19.4141 18.1352 18.6782C16.6996 17.9416 15.1695 17.798 14.5387 17.798H9.17744ZM9.86874 18.4814H14.5387C15.0526 18.4814 16.5322 18.6249 17.8178 19.2844C19.1034 19.944 20.2099 21.0555 20.2099 23.1497V23.7765C20.2099 25.8994 19.357 27.1209 18.0797 27.883C16.8024 28.645 15.0617 28.9059 13.3691 28.9059H9.86874V18.4814Z" fill="#7F2D2D"/>
<path d="M9.59326 0C9.56277 0.000214774 9.53357 0.012296 9.51202 0.033633C9.49047 0.0549702 9.47825 0.0838488 9.47804 0.114023V2.36496C9.47804 2.48582 9.4855 2.63922 9.50041 2.82515C9.50623 2.9039 9.51284 2.9482 9.51866 3.01302C9.42829 2.91047 9.34624 2.80219 9.2335 2.71687C9.05116 2.57469 8.83675 2.46258 8.59031 2.38054C8.31069 2.29369 8.01877 2.25187 7.72576 2.25668C6.9524 2.25668 6.315 2.51918 5.8442 3.03762C5.36924 3.5577 5.13965 4.31895 5.13965 5.30331C5.13965 6.27786 5.36342 7.03089 5.82762 7.54359C6.29178 8.05383 6.93003 8.30976 7.70918 8.30976C8.04239 8.30976 8.33416 8.26848 8.58448 8.18589C8.83536 8.10003 9.05253 7.98438 9.23435 7.83891C9.362 7.73883 9.454 7.61988 9.55016 7.50339L9.65377 8.11206C9.65844 8.13858 9.67235 8.16264 9.69308 8.18004C9.71385 8.19741 9.74013 8.20704 9.76732 8.20722H10.4967C10.5274 8.20722 10.5567 8.19525 10.5785 8.17389C10.6002 8.15253 10.6126 8.12352 10.6128 8.09319V0.114023C10.6126 0.0837072 10.6002 0.0547056 10.5785 0.0333453C10.5567 0.0119849 10.5274 -7.73324e-07 10.4967 0H9.59326ZM13.0041 0.256758C12.8326 0.253276 12.6658 0.312573 12.5358 0.423279C12.4032 0.539766 12.3452 0.718593 12.3452 0.929415C12.3452 1.13777 12.4032 1.31496 12.5341 1.43391C12.6641 1.54491 12.8325 1.60532 13.0041 1.60207C13.1765 1.60207 13.3357 1.54465 13.46 1.43555C13.5984 1.31824 13.6631 1.13859 13.6631 0.929415C13.6631 0.716952 13.5984 0.536484 13.4592 0.42246C13.333 0.313548 13.1715 0.254544 13.0041 0.256758ZM31.0473 2.14102C30.5556 2.13992 30.1314 2.21867 29.775 2.37727C29.4194 2.53558 29.1417 2.77102 28.9511 3.07698C28.7605 3.38133 28.6676 3.74802 28.6676 4.16802C28.6676 4.56669 28.7695 4.92435 28.9743 5.23113C29.1426 5.47476 29.3664 5.64948 29.6175 5.77992C29.4393 5.89803 29.2859 6.02109 29.1815 6.15399C29.0468 6.32865 28.975 6.54294 28.9776 6.76266C28.9776 6.96363 29.0414 7.14903 29.1658 7.30488C29.2315 7.38417 29.3056 7.45473 29.3862 7.51323C29.0688 7.61085 28.7886 7.74867 28.5847 7.96113C28.332 8.22591 28.1931 8.57805 28.1993 8.94222C28.1993 9.46968 28.4372 9.90036 28.8873 10.1907C29.339 10.486 29.9665 10.6255 30.7638 10.6255C31.7924 10.6255 32.5899 10.459 33.1553 10.1104C33.7188 9.76173 34.0147 9.23754 34.0147 8.58294C34.0147 8.06448 33.8225 7.64613 33.446 7.36887C33.0731 7.09161 32.5502 6.96198 31.8855 6.96198H30.8342C30.6805 6.96324 30.5265 6.95034 30.3752 6.92343C30.2811 6.90615 30.1928 6.86616 30.1182 6.80694C30.0734 6.76431 30.0518 6.71427 30.0518 6.62976C30.0518 6.50673 30.0867 6.405 30.1621 6.31149C30.2612 6.20259 30.3804 6.11349 30.5135 6.04899C30.675 6.07194 30.836 6.08673 30.9927 6.08673C31.7145 6.08673 32.298 5.91774 32.7257 5.56827C33.1535 5.21637 33.3723 4.72992 33.3723 4.14258C33.3723 3.90087 33.3338 3.67854 33.2562 3.47565C33.2041 3.34194 33.1295 3.23778 33.0592 3.12786L33.9889 3.01956C34.0171 3.01617 34.0429 3.00282 34.0617 2.98199C34.0805 2.96115 34.0908 2.93427 34.0911 2.90637V2.35758C34.0908 2.3274 34.0786 2.29852 34.0571 2.27719C34.0356 2.25585 34.0062 2.24377 33.9759 2.24355H31.9391C31.8573 2.22297 31.7742 2.20654 31.6905 2.19433C31.5844 2.17663 31.4777 2.16404 31.3707 2.1566C31.2631 2.1462 31.1552 2.141 31.0473 2.14102ZM17.8531 2.16152C17.4585 2.16152 17.082 2.2091 16.7234 2.30426C16.3977 2.3876 16.081 2.50188 15.7776 2.64551C15.7513 2.65846 15.7309 2.68083 15.7205 2.70809C15.7102 2.73534 15.7108 2.76546 15.722 2.79234L15.9997 3.43794C16.0058 3.45189 16.0147 3.46452 16.0258 3.47508C16.0369 3.48564 16.05 3.49389 16.0643 3.49938C16.0787 3.5049 16.094 3.50751 16.1093 3.50709C16.1247 3.50667 16.1399 3.50325 16.1539 3.49698C16.4026 3.38271 16.6661 3.28371 16.9446 3.20004C17.216 3.11802 17.5025 3.07698 17.8042 3.07698C18.188 3.07698 18.4681 3.16806 18.6638 3.33948C18.8494 3.50355 18.9572 3.80706 18.9572 4.27548V4.51008L18.0388 4.54617C17.0623 4.57407 16.3255 4.7373 15.8256 5.05641C15.3267 5.37468 15.0647 5.8521 15.0647 6.4452C15.0647 6.83319 15.1484 7.1646 15.3233 7.42956C15.4991 7.6896 15.7403 7.88811 16.0378 8.01609C16.3374 8.14242 16.6764 8.2053 17.0532 8.20476C17.4052 8.2053 17.7064 8.16975 17.9567 8.09811C18.2087 8.02212 18.4314 7.91136 18.6248 7.76589C18.7707 7.6527 18.9083 7.50339 19.0442 7.35165L19.1835 8.01198C19.1891 8.03733 19.2032 8.06004 19.2235 8.07642C19.2438 8.0928 19.2692 8.10189 19.2954 8.10222H19.9543C19.985 8.10222 20.0144 8.09025 20.0361 8.06889C20.0578 8.04753 20.0702 8.01852 20.0704 7.98819V4.16802C20.0704 3.48879 19.8897 2.97035 19.5134 2.64223C19.1396 2.31492 18.5809 2.16152 17.8531 2.16152ZM24.7942 2.25668C24.5146 2.25668 24.248 2.29414 23.9943 2.36906C23.7463 2.43658 23.5119 2.54592 23.3014 2.69227C23.1543 2.79565 23.0236 2.92005 22.9135 3.06141L22.8115 2.45437C22.8069 2.42786 22.7929 2.4038 22.7722 2.38641C22.7514 2.36902 22.7251 2.3594 22.6979 2.35922H21.9685C21.938 2.35943 21.9089 2.37151 21.8873 2.39285C21.8657 2.41419 21.8535 2.44307 21.8533 2.47324V8.09319C21.8533 8.12352 21.8654 8.15262 21.887 8.17413C21.9086 8.19564 21.9379 8.20782 21.9685 8.20806H22.872C22.9028 8.20806 22.9323 8.19594 22.9541 8.1744C22.9758 8.15286 22.9881 8.12367 22.9881 8.09319V5.14992C22.9881 4.49448 23.1199 4.00968 23.3669 3.68565C23.6081 3.36903 24.0291 3.20169 24.6682 3.20169C25.1175 3.20169 25.4275 3.31161 25.6256 3.51585C25.8278 3.72093 25.9364 4.03839 25.9364 4.48794V8.09319C25.9364 8.12352 25.9485 8.15262 25.9701 8.17413C25.9917 8.19564 26.021 8.20782 26.0516 8.20806H26.9443C26.975 8.20782 27.0043 8.19564 27.0259 8.17413C27.0475 8.15262 27.0596 8.12352 27.0596 8.09319V4.43214C27.0596 3.69222 26.8714 3.13194 26.4777 2.7784C26.0873 2.42566 25.5195 2.25668 24.7942 2.25668ZM37.666 2.26734C37.0791 2.2668 36.5686 2.38601 36.1342 2.625C35.7041 2.86125 35.3715 3.21069 35.1405 3.6627C34.9083 4.11306 34.7956 4.65528 34.7956 5.28363C34.7949 5.75613 34.8629 6.18078 34.9987 6.55758C35.1378 6.93327 35.333 7.25319 35.5837 7.51569C35.8393 7.77711 36.1397 7.97754 36.484 8.11698C36.8323 8.25204 37.2146 8.32044 37.6278 8.32044C38.0676 8.32098 38.4644 8.25345 38.8182 8.11782C39.1753 7.97835 39.479 7.77765 39.73 7.51569C39.9819 7.25265 40.1738 6.933 40.306 6.55677C40.4375 6.1794 40.503 5.75505 40.5024 5.28363C40.5024 4.65774 40.3863 4.11714 40.1459 3.66678C39.9255 3.2292 39.5784 2.86652 39.1489 2.625C38.7218 2.38601 38.228 2.2668 37.666 2.26734ZM12.5408 2.35922C12.5101 2.35922 12.4808 2.37121 12.459 2.39257C12.4373 2.41393 12.4249 2.44293 12.4247 2.47324V9.00129C12.4247 9.32613 12.3509 9.52464 12.2366 9.62226C12.1073 9.73218 11.939 9.7896 11.7127 9.7896C11.5735 9.7896 11.4497 9.78003 11.3414 9.76089L11.3381 9.76008C11.2276 9.74277 11.1185 9.71811 11.0115 9.68625C10.9942 9.68115 10.9759 9.6801 10.9581 9.68322C10.9403 9.68634 10.9235 9.69351 10.909 9.70419C10.8945 9.71487 10.8828 9.72873 10.8746 9.74469C10.8665 9.76068 10.8623 9.77829 10.8623 9.79617V10.4885C10.8626 10.5123 10.8703 10.5354 10.8844 10.5547C10.8985 10.5739 10.9183 10.5883 10.941 10.596C11.0493 10.6321 11.1745 10.6624 11.3165 10.687C11.4629 10.716 11.6315 10.7305 11.8221 10.7305C12.2059 10.7305 12.53 10.6632 12.7919 10.5213C13.0482 10.3841 13.2524 10.1682 13.3738 9.90609C13.4981 9.64359 13.56 9.33516 13.5595 8.98077V2.47324C13.5592 2.44293 13.5469 2.41393 13.5252 2.39257C13.5034 2.37121 13.4741 2.35922 13.4434 2.35922H12.5408ZM31.0151 2.99906C31.4277 2.99906 31.7196 3.09915 31.9143 3.28617C32.1083 3.46827 32.211 3.74637 32.211 4.1475C32.211 4.51992 32.1116 4.78242 31.9209 4.96206C31.7302 5.14173 31.4386 5.23851 31.0258 5.23851C30.628 5.23851 30.3386 5.14254 30.1397 4.96125C29.9408 4.77996 29.8397 4.52403 29.8397 4.1631C29.8397 3.76605 29.9424 3.48468 30.1372 3.2952C30.337 3.10077 30.6214 2.99906 31.0151 2.99906ZM7.85093 3.19266C8.49248 3.19266 8.90029 3.37065 9.12576 3.7152C9.362 4.07121 9.4888 4.59867 9.4888 5.29923V5.45343C9.4888 6.11214 9.35785 6.59367 9.11582 6.90702C8.8771 7.21383 8.46929 7.3746 7.85093 7.3746C7.31795 7.3746 6.94661 7.2048 6.69216 6.85863C6.43934 6.50919 6.30505 6.00057 6.30505 5.32464C6.30505 4.64625 6.44098 4.1229 6.69877 3.74802C6.95655 3.37314 7.32374 3.19266 7.85093 3.19266ZM37.6444 3.21315C38.0488 3.21315 38.3671 3.29847 38.6084 3.46008C38.8539 3.62415 39.0337 3.85629 39.1537 4.16556C39.275 4.47399 39.3356 4.84749 39.3362 5.28444C39.3356 5.72469 39.275 6.10257 39.1537 6.41811C39.0507 6.70803 38.8579 6.95835 38.6026 7.13343C38.3607 7.29996 38.0473 7.38528 37.6493 7.38528C37.2491 7.38528 36.9333 7.29915 36.6914 7.13427C36.4389 6.95727 36.2482 6.70701 36.1457 6.41811C36.0242 6.10257 35.9635 5.72469 35.9635 5.28444C35.9635 4.61673 36.1027 4.1073 36.3697 3.74718C36.6368 3.39279 37.0476 3.21315 37.6444 3.21315ZM18.9464 5.33778V5.7381C18.9464 6.26883 18.7898 6.6429 18.4814 6.89637C18.1664 7.15476 17.7636 7.2852 17.2538 7.2852C16.9306 7.2852 16.6835 7.21383 16.5012 7.07766C16.3246 6.94641 16.2359 6.75282 16.2359 6.45585C16.2359 6.1179 16.3644 5.87835 16.6421 5.69379C16.914 5.51496 17.4221 5.39682 18.1565 5.36976L18.9464 5.33778ZM30.5407 7.98492H31.5753C31.8748 7.98492 32.1249 8.00487 32.3256 8.0448C32.5196 8.07927 32.6554 8.14569 32.7433 8.23677C32.8261 8.32617 32.8758 8.46399 32.8758 8.67153C32.8803 8.87505 32.803 9.07203 32.6612 9.21948C32.5202 9.37533 32.2965 9.50415 31.984 9.59274C31.6757 9.6846 31.2774 9.7311 30.7911 9.73218C30.2988 9.73218 29.93 9.65097 29.6847 9.50661C29.4401 9.36468 29.3332 9.18258 29.3332 8.91186C29.3332 8.70105 29.3805 8.53452 29.4708 8.40246C29.5653 8.26794 29.6988 8.16702 29.8811 8.09484C30.0635 8.02212 30.2834 7.98546 30.5407 7.98492ZM45.5602 50.1177C45.1398 50.1168 44.7778 50.1909 44.4744 50.34C44.1685 50.4924 43.9224 50.7411 43.775 51.0471C43.615 51.3639 43.5395 51.7635 43.5395 52.2474V52.5345L42.5689 52.7937C42.5446 52.8003 42.5228 52.8147 42.5076 52.8345C42.4922 52.8543 42.4837 52.8786 42.4834 52.9035V53.3136C42.4837 53.3439 42.4958 53.3727 42.5173 53.394C42.5392 53.4156 42.5683 53.4276 42.5986 53.4279H43.5395V58.2675C43.5398 58.2978 43.5519 58.3266 43.5735 58.3479C43.595 58.3692 43.6241 58.3815 43.6547 58.3815H44.5583C44.589 58.3815 44.6184 58.3695 44.6402 58.3479C44.662 58.3266 44.6741 58.2972 44.6741 58.2669V53.427H46.0443C46.0746 53.4267 46.1037 53.4147 46.1253 53.3937C46.1468 53.3724 46.1592 53.3439 46.1595 53.3136V52.6467C46.1595 52.6167 46.1471 52.5879 46.1256 52.5663C46.104 52.545 46.0749 52.533 46.0443 52.5327H44.6735V52.2375C44.6735 51.8028 44.7554 51.4992 44.8939 51.3219C45.0373 51.1398 45.2504 51.048 45.5711 51.048C45.7224 51.048 45.87 51.0642 46.0137 51.0963C46.1674 51.1272 46.3056 51.1608 46.4242 51.1974C46.4527 51.2061 46.4836 51.2034 46.5105 51.1899C46.5372 51.1764 46.5575 51.1533 46.5675 51.1251L46.8013 50.4534C46.811 50.4246 46.8088 50.3931 46.7952 50.3661C46.7819 50.3388 46.7579 50.3181 46.7291 50.3082C46.5584 50.2533 46.3847 50.2095 46.2086 50.1768C45.9949 50.1363 45.7779 50.1165 45.5602 50.1177ZM96.2112 50.1744C96.1806 50.1744 96.1512 50.1864 96.1294 50.2077C96.1075 50.229 96.0954 50.2581 96.0951 50.2884V58.2675C96.0954 58.2978 96.1075 58.3269 96.1294 58.3482C96.1512 58.3698 96.1806 58.3815 96.2112 58.3815H97.1097C97.14 58.3812 97.1691 58.3689 97.1906 58.3473C97.2121 58.326 97.224 58.2969 97.224 58.2669V56.2833L97.8175 55.7706L99.8491 58.3383C99.86 58.3518 99.874 58.3626 99.8898 58.3704C99.9055 58.3779 99.9228 58.3818 99.9404 58.3815H101.029C101.05 58.3818 101.072 58.3758 101.09 58.3644C101.108 58.3533 101.123 58.3371 101.133 58.3176C101.142 58.2984 101.146 58.2768 101.144 58.2555C101.142 58.2342 101.133 58.2138 101.12 58.197L98.6075 55.0554L100.936 52.7271C100.953 52.7112 100.964 52.6908 100.968 52.6686C100.972 52.6467 100.97 52.6236 100.961 52.6029C100.953 52.5822 100.938 52.5642 100.919 52.5519C100.9 52.5393 100.877 52.5327 100.855 52.5327H99.7937C99.7782 52.5327 99.7627 52.536 99.7488 52.5417C99.7345 52.5477 99.7215 52.5564 99.7106 52.5672L97.7296 54.5565C97.6256 54.6651 97.4971 54.8088 97.3467 54.984L97.1958 55.1643L97.2076 54.9405C97.2185 54.7407 97.224 54.5712 97.224 54.4317V50.2884C97.224 50.2581 97.2118 50.229 97.1903 50.2074C97.1688 50.1861 97.1394 50.1738 97.1088 50.1735L96.2112 50.1744ZM71.4141 52.3236C70.863 52.3236 70.3755 52.4484 69.9602 52.6992C69.5434 52.959 69.2109 53.3316 69.002 53.7732C68.7789 54.2331 68.6677 54.7725 68.6689 55.3917C68.6677 56.0259 68.7904 56.5674 69.0369 57.0159C69.283 57.4605 69.6313 57.8034 70.0754 58.0362C70.5241 58.2642 71.0427 58.3782 71.6314 58.3776C71.9894 58.3815 72.3468 58.3515 72.6991 58.2873C73.0055 58.2276 73.3126 58.1334 73.6197 58.0044C73.6406 57.9954 73.6585 57.981 73.6709 57.9621C73.6833 57.9435 73.69 57.9216 73.6903 57.8994V57.1503C73.69 57.1317 73.6852 57.1134 73.6761 57.0972C73.6673 57.0807 73.6542 57.0669 73.6385 57.0564C73.623 57.0462 73.6048 57.0396 73.5863 57.0378C73.5676 57.0357 73.5485 57.0384 73.5312 57.0453C73.2244 57.1695 72.9294 57.2634 72.646 57.3267C72.325 57.3936 71.9973 57.4251 71.6693 57.4212C71.0785 57.4212 70.6393 57.2586 70.3267 56.9379C70.0339 56.6397 69.8735 56.2017 69.846 55.6236H73.8413C73.8719 55.6236 73.9013 55.6116 73.9231 55.59C73.945 55.5687 73.9571 55.5393 73.9571 55.509V54.9813C73.9571 54.4569 73.8567 53.9955 73.6564 53.5968C73.4633 53.205 73.158 52.8783 72.7785 52.6575C72.3956 52.4343 71.9379 52.3236 71.4141 52.3236ZM86.9965 52.3236C86.4096 52.323 85.8988 52.4427 85.4647 52.6821C85.0334 52.9188 84.686 53.2812 84.4698 53.7198C84.2401 54.171 84.1255 54.7113 84.1261 55.3407C84.1261 55.8132 84.1937 56.238 84.3292 56.6148C84.4683 56.9898 84.6632 57.3099 84.9142 57.5727C85.1695 57.8337 85.4702 58.0341 85.8145 58.1742C86.1631 58.3098 86.5454 58.3776 86.9583 58.3776C87.3981 58.3776 87.7949 58.3101 88.1487 58.1748C88.5055 58.0356 88.8098 57.8349 89.0611 57.5727C89.313 57.3102 89.5049 56.9904 89.6365 56.613C89.7738 56.2029 89.8405 55.7727 89.8338 55.3407C89.8341 54.714 89.7153 54.1752 89.4773 53.724C89.2567 53.2863 88.9093 52.9236 88.4794 52.6821C88.0541 52.4427 87.5567 52.3236 86.9965 52.3236ZM54.5894 52.3344C54.1947 52.3344 53.8182 52.3815 53.4596 52.4763C53.1338 52.5594 52.8167 52.6737 52.5129 52.8174C52.4866 52.8306 52.4663 52.8531 52.4563 52.8807C52.4459 52.908 52.4469 52.9383 52.4584 52.965L52.736 53.6106C52.7421 53.6247 52.7509 53.6373 52.7621 53.6478C52.773 53.6583 52.7864 53.6667 52.8006 53.6721C52.8149 53.6778 52.8303 53.6802 52.8455 53.6799C52.8609 53.6796 52.8761 53.676 52.89 53.6697C53.1389 53.5548 53.4023 53.4558 53.6809 53.3721C53.9522 53.2899 54.2384 53.2488 54.5397 53.2488C54.9244 53.2488 55.2045 53.3409 55.4 53.5131C55.5858 53.6772 55.6934 53.9799 55.6934 54.4482V54.6819L54.7749 54.7188C53.7985 54.7461 53.0616 54.9102 52.5611 55.2291C52.0622 55.5474 51.8009 56.025 51.8009 56.6172C51.8009 57.006 51.8839 57.3375 52.0588 57.6015C52.2356 57.8634 52.4747 58.0602 52.7742 58.188C53.074 58.3143 53.4123 58.3773 53.7885 58.3767C54.1408 58.3773 54.4418 58.3416 54.6922 58.2702C54.9447 58.1946 55.1678 58.0842 55.3612 57.9387C55.5079 57.8256 55.6446 57.6753 55.7804 57.5235L55.919 58.1838C55.9244 58.2093 55.9387 58.2321 55.9593 58.2486C55.9799 58.2651 56.0054 58.2741 56.0317 58.2741H56.6908C56.7208 58.2738 56.7496 58.2618 56.7711 58.2405C56.7923 58.2195 56.8044 58.191 56.805 58.161V54.3399C56.805 53.6607 56.6253 53.1423 56.2497 52.8141C55.875 52.4877 55.3173 52.3344 54.5894 52.3344ZM50.3097 52.4286C50.0121 52.4286 49.7386 52.4832 49.4901 52.5927C49.2491 52.701 49.0363 52.8471 48.852 53.0307C48.7301 53.1504 48.638 53.2917 48.54 53.4285L48.4655 52.6344C48.4627 52.6062 48.4494 52.5801 48.4282 52.5609C48.4067 52.5417 48.3791 52.5312 48.3503 52.5312H47.5994C47.5685 52.5312 47.5391 52.5432 47.5173 52.5648C47.4954 52.5864 47.4833 52.6155 47.4833 52.6461V58.2651C47.4833 58.2957 47.4954 58.3248 47.5173 58.3464C47.5391 58.368 47.5685 58.38 47.5994 58.38H48.5079C48.5385 58.38 48.5682 58.368 48.5898 58.3464C48.6116 58.3248 48.624 58.2957 48.624 58.2651V55.2522C48.624 54.9738 48.6668 54.7242 48.7522 54.5031C48.8304 54.2913 48.9499 54.0969 49.1039 53.9307C49.2524 53.7723 49.4252 53.6499 49.6201 53.5671C49.819 53.4807 50.0315 53.4375 50.2561 53.4375C50.4704 53.4381 50.6838 53.463 50.8927 53.5113C50.9081 53.5149 50.9242 53.5155 50.94 53.5125C50.9557 53.5095 50.9706 53.5035 50.9839 53.4948C50.997 53.4858 51.0082 53.4744 51.017 53.4609C51.0255 53.4477 51.0309 53.4327 51.0333 53.4171L51.1488 52.6272C51.1528 52.5984 51.1455 52.569 51.1285 52.5453C51.1115 52.5216 51.0864 52.5051 51.0576 52.4991C50.9378 52.4766 50.8169 52.461 50.6953 52.4517C50.5671 52.4385 50.4386 52.4298 50.3097 52.4286ZM61.3109 52.4304C61.0462 52.4304 60.7955 52.4661 60.5591 52.5378C60.3275 52.6077 60.1095 52.716 59.9143 52.8576C59.7797 52.9596 59.6603 53.0799 59.5593 53.2146L59.4599 52.6281C59.4554 52.6014 59.4411 52.5771 59.4202 52.5597C59.3993 52.5423 59.3729 52.5327 59.3456 52.5327H58.6163C58.5854 52.533 58.5563 52.5453 58.5347 52.5666C58.5129 52.5882 58.5008 52.6173 58.5008 52.6476V58.2669C58.5008 58.2972 58.5132 58.3266 58.535 58.3479C58.5566 58.3695 58.5863 58.3815 58.6169 58.3815H59.5205C59.5508 58.3812 59.5799 58.3689 59.6015 58.3473C59.623 58.326 59.6348 58.2969 59.6348 58.2669V55.2933C59.636 54.861 59.6863 54.5028 59.7864 54.2187C59.8885 53.934 60.0459 53.7279 60.2632 53.5887C60.4787 53.4507 60.7728 53.376 61.1532 53.376C61.4185 53.376 61.6282 53.4252 61.7874 53.5155C61.9508 53.6031 62.0717 53.7321 62.153 53.9133C62.2391 54.0948 62.2836 54.3336 62.2848 54.6264V58.2675C62.2851 58.2978 62.2973 58.3266 62.3188 58.3479C62.3403 58.3692 62.3694 58.3815 62.4 58.3815H63.2985C63.3291 58.3812 63.3582 58.3689 63.3795 58.3473C63.401 58.326 63.4128 58.2969 63.4128 58.2669V55.1235C63.4128 54.5277 63.5404 54.093 63.7793 53.8068C64.0139 53.5239 64.3919 53.376 64.9479 53.376C65.3359 53.376 65.6054 53.481 65.7876 53.682C65.9725 53.8797 66.0737 54.189 66.0737 54.6264V58.2675C66.0737 58.2978 66.0862 58.3269 66.108 58.3482C66.1295 58.3698 66.1589 58.3815 66.1895 58.3815H67.0817C67.1123 58.3815 67.142 58.3695 67.1635 58.3479C67.1853 58.3266 67.1974 58.2972 67.1974 58.2669V54.5853C67.1974 53.8536 67.0259 53.3013 66.6612 52.9503C66.3008 52.5993 65.7712 52.4304 65.0946 52.4304C64.6729 52.4304 64.2831 52.5141 63.9251 52.6821C63.6044 52.8297 63.3507 53.0619 63.1509 53.3499C63.0108 53.0661 62.7835 52.8333 62.5019 52.6845C62.176 52.5138 61.7789 52.4292 61.3109 52.4304ZM93.9292 52.4304C93.6315 52.4304 93.3581 52.485 93.1095 52.5942C92.8685 52.7025 92.6557 52.8486 92.4711 53.0325C92.3492 53.1522 92.2574 53.2932 92.1595 53.4303L92.0849 52.6362C92.0822 52.608 92.0688 52.5816 92.0473 52.5627C92.0261 52.5435 91.9985 52.533 91.9697 52.5327H91.2189C91.1879 52.5327 91.1585 52.545 91.1367 52.5663C91.1149 52.5879 91.1027 52.6173 91.1027 52.6476V58.2669C91.1027 58.2972 91.1149 58.3266 91.1367 58.3479C91.1585 58.3695 91.1879 58.3815 91.2189 58.3815H92.1274C92.158 58.3815 92.1874 58.3695 92.2092 58.3479C92.231 58.3266 92.2431 58.2972 92.2431 58.2669V55.2522C92.2431 54.9738 92.2862 54.7242 92.3717 54.5031C92.4581 54.2757 92.5751 54.0849 92.7233 53.9307C92.8673 53.775 93.0434 53.6499 93.2396 53.5671C93.4384 53.4807 93.6509 53.4375 93.8752 53.4375C94.0895 53.4381 94.3033 53.463 94.5118 53.5113C94.5276 53.5149 94.5436 53.5155 94.5594 53.5125C94.5749 53.5095 94.59 53.5035 94.6031 53.4948C94.6164 53.4858 94.6276 53.4744 94.6361 53.4609C94.6446 53.4477 94.6503 53.4327 94.6528 53.4171L94.768 52.6272C94.7719 52.5984 94.7649 52.569 94.748 52.5453C94.731 52.5216 94.7055 52.5051 94.6767 52.4991C94.557 52.4766 94.436 52.461 94.3148 52.4517C94.1866 52.4385 94.058 52.4316 93.9292 52.4304ZM74.9095 52.5336C74.8919 52.5339 74.8744 52.5381 74.8586 52.5462C74.8428 52.554 74.8292 52.5654 74.8186 52.5795C74.8077 52.5936 74.8007 52.6098 74.7974 52.6269C74.794 52.6443 74.7946 52.662 74.7992 52.6788L76.4437 58.2996C76.451 58.3233 76.4655 58.3437 76.4852 58.3587C76.5052 58.3734 76.5292 58.3815 76.554 58.3815H77.572C77.5959 58.3815 77.6196 58.3743 77.639 58.3602C77.6587 58.3464 77.6735 58.3269 77.6814 58.3044L78.7912 55.0494C78.8415 54.9105 78.8879 54.7698 78.9297 54.6279C78.9694 54.4878 79.0058 54.3537 79.0382 54.2268C79.0631 54.1413 79.0822 54.0642 79.1022 53.988C79.1219 54.0642 79.1428 54.1383 79.1643 54.2244L79.1659 54.2277L79.2801 54.6171L79.2811 54.6204L79.4172 55.0314L80.4781 58.3029C80.4857 58.3257 80.5006 58.3458 80.5203 58.3599C80.54 58.374 80.5639 58.3818 80.5882 58.3815H81.6385C81.6634 58.3815 81.6877 58.3737 81.7077 58.3587C81.7277 58.344 81.7425 58.3233 81.7495 58.2996L83.3992 52.6788C83.4037 52.662 83.4043 52.6443 83.401 52.6269C83.3979 52.6098 83.3907 52.5936 83.3798 52.5795C83.3691 52.5654 83.3555 52.554 83.3397 52.5462C83.324 52.5381 83.3064 52.5339 83.2888 52.5336H82.3688C82.3436 52.5336 82.3194 52.5417 82.2994 52.5567C82.2794 52.5717 82.2645 52.5927 82.2575 52.6164L81.3872 55.7196L81.2175 56.3463C81.1678 56.5449 81.1235 56.7294 81.0847 56.8962C81.0398 56.7231 80.991 56.5512 80.9389 56.3802C80.8895 56.2074 80.8355 56.034 80.7789 55.8633L79.7179 52.6125C79.7103 52.5897 79.6957 52.5696 79.676 52.5555C79.6563 52.5414 79.6327 52.5339 79.6084 52.5336H78.6339C78.6096 52.5336 78.586 52.5414 78.5666 52.5552C78.5469 52.5693 78.532 52.5888 78.5244 52.6116L77.4253 55.8681C77.3837 55.9884 77.3434 56.118 77.3043 56.2563C77.264 56.3907 77.2252 56.5269 77.1882 56.6646L77.1242 56.9289L77.1185 56.8992C77.0815 56.7201 77.036 56.5311 76.9818 56.3325C76.9302 56.1282 76.8751 55.9224 76.8178 55.7196L75.9572 52.6173C75.9505 52.5933 75.936 52.5723 75.9159 52.557C75.8959 52.542 75.8714 52.5339 75.8462 52.5336H74.9095ZM71.4035 53.2506C71.7284 53.2506 71.9837 53.3187 72.1777 53.4474C72.3768 53.5755 72.5223 53.7525 72.6193 53.9898C72.7079 54.1956 72.7545 54.4434 72.7694 54.7149H69.8814C69.9478 54.2685 70.0912 53.9109 70.3325 53.6616C70.5968 53.3868 70.9442 53.2506 71.4035 53.2506ZM86.9749 53.2719C87.3793 53.2719 87.6976 53.3571 87.9389 53.5188C88.1832 53.6829 88.3639 53.9151 88.4834 54.2244C88.6049 54.5328 88.6661 54.9057 88.6668 55.3431C88.6661 55.7835 88.6052 56.1612 88.4843 56.4768C88.3812 56.7669 88.1884 57.0171 87.9332 57.1923C87.69 57.3579 87.3769 57.444 86.9798 57.444C86.5794 57.444 86.2638 57.3579 86.0216 57.1923C85.7694 57.0153 85.5787 56.7654 85.4762 56.4768C85.3547 56.1612 85.2934 55.7835 85.2931 55.3431C85.2931 54.6756 85.4332 54.1662 85.7 53.8059C85.9667 53.4516 86.3781 53.2719 86.9749 53.2719ZM55.6834 55.5123V55.9116C55.6834 56.4432 55.5267 56.8173 55.2184 57.0699C54.9035 57.3285 54.5006 57.4596 53.991 57.4596C53.6676 57.4596 53.4205 57.3873 53.2383 57.252C53.0616 57.1209 52.9731 56.9271 52.9731 56.6304C52.9731 56.2914 53.1016 56.052 53.3793 55.8675C53.6512 55.6887 54.1593 55.5711 54.8935 55.5441L55.6834 55.5123Z" fill="#212121"/>
</g>
<defs>
<clipPath id="clip0_939_8">
<rect width="106.098" height="60" fill="white"/>
</clipPath>
</defs>
</svg>
