<svg width="48" height="48" viewBox="0 0 48 48" fill="none" xmlns="http://www.w3.org/2000/svg">
<g clip-path="url(#clip0_1459_338)">
<g clip-path="url(#clip1_1459_338)">
<path d="M36.75 0H11.25C5.0368 0 0 5.0368 0 11.25V36.75C0 42.9632 5.0368 48 11.25 48H36.75C42.9632 48 48 42.9632 48 36.75V11.25C48 5.0368 42.9632 0 36.75 0Z" fill="#2B2E3A"/>
<path d="M18.894 13.2698C14.0181 12.3818 10.1627 13.3112 8.62612 15.9726C7.47956 17.9586 7.80731 20.5917 9.42112 23.4062C9.45297 23.4647 9.49619 23.5161 9.54824 23.5577C9.60028 23.5992 9.66007 23.6299 9.72414 23.6481C9.78821 23.6661 9.85526 23.6713 9.92133 23.6631C9.98741 23.655 10.0512 23.6338 10.1089 23.6007C10.1667 23.5675 10.2173 23.5232 10.2577 23.4703C10.2981 23.4173 10.3275 23.3569 10.3442 23.2924C10.3609 23.2281 10.3646 23.161 10.355 23.095C10.3455 23.0292 10.3228 22.9658 10.2885 22.9088C8.83499 20.3734 8.55206 18.1011 9.49218 16.4727C10.7687 14.2618 14.2074 13.4327 18.7147 14.2536C18.8443 14.2752 18.9771 14.2449 19.0845 14.1694C19.1919 14.0939 19.2652 13.9791 19.2889 13.85C19.3123 13.7208 19.2842 13.5875 19.2103 13.479C19.1364 13.3704 19.0228 13.2953 18.894 13.2698ZM11.9567 26.8273C13.9282 28.9939 16.4897 31.0262 19.4109 32.7126C26.484 36.7963 34.014 37.8878 37.725 35.3575C37.7805 35.3211 37.8281 35.2738 37.8652 35.2187C37.9024 35.1638 37.9281 35.1017 37.941 35.0367C37.9539 34.9716 37.9537 34.9045 37.9404 34.8394C37.9271 34.7743 37.9011 34.7127 37.8636 34.6577C37.8262 34.6028 37.7782 34.5559 37.7226 34.5199C37.6669 34.4837 37.6044 34.4592 37.539 34.4473C37.4737 34.4355 37.4066 34.4368 37.3419 34.4513C37.2771 34.4657 37.2157 34.4929 37.1616 34.5313C33.8402 36.796 26.6874 35.7591 19.911 31.8467C17.0771 30.2106 14.5967 28.2426 12.6964 26.1542C12.6522 26.1053 12.5989 26.0657 12.5394 26.0374C12.4799 26.0093 12.4155 25.9932 12.3497 25.99C12.284 25.9866 12.2182 25.9965 12.1563 26.0187C12.0943 26.041 12.0373 26.0751 11.9886 26.1195C11.94 26.1638 11.9005 26.2172 11.8725 26.2768C11.8446 26.3365 11.8286 26.401 11.8257 26.4668C11.8227 26.5326 11.8327 26.5982 11.8552 26.6601C11.8777 26.722 11.9122 26.7788 11.9567 26.8273Z" fill="#9FEAF9"/>
<path d="M36.5411 26.2191C39.7339 22.4473 40.8485 18.6538 39.3152 15.9981C38.187 14.0438 35.8018 13.012 32.6317 12.9707C32.5003 12.9709 32.3743 13.0228 32.2809 13.1152C32.1875 13.2075 32.1341 13.3329 32.1324 13.4643C32.1307 13.5957 32.1808 13.7224 32.2717 13.8172C32.3629 13.9119 32.4875 13.967 32.6188 13.9706C35.4697 14.0078 37.5247 14.8967 38.4493 16.4981C39.7228 18.7041 38.7287 22.087 35.7778 25.573C35.7345 25.623 35.7015 25.681 35.6809 25.744C35.6602 25.8068 35.6522 25.873 35.6572 25.939C35.6623 26.005 35.6805 26.0691 35.7107 26.128C35.7407 26.187 35.7823 26.2393 35.8327 26.2821C35.8832 26.3246 35.9417 26.3571 36.0047 26.377C36.0679 26.397 36.1342 26.4043 36.2 26.3983C36.2659 26.3925 36.33 26.3738 36.3885 26.3428C36.4472 26.3121 36.4989 26.2701 36.5411 26.2191ZM28.3359 13.4363C25.4492 14.0548 22.3764 15.2642 19.4255 16.9678C12.1239 21.1834 7.36085 27.3996 8.02235 31.9069C8.03116 31.9725 8.05292 32.0357 8.08635 32.0927C8.11976 32.1499 8.1642 32.1998 8.21705 32.2397C8.26991 32.2795 8.33015 32.3083 8.39428 32.3248C8.4584 32.3411 8.52513 32.3447 8.59061 32.335C8.65608 32.3254 8.71901 32.3029 8.77571 32.2688C8.83243 32.2346 8.8818 32.1896 8.92098 32.1362C8.96015 32.083 8.98835 32.0224 9.00393 31.9581C9.01953 31.8938 9.0222 31.827 9.01179 31.7616C8.42435 27.7596 12.9394 21.8674 19.9256 17.8339C22.7882 16.1811 25.7634 15.0101 28.5454 14.4141C28.6104 14.4013 28.6723 14.3756 28.7274 14.3386C28.7825 14.3016 28.8298 14.254 28.8662 14.1986C28.9027 14.1432 28.9279 14.081 28.94 14.0158C28.9524 13.9506 28.9515 13.8836 28.9376 13.8187C28.9237 13.7538 28.8971 13.6924 28.8592 13.6379C28.8212 13.5834 28.773 13.537 28.7169 13.5014C28.6609 13.4658 28.5984 13.4417 28.533 13.4305C28.4675 13.4194 28.4006 13.4213 28.3359 13.4363Z" fill="#9FEAF9"/>
<path d="M16.5067 35.0316C18.1762 39.6928 20.9072 42.5629 23.9781 42.5629C26.2177 42.5629 28.2898 41.0361 29.9057 38.3483C29.9407 38.292 29.964 38.2292 29.9747 38.1638C29.9852 38.0983 29.9826 38.0316 29.967 37.9671C29.9514 37.9026 29.9233 37.842 29.8839 37.7886C29.8447 37.7351 29.7954 37.69 29.7386 37.6558C29.6818 37.6217 29.6186 37.5992 29.5532 37.5896C29.4876 37.5801 29.4206 37.5836 29.3565 37.6001C29.2924 37.6166 29.232 37.6457 29.1791 37.6856C29.1262 37.7256 29.082 37.7758 29.0486 37.833C27.5964 40.2486 25.8127 41.5628 23.9781 41.5628C21.4271 41.5628 18.9913 39.003 17.4484 34.6946C17.4272 34.6316 17.3937 34.5733 17.3498 34.5235C17.3059 34.4734 17.2524 34.4327 17.1926 34.4036C17.1327 34.3746 17.0677 34.3577 17.0013 34.3541C16.9348 34.3506 16.8683 34.3603 16.8057 34.3826C16.7431 34.4051 16.6855 34.4398 16.6365 34.4846C16.5874 34.5296 16.5478 34.584 16.52 34.6444C16.4922 34.7048 16.4767 34.7702 16.4744 34.8366C16.4722 34.9031 16.483 34.9695 16.5067 35.0316ZM31.7546 34.1198C32.619 31.3583 33.0831 28.1726 33.0831 24.853C33.0831 16.5694 30.1837 9.42866 26.0542 7.5951C25.9337 7.54457 25.7979 7.54331 25.6764 7.59161C25.5549 7.63989 25.4571 7.73389 25.404 7.85342C25.3509 7.97295 25.3468 8.10853 25.3926 8.23108C25.4383 8.35361 25.5302 8.45338 25.6485 8.50898C29.3316 10.1445 32.0829 16.9214 32.0829 24.853C32.0829 28.0736 31.6335 31.1586 30.8004 33.8211C30.7798 33.8841 30.7717 33.9505 30.777 34.0166C30.7822 34.0826 30.8004 34.147 30.8308 34.206C30.861 34.2649 30.9028 34.3172 30.9534 34.36C31.0042 34.4025 31.0629 34.4348 31.1261 34.4545C31.1893 34.4743 31.2559 34.4813 31.3219 34.4751C31.3879 34.4691 31.452 34.4498 31.5105 34.4186C31.569 34.3875 31.6207 34.3451 31.6626 34.2938C31.7046 34.2424 31.7357 34.1833 31.7546 34.1198ZM41.1716 33.63C41.1716 32.3083 40.1002 31.237 38.7786 31.237C37.4569 31.237 36.3855 32.3083 36.3855 33.63C36.3855 34.9517 37.4569 36.0231 38.7786 36.0231C40.1002 36.0231 41.1716 34.9517 41.1716 33.63ZM40.1717 33.63C40.1717 33.813 40.1357 33.9941 40.0656 34.1631C39.9956 34.3322 39.8931 34.4858 39.7637 34.6151C39.6343 34.7445 39.4807 34.8471 39.3116 34.9172C39.1427 34.9871 38.9616 35.0231 38.7786 35.0231C38.5956 35.0231 38.4144 34.9871 38.2455 34.9172C38.0764 34.8471 37.9228 34.7445 37.7934 34.6151C37.6641 34.4858 37.5615 34.3322 37.4916 34.1631C37.4214 33.9941 37.3854 33.813 37.3854 33.63C37.3854 33.2606 37.5322 32.9063 37.7934 32.6449C38.0548 32.3837 38.409 32.2369 38.7786 32.2369C39.1481 32.2369 39.5023 32.3837 39.7637 32.6449C40.0249 32.9063 40.1717 33.2606 40.1717 33.63ZM9.14306 36.0231C10.4649 36.0231 11.5363 34.9517 11.5363 33.63C11.5363 32.3083 10.4647 31.237 9.14306 31.237C7.82156 31.237 6.75 32.3083 6.75 33.63C6.75 34.9517 7.82156 36.0231 9.14306 36.0231ZM9.14306 35.0231C8.77357 35.0231 8.41924 34.8763 8.15798 34.6151C7.89671 34.354 7.74994 33.9996 7.74994 33.63C7.74994 33.2606 7.89671 32.9063 8.15798 32.6449C8.41924 32.3837 8.77357 32.2369 9.14306 32.2369C9.51255 32.2369 9.86689 32.3837 10.1281 32.6449C10.3894 32.9063 10.5362 33.2606 10.5362 33.63C10.5362 33.9996 10.3894 34.354 10.1281 34.6151C9.86689 34.8763 9.51255 35.0231 9.14306 35.0231Z" fill="#9FEAF9"/>
<path d="M23.9781 10.0361C25.2998 10.0361 26.3711 8.96475 26.3711 7.64306C26.3711 6.32138 25.2998 5.25 23.9781 5.25C22.6564 5.25 21.585 6.32138 21.585 7.64306C21.585 8.96475 22.6564 10.0361 23.9781 10.0361ZM23.9781 9.03619C23.6085 9.03619 23.2543 8.88941 22.993 8.62815C22.7318 8.36689 22.585 8.01255 22.585 7.64306C22.585 7.27358 22.7318 6.91924 22.993 6.65798C23.2543 6.39671 23.6085 6.24994 23.9781 6.24994C24.3476 6.24994 24.7018 6.39671 24.9632 6.65798C25.2244 6.91924 25.3712 7.27358 25.3712 7.64306C25.3712 8.01255 25.2244 8.36689 24.9632 8.62815C24.7018 8.88941 24.3476 9.03619 23.9781 9.03619ZM24.3435 26.5453C23.4088 26.7472 22.488 26.1532 22.2857 25.2186C22.1888 24.7697 22.2741 24.3007 22.5229 23.9149C22.7717 23.529 23.1636 23.2577 23.6125 23.1606C24.5471 22.9586 25.468 23.5526 25.6705 24.4873C25.8724 25.422 25.2784 26.343 24.3435 26.5453Z" fill="#9FEAF9"/>
</g>
</g>
<defs>
<clipPath id="clip0_1459_338">
<rect width="48" height="48" fill="white"/>
</clipPath>
<clipPath id="clip1_1459_338">
<rect width="48" height="48" fill="white"/>
</clipPath>
</defs>
</svg>
