<svg width="60" height="60" viewBox="0 0 60 60" fill="none" xmlns="http://www.w3.org/2000/svg">
<path d="M23.4681 16.2888C17.1812 15.1425 12.2156 16.3413 10.2337 19.7888C8.755 22.3481 9.17937 25.7431 11.2575 29.37C11.2997 29.4436 11.356 29.5081 11.4232 29.5598C11.4903 29.6116 11.567 29.6497 11.6489 29.6718C11.7308 29.694 11.8162 29.6998 11.9003 29.6889C11.9844 29.678 12.0655 29.6507 12.1391 29.6084C12.2126 29.5662 12.2771 29.5099 12.3289 29.4428C12.3807 29.3756 12.4187 29.2989 12.4409 29.2171C12.463 29.1352 12.4688 29.0498 12.4579 28.9657C12.4471 28.8816 12.4197 28.8004 12.3775 28.7269C10.505 25.4588 10.1375 22.5275 11.3494 20.4144C12.9944 17.5663 17.4262 16.4769 23.2362 17.5531C23.4045 17.5839 23.5781 17.5465 23.7188 17.4493C23.8595 17.3521 23.9558 17.2029 23.9866 17.0347C24.0173 16.8665 23.98 16.6929 23.8827 16.5522C23.7855 16.4115 23.6364 16.3151 23.4681 16.2844V16.2888ZM14.5256 33.7669C17.3288 36.7711 20.5746 39.3294 24.1506 41.3531C33.2681 46.6031 42.9631 48.025 47.7756 44.7613C47.9166 44.665 48.0135 44.5166 48.0451 44.3488C48.0767 44.181 48.0404 44.0076 47.9441 43.8666C47.8478 43.7256 47.6994 43.6286 47.5316 43.5971C47.3638 43.5655 47.1904 43.6018 47.0494 43.6981C42.7356 46.625 33.5 45.2775 24.7806 40.2331C21.3252 38.2747 18.1887 35.8006 15.4794 32.8963C15.3633 32.7698 15.2018 32.6946 15.0303 32.6872C14.8589 32.6798 14.6915 32.7409 14.565 32.8569C14.4385 32.9729 14.3633 33.1344 14.3559 33.3059C14.3486 33.4774 14.4096 33.6448 14.5256 33.7713V33.7669Z" fill="#47848F"/>
<path d="M46.2137 32.9794C50.3306 28.1187 51.7656 23.2275 49.7881 19.8062C48.3356 17.2862 45.26 15.9562 41.1737 15.9037C41.0026 15.9037 40.8385 15.9717 40.7174 16.0928C40.5964 16.2138 40.5284 16.3779 40.5284 16.5491C40.5284 16.7202 40.5964 16.8843 40.7174 17.0054C40.8385 17.1264 41.0026 17.1944 41.1737 17.1944C44.8487 17.2425 47.4956 18.3887 48.69 20.4537C50.3306 23.2975 49.0487 27.6594 45.2469 32.1525C45.1923 32.2171 45.151 32.2919 45.1253 32.3725C45.0996 32.4531 45.09 32.538 45.0971 32.6223C45.1043 32.7066 45.1279 32.7886 45.1667 32.8638C45.2055 32.939 45.2588 33.0057 45.3234 33.0603C45.3881 33.1149 45.4628 33.1562 45.5434 33.1819C45.624 33.2076 45.7089 33.2172 45.7932 33.21C45.8775 33.2029 45.9596 33.1793 46.0347 33.1405C46.1099 33.1016 46.1767 33.0484 46.2312 32.9837L46.2137 32.9794ZM35.6394 16.5031C31.5999 17.4198 27.7262 18.9546 24.155 21.0531C14.7444 26.5 8.60187 34.5019 9.4375 40.3119C9.44985 40.3981 9.47906 40.481 9.52345 40.5559C9.56784 40.6307 9.62655 40.6962 9.69622 40.7484C9.76589 40.8006 9.84517 40.8385 9.92951 40.8601C10.0139 40.8817 10.1016 40.8864 10.1878 40.8741C10.274 40.8617 10.3569 40.8325 10.4318 40.7881C10.5067 40.7437 10.5721 40.685 10.6243 40.6153C10.6765 40.5457 10.7145 40.4664 10.736 40.382C10.7576 40.2977 10.7624 40.2099 10.75 40.1237C9.97562 34.9656 15.7944 27.375 24.7981 22.1731C28.2526 20.1357 32.0009 18.6437 35.9106 17.75C35.9934 17.7322 36.0718 17.6983 36.1414 17.6501C36.211 17.602 36.2705 17.5407 36.3164 17.4696C36.3623 17.3985 36.3937 17.319 36.4089 17.2358C36.4241 17.1525 36.4228 17.0671 36.405 16.9844C36.3872 16.9016 36.3533 16.8232 36.3051 16.7536C36.257 16.684 36.1957 16.6245 36.1246 16.5786C36.0535 16.5327 35.974 16.5013 35.8908 16.4861C35.8075 16.4708 35.7221 16.4722 35.6394 16.49V16.5031Z" fill="#47848F"/>
<path d="M20.375 44.3412C22.5625 50.3481 26.0625 54.0625 30.0219 54.0625C32.9094 54.0625 35.5781 52.0937 37.6606 48.6287C37.7523 48.4831 37.7823 48.307 37.7442 48.1393C37.706 47.9715 37.6028 47.8257 37.4572 47.7341C37.3116 47.6424 37.1355 47.6123 36.9677 47.6505C36.7999 47.6886 36.6541 47.7919 36.5625 47.9375C34.69 51.0525 32.3931 52.75 30.0262 52.75C26.7362 52.75 23.5994 49.4512 21.6087 43.895C21.5507 43.7343 21.4312 43.6032 21.2766 43.5306C21.1219 43.458 20.9448 43.4498 20.784 43.5078C20.6233 43.5658 20.4923 43.6853 20.4197 43.84C20.347 43.9946 20.3388 44.1718 20.3969 44.3325L20.375 44.3412ZM40.0625 43.1644C41.2263 39.291 41.8029 35.265 41.7731 31.2206C41.7731 20.5412 38.0369 11.3406 32.7125 8.97374C32.6349 8.93926 32.5513 8.92041 32.4665 8.91824C32.3816 8.91607 32.2972 8.93064 32.218 8.96111C32.1387 8.99158 32.0663 9.03735 32.0048 9.09582C31.9432 9.15429 31.8938 9.2243 31.8594 9.30186C31.7897 9.4585 31.7852 9.63639 31.8467 9.79638C31.9083 9.95637 32.0308 10.0854 32.1875 10.155C36.9344 12.2637 40.5 20.9962 40.5 31.2206C40.5291 35.1345 39.9716 39.0307 38.8462 42.7794C38.821 42.8601 38.8118 42.945 38.8194 43.0292C38.8269 43.1135 38.851 43.1954 38.8902 43.2704C38.9294 43.3453 38.9829 43.4118 39.0478 43.4661C39.1127 43.5203 39.1877 43.5613 39.2684 43.5866C39.3491 43.6118 39.4341 43.621 39.5183 43.6134C39.6026 43.6059 39.6845 43.5818 39.7595 43.5426C39.8344 43.5034 39.9009 43.4498 39.9552 43.3849C40.0094 43.32 40.0503 43.2451 40.0756 43.1644H40.0625ZM52.1856 42.5344C52.1856 41.9243 52.0047 41.328 51.6658 40.8208C51.3269 40.3136 50.8452 39.9182 50.2816 39.6848C49.718 39.4513 49.0978 39.3902 48.4995 39.5093C47.9012 39.6283 47.3516 39.922 46.9203 40.3534C46.4889 40.7847 46.1951 41.3343 46.0761 41.9326C45.9571 42.5309 46.0182 43.1511 46.2516 43.7147C46.4851 44.2783 46.8804 44.76 47.3876 45.0989C47.8949 45.4378 48.4912 45.6187 49.1012 45.6187C49.5063 45.6187 49.9074 45.539 50.2816 45.384C50.6558 45.229 50.9958 45.0018 51.2822 44.7153C51.5686 44.4289 51.7958 44.0889 51.9508 43.7147C52.1058 43.3405 52.1856 42.9394 52.1856 42.5344ZM50.895 42.5344C50.895 42.8891 50.7898 43.2359 50.5927 43.5309C50.3956 43.8259 50.1154 44.0558 49.7877 44.1916C49.4599 44.3273 49.0992 44.3629 48.7513 44.2936C48.4033 44.2244 48.0837 44.0536 47.8329 43.8027C47.582 43.5519 47.4112 43.2323 47.3419 42.8843C47.2727 42.5364 47.3083 42.1757 47.444 41.8479C47.5798 41.5202 47.8097 41.24 48.1047 41.0429C48.3997 40.8458 48.7465 40.7406 49.1012 40.7406C49.577 40.7406 50.0332 40.9296 50.3696 41.266C50.706 41.6024 50.895 42.0586 50.895 42.5344ZM10.8987 45.6187C11.5088 45.6187 12.1051 45.4378 12.6123 45.0989C13.1195 44.76 13.5149 44.2783 13.7483 43.7147C13.9818 43.1511 14.0429 42.5309 13.9238 41.9326C13.8048 41.3343 13.5111 40.7847 13.0797 40.3534C12.6484 39.922 12.0988 39.6283 11.5005 39.5093C10.9022 39.3902 10.282 39.4513 9.7184 39.6848C9.1548 39.9182 8.67309 40.3136 8.33417 40.8208C7.99526 41.328 7.81436 41.9243 7.81436 42.5344C7.81436 43.3524 8.13932 44.1369 8.71775 44.7153C9.29619 45.2938 10.0807 45.6187 10.8987 45.6187ZM10.8987 44.3281C10.544 44.3281 10.1972 44.2229 9.90218 44.0258C9.6072 43.8287 9.37729 43.5486 9.24153 43.2208C9.10576 42.893 9.07024 42.5324 9.13945 42.1844C9.20867 41.8365 9.3795 41.5169 9.63036 41.266C9.88122 41.0151 10.2008 40.8443 10.5488 40.7751C10.8967 40.7059 11.2574 40.7414 11.5852 40.8772C11.9129 41.0129 12.1931 41.2428 12.3902 41.5378C12.5873 41.8328 12.6925 42.1796 12.6925 42.5344C12.6925 43.0101 12.5035 43.4663 12.1671 43.8027C11.8307 44.1391 11.3745 44.3281 10.8987 44.3281Z" fill="#47848F"/>
<path d="M30.0219 12.1194C30.6319 12.1194 31.2282 11.9385 31.7355 11.5996C32.2427 11.2606 32.638 10.7789 32.8715 10.2153C33.1049 9.65174 33.166 9.03158 33.047 8.43327C32.928 7.83496 32.6342 7.28537 32.2029 6.85402C31.7715 6.42266 31.2219 6.1289 30.6236 6.00989C30.0253 5.89088 29.4051 5.95196 28.8415 6.18541C28.2779 6.41886 27.7962 6.81419 27.4573 7.32141C27.1184 7.82864 26.9375 8.42497 26.9375 9.035C26.9375 9.85303 27.2625 10.6375 27.8409 11.216C28.4193 11.7944 29.2038 12.1194 30.0219 12.1194ZM30.0219 10.8287C29.6671 10.8287 29.3203 10.7235 29.0253 10.5264C28.7303 10.3293 28.5004 10.0492 28.3647 9.72144C28.2289 9.39367 28.1934 9.03301 28.2626 8.68506C28.3318 8.3371 28.5026 8.01749 28.7535 7.76663C29.0044 7.51577 29.324 7.34493 29.6719 7.27572C30.0199 7.2065 30.3805 7.24203 30.7083 7.37779C31.0361 7.51356 31.3162 7.74346 31.5133 8.03845C31.7104 8.33343 31.8156 8.68023 31.8156 9.035C31.8156 9.51073 31.6266 9.96698 31.2902 10.3034C30.9539 10.6398 30.4976 10.8287 30.0219 10.8287ZM30.4944 33.3994C30.0632 33.4959 29.613 33.4621 29.201 33.3025C28.7889 33.1428 28.4336 32.8644 28.18 32.5026C27.9264 32.1407 27.7859 31.7117 27.7764 31.2699C27.7669 30.8281 27.8888 30.3935 28.1266 30.0211C28.3645 29.6486 28.7075 29.3552 29.1123 29.178C29.5171 29.0008 29.9654 28.9478 30.4004 29.0256C30.8353 29.1035 31.2374 29.3088 31.5556 29.6155C31.8737 29.9221 32.0937 30.3163 32.1875 30.7481C32.3127 31.3241 32.2049 31.9261 31.8876 32.4229C31.5704 32.9196 31.0695 33.2707 30.4944 33.3994Z" fill="#47848F"/>
</svg>
