<svg width="48" height="48" viewBox="0 0 48 48" fill="none" xmlns="http://www.w3.org/2000/svg">
<g clip-path="url(#clip0_1461_401)">
<g clip-path="url(#clip1_1461_401)">
<path d="M36.75 0H11.25C5.0368 0 0 5.0368 0 11.25V36.75C0 42.9632 5.0368 48 11.25 48H36.75C42.9632 48 48 42.9632 48 36.75V11.25C48 5.0368 42.9632 0 36.75 0Z" fill="#242938"/>
<mask id="mask0_1461_401" style="mask-type:luminance" maskUnits="userSpaceOnUse" x="11" y="5" width="26" height="38">
<path d="M36.4425 5.25H11.4375V42.75H36.4425V5.25Z" fill="white"/>
</mask>
<g mask="url(#mask0_1461_401)">
<path d="M17.69 42.75C21.14 42.75 23.9399 39.9501 23.9399 36.5001V30.2499H17.69C14.24 30.2499 11.4399 33.0501 11.4399 36.5001C11.4399 39.9501 14.24 42.75 17.69 42.75Z" fill="#0ACF83"/>
<path d="M11.4399 24C11.4399 20.55 14.24 17.75 17.69 17.75H23.9399V30.2499H17.69C14.24 30.2499 11.4399 27.45 11.4399 24Z" fill="#A259FF"/>
<path d="M11.4399 11.5C11.4399 8.04999 14.24 5.25 17.69 5.25H23.9399V17.75H17.69C14.24 17.75 11.4399 14.95 11.4399 11.5Z" fill="#F24E1E"/>
<path d="M23.9399 5.25H30.1899C33.6399 5.25 36.44 8.04999 36.44 11.5C36.44 14.95 33.6399 17.75 30.1899 17.75H23.9399V5.25Z" fill="#FF7262"/>
<path d="M36.44 24C36.44 27.45 33.6399 30.2499 30.1899 30.2499C26.7399 30.2499 23.9399 27.45 23.9399 24C23.9399 20.55 26.7399 17.75 30.1899 17.75C33.6399 17.75 36.44 20.55 36.44 24Z" fill="#1ABCFE"/>
</g>
</g>
</g>
<defs>
<clipPath id="clip0_1461_401">
<rect width="48" height="48" fill="white"/>
</clipPath>
<clipPath id="clip1_1461_401">
<rect width="48" height="48" fill="white"/>
</clipPath>
</defs>
</svg>
