<svg width="48" height="48" viewBox="0 0 48 48" fill="none" xmlns="http://www.w3.org/2000/svg">
<g clip-path="url(#clip0_1459_240)">
<g clip-path="url(#clip1_1459_240)">
<path d="M36.75 0H11.25C5.0368 0 0 5.0368 0 11.25V36.75C0 42.9632 5.0368 48 11.25 48H36.75C42.9632 48 48 42.9632 48 36.75V11.25C48 5.0368 42.9632 0 36.75 0Z" fill="#F03C2E"/>
<mask id="mask0_1459_240" style="mask-type:luminance" maskUnits="userSpaceOnUse" x="5" y="5" width="38" height="38">
<path d="M42.75 5.25H5.25V42.75H42.75V5.25Z" fill="white"/>
</mask>
<g mask="url(#mask0_1459_240)">
<path d="M42.0422 22.3301L25.6699 5.9578C25.4458 5.73349 25.1796 5.55557 24.8867 5.43419C24.5936 5.31278 24.2796 5.25031 23.9625 5.25031C23.6454 5.25031 23.3314 5.31278 23.0383 5.43419C22.7454 5.55557 22.4792 5.73349 22.2551 5.9578L18.8567 9.35624L23.1692 13.6687C24.1723 13.3172 25.3207 13.5574 26.1199 14.3566C26.5003 14.7377 26.766 15.2182 26.8864 15.7431C27.0067 16.268 26.9771 16.8161 26.8007 17.325L30.9574 21.4817C31.9629 21.1348 33.123 21.3585 33.9257 22.1636C34.1927 22.4306 34.4044 22.7475 34.5487 23.0962C34.6931 23.445 34.7674 23.8187 34.7674 24.1961C34.7672 24.5735 34.6929 24.9472 34.5484 25.296C34.4038 25.6445 34.1921 25.9614 33.9251 26.2282C33.6583 26.4952 33.3414 26.7067 32.9927 26.8511C32.6439 26.9957 32.2702 27.0699 31.8928 27.0697C31.5154 27.0697 31.1415 26.9953 30.7929 26.8509C30.4442 26.7064 30.1273 26.4947 29.8605 26.2277C29.0167 25.3839 28.8082 24.1417 29.2348 23.1022L25.3582 19.2257V29.427C25.6397 29.5661 25.8967 29.7499 26.1199 29.9707C26.3867 30.2375 26.5984 30.5542 26.7429 30.903C26.8873 31.2515 26.9616 31.6252 26.9616 32.0027C26.9616 32.3801 26.8873 32.7538 26.7429 33.1024C26.5984 33.4511 26.3867 33.768 26.1199 34.0348C25.8531 34.3016 25.5362 34.5133 25.1876 34.6577C24.8389 34.8021 24.4652 34.8765 24.0879 34.8765C23.7105 34.8765 23.3368 34.8021 22.9882 34.6577C22.6395 34.5133 22.3226 34.3016 22.0558 34.0348C21.7886 33.768 21.5767 33.4513 21.4322 33.1027C21.2874 32.754 21.213 32.3801 21.213 32.0027C21.213 31.6252 21.2874 31.2516 21.4322 30.9028C21.5767 30.5541 21.7886 30.2374 22.0558 29.9707C22.3335 29.6942 22.6417 29.4844 22.9969 29.3437V19.0475C22.6547 18.9069 22.3335 18.6996 22.0558 18.4207C21.6523 18.0177 21.378 17.5036 21.2677 16.9441C21.1577 16.3845 21.2166 15.8048 21.4371 15.2789L17.1832 11.0273L5.95663 22.2422C5.73217 22.4664 5.5541 22.7327 5.4326 23.0257C5.3111 23.3188 5.24857 23.6329 5.24857 23.9501C5.24857 24.2674 5.3111 24.5816 5.4326 24.8747C5.5541 25.1677 5.73217 25.434 5.95663 25.6582L22.3301 42.0292C22.5542 42.2535 22.8204 42.4314 23.1133 42.5529C23.4064 42.6742 23.7204 42.7367 24.0375 42.7367C24.3546 42.7367 24.6686 42.6742 24.9617 42.5529C25.2546 42.4314 25.5208 42.2535 25.7449 42.0292L42.0422 25.7578C42.2666 25.5335 42.4447 25.2673 42.5662 24.9742C42.6877 24.6812 42.7502 24.3671 42.7502 24.0499C42.7502 23.7326 42.6877 23.4184 42.5662 23.1253C42.4447 22.8322 42.2666 22.566 42.0422 22.3417" fill="white"/>
</g>
</g>
</g>
<defs>
<clipPath id="clip0_1459_240">
<rect width="48" height="48" fill="white"/>
</clipPath>
<clipPath id="clip1_1459_240">
<rect width="48" height="48" fill="white"/>
</clipPath>
</defs>
</svg>
