<svg width="60" height="60" viewBox="0 0 60 60" fill="none" xmlns="http://www.w3.org/2000/svg">
<g clip-path="url(#clip0_953_96)">
<path d="M47 4H15C8.39847 4 5 9.3516 5 15.9531V43.0469C5 49.6484 8.39847 55 15 55H47C53.6015 55 56 49.6484 56 43.0469V15.9531C56 9.3516 53.6015 4 47 4Z" fill="#F03C2E"/>
<mask id="mask0_953_96" style="mask-type:luminance" maskUnits="userSpaceOnUse" x="10" y="9" width="41" height="41">
<path d="M10.5781 9.57812H50.4219V49.4219H10.5781V9.57812Z" fill="white"/>
</mask>
<g mask="url(#mask0_953_96)">
<path d="M49.67 27.7258L32.2745 10.3302C31.9158 9.97112 31.4586 9.72658 30.9609 9.62753C30.4632 9.52847 29.9472 9.57936 29.4784 9.77375C29.1673 9.90289 28.8845 10.0919 28.6463 10.3302L25.0354 13.941L29.6175 18.523C30.6833 18.1495 31.9035 18.4047 32.7526 19.254C33.1568 19.6589 33.439 20.1694 33.567 20.7271C33.6949 21.2848 33.6633 21.8672 33.4759 22.4078L37.8924 26.8243C38.9608 26.4557 40.1934 26.6934 41.0463 27.5488C41.4735 27.9759 41.7644 28.52 41.8822 29.1125C42 29.705 41.9393 30.319 41.7079 30.877C41.3976 31.6251 40.803 32.2193 40.0548 32.5291C39.3066 32.8389 38.4659 32.8389 37.7177 32.5291C37.3472 32.3755 37.0105 32.1506 36.727 31.8669C35.8305 30.9704 35.609 29.6506 36.0622 28.5461L31.9434 24.4273V35.2662C32.2424 35.4141 32.5156 35.6092 32.7526 35.8439C33.3252 36.4165 33.6469 37.1932 33.6469 38.003C33.6469 38.8127 33.3252 39.5894 32.7526 40.162C32.18 40.7346 31.4033 41.0563 30.5935 41.0563C29.7838 41.0563 29.0071 40.7346 28.4345 40.162C28.0072 39.7351 27.7161 39.1911 27.5982 38.5987C27.4802 38.0063 27.5407 37.3922 27.7719 36.8342C27.9255 36.4638 28.1506 36.1272 28.4345 35.8439C28.7296 35.5501 29.0571 35.3271 29.4344 35.1777V24.238C29.06 24.085 28.72 23.8586 28.4345 23.572C28.0058 23.1438 27.7143 22.5976 27.5973 22.003C27.4802 21.4085 27.5428 20.7926 27.7771 20.2337L23.2574 15.7168L11.3292 27.6325C10.9701 27.9914 10.7255 28.4487 10.6264 28.9466C10.5273 29.4444 10.5781 29.9605 10.7724 30.4295C10.9016 30.7409 11.0908 31.0238 11.3292 31.2621L28.726 48.6563C28.9642 48.8945 29.2469 49.0836 29.5581 49.2127C30.1869 49.4727 30.8932 49.4727 31.522 49.2127C31.8332 49.0836 32.1159 48.8945 32.3541 48.6563L49.67 31.3679C49.9085 31.1296 50.0976 30.8467 50.2267 30.5354C50.3558 30.224 50.4222 29.8902 50.4223 29.5532C50.4223 29.2161 50.3558 28.8823 50.2267 28.5709C50.0977 28.2595 49.9085 27.9766 49.67 27.7383" fill="white"/>
</g>
</g>
<defs>
<clipPath id="clip0_953_96">
<rect width="51" height="51" fill="white" transform="translate(5 4)"/>
</clipPath>
</defs>
</svg>
