<svg width="60" height="58" viewBox="0 0 60 58" fill="none" xmlns="http://www.w3.org/2000/svg">
<g clip-path="url(#clip0_939_521)">
<path d="M29.8887 0C-4.3391 0.717017 -11.4613 46.645 20.5554 57.6612C22.0494 57.9403 22.6076 57.0043 22.6076 56.2272V51.187C14.2373 52.9901 12.4673 47.2359 12.4673 47.2359C11.9056 45.4351 10.7109 43.8985 9.10419 42.9099C6.39813 41.0739 9.32019 41.1039 9.32019 41.1039C10.2772 41.2299 11.1918 41.5769 11.9915 42.1173C12.7913 42.6579 13.4544 43.3771 13.9283 44.2179C14.7769 45.6952 16.1715 46.7803 17.8121 47.2399C19.4526 47.6994 21.2079 47.4966 22.7005 46.675C22.8565 45.175 23.5256 43.7799 24.5996 42.7239C17.9094 41.9739 10.9072 39.4239 10.9072 28.0986C10.8658 25.1479 11.984 22.2985 14.0213 20.1634C13.0789 17.5916 13.1899 14.7517 14.3303 12.2613C14.3303 12.2613 16.8504 11.4812 22.6105 15.3723C27.5414 14.0342 32.7399 14.0342 37.6709 15.3723C43.3949 11.5442 45.9149 12.2583 45.9149 12.2583C47.01 14.7423 47.1091 17.5474 46.194 20.1004C48.2305 22.2358 49.3477 25.0852 49.3051 28.0355C49.3051 39.3939 42.2729 41.9139 35.5827 42.6308C38.6969 44.281 37.3889 54.8892 37.5749 56.1972C37.5749 56.9743 38.1029 57.9072 39.6598 57.6283C71.5866 46.7079 64.1164 0.717017 29.8887 0Z" fill="#3A3A3A"/>
</g>
<defs>
<clipPath id="clip0_939_521">
<rect width="60" height="57.931" fill="white"/>
</clipPath>
</defs>
</svg>
