<svg width="60" height="58" viewBox="0 0 60 58" fill="none" xmlns="http://www.w3.org/2000/svg">
<g clip-path="url(#clip0_939_521)">
<path d="M30.3942 2C-2.12214 2.68333 -8.8882 46.4534 21.5277 56.952C22.9469 57.218 23.4772 56.3259 23.4772 55.5853V50.782C15.5254 52.5003 13.8439 47.0165 13.8439 47.0165C13.3103 45.3003 12.1754 43.8359 10.649 42.8938C8.07822 41.144 10.8542 41.1726 10.8542 41.1726C11.7633 41.2927 12.6322 41.6234 13.392 42.1384C14.1517 42.6536 14.7817 43.339 15.2319 44.1403C16.0381 45.5481 17.3629 46.5823 18.9215 47.0202C20.48 47.4582 22.1475 47.2649 23.5654 46.482C23.7136 45.0524 24.3493 43.7229 25.3696 42.7165C19.0139 42.0017 12.3619 39.5716 12.3619 28.7784C12.3225 25.9663 13.3848 23.2508 15.3202 21.216C14.4249 18.765 14.5304 16.0586 15.6138 13.6852C15.6138 13.6852 18.0078 12.9418 23.4799 16.65C28.1644 15.3748 33.1029 15.3748 37.7873 16.65C43.2251 13.0018 45.6191 13.6823 45.6191 13.6823C46.6595 16.0496 46.7536 18.7229 45.8843 21.156C47.8189 23.191 48.8803 25.9065 48.8398 28.7182C48.8398 39.543 42.1592 41.9446 35.8035 42.6278C38.762 44.2004 37.5194 54.3102 37.6961 55.5568C37.6961 56.2974 38.1977 57.1864 39.6768 56.9206C70.0073 46.5133 62.9106 2.68333 30.3942 2Z" fill="#3A3A3A"/>
</g>
<defs>
<clipPath id="clip0_939_521">
<rect width="60" height="57.931" fill="white"/>
</clipPath>
</defs>
</svg>
