<svg width="48" height="48" viewBox="0 0 48 48" fill="none" xmlns="http://www.w3.org/2000/svg">
<g clip-path="url(#clip0_1461_414)">
<g clip-path="url(#clip1_1461_414)">
<path d="M36.75 0H11.25C5.0368 0 0 5.0368 0 11.25V36.75C0 42.9632 5.0368 48 11.25 48H36.75C42.9632 48 48 42.9632 48 36.75V11.25C48 5.0368 42.9632 0 36.75 0Z" fill="#00B4E0"/>
<path d="M7.5938 21.2313C7.5188 21.2313 7.50005 21.1938 7.53755 21.1376L7.9313 20.6313C7.9688 20.5751 8.06255 20.5376 8.13755 20.5376H14.8313C14.9063 20.5376 14.925 20.5938 14.8875 20.6501L14.5688 21.1376C14.5313 21.1938 14.4375 21.2501 14.3813 21.2501L7.5938 21.2313Z" fill="white"/>
<path d="M4.7625 22.9564C4.6875 22.9564 4.66875 22.9189 4.70625 22.8626L5.1 22.3564C5.1375 22.3001 5.23125 22.2626 5.30625 22.2626H13.8563C13.9313 22.2626 13.9688 22.3189 13.95 22.3751L13.8 22.8251C13.7813 22.9001 13.7063 22.9376 13.6313 22.9376L4.7625 22.9564Z" fill="white"/>
<path d="M9.29998 24.6814C9.22498 24.6814 9.20623 24.6251 9.24373 24.5689L9.50623 24.1001C9.54373 24.0439 9.61873 23.9876 9.69373 23.9876H13.4437C13.5187 23.9876 13.5562 24.0439 13.5562 24.1189L13.5187 24.5689C13.5187 24.6439 13.4437 24.7001 13.3875 24.7001L9.29998 24.6814Z" fill="white"/>
<path d="M28.7625 20.8939C27.5813 21.1939 26.775 21.4189 25.6125 21.7189C25.3313 21.7939 25.3125 21.8126 25.0688 21.5314C24.7875 21.2126 24.5813 21.0064 24.1875 20.8189C23.0063 20.2376 21.8625 20.4064 20.7938 21.1001C19.5188 21.9251 18.8625 23.1439 18.8813 24.6626C18.9 26.1626 19.9313 27.4001 21.4125 27.6064C22.6875 27.7751 23.7563 27.3251 24.6 26.3689C24.7688 26.1626 24.9188 25.9376 25.1063 25.6751C24.4313 25.6751 23.5875 25.6751 21.4875 25.6751C21.0938 25.6751 21 25.4314 21.1313 25.1126C21.375 24.5314 21.825 23.5564 22.0875 23.0689C22.1438 22.9564 22.275 22.7689 22.5563 22.7689C23.5125 22.7689 27.0375 22.7689 29.3813 22.7689C29.3438 23.2751 29.3438 23.7814 29.2688 24.2876C29.0625 25.6376 28.5563 26.8751 27.7313 27.9626C26.3813 29.7439 24.6188 30.8501 22.3875 31.1501C20.55 31.3939 18.8438 31.0376 17.3438 29.9126C15.9563 28.8626 15.1688 27.4751 14.9625 25.7501C14.7188 23.7064 15.3188 21.8689 16.5563 20.2564C17.8875 18.5127 19.65 17.4064 21.8063 17.0127C23.5688 16.6939 25.2563 16.9002 26.775 17.9314C27.7688 18.5877 28.4813 19.4876 28.95 20.5751C29.0625 20.7439 28.9875 20.8376 28.7625 20.8939Z" fill="white"/>
<path d="M34.9687 31.2627C33.2625 31.2252 31.7062 30.7377 30.3937 29.6127C29.2875 28.6564 28.5937 27.4377 28.3687 25.9939C28.0312 23.8752 28.6125 22.0002 29.8875 20.3314C31.2562 18.5315 32.9062 17.594 35.1375 17.2002C37.05 16.8627 38.85 17.0502 40.4812 18.1565C41.9625 19.1689 42.8812 20.5377 43.125 22.3377C43.4437 24.8689 42.7125 26.9314 40.9687 28.6939C39.7312 29.9502 38.2125 30.7377 36.4687 31.0939C35.9625 31.1877 35.4562 31.2064 34.9687 31.2627ZM39.4312 23.6877C39.4125 23.4439 39.4125 23.2564 39.375 23.0689C39.0375 21.2127 37.3312 20.1627 35.55 20.5752C33.8062 20.9689 32.6812 22.0752 32.2687 23.8377C31.9312 25.3002 32.6437 26.7814 33.9937 27.3814C35.025 27.8314 36.0562 27.7752 37.05 27.2689C38.5312 26.5002 39.3375 25.3002 39.4312 23.6877Z" fill="white"/>
</g>
</g>
<defs>
<clipPath id="clip0_1461_414">
<rect width="48" height="48" fill="white"/>
</clipPath>
<clipPath id="clip1_1461_414">
<rect width="48" height="48" fill="white"/>
</clipPath>
</defs>
</svg>
