<svg width="48" height="48" viewBox="0 0 48 48" fill="none" xmlns="http://www.w3.org/2000/svg">
<g clip-path="url(#clip0_1461_423)">
<g clip-path="url(#clip1_1461_423)">
<path d="M36.75 0H11.25C5.0368 0 0 5.0368 0 11.25V36.75C0 42.9632 5.0368 48 11.25 48H36.75C42.9632 48 48 42.9632 48 36.75V11.25C48 5.0368 42.9632 0 36.75 0Z" fill="#242938"/>
<path d="M8.97412 33.036L10.3507 33.8308L25.6869 7.26869L24.3103 6.47388L8.97412 33.036Z" fill="#E535AB"/>
<path d="M39.3311 30.9141H8.65894V32.5037H39.3311V30.9141Z" fill="#E535AB"/>
<path d="M9.26587 31.8069L24.6077 40.6648L25.4025 39.2882L10.0607 30.4303L9.26587 31.8069Z" fill="#E535AB"/>
<path d="M22.5934 8.72105L37.9352 17.5789L38.73 16.2023L23.3882 7.34442L22.5934 8.72105Z" fill="#E535AB"/>
<path d="M9.27002 16.1962L10.0648 17.5728L25.4068 8.71494L24.6119 7.33832L9.27002 16.1962Z" fill="#E535AB"/>
<path d="M22.3163 7.26893L37.6523 33.831L39.0289 33.0362L23.6929 6.47412L22.3163 7.26893Z" fill="#E535AB"/>
<path d="M11.4647 15.1421H9.87512V32.8579H11.4647V15.1421Z" fill="#E535AB"/>
<path d="M38.1245 15.1421H36.5349V32.8579H38.1245V15.1421Z" fill="#E535AB"/>
<path d="M23.6428 38.7894L24.3371 39.9921L37.6804 32.2881L36.9861 31.0856L23.6428 38.7894Z" fill="#E535AB"/>
<path d="M40.2313 33.375C39.312 34.9742 37.2626 35.52 35.6634 34.6007C34.0642 33.6813 33.5184 31.6322 34.4377 30.033C35.357 28.4336 37.4064 27.8878 39.0056 28.8071C40.6143 29.736 41.1602 31.7758 40.2313 33.375Z" fill="#E535AB"/>
<path d="M13.5523 17.9671C12.633 19.5662 10.5837 20.1122 8.98449 19.1929C7.38528 18.2735 6.83945 16.2242 7.75875 14.625C8.67806 13.0258 10.7273 12.4799 12.3265 13.3993C13.9258 14.3281 14.4716 16.3679 13.5523 17.9671Z" fill="#E535AB"/>
<path d="M7.76827 33.375C6.84897 31.7758 7.39481 29.736 8.99401 28.8071C10.5932 27.8878 12.6329 28.4336 13.5618 30.033C14.4811 31.6322 13.9353 33.6718 12.3361 34.6007C10.7273 35.52 8.68758 34.9742 7.76827 33.375Z" fill="#E535AB"/>
<path d="M34.4474 17.9671C33.5281 16.3679 34.0739 14.3281 35.6731 13.3993C37.2724 12.4799 39.3121 13.0258 40.2409 14.625C41.1602 16.2242 40.6144 18.2639 39.0152 19.1929C37.4161 20.1122 35.3667 19.5662 34.4474 17.9671Z" fill="#E535AB"/>
<path d="M23.9998 42.75C22.1516 42.75 20.6578 41.2562 20.6578 39.408C20.6578 37.5598 22.1516 36.0658 23.9998 36.0658C25.848 36.0658 27.3418 37.5598 27.3418 39.408C27.3418 41.2466 25.848 42.75 23.9998 42.75Z" fill="#E535AB"/>
<path d="M23.9998 11.9341C22.1516 11.9341 20.6578 10.4402 20.6578 8.59206C20.6578 6.74387 22.1516 5.25 23.9998 5.25C25.848 5.25 27.3418 6.74387 27.3418 8.59206C27.3418 10.4402 25.848 11.9341 23.9998 11.9341Z" fill="#E535AB"/>
</g>
</g>
<defs>
<clipPath id="clip0_1461_423">
<rect width="48" height="48" fill="white"/>
</clipPath>
<clipPath id="clip1_1461_423">
<rect width="48" height="48" fill="white"/>
</clipPath>
</defs>
</svg>
