<svg width="60" height="60" viewBox="0 0 60 60" fill="none" xmlns="http://www.w3.org/2000/svg">
<g clip-path="url(#clip0_939_500)">
<path d="M53.5714 0H6.42857C2.87946 0 0 2.87946 0 6.42857V53.5714C0 57.1204 2.87946 60 6.42857 60H53.5714C57.1204 60 60 57.1204 60 53.5714V6.42857C60 2.87946 57.1204 0 53.5714 0ZM32.6518 46.7944C32.6518 52.6337 29.2232 55.299 24.2277 55.299C19.7143 55.299 17.1027 52.9689 15.7634 50.1429L20.3571 47.3704C21.2411 48.9377 22.0446 50.2633 23.9866 50.2633C25.8348 50.2633 27.0134 49.5403 27.0134 46.7143V27.5491H32.6518V46.7944ZM45.9909 55.299C40.7544 55.299 37.3661 52.8081 35.7188 49.5403L40.3125 46.8883C41.5179 48.8571 43.098 50.3169 45.8704 50.3169C48.201 50.3169 49.701 49.1516 49.701 47.5311C49.701 45.6026 48.174 44.9194 45.5893 43.7811L44.1831 43.1786C40.1116 41.4509 37.4196 39.2679 37.4196 34.6741C37.4196 30.4419 40.6473 27.2277 45.6694 27.2277C49.2587 27.2277 51.8301 28.4732 53.6786 31.7411L49.2857 34.5536C48.3214 32.8259 47.2766 32.1429 45.6561 32.1429C44.0087 32.1429 42.9643 33.1875 42.9643 34.5536C42.9643 36.2411 44.0091 36.9241 46.4331 37.9821L47.8393 38.5848C52.6341 40.6339 55.326 42.7366 55.326 47.451C55.326 52.5133 51.3347 55.299 45.9909 55.299Z" fill="#F5DE19"/>
</g>
<defs>
<clipPath id="clip0_939_500">
<rect width="60" height="60" fill="white"/>
</clipPath>
</defs>
</svg>
