<svg width="60" height="60" viewBox="0 0 60 60" fill="none" xmlns="http://www.w3.org/2000/svg">
<path d="M50.4286 4H9.57143C6.49554 4 4 6.49554 4 9.57143V50.4286C4 53.5044 6.49554 56 9.57143 56H50.4286C53.5044 56 56 53.5044 56 50.4286V9.57143C56 6.49554 53.5044 4 50.4286 4ZM32.2982 44.5552C32.2982 49.6159 29.3268 51.9258 24.9973 51.9258C21.0857 51.9258 18.8223 49.9063 17.6616 47.4571L21.6429 45.0544C22.4089 46.4127 23.1054 47.5615 24.7884 47.5615C26.3902 47.5615 27.4116 46.9349 27.4116 44.4857V27.8759H32.2982V44.5552ZM43.8587 51.9258C39.3205 51.9258 36.3839 49.7671 34.9563 46.9349L38.9375 44.6365C39.9821 46.3429 41.3516 47.6079 43.7544 47.6079C45.7742 47.6079 47.0742 46.598 47.0742 45.1937C47.0742 43.5222 45.7508 42.9302 43.5107 41.9437L42.2921 41.4214C38.7634 39.9241 36.4304 38.0321 36.4304 34.0509C36.4304 30.383 39.2277 27.5973 43.5802 27.5973C46.6909 27.5973 48.9195 28.6768 50.5214 31.5089L46.7143 33.9464C45.8786 32.4491 44.973 31.8571 43.5687 31.8571C42.1409 31.8571 41.2357 32.7625 41.2357 33.9464C41.2357 35.4089 42.1413 36.0009 44.2421 36.9179L45.4607 37.4402C49.6163 39.2161 51.9492 41.0384 51.9492 45.1242C51.9492 49.5115 48.4901 51.9258 43.8587 51.9258Z" fill="#F5DE19"/>
</svg>
