<svg width="60" height="61" viewBox="0 0 60 61" fill="none" xmlns="http://www.w3.org/2000/svg">
<path d="M43.6162 4.15555L50.5847 9.22305C50.5908 9.22757 50.5949 9.23429 50.596 9.24177C50.5972 9.24925 50.5955 9.2569 50.5911 9.26309L41.4495 21.8788C41.4457 21.8838 41.4404 21.8874 41.4344 21.8892L34.4613 24.1372C34.4569 24.1385 34.4523 24.1389 34.4478 24.1381C34.4433 24.1374 34.439 24.1355 34.4354 24.1328C34.4317 24.1301 34.4287 24.1266 34.4267 24.1225C34.4246 24.1184 34.4236 24.1139 34.4236 24.1093V16.7985C34.4237 16.7924 34.4257 16.7865 34.4294 16.7817L43.5756 4.16251C43.5778 4.15937 43.5806 4.1567 43.5838 4.15465C43.5871 4.1526 43.5907 4.15121 43.5945 4.15056C43.5982 4.14992 43.6021 4.15002 43.6059 4.15088C43.6096 4.15173 43.6131 4.15332 43.6162 4.15555Z" fill="#FB005B"/>
<path d="M18.6547 21.9065L18.6379 21.8897C18.6382 21.8874 18.6384 21.8851 18.6384 21.8828C18.6392 21.8785 18.6373 21.8733 18.6326 21.8671L9.4957 9.26012C9.49203 9.25503 9.49052 9.2487 9.4915 9.24251C9.49248 9.23631 9.49586 9.23076 9.50092 9.22705L16.4642 4.16244C16.4713 4.15742 16.4801 4.1554 16.4886 4.15681C16.4972 4.15822 16.5049 4.16296 16.51 4.16999C19.5626 8.35451 22.6137 12.5388 25.6632 16.723C25.6916 16.7624 25.7195 16.799 25.7195 16.8518V24.1087C25.7195 24.1127 25.7185 24.1166 25.7167 24.1202C25.7149 24.1237 25.7123 24.1268 25.7091 24.1292C25.7059 24.1316 25.7022 24.1332 25.6982 24.1338C25.6943 24.1345 25.6902 24.1342 25.6864 24.133C25.0719 23.9369 18.682 21.8781 18.6547 21.9065Z" fill="#00F2E6"/>
<path d="M18.6379 21.8898L18.6548 21.9066L22.9639 27.8358C22.9762 27.8528 22.9724 27.8648 22.9522 27.8718C20.0532 28.8385 17.7424 29.6022 16.0198 30.1627C15.9507 30.1853 15.8944 30.1569 15.8271 30.1349C10.9316 28.5291 6.04587 26.9262 1.17004 25.3262C1.1391 25.3161 1.12865 25.2956 1.13871 25.2646L3.78184 17.1002C3.78765 17.0828 3.79925 17.0768 3.81666 17.0822L18.6379 21.8898Z" fill="#00B9F1"/>
<path d="M37.1138 27.8405C38.5366 25.8879 39.9618 23.9306 41.3846 21.9751C41.4229 21.9229 41.4734 21.8865 41.5361 21.866C46.4467 20.2707 51.3577 18.6768 56.2691 17.0846C56.2889 17.078 56.302 17.0848 56.3086 17.1049L58.9535 25.2699C58.9624 25.2981 58.9529 25.3169 58.925 25.3262L44.1577 30.172C44.1294 30.1811 44.0992 30.1811 44.0713 30.172L37.1254 27.8765C37.122 27.8754 37.1188 27.8734 37.1162 27.8709C37.1137 27.8683 37.1117 27.8651 37.1106 27.8616C37.1095 27.8581 37.1092 27.8544 37.1097 27.8507C37.1103 27.847 37.1117 27.8435 37.1138 27.8405ZM18.6426 38.4275L18.6258 38.4444L3.81556 43.2322C3.79622 43.2384 3.78345 43.232 3.77726 43.213L1.13239 35.0469C1.1231 35.0186 1.13239 35.0001 1.16024 34.9912L15.9171 30.2074C15.9531 30.1958 15.9891 30.1958 16.025 30.2074L22.9668 32.4438C22.9695 32.4446 22.972 32.4461 22.974 32.448C22.976 32.45 22.9775 32.4524 22.9783 32.4551C22.9792 32.4578 22.9794 32.4607 22.9789 32.4634C22.9784 32.4662 22.9772 32.4688 22.9755 32.471L18.6426 38.4275Z" fill="#D63AFF"/>
<path d="M41.474 38.4298L41.4159 38.3817L37.1225 32.4803C37.1105 32.4633 37.1144 32.4517 37.1341 32.4455C39.4351 31.6993 41.7337 30.9581 44.0301 30.2219C44.0846 30.2045 44.1212 30.1958 44.1792 30.2149C49.0995 31.8103 54.0188 33.4051 58.9372 34.9993C58.9404 35.0002 58.9434 35.0019 58.946 35.004C58.9486 35.0062 58.9507 35.0089 58.9523 35.0119C58.9539 35.0149 58.9548 35.0182 58.9551 35.0216C58.9554 35.025 58.9551 35.0285 58.954 35.0318L56.3063 43.2113C56.3005 43.2287 56.2889 43.2347 56.2715 43.2292L41.474 38.4298Z" fill="#00B9F1"/>
<path d="M18.6257 38.4443L18.6425 38.4275L25.6696 36.1842C25.7029 36.1737 25.7195 36.1859 25.7195 36.2207V43.4613C25.7195 43.5047 25.7057 43.5468 25.6801 43.5814L16.5118 56.1524C16.499 56.1698 16.4839 56.1722 16.4665 56.1594L9.50851 51.0989C9.48684 51.083 9.48394 51.064 9.4998 51.042L18.6257 38.4443Z" fill="#FB005B"/>
<path d="M41.4158 38.3816L41.4739 38.4298C41.4584 38.4433 41.4569 38.4586 41.4692 38.4756C44.5083 42.666 47.5464 46.8577 50.5835 51.0507C50.5955 51.0681 50.593 51.083 50.576 51.0954L43.6209 56.153C43.6172 56.1556 43.6131 56.1575 43.6087 56.1586C43.6043 56.1596 43.5998 56.1598 43.5953 56.1591C43.5909 56.1584 43.5867 56.1569 43.5829 56.1545C43.5791 56.1522 43.5759 56.1491 43.5733 56.1455L34.4416 43.5461C34.4296 43.5298 34.4236 43.5114 34.4236 43.4909V36.2068C34.4236 36.2031 34.4245 36.1994 34.4262 36.1961C34.4279 36.1928 34.4303 36.1899 34.4334 36.1877C34.4364 36.1855 34.44 36.1841 34.4437 36.1834C34.4474 36.1828 34.4513 36.1831 34.4549 36.1842C36.7578 36.925 39.0636 37.6679 41.3723 38.413C41.389 38.4184 41.4035 38.4079 41.4158 38.3816Z" fill="#00F2E6"/>
</svg>
