<svg width="48" height="48" viewBox="0 0 48 48" fill="none" xmlns="http://www.w3.org/2000/svg">
<path d="M36.75 0H11.25C5.0368 0 0 5.0368 0 11.25V36.75C0 42.9632 5.0368 48 11.25 48H36.75C42.9632 48 48 42.9632 48 36.75V11.25C48 5.0368 42.9632 0 36.75 0Z" fill="#242938"/>
<path d="M32.0227 7.89332L36.2779 10.9338C36.2816 10.9365 36.2841 10.9406 36.2848 10.9451C36.2855 10.9495 36.2845 10.9541 36.2818 10.9578L30.6997 18.5272C30.6974 18.5303 30.6941 18.5325 30.6904 18.5335L26.4325 19.8823C26.4298 19.8831 26.427 19.8833 26.4242 19.8829C26.4215 19.8824 26.4189 19.8813 26.4166 19.8797C26.4144 19.8781 26.4125 19.8759 26.4113 19.8735C26.41 19.871 26.4094 19.8683 26.4094 19.8656V15.4791C26.4095 15.4754 26.4107 15.4719 26.413 15.469L31.9979 7.89749C31.9993 7.89561 32.001 7.89401 32.003 7.89278C32.0049 7.89155 32.0071 7.89071 32.0094 7.89033C32.0117 7.88994 32.0141 7.89 32.0164 7.89051C32.0187 7.89103 32.0208 7.89198 32.0227 7.89332Z" fill="#FB005B"/>
<path d="M16.7806 18.544L16.7703 18.5339C16.7705 18.5325 16.7706 18.5311 16.7706 18.5297C16.7711 18.5271 16.7699 18.524 16.7671 18.5203L11.1878 10.9561C11.1856 10.9531 11.1846 10.9493 11.1852 10.9455C11.1858 10.9418 11.1879 10.9385 11.191 10.9363L15.443 7.8975C15.4473 7.89449 15.4527 7.89328 15.4579 7.89412C15.4631 7.89497 15.4678 7.89781 15.4709 7.90203C17.335 10.4127 19.198 12.9233 21.0602 15.4338C21.0775 15.4575 21.0945 15.4794 21.0945 15.5111V19.8652C21.0945 19.8676 21.094 19.87 21.0929 19.8721C21.0917 19.8743 21.0902 19.8761 21.0882 19.8776C21.0862 19.879 21.0839 19.8799 21.0815 19.8803C21.0791 19.8807 21.0767 19.8806 21.0743 19.8799C20.6991 19.7622 16.7972 18.5269 16.7806 18.544Z" fill="#00F2E6"/>
<path d="M16.7702 18.5339L16.7805 18.544L19.4117 22.1015C19.4193 22.1117 19.4169 22.1189 19.4047 22.1231C17.6344 22.7031 16.2234 23.1613 15.1715 23.4976C15.1293 23.5112 15.0949 23.4941 15.0538 23.4809C12.0645 22.5174 9.08111 21.5557 6.10379 20.5957C6.08489 20.5897 6.07852 20.5774 6.08466 20.5588L7.69863 15.6601C7.70218 15.6497 7.70926 15.6461 7.71989 15.6493L16.7702 18.5339Z" fill="#00B9F1"/>
<path d="M28.0521 22.1042C28.9209 20.9327 29.7911 19.7583 30.66 18.585C30.6833 18.5537 30.7142 18.5318 30.7524 18.5195C33.751 17.5623 36.7498 16.606 39.7489 15.6507C39.7609 15.6467 39.769 15.6508 39.773 15.6629L41.388 20.5619C41.3935 20.5788 41.3877 20.5901 41.3707 20.5956L32.3533 23.5031C32.336 23.5086 32.3176 23.5086 32.3005 23.5031L28.0592 22.1258C28.0571 22.1252 28.0551 22.124 28.0536 22.1225C28.052 22.1209 28.0508 22.119 28.0501 22.1169C28.0494 22.1148 28.0493 22.1126 28.0496 22.1104C28.0499 22.1082 28.0508 22.1061 28.0521 22.1042ZM16.773 28.4565L16.7627 28.4665L7.71916 31.3392C7.70735 31.343 7.69956 31.3391 7.69578 31.3277L6.08074 26.4281C6.07507 26.4111 6.08074 26.4 6.09775 26.3946L15.1087 23.5244C15.1307 23.5174 15.1527 23.5174 15.1746 23.5244L19.4135 24.8662C19.4151 24.8667 19.4166 24.8676 19.4179 24.8688C19.4191 24.8699 19.42 24.8714 19.4205 24.873C19.421 24.8746 19.4212 24.8763 19.4209 24.878C19.4206 24.8797 19.4199 24.8812 19.4188 24.8826L16.773 28.4565Z" fill="#D63AFF"/>
<path d="M30.7146 28.4579L30.6792 28.429L28.0575 24.8882C28.0502 24.878 28.0525 24.871 28.0646 24.8673C29.4696 24.4196 30.8732 23.9748 32.2754 23.5331C32.3088 23.5227 32.3311 23.5175 32.3665 23.529C35.371 24.4862 38.3749 25.443 41.3782 26.3996C41.3802 26.4001 41.382 26.4011 41.3836 26.4024C41.3852 26.4037 41.3865 26.4053 41.3874 26.4071C41.3884 26.4089 41.389 26.4109 41.3891 26.413C41.3893 26.415 41.3891 26.4171 41.3885 26.4191L39.7717 31.3268C39.7681 31.3372 39.761 31.3408 39.7504 31.3375L30.7146 28.4579Z" fill="#00B9F1"/>
<path d="M16.7628 28.4666L16.7731 28.4565L21.064 27.1105C21.0843 27.1042 21.0945 27.1115 21.0945 27.1324V31.4768C21.0945 31.5028 21.086 31.5281 21.0704 31.5489L15.472 39.0915C15.4642 39.1019 15.4549 39.1033 15.4443 39.0957L11.1955 36.0593C11.1823 36.0498 11.1805 36.0384 11.1902 36.0252L16.7628 28.4666Z" fill="#FB005B"/>
<path d="M30.6791 28.429L30.7145 28.4579C30.7051 28.466 30.7041 28.4752 30.7117 28.4854C32.5675 30.9996 34.4226 33.5146 36.2772 36.0304C36.2845 36.0409 36.283 36.0498 36.2726 36.0572L32.0256 39.0918C32.0233 39.0934 32.0208 39.0945 32.0181 39.0952C32.0154 39.0958 32.0127 39.0959 32.01 39.0955C32.0073 39.095 32.0047 39.0941 32.0024 39.0927C32.0001 39.0913 31.9981 39.0895 31.9965 39.0873L26.4204 31.5276C26.4131 31.5179 26.4094 31.5069 26.4094 31.4946V27.1241C26.4094 27.1218 26.41 27.1196 26.411 27.1177C26.412 27.1157 26.4135 27.114 26.4154 27.1126C26.4173 27.1113 26.4194 27.1104 26.4217 27.1101C26.424 27.1097 26.4263 27.1098 26.4286 27.1105C27.8348 27.555 29.2428 28.0007 30.6525 28.4478C30.6627 28.451 30.6716 28.4448 30.6791 28.429Z" fill="#00F2E6"/>
</svg>
