<svg xmlns="http://www.w3.org/2000/svg" viewBox="0 0 1016 1034"><g fill="none" stroke-width="2"><path stroke="#fd80ad" d="M734.42 54.38a.5.5 0 0 0-.7.12L576.1 271.97a.5.5 0 0 0-.1.29v125.99a.5.5 0 0 0 .65.48l120.17-38.74a.5.5 0 0 0 .26-.18L854.62 142.4a.5.5 0 0 0-.11-.69L734.42 54.38" vector-effect="non-scaling-stroke"/><path stroke="#80dcf8" d="M303.96 360 48.54 277.15q-.45-.14-.6.31L2.39 418.16q-.26.8.54 1.06 126.04 41.36 252.59 82.87c1.16.38 2.13.87 3.32.48q44.53-14.49 119.47-39.48.52-.18.2-.62l-74.26-102.18" vector-effect="non-scaling-stroke"/><path stroke="#80f9f3" d="M304.25 360.29c.47-.49 110.59 34.99 121.18 38.37a.44.44 0 0 0 .57-.42V273.18c0-.91-.48-1.54-.97-2.22Q346.2 162.8 267.29 54.63a.57.57 0 0 0-.79-.13l-120 87.28a.41.41 0 0 0-.09.57l157.46 217.26q.12.16.1.27 0 .06-.01.12" vector-effect="non-scaling-stroke"/><path stroke="#00d6ec" d="m304.25 360.29-.29-.29" vector-effect="non-scaling-stroke"/><path stroke="#eb9dff" d="M695.96 361.47c-24.52 33.7-49.08 67.43-73.6 101.08a.41.4-63.2 0 0 .2.62l119.7 39.56a2.45 2.4-44.4 0 0 1.49 0l254.49-83.51q.72-.24.49-.97l-45.58-140.71q-.17-.52-.68-.35-126.96 41.16-253.9 82.4-1.62.53-2.61 1.88" vector-effect="non-scaling-stroke"/><path stroke="#fd80ad" d="m303.75 645.29-157.27 217.1q-.41.57.15.98l119.91 87.21q.45.33.78-.12l158-216.64a3.5 3.47 63.4 0 0 .68-2.07V606.97q0-.9-.86-.63L304.04 645" vector-effect="non-scaling-stroke"/><path stroke="#eb9dff" d="m304.04 645 74.67-102.65a.3.3 0 0 0-.15-.47l-119.63-38.54q-.93-.3-1.86 0L2.76 585.78q-.72.23-.48.96l45.58 140.73q.16.49.66.33l255.23-82.51" vector-effect="non-scaling-stroke"/><path stroke="#e91dad" d="m304.04 645-.29.29" vector-effect="non-scaling-stroke"/><path stroke="#80f9f3" d="M696.5 644.21q-.32.68-.75.54-59.68-19.26-119.21-38.41a.42.41 8.8 0 0-.54.39v125.53q0 .53.31.95l157.37 217.13a.59.58-35.7 0 0 .82.13l119.86-87.16q.44-.32.13-.77-78.51-108.39-157.07-216.71-.32-.44.08-.79" vector-effect="non-scaling-stroke"/><path stroke="#80dcf8" d="m697.5 645.04 255.01 82.71q.45.14.6-.31l45.63-140.96a.45.44-73 0 0-.29-.56q-127.14-41.21-254.33-82.45c-1-.33-1.63-.18-2.57.12q-59.36 19.03-118.84 38.32-.51.16-.2.6l73.99 101.7" vector-effect="non-scaling-stroke"/><path stroke="#00d6ec" d="m697.5 645.04-1-.83" vector-effect="non-scaling-stroke"/></g><path fill="#fff" d="M0 0h1016v1034H0V0Zm734.42 54.38a.5.5 0 0 0-.7.12L576.1 271.97a.5.5 0 0 0-.1.29v125.99a.5.5 0 0 0 .65.48l120.17-38.74a.5.5 0 0 0 .26-.18L854.62 142.4a.5.5 0 0 0-.11-.69L734.42 54.38ZM303.96 360 48.54 277.15q-.45-.14-.6.31L2.39 418.16q-.26.8.54 1.06 126.04 41.36 252.59 82.87c1.16.38 2.13.87 3.32.48q44.53-14.49 119.47-39.48.52-.18.2-.62l-74.26-102.18c.47-.49 110.59 34.99 121.18 38.37a.44.44 0 0 0 .57-.42V273.18c0-.91-.48-1.54-.97-2.22Q346.2 162.8 267.29 54.63a.57.57 0 0 0-.79-.13l-120 87.28a.41.41 0 0 0-.09.57l157.46 217.26q.12.16.1.27 0 .06-.01.12Zm392 1.47c-24.52 33.7-49.08 67.43-73.6 101.08a.41.4-63.2 0 0 .2.62l119.7 39.56a2.45 2.4-44.4 0 0 1.49 0l254.49-83.51q.72-.24.49-.97l-45.58-140.71q-.17-.52-.68-.35-126.96 41.16-253.9 82.4-1.62.53-2.61 1.88ZM303.75 645.29l-157.27 217.1q-.41.57.15.98l119.91 87.21q.45.33.78-.12l158-216.64a3.5 3.47 63.4 0 0 .68-2.07V606.97q0-.9-.86-.63L304.04 645l74.67-102.65a.3.3 0 0 0-.15-.47l-119.63-38.54q-.93-.3-1.86 0L2.76 585.78q-.72.23-.48.96l45.58 140.73q.16.49.66.33l255.23-82.51Zm392.75-1.08q-.32.68-.75.54-59.68-19.26-119.21-38.41a.42.41 8.8 0 0-.54.39v125.53q0 .53.31.95l157.37 217.13a.59.58-35.7 0 0 .82.13l119.86-87.16q.44-.32.13-.77-78.51-108.39-157.07-216.71-.32-.44.08-.79l255.01 82.71q.45.14.6-.31l45.63-140.96a.45.44-73 0 0-.29-.56q-127.14-41.21-254.33-82.45c-1-.33-1.63-.18-2.57.12q-59.36 19.03-118.84 38.32-.51.16-.2.6l73.99 101.7Z"/><path fill="#fb005b" d="m734.42 54.38 120.09 87.33a.5.5 0 0 1 .11.69L697.08 359.81a.5.5 0 0 1-.26.18l-120.17 38.74a.5.5 0 0 1-.65-.48V272.26a.5.5 0 0 1 .1-.29L733.72 54.5a.5.5 0 0 1 .7-.12Z"/><path fill="#00f2e6" d="m304.25 360.29-.29-.29q.01-.06.01-.12.02-.11-.1-.27L146.41 142.35a.41.41 0 0 1 .09-.57l120-87.28a.57.57 0 0 1 .79.13Q346.2 162.8 425.03 270.96c.49.68.97 1.31.97 2.22v125.06a.44.44 0 0 1-.57.42c-10.59-3.38-120.71-38.86-121.18-38.37Z"/><path fill="#00b9f1" d="m303.96 360 .29.29 74.26 102.18q.32.44-.2.62-74.94 24.99-119.47 39.48c-1.19.39-2.16-.1-3.32-.48Q128.97 460.58 2.93 419.22q-.8-.26-.54-1.06l45.55-140.7q.15-.45.6-.31L303.96 360Z"/><path fill="#d63aff" d="M622.36 462.55c24.52-33.65 49.08-67.38 73.6-101.08q.99-1.35 2.61-1.88 126.94-41.24 253.9-82.4.51-.17.68.35l45.58 140.71q.23.73-.49.97l-254.49 83.51a2.45 2.4-44.4 0 1-1.49 0l-119.7-39.56a.41.4-63.2 0 1-.2-.62ZM304.04 645l-.29.29L48.52 727.8q-.5.16-.66-.33L2.28 586.74q-.24-.73.48-.96l254.31-82.44q.93-.3 1.86 0l119.63 38.54a.3.3 0 0 1 .15.47L304.04 645Z"/><path fill="#00b9f1" d="m697.5 645.04-1-.83-73.99-101.7q-.31-.44.2-.6 59.48-19.29 118.84-38.32c.94-.3 1.57-.45 2.57-.12q127.19 41.24 254.33 82.45a.45.44-73 0 1 .29.56l-45.63 140.96q-.15.45-.6.31L697.5 645.04Z"/><path fill="#fb005b" d="m303.75 645.29.29-.29 121.1-38.66q.86-.27.86.63v124.78a3.5 3.47 63.4 0 1-.68 2.07l-158 216.64q-.33.45-.78.12l-119.91-87.21q-.56-.41-.15-.98l157.27-217.1Z"/><path fill="#00f2e6" d="m696.5 644.21 1 .83q-.4.35-.08.79 78.56 108.32 157.07 216.71.31.45-.13.77L734.5 950.47a.59.58-35.7 0 1-.82-.13L576.31 733.21q-.31-.42-.31-.95V606.73a.42.41 8.8 0 1 .54-.39q59.53 19.15 119.21 38.41.43.14.75-.54Z"/></svg>