<svg width="89" height="60" viewBox="0 0 89 60" fill="none" xmlns="http://www.w3.org/2000/svg">
<path d="M21.2404 54.6602H17.8315C17.7109 48.9061 17.3789 43.4965 16.8361 38.4275H16.8058L11.6156 54.6602H9.02014L3.86088 38.4275H3.83124C3.44851 43.2943 3.20741 48.7052 3.10728 54.6602H0C0.200257 47.4187 0.703535 40.6297 1.50786 34.2926H5.73302L10.6505 49.2585H10.6808L15.6286 34.2926H19.6713C20.5567 41.7153 21.0797 48.5049 21.2404 54.6602ZM36.0246 39.633C34.6366 47.1651 32.8053 52.6379 30.5326 56.0541C28.7619 58.6838 26.8219 60 24.7094 60C24.1461 60 23.4512 59.83 22.6277 59.4927V57.6766C23.0302 57.7346 23.5026 57.7675 24.0454 57.7675C25.0322 57.7675 25.8253 57.4961 26.43 56.952C27.1533 56.2893 27.5149 55.5442 27.5149 54.7202C27.5149 54.155 27.233 52.9995 26.6704 51.2499L22.9294 39.6324H26.2785L28.9635 48.3211C29.5669 50.2941 29.8186 51.6715 29.7178 52.4561C31.1861 48.5346 32.2118 44.2587 32.7961 39.6317H36.0246V39.633Z" fill="#5D87A1"/>
<path d="M81.4015 54.6604H71.718V34.2928H74.9755V52.1532H81.4015V54.6604ZM69.1831 55.1525L65.4389 53.3047C65.7709 53.032 66.0884 52.7368 66.3743 52.395C67.9658 50.5255 68.7596 47.7607 68.7596 44.0988C68.7596 37.3605 66.1154 33.9897 60.825 33.9897C58.2309 33.9897 56.2073 34.8448 54.76 36.5555C53.1698 38.4264 52.376 41.1812 52.376 44.8234C52.376 48.4037 53.0796 51.03 54.4873 52.696C55.7751 54.2052 57.7164 54.9608 60.3125 54.9608C61.2809 54.9608 62.1695 54.8422 62.9791 54.6031L67.8538 57.4409L69.1831 55.1525ZM57.0537 50.5847C56.229 49.258 55.8166 47.1277 55.8166 44.1903C55.8166 39.0621 57.3746 36.4949 60.4937 36.4949C62.1241 36.4949 63.319 37.1089 64.0832 38.3341C64.9066 39.6628 65.3209 41.7741 65.3209 44.6706C65.3209 49.841 63.7617 52.4266 60.6445 52.4266C59.0135 52.4272 57.8185 51.8153 57.0537 50.5847ZM50.9564 49.015C50.9564 50.7422 50.3227 52.1591 49.0566 53.2691C47.7892 54.3745 46.0897 54.9285 43.96 54.9285C41.9679 54.9285 40.0365 54.2921 38.167 53.026L39.0425 51.2771C40.6511 52.0827 42.1076 52.4832 43.4152 52.4832C44.6424 52.4832 45.6015 52.2112 46.2972 51.6717C46.9921 51.1302 47.4065 50.3707 47.4065 49.4102C47.4065 48.2001 46.5626 47.1659 45.0146 46.2996C43.5871 45.5157 40.7321 43.8768 40.7321 43.8768C39.1847 42.749 38.4101 41.5383 38.4101 39.5436C38.4101 37.8928 38.9878 36.5602 40.1439 35.5463C41.3013 34.5286 42.7946 34.0214 44.6253 34.0214C46.5159 34.0214 48.2345 34.5279 49.7826 35.5305L48.9974 37.2802C47.6733 36.7176 46.3663 36.4363 45.0772 36.4363C44.0331 36.4363 43.2268 36.6873 42.6662 37.1912C42.101 37.6932 41.7525 38.3355 41.7525 39.1233C41.7525 40.3275 42.6142 41.3749 44.2044 42.2583C45.6509 43.0435 48.5771 44.7107 48.5771 44.7107C50.164 45.8365 50.9564 47.0361 50.9564 49.015Z" fill="#F8981D"/>
<path d="M85.492 27.4708C83.5223 27.4208 81.9973 27.619 80.7174 28.1605C80.3479 28.3081 79.7603 28.3081 79.7089 28.7751C79.9085 28.9728 79.9315 29.2916 80.1048 29.5643C80.3999 30.0564 80.9144 30.7184 81.3841 31.0636C81.8999 31.4588 82.4176 31.8501 82.9604 32.1947C83.9176 32.7869 85.0025 33.1314 85.9353 33.7216C86.4788 34.0648 87.0189 34.5088 87.563 34.8784C87.8305 35.0753 88.0018 35.3948 88.3489 35.518V35.4429C88.175 35.2216 88.1256 34.9014 87.955 34.6551L87.2159 33.9423C86.5018 32.9832 85.6145 32.1459 84.6573 31.4582C83.8695 30.9154 82.1462 30.1776 81.8267 29.2698L81.7767 29.2198C82.3182 29.1691 82.9604 28.9728 83.4749 28.8219C84.3122 28.6012 85.0756 28.6513 85.9346 28.4306C86.3299 28.3318 86.7218 28.208 87.1184 28.0861V27.8641C86.6731 27.4208 86.3556 26.8318 85.8872 26.4129C84.6343 25.3306 83.2536 24.272 81.8267 23.386C81.0626 22.8926 80.0798 22.5751 79.2662 22.1554C78.9731 22.0072 78.479 21.9341 78.3064 21.6877C77.8651 21.1463 77.6167 20.4335 77.2966 19.7925C76.5851 18.4401 75.8941 16.9395 75.2802 15.5094C74.8362 14.5503 74.5661 13.5925 74.0246 12.7052C71.4885 8.52215 68.7343 5.98863 64.5012 3.50188C63.5915 2.98411 62.5092 2.76343 61.3531 2.49203L59.5066 2.39454C59.1127 2.22195 58.7181 1.75358 58.3743 1.53225C56.9698 0.6469 53.354 -1.27201 52.3211 1.26151C51.6558 2.8629 53.3052 4.4373 53.8718 5.24952C54.2901 5.81341 54.8322 6.45502 55.1247 7.09531C55.2979 7.51361 55.3467 7.9576 55.5199 8.39962C55.9139 9.48259 56.2821 10.6874 56.7999 11.6979C57.0699 12.2131 57.3644 12.7546 57.7096 13.2209C57.9072 13.4937 58.2511 13.6142 58.3262 14.0589C57.983 14.549 57.9559 15.2887 57.759 15.904C56.8736 18.6845 57.2195 22.1291 58.4744 24.1725C58.867 24.7878 59.8037 26.1421 61.0566 25.6231C62.166 25.1804 61.9203 23.7779 62.2391 22.5481C62.3122 22.251 62.2641 22.056 62.4117 21.861V21.9091C62.7549 22.5975 63.1014 23.2608 63.4195 23.9512C64.183 25.156 65.5124 26.4116 66.6197 27.2462C67.2093 27.6915 67.6763 28.453 68.4148 28.7251V28.6513H68.366C68.2165 28.4306 67.9978 28.3318 67.8015 28.1605C67.3575 27.7172 66.8661 27.1757 66.5216 26.6843C65.49 25.3055 64.577 23.7792 63.7667 22.2042C63.3701 21.4401 63.0283 20.6048 62.7088 19.8419C62.5599 19.5475 62.5599 19.1035 62.3129 18.9553C61.9426 19.4961 61.4031 19.9645 61.1331 20.6272C60.6647 21.6871 60.6159 22.9907 60.442 24.3464L60.3452 24.3938C59.5613 24.1969 59.2886 23.386 58.9908 22.6976C58.2537 20.9493 58.1299 18.1431 58.7695 16.126C58.9408 15.6102 59.6818 13.9857 59.3861 13.4943C59.2379 13.0233 58.7451 12.7552 58.475 12.3843C58.1575 11.918 57.8097 11.3277 57.5884 10.81C56.9981 9.43253 56.701 7.90623 56.0654 6.52946C55.7683 5.88784 55.2525 5.22383 54.8348 4.63294C54.3658 3.96893 53.85 3.50123 53.4791 2.71403C53.3566 2.44329 53.1847 2.00061 53.3817 1.70616C53.4297 1.50853 53.5299 1.43475 53.7262 1.38535C54.045 1.11592 54.956 1.45847 55.2755 1.60668C56.1879 1.97558 56.9507 2.3201 57.7122 2.83655C58.0567 3.08358 58.4263 3.55129 58.8683 3.67447H59.3861C60.172 3.84574 61.058 3.7219 61.7977 3.94456C63.1014 4.36352 64.2825 4.97812 65.3418 5.64147C68.565 7.68554 71.223 10.5899 73.0174 14.0589C73.3119 14.6241 73.437 15.1418 73.7058 15.7314C74.2242 16.9382 74.8652 18.1687 75.3796 19.3499C75.8968 20.506 76.3895 21.6864 77.1279 22.6469C77.4962 23.1633 78.9757 23.4341 79.6391 23.7048C80.1298 23.9255 80.894 24.1218 81.3366 24.3925C82.1739 24.9083 83.0079 25.5005 83.7951 26.0677C84.187 26.3628 85.4188 26.9781 85.492 27.4708ZM60.39 6.08547C60.0503 6.08193 59.7116 6.12358 59.3828 6.20931V6.25871H59.4302C59.6285 6.65198 59.973 6.9247 60.2187 7.2679C60.417 7.66249 60.5889 8.05378 60.7833 8.44771L60.8307 8.39896C61.1779 8.15325 61.3504 7.75932 61.3504 7.16843C61.2009 6.99453 61.1778 6.82457 61.0533 6.65198C60.9084 6.40561 60.5889 6.28309 60.39 6.08547Z" fill="#5D87A1"/>
<path d="M87.8348 54.6572H88.3446V52.1619H87.5798L86.956 53.8648L86.2782 52.1619H85.5417V54.6572H86.0232V52.7587H86.0502L86.7604 54.6572H87.1273L87.8348 52.7587V54.6572ZM83.7275 54.6572H84.267V52.5848H84.9732V52.1613H82.9917V52.5848H83.7262L83.7275 54.6572Z" fill="#F8981D"/>
</svg>
