<svg width="60" height="60" viewBox="0 0 60 60" fill="none" xmlns="http://www.w3.org/2000/svg">
<g clip-path="url(#clip0_939_515)">
<path d="M35.3284 0C34.8947 0 34.4918 0.0934119 34.1198 0.217882C34.9102 0.746587 35.3439 1.44659 35.5609 2.24C35.5765 2.34894 35.6075 2.42682 35.6231 2.53553C35.6382 2.62894 35.6538 2.72235 35.6538 2.81553C35.7159 4.18447 35.2976 4.35554 35.003 5.16448C34.5537 6.20682 34.6777 7.32681 35.22 8.22893C35.2664 8.33788 35.3284 8.46236 35.406 8.57128C34.8171 4.63553 38.0866 4.04446 38.6908 2.81553C38.7374 1.74235 37.854 1.02659 37.1569 0.528942C36.4906 0.124235 35.8864 0 35.3284 0ZM40.2558 0.886588C40.194 1.24447 40.2402 1.15106 40.2247 1.33788C40.2095 1.46235 40.2095 1.61788 40.194 1.74235C40.1629 1.86659 40.1319 1.99106 40.0853 2.11553C40.0546 2.24023 40.008 2.36447 39.9618 2.48894C39.8996 2.61341 39.8531 2.72235 39.7909 2.84659C39.7447 2.90894 39.7136 2.9713 39.6671 3.03341L39.5742 3.17341C39.4969 3.28235 39.4193 3.3913 39.3416 3.48447C39.2488 3.57787 39.1712 3.68682 39.0628 3.76447V3.78C38.9696 3.85789 38.8768 3.95128 38.7685 4.02893C38.4431 4.27789 38.0711 4.46446 37.7301 4.69789C37.6218 4.77554 37.5134 4.83787 37.4202 4.93129C37.3119 5.00894 37.2187 5.08659 37.1259 5.18022C37.0175 5.2734 36.9402 5.36682 36.8471 5.47578C36.7698 5.56895 36.6766 5.67812 36.6145 5.78682C36.5372 5.89578 36.4599 6.00448 36.3978 6.1134C36.3356 6.23813 36.2891 6.34684 36.2269 6.47107C36.1807 6.59576 36.1345 6.70472 36.1034 6.82895C36.0568 6.96893 36.0258 7.09341 35.9947 7.21789C35.9795 7.28022 35.9795 7.35787 35.964 7.42024C35.9481 7.48235 35.9481 7.54472 35.9329 7.60684C35.9329 7.73128 35.9174 7.87129 35.9174 7.99578C35.9174 8.08916 35.9174 8.18234 35.9329 8.27576C35.9329 8.40025 35.9485 8.52469 35.9795 8.66471C35.9947 8.78919 36.0258 8.91342 36.0568 9.03787C36.1034 9.1626 36.1345 9.28683 36.1811 9.41128C36.2118 9.48893 36.2584 9.56682 36.2891 9.62919L32.7256 8.24471C32.1302 8.07452 31.531 7.91884 30.9281 7.77787L29.952 7.54472C29.0222 7.35787 28.077 7.21789 27.132 7.12472C27.101 7.12472 27.0853 7.10894 27.0546 7.10894C26.1329 7.01566 25.2071 6.96893 24.2808 6.96893C23.599 6.96893 22.9172 6.99999 22.2511 7.04658C21.3056 7.10894 20.3606 7.23342 19.4152 7.38893C19.1829 7.42024 18.9504 7.46682 18.7181 7.51366C18.2377 7.60684 17.7729 7.71575 17.3236 7.82471L16.6261 8.01131C16.3938 8.10469 16.1768 8.21365 15.96 8.30682L15.4486 8.54022C15.4177 8.55575 15.3865 8.55575 15.3713 8.57128C15.2161 8.64893 15.0766 8.71129 14.9372 8.78894C14.8998 8.80147 14.8635 8.81714 14.8287 8.83578C14.6583 8.91342 14.4879 9.00681 14.3484 9.08471C14.2399 9.13129 14.1314 9.19341 14.0386 9.24C13.9936 9.26859 13.9471 9.2946 13.8991 9.31789C13.7597 9.39554 13.6202 9.4734 13.496 9.55129C13.3568 9.62894 13.2329 9.70673 13.1243 9.78469C13.0158 9.86234 12.9075 9.92471 12.8144 10.0024C12.799 10.0179 12.7835 10.0179 12.7678 10.0334C12.675 10.0958 12.5665 10.1734 12.4734 10.2513L12.4425 10.2823L12.2102 10.4689C12.179 10.4847 12.1481 10.5158 12.1172 10.5313C12.0398 10.5934 11.9623 10.6713 11.8847 10.7336C11.8692 10.7645 11.8383 10.7802 11.8228 10.7958C11.7298 10.8892 11.6367 10.9668 11.5439 11.0602C11.5282 11.0602 11.5282 11.0758 11.513 11.0913C11.4199 11.1689 11.3269 11.2624 11.234 11.3558C11.2184 11.3713 11.2184 11.3868 11.2029 11.3868C11.1256 11.4645 11.0482 11.5423 10.9706 11.6358C10.9397 11.6668 10.8933 11.6979 10.8621 11.7289C10.7848 11.8224 10.6917 11.9158 10.5987 12.0089C10.5832 12.0402 10.5523 12.0558 10.5366 12.0868C10.4128 12.2113 10.3043 12.3358 10.1803 12.4602L10.1339 12.5068C9.88595 12.7713 9.62252 13.0358 9.34359 13.2692C9.06868 13.5151 8.77881 13.7437 8.47571 13.9536C8.17525 14.1652 7.86505 14.3624 7.54616 14.5447C7.23 14.719 6.90406 14.8747 6.57 15.0113C6.24032 15.1518 5.90418 15.2764 5.56267 15.3847C4.91202 15.5247 4.24546 15.7892 3.67242 15.8358C3.54819 15.8358 3.40898 15.8668 3.285 15.8824C3.15547 15.9119 3.02632 15.943 2.89758 15.9758L2.52563 16.1158C2.40164 16.1623 2.27789 16.2247 2.1539 16.2868C2.04539 16.3645 1.9214 16.4268 1.81289 16.5047C1.70437 16.5823 1.5961 16.6758 1.50305 16.7692C1.39453 16.8468 1.28602 16.9558 1.1932 17.0492C1.10016 17.1581 1.00711 17.2515 0.929767 17.3602C0.852424 17.4847 0.759374 17.5937 0.697267 17.7179C0.619924 17.8271 0.542344 17.9513 0.480233 18.0758C0.418359 18.2158 0.356485 18.3402 0.309844 18.4805C0.26097 18.6144 0.214479 18.7492 0.17039 18.8847C0.139453 19.0092 0.108516 19.1336 0.0930469 19.2581C0.0930469 19.2737 0.0773439 19.2892 0.0773439 19.3047C0.0464061 19.4447 0.0464061 19.6315 0.0309375 19.7247C0.0154687 19.8336 0 19.9271 0 20.0358C0 20.0981 0 20.1758 0.0154687 20.2381C0.0309375 20.3471 0.0464061 20.4405 0.0775782 20.5337C0.108516 20.627 0.139453 20.7202 0.186094 20.8136V20.8292C0.2325 20.9226 0.294375 21.016 0.356485 21.1092C0.418359 21.2026 0.480469 21.296 0.558046 21.3892C0.635389 21.4668 0.728202 21.5605 0.821252 21.6381C0.914298 21.7315 1.00734 21.8092 1.11563 21.887C1.48758 22.2137 1.58063 22.3226 2.06086 22.5715C2.1382 22.6181 2.21578 22.6492 2.30883 22.696C2.3243 22.696 2.33977 22.7115 2.35523 22.7115C2.35523 22.7426 2.35523 22.7581 2.37094 22.7892C2.3864 22.9139 2.41734 23.0381 2.44828 23.1626C2.47922 23.3026 2.52563 23.4271 2.57227 23.536C2.61867 23.6294 2.64961 23.7226 2.69625 23.816C2.71172 23.8471 2.72719 23.8783 2.74266 23.8937C2.80477 24.0184 2.86687 24.1271 2.92875 24.236L3.16102 24.5626C3.23836 24.656 3.3314 24.7649 3.42445 24.8584C3.5175 24.9518 3.61055 25.0294 3.71884 25.1226C3.71884 25.1226 3.73454 25.1383 3.74975 25.1383C3.84282 25.216 3.93586 25.2936 4.02868 25.356C4.13718 25.4336 4.24571 25.496 4.36969 25.5583C4.47819 25.6205 4.60218 25.6828 4.72595 25.7294C4.81899 25.776 4.92752 25.8071 5.03601 25.8384C5.05147 25.8539 5.06696 25.8539 5.09788 25.8694C5.16 25.885 5.23733 25.9005 5.29945 25.916C5.25282 26.756 5.23733 27.5494 5.36132 27.8294C5.50076 28.1405 6.18258 27.1918 6.86439 26.1028C6.77156 27.176 6.70969 28.436 6.86439 28.8094C7.03475 29.1984 7.96454 27.985 8.77031 26.6471C19.7564 24.096 29.7816 31.7184 30.8353 42.4832C30.6337 40.8032 28.5731 39.8696 27.6279 40.1029C27.1629 41.2542 26.3728 42.732 25.1023 43.6496C25.2106 42.6229 25.1641 41.5652 24.9471 40.5385C24.6063 41.9696 23.94 43.3076 23.0257 44.4586C21.5538 44.5676 20.082 43.8519 19.3069 42.7786C19.245 42.732 19.2295 42.6385 19.1831 42.5764C19.1365 42.4676 19.0901 42.3586 19.0589 42.2495C19.0138 42.1454 18.9826 42.0356 18.9661 41.9231C18.9506 41.814 18.9506 41.7053 18.9506 41.5807V41.3474C18.9661 41.2387 18.997 41.1296 19.028 41.0206C19.0589 40.9119 19.0901 40.8032 19.1365 40.6941C19.1986 40.5851 19.245 40.4764 19.3223 40.3676C19.5858 39.6208 19.5858 39.0141 19.1056 38.6562C19.0125 38.5952 18.914 38.5433 18.8112 38.5009C18.749 38.4851 18.6717 38.454 18.6096 38.4385C18.5632 38.4229 18.5323 38.4074 18.4856 38.3919C18.3773 38.3608 18.2688 38.3298 18.1603 38.3142C18.0546 38.2832 17.9451 38.2676 17.835 38.2673C17.7265 38.2518 17.6025 38.2362 17.494 38.2362C17.4166 38.2362 17.3393 38.2518 17.2615 38.2518C17.1377 38.2518 17.0292 38.2676 16.9207 38.2987C16.8122 38.3142 16.7037 38.3298 16.5954 38.3608C16.4869 38.3919 16.3784 38.4229 16.2698 38.4695C16.1613 38.5161 16.0683 38.5631 15.96 38.6096C15.867 38.6562 15.7741 38.7187 15.6656 38.7653C12.0553 41.13 14.209 46.6676 16.6727 48.27C15.743 48.4408 14.7977 48.6434 14.5345 48.8453L14.5036 48.8764C15.1697 49.2812 15.867 49.6232 16.5954 49.9189C17.587 50.2454 18.6408 50.5408 19.1056 50.6654V50.6809C20.3893 50.9449 21.7021 51.0392 23.0102 50.9608C29.8746 50.4787 35.4995 45.2365 36.522 38.3298C36.5531 38.4695 36.5841 38.5941 36.6148 38.7342C36.6614 39.0141 36.7235 39.3095 36.7546 39.6053V39.6208C36.7853 39.7609 36.8008 39.9011 36.8167 40.0253V40.0874C36.8319 40.2275 36.8474 40.3676 36.8474 40.4919C36.8629 40.6631 36.8785 40.8342 36.8785 41.0054V41.2542C36.8785 41.3319 36.894 41.4254 36.894 41.5031C36.894 41.5966 36.8785 41.6898 36.8785 41.7829V42.0011C36.8785 42.1098 36.8629 42.2033 36.8629 42.312C36.8629 42.3745 36.8629 42.4366 36.8474 42.5142C36.8474 42.6229 36.8319 42.732 36.8319 42.8566C36.8164 42.9032 36.8164 42.9498 36.8164 42.9964C36.8008 43.1209 36.7853 43.23 36.7698 43.3542C36.7698 43.4008 36.7698 43.4474 36.7542 43.4944C36.7387 43.6496 36.7076 43.7898 36.6925 43.9454V43.9765C36.6614 44.1166 36.6304 44.2722 36.5993 44.4124V44.4589L36.5061 44.8789C36.5061 44.8945 36.4909 44.9255 36.4909 44.9411C36.4599 45.0808 36.4288 45.2209 36.3822 45.3611V45.4076C36.336 45.5633 36.2894 45.7034 36.2584 45.8432C36.2428 45.8587 36.2428 45.8742 36.2428 45.8742L36.1034 46.3408C36.0416 46.4968 35.9951 46.6366 35.9329 46.7922C35.8712 46.9475 35.8246 47.1032 35.7625 47.2433C35.7004 47.3989 35.6382 47.5387 35.5768 47.6944H35.5609C35.4992 47.8345 35.4371 47.9898 35.3594 48.1299C35.3471 48.1673 35.3315 48.204 35.3132 48.2389C35.2976 48.2545 35.2976 48.27 35.2821 48.2855C34.275 50.3234 32.7874 52.1121 30.9281 53.5122C30.8039 53.5899 30.6802 53.6834 30.5562 53.7766C30.5252 53.8076 30.4788 53.8235 30.4477 53.8542C30.3391 53.9322 30.2309 54.0102 30.1069 54.0879L30.1533 54.1811H30.1687L30.8196 54.0879H30.8351C31.2382 54.0258 31.6409 53.9478 32.0437 53.8701C32.1523 53.8546 32.2763 53.8235 32.3845 53.7925C32.4621 53.7766 32.524 53.7611 32.6016 53.7455C32.7101 53.73 32.8186 53.6989 32.9269 53.6834C33.0199 53.6524 33.113 53.6368 33.2058 53.6058C34.7555 53.2324 36.2584 52.7188 37.6994 52.1121C35.2357 55.4876 31.9352 58.2102 28.077 59.9989C29.8589 59.8747 31.6409 59.5789 33.361 59.0813C39.6053 57.2301 44.8581 53.0146 48.0039 47.3368C47.3654 50.9386 45.942 54.354 43.8353 57.3392C45.3371 56.3446 46.7248 55.1866 47.9725 53.8856C51.4436 50.2458 53.7212 45.6254 54.4962 40.6631C55.0246 43.1248 55.176 45.6533 54.9455 48.1613C66.1331 32.4962 55.8752 16.256 51.5831 11.9781C51.5675 11.9471 51.5524 11.9315 51.5524 11.9005C51.5365 11.916 51.5365 11.916 51.5365 11.9315C51.5365 11.9158 51.5365 11.9158 51.5209 11.9005C51.5209 12.0871 51.5054 12.2736 51.4902 12.4605C51.4436 12.8181 51.3971 13.1605 51.3353 13.5028C51.2576 13.8449 51.1648 14.1871 51.0716 14.5294C50.9615 14.8662 50.8373 15.1982 50.6996 15.5247C50.5574 15.8471 50.4021 16.1638 50.2348 16.4739C50.0647 16.7694 49.8787 17.0805 49.6772 17.3605C49.4778 17.6497 49.266 17.9299 49.0419 18.2005C48.8093 18.4805 48.5615 18.7294 48.3138 18.9784C48.1676 19.1123 48.018 19.2419 47.8645 19.367C47.7402 19.476 47.6319 19.5694 47.5076 19.6783C47.2288 19.896 46.95 20.0983 46.6401 20.2849C46.3458 20.4715 46.0355 20.6584 45.726 20.8139C45.4002 20.9694 45.0748 21.1094 44.7498 21.2494C44.4194 21.3744 44.0834 21.4834 43.7425 21.576C43.4001 21.6686 43.0535 21.7465 42.7041 21.8094C42.348 21.8718 41.9919 21.9028 41.6509 21.9339C41.4028 21.9494 41.1547 21.9649 40.9069 21.9649C40.5505 21.9649 40.194 21.9339 39.8534 21.9028C39.4969 21.8715 39.1405 21.8249 38.7995 21.7471C38.4434 21.685 38.1025 21.5918 37.7612 21.4828H37.746C38.0869 21.4515 38.4279 21.4205 38.7688 21.3581C39.1182 21.2969 39.4648 21.2191 39.8068 21.1249C40.1478 21.0323 40.4838 20.9233 40.8138 20.7984C41.1547 20.6736 41.4801 20.5183 41.7904 20.3626C42.1154 20.2073 42.4098 20.036 42.7196 19.8494C43.014 19.6471 43.3087 19.4447 43.5875 19.2271C43.8653 19.0105 44.1293 18.7767 44.3778 18.527C44.6411 18.2936 44.8736 18.0294 45.1062 17.7647C45.3328 17.4924 45.5495 17.2122 45.7567 16.9247C45.7878 16.8781 45.8188 16.816 45.8499 16.7694C46.0048 16.5205 46.1598 16.2715 46.2992 16.0226C46.4693 15.7141 46.6246 15.3974 46.764 15.0737C46.9041 14.7482 47.0284 14.416 47.136 14.0784C47.2444 13.7513 47.322 13.4092 47.3993 13.067C47.4614 12.7094 47.5235 12.3671 47.5542 12.0247C47.5853 11.6671 47.6164 11.3094 47.6164 10.967C47.6164 10.7181 47.6008 10.4692 47.5853 10.2202C47.5546 9.86259 47.508 9.52024 47.4611 9.17788C47.4004 8.82702 47.3227 8.47927 47.2292 8.13575C47.1205 7.80918 47.0121 7.46682 46.8882 7.14025C46.764 6.81364 46.6091 6.48681 46.4541 6.17576C46.2836 5.86472 46.1132 5.55342 45.9275 5.25812C45.7295 4.96655 45.5227 4.68116 45.3074 4.40234C45.0741 4.13404 44.8366 3.86954 44.5948 3.60893C44.4642 3.47548 44.3298 3.34585 44.1918 3.22024C43.4975 2.67904 42.7789 2.17026 42.0381 1.69553C41.9379 1.63742 41.8345 1.58556 41.7282 1.54024C41.2168 1.21341 40.7365 1.04212 40.2558 0.886588Z" fill="#E0234E"/>
</g>
<defs>
<clipPath id="clip0_939_515">
<rect width="60" height="60" fill="white"/>
</clipPath>
</defs>
</svg>
