<svg width="60" height="60" viewBox="0 0 60 60" fill="none" xmlns="http://www.w3.org/2000/svg">
<g clip-path="url(#clip0_939_516)">
<path d="M30 60C46.5686 60 60 46.5686 60 30C60 13.4314 46.5686 0 30 0C13.4314 0 0 13.4314 0 30C0 46.5686 13.4314 60 30 60Z" fill="black"/>
<path d="M49.836 52.5068L23.047 18.0002H18V41.9903H22.0378V23.1279L46.6658 54.9484C47.7758 54.2059 48.8348 53.3903 49.836 52.5068Z" fill="url(#paint0_linear_939_516)"/>
<path d="M38.3337 18.0002H42.3335V42.0001H38.3337V18.0002Z" fill="url(#paint1_linear_939_516)"/>
</g>
<defs>
<linearGradient id="paint0_linear_939_516" x1="36.3333" y1="38.8336" x2="48.1665" y2="53.5002" gradientUnits="userSpaceOnUse">
<stop stop-color="white"/>
<stop offset="1" stop-color="white" stop-opacity="0"/>
</linearGradient>
<linearGradient id="paint1_linear_939_516" x1="40.3332" y1="18.0002" x2="40.2665" y2="35.6252" gradientUnits="userSpaceOnUse">
<stop stop-color="white"/>
<stop offset="1" stop-color="white" stop-opacity="0"/>
</linearGradient>
<clipPath id="clip0_939_516">
<rect width="60" height="60" fill="white"/>
</clipPath>
</defs>
</svg>
