<svg width="48" height="48" viewBox="0 0 48 48" fill="none" xmlns="http://www.w3.org/2000/svg">
<g clip-path="url(#clip0_1461_459)">
<g clip-path="url(#clip1_1461_459)">
<path d="M36.75 0H11.25C5.0368 0 0 5.0368 0 11.25V36.75C0 42.9632 5.0368 48 11.25 48H36.75C42.9632 48 48 42.9632 48 36.75V11.25C48 5.0368 42.9632 0 36.75 0Z" fill="#009639"/>
<path d="M36.6259 39.9375C35.7649 39.9375 34.917 39.6024 34.2838 38.9679L14.6857 19.3701V36.6262C14.6857 38.4553 13.2034 39.9375 11.3741 39.9375C9.54611 39.9375 8.0625 38.4553 8.0625 36.6262V11.3752C8.0625 10.0348 8.87053 8.82813 10.1078 8.31554C11.3437 7.80163 12.769 8.08507 13.7161 9.03344L33.3142 28.6312V11.3752C33.3142 9.54603 34.7966 8.06388 36.6259 8.06388C38.4553 8.06388 39.9375 9.54603 39.9375 11.3752V36.6262C39.9375 37.9652 39.1294 39.1732 37.8922 39.6859C37.4829 39.8554 37.0537 39.9375 36.6259 39.9375Z" fill="white"/>
</g>
</g>
<defs>
<clipPath id="clip0_1461_459">
<rect width="48" height="48" fill="white"/>
</clipPath>
<clipPath id="clip1_1461_459">
<rect width="48" height="48" fill="white"/>
</clipPath>
</defs>
</svg>
