<svg width="128" height="80" viewBox="0 0 128 80" fill="none" xmlns="http://www.w3.org/2000/svg">
<g clip-path="url(#clip0_939_114)">
<path d="M114.313 30.5898C114.261 30.5898 114.211 30.6051 114.168 30.6338L111.822 32.0038C111.778 32.0312 111.741 32.0695 111.717 32.1151C111.692 32.1607 111.679 32.2119 111.68 32.2638V35.0038C111.68 35.1198 111.735 35.2078 111.822 35.2658L114.168 36.6338C114.211 36.6626 114.261 36.678 114.313 36.678C114.365 36.678 114.415 36.6626 114.458 36.6338L116.8 35.2658C116.844 35.2378 116.881 35.1991 116.907 35.153C116.932 35.1071 116.945 35.0553 116.945 35.0028V32.2658C116.946 32.2136 116.932 32.1622 116.907 32.1166C116.882 32.071 116.845 32.0328 116.8 32.0058L114.457 30.6348C114.414 30.6063 114.364 30.59 114.313 30.5898ZM63.2202 46.9738C62.793 46.9738 62.3679 47.0778 62.0058 47.2818L50.4569 54.009C50.0869 54.2261 49.7802 54.5365 49.5672 54.9093C49.3542 55.2816 49.2424 55.7034 49.2429 56.1328V69.5557C49.2429 70.4298 49.7049 71.2458 50.4569 71.6837L53.497 73.4298C54.9727 74.1578 55.4938 74.1557 56.1589 74.1557C58.329 74.1557 59.5738 72.817 59.5738 70.5157V57.2709C59.5727 57.1786 59.5359 57.0906 59.4709 57.025C59.4058 56.9594 59.3183 56.9221 59.2261 56.92H57.7519C57.6597 56.9216 57.5711 56.9589 57.5061 57.0245C57.4405 57.0901 57.4031 57.1781 57.4021 57.2709V70.5189C57.4021 71.5376 56.3327 72.5589 54.6261 71.6858L51.4709 69.8506C51.3549 69.793 51.2959 69.6448 51.2959 69.529V56.1029C51.2959 55.9866 51.3549 55.8426 51.4709 55.784L63.0159 49.0868C63.1029 49.0288 63.249 49.0288 63.3647 49.0868L74.913 55.784C75.0282 55.8426 75.0847 55.9578 75.0847 56.104V69.528C75.0847 69.673 75.0282 69.792 74.913 69.8496L63.3647 76.577C63.2778 76.6346 63.1322 76.6346 63.0159 76.577L60.065 74.7978C59.9781 74.7397 59.8618 74.7109 59.7749 74.769C58.9647 75.2346 58.8229 75.296 58.041 75.5578C57.8671 75.616 57.5781 75.7306 58.1562 76.0506L62.0058 78.353C62.3818 78.5557 62.7861 78.672 63.2202 78.672C63.6538 78.672 64.0869 78.5568 64.4341 78.4117L75.9829 71.6848C76.3535 71.4672 76.6607 71.1562 76.8735 70.7829C77.0869 70.4096 77.1983 69.9866 77.1967 69.5568V56.1328C77.1967 55.2586 76.7349 54.4458 75.9829 54.009L64.4341 47.2818C64.0618 47.0778 63.6442 46.9718 63.2202 46.9738ZM81.2501 53.1038C80.657 53.1062 80.0895 53.344 79.6719 53.7642C79.2543 54.185 79.0213 54.7541 79.0229 55.3466C79.0213 55.9392 79.2549 56.5082 79.6725 56.9285C80.0901 57.3488 80.6575 57.5866 81.2501 57.5888C82.4671 57.5888 83.4778 56.5696 83.4778 55.3466C83.4746 54.7557 83.2394 54.1893 82.8229 53.7701C82.4058 53.3504 81.841 53.1106 81.2501 53.1038ZM81.2202 53.4826C81.4666 53.48 81.7109 53.5258 81.9397 53.6181C82.1685 53.7104 82.3765 53.8474 82.5514 54.0208C82.7269 54.1941 82.8655 54.401 82.9605 54.6282C83.0549 54.856 83.1034 55.1002 83.1029 55.3466C83.1029 56.3669 82.2629 57.241 81.2207 57.241C80.209 57.241 79.369 56.3946 79.369 55.3466C79.369 54.2986 80.2367 53.4826 81.2202 53.4826ZM80.4111 54.0938V56.656H80.905V55.64H81.3391C81.513 55.64 81.5701 55.6976 81.5989 55.8426C81.5989 55.873 81.6847 56.513 81.6847 56.6288H82.2047C82.1471 56.513 82.1178 56.1626 82.089 55.9589C82.0607 55.6389 82.033 55.4058 81.6847 55.377C81.8591 55.3178 82.1482 55.2309 82.1482 54.7648C82.1482 54.0949 81.5679 54.0949 81.2799 54.0949L80.4111 54.0938ZM80.8458 54.5018H81.2501C81.3962 54.5018 81.6261 54.5018 81.6261 54.8506C81.6261 54.9669 81.5701 55.2016 81.2501 55.2016H80.8447L80.8458 54.5018ZM66.3759 56.512C63.0762 56.512 61.1082 57.9098 61.1082 60.2688C61.1082 62.8026 63.0762 63.4986 66.2309 63.8197C70.0207 64.1989 70.3109 64.753 70.3109 65.5098C70.3109 66.8197 69.2671 67.3738 66.8362 67.3738C63.7679 67.3738 63.1029 66.616 62.8709 65.073C62.8709 64.8976 62.729 64.7829 62.5551 64.7829H61.0501C60.9578 64.784 60.8703 64.8213 60.8053 64.8864C60.7407 64.9514 60.7039 65.04 60.7039 65.1317C60.7039 67.112 61.745 69.4416 66.8111 69.4416C70.4559 69.4416 72.569 67.984 72.569 65.4218C72.569 62.9168 70.889 62.248 67.3311 61.7818C63.7407 61.3157 63.3658 61.0538 63.3658 60.2096C63.3658 59.5109 63.6842 58.5797 66.3461 58.5797C68.7189 58.5797 69.6149 59.105 69.9631 60.7056C69.9802 60.7781 70.0213 60.8426 70.0789 60.8896C70.1365 60.9365 70.2074 60.9632 70.2821 60.9658H71.8149C71.9029 60.9658 71.9898 60.9088 72.049 60.8506C72.1013 60.7728 72.1311 60.6816 72.1338 60.5877C71.9029 57.793 70.081 56.512 66.3759 56.512Z" fill="#5FA04E"/>
<path d="M86.072 7.55334e-05C85.9488 -0.00173308 85.8277 0.028967 85.72 0.0890763C85.6085 0.154654 85.5152 0.247689 85.4496 0.359349C85.384 0.47101 85.3483 0.597589 85.3451 0.727077V19.6561C85.3451 19.8301 85.2549 20.0061 85.0821 20.1221C85.0021 20.165 84.9125 20.1874 84.8219 20.1874C84.7312 20.1874 84.6421 20.165 84.5621 20.1221L81.496 18.3471C81.2709 18.2185 81.016 18.1509 80.7568 18.1509C80.4976 18.1509 80.2432 18.2185 80.0181 18.3471L67.7499 25.4821C67.5232 25.6101 67.3339 25.7958 67.2016 26.0204C67.0693 26.245 66.9989 26.5005 66.9968 26.7611V41.0011C66.9968 41.5251 67.2869 42.0211 67.7499 42.2831L80.0203 49.4181C80.2448 49.5465 80.4997 49.614 80.7584 49.614C81.0176 49.614 81.272 49.5465 81.4971 49.4181L93.7659 42.2831C94.2288 42.0211 94.5189 41.5251 94.5189 41.0011V5.50405C94.5189 4.95108 94.2288 4.45407 93.7659 4.19308L86.4459 0.0890763C86.3301 0.0310469 86.2016 0.000585872 86.072 7.55334e-05ZM13.687 17.7661C13.4561 17.7661 13.2251 17.8501 13.023 17.9661L0.753056 25.0751C0.522452 25.2063 0.331072 25.3967 0.198694 25.6267C0.0663157 25.8566 -0.00225891 26.1178 5.67629e-05 26.3831L0.0300567 45.4851C0.0300567 45.7481 0.173057 46.0101 0.405057 46.1271C0.512609 46.1976 0.638432 46.2352 0.767056 46.2352C0.89568 46.2352 1.0215 46.1976 1.12906 46.1271L8.42304 41.9341C8.88608 41.6721 9.17307 41.1761 9.17307 40.6521V31.7121C9.17307 31.1881 9.46304 30.6921 9.92704 30.4301L13.023 28.6251C13.2541 28.4791 13.5161 28.4211 13.7761 28.4211C14.0361 28.4211 14.2971 28.4791 14.5001 28.6251L17.5961 30.4301C18.059 30.6921 18.3491 31.1881 18.3491 31.7121V40.6521C18.3491 41.1761 18.6371 41.6721 19.099 41.9341L26.335 46.1271C26.4475 46.1988 26.5781 46.237 26.7116 46.237C26.845 46.237 26.9756 46.1988 27.0881 46.1271C27.2033 46.0644 27.2991 45.9715 27.3654 45.8584C27.4317 45.7453 27.4658 45.6162 27.4641 45.4851V26.3831C27.4641 25.8591 27.1741 25.3631 26.7101 25.1001L14.4701 17.9661C14.2638 17.8566 14.0383 17.7884 13.8061 17.7651L13.687 17.7661ZM114.354 17.9761C114.101 17.9761 113.85 18.0421 113.618 18.1741L101.346 25.3051C100.883 25.5671 100.596 26.0631 100.596 26.5881V40.8281C100.596 41.3521 100.883 41.8481 101.346 42.1101L113.53 49.0971C113.749 49.2258 113.999 49.2936 114.253 49.2936C114.508 49.2936 114.758 49.2258 114.977 49.0971L122.357 44.9641C122.472 44.9013 122.568 44.8084 122.634 44.6952C122.7 44.5821 122.734 44.4531 122.732 44.3221C122.733 44.1914 122.699 44.0628 122.633 43.9501C122.567 43.8373 122.472 43.7447 122.357 43.6821L110.03 36.5461C109.918 36.4802 109.825 36.3867 109.759 36.2745C109.693 36.1623 109.658 36.0351 109.655 35.9051V31.4491C109.653 31.3184 109.687 31.1898 109.754 31.0771C109.82 30.9643 109.915 30.8717 110.03 30.8091L113.88 28.5951C113.993 28.5233 114.123 28.4852 114.257 28.4852C114.39 28.4852 114.521 28.5233 114.633 28.5951L118.479 30.8081C118.591 30.8735 118.686 30.9669 118.752 31.0791C118.818 31.1914 118.854 31.3188 118.857 31.4491V34.9441C118.857 35.2071 119.001 35.4691 119.232 35.5851C119.345 35.657 119.475 35.6953 119.609 35.6953C119.742 35.6953 119.874 35.657 119.986 35.5851L127.277 31.3051C127.501 31.1746 127.685 30.987 127.813 30.7616C127.94 30.5362 128.005 30.2809 128.001 30.0221V26.5571C128.001 26.0331 127.711 25.5401 127.277 25.2771L115.093 18.1731C114.868 18.0445 114.613 17.9772 114.354 17.9761ZM80.7568 28.6101C80.8219 28.6101 80.888 28.6251 80.9472 28.6551L85.1408 31.1011C85.2571 31.1591 85.3163 31.3031 85.3163 31.4201V36.3121C85.3163 36.4581 85.2571 36.5761 85.1408 36.6341L80.9461 39.0801C80.8875 39.1089 80.8224 39.1238 80.7568 39.1238C80.6917 39.1238 80.6267 39.1089 80.568 39.0801L76.3728 36.6341C76.2571 36.5761 76.1979 36.4291 76.1979 36.3121V31.4201C76.1979 31.2741 76.2581 31.1591 76.3728 31.1001L80.568 28.6551C80.6267 28.6246 80.6912 28.6092 80.7568 28.6101Z" fill="#333333"/>
<path d="M47.982 18.229C47.7575 18.0999 47.5031 18.0319 47.244 18.0319C46.985 18.0319 46.7305 18.0999 46.506 18.229L34.322 25.306C34.0987 25.4363 33.914 25.6235 33.7868 25.8486C33.6596 26.0737 33.5945 26.3285 33.598 26.587V40.768C33.598 41.293 33.888 41.788 34.322 42.05L46.506 49.126C46.7305 49.2552 46.985 49.3231 47.244 49.3231C47.5031 49.3231 47.7575 49.2552 47.982 49.126L60.1649 42.05C60.6278 41.788 60.8891 41.293 60.8891 40.768V26.587C60.8891 26.063 60.599 25.567 60.1649 25.306L47.982 18.229Z" fill="url(#paint0_linear_939_114)"/>
<path d="M60.1942 25.306L47.9532 18.2289C47.833 18.1681 47.707 18.1195 47.5772 18.084L33.8591 41.7C33.9751 41.846 34.1191 41.962 34.2641 42.05L46.5061 49.126C46.8532 49.33 47.2581 49.388 47.6341 49.271L60.5132 25.568C60.4284 25.4571 60.3196 25.3674 60.1942 25.306Z" fill="url(#paint1_linear_939_114)"/>
<path d="M60.1942 42.0487C60.542 41.8447 60.8022 41.4957 60.918 41.1167L47.518 18.0537C47.172 17.9957 46.795 18.0247 46.4771 18.2287L34.322 25.2757L47.432 49.3287C47.6051 49.2997 47.808 49.2417 47.982 49.1537L60.1942 42.0487Z" fill="url(#paint2_linear_939_114)"/>
</g>
<defs>
<linearGradient id="paint0_linear_939_114" x1="52.2054" y1="23.4987" x2="41.0785" y2="46.0566" gradientUnits="userSpaceOnUse">
<stop stop-color="#3F873F"/>
<stop offset="0.33" stop-color="#3F8B3D"/>
<stop offset="0.637" stop-color="#3E9638"/>
<stop offset="0.934" stop-color="#3DA92E"/>
<stop offset="1" stop-color="#3DAE2B"/>
</linearGradient>
<linearGradient id="paint1_linear_939_114" x1="45.3927" y1="35.3335" x2="76.438" y2="12.5366" gradientUnits="userSpaceOnUse">
<stop offset="0.138" stop-color="#3F873F"/>
<stop offset="0.402" stop-color="#52A044"/>
<stop offset="0.713" stop-color="#64B749"/>
<stop offset="0.908" stop-color="#6ABF4B"/>
</linearGradient>
<linearGradient id="paint2_linear_939_114" x1="33.1524" y1="33.6724" x2="61.3446" y2="33.6724" gradientUnits="userSpaceOnUse">
<stop offset="0.092" stop-color="#6ABF4B"/>
<stop offset="0.287" stop-color="#64B749"/>
<stop offset="0.598" stop-color="#52A044"/>
<stop offset="0.862" stop-color="#3F873F"/>
</linearGradient>
<clipPath id="clip0_939_114">
<rect width="128" height="80" fill="white"/>
</clipPath>
</defs>
</svg>
