<svg width="60" height="60" viewBox="0 0 60 60" fill="none" xmlns="http://www.w3.org/2000/svg">
<g clip-path="url(#clip0_940_585)">
<path d="M3 6.92411C3 5.33535 4.33535 4 5.92411 4H53.0776C54.6667 4 56.0021 5.33535 56.0021 6.92411V54.0776C56.0021 55.6667 54.6667 57.0021 53.0776 57.0021H5.92411C4.33535 57.0021 3 55.6667 3 54.0776V6.92411ZM12.8091 47.3027H29.5352L29.5559 23.0668H37.6276L37.6069 47.3229H45.699L45.7197 14.995L13.3917 14.9536L13.3503 47.3027H12.8091Z" fill="#CB3837"/>
<path d="M13.395 31.1294V14.9777H19.96C23.5706 14.9777 30.8391 14.9917 36.1117 15.0087L45.6985 15.0398V47.2812H37.6342V23.0419H29.5236V47.2812H13.395V31.1294Z" fill="white"/>
</g>
<defs>
<clipPath id="clip0_940_585">
<rect width="53" height="53" fill="white" transform="translate(3 4)"/>
</clipPath>
</defs>
</svg>
