<svg width="48" height="48" viewBox="0 0 48 48" fill="none" xmlns="http://www.w3.org/2000/svg">
<g clip-path="url(#clip0_1459_192)">
<g clip-path="url(#clip1_1459_192)">
<path d="M36.75 0H11.25C5.0368 0 0 5.0368 0 11.25V36.75C0 42.9632 5.0368 48 11.25 48H36.75C42.9632 48 48 42.9632 48 36.75V11.25C48 5.0368 42.9632 0 36.75 0Z" fill="#242938"/>
<path d="M38.1525 27.879C34.3425 28.6646 34.0657 27.374 34.0657 27.374C38.0906 21.4018 39.7742 13.8212 38.3212 11.9663C34.361 6.9038 27.5042 9.29926 27.3894 9.36121L27.3525 9.36781C26.5151 9.19977 25.6637 9.11105 24.8094 9.10282C23.085 9.07646 21.7772 9.55501 20.7832 10.3078C20.7832 10.3078 8.55144 5.26902 9.12097 16.6452C9.24227 19.0657 12.5883 34.9704 16.5829 30.1584C18.0542 28.3892 19.4647 26.9032 19.4647 26.9032C20.1635 27.3686 21.0034 27.606 21.8827 27.5203L21.9512 27.4623C21.9311 27.6902 21.9405 27.9197 21.9789 28.1452C20.9507 29.2948 21.2539 29.4965 19.1972 29.9197C17.1168 30.3482 18.3403 31.1115 19.1366 31.3119C20.1043 31.5545 22.3429 31.8973 23.8564 29.78L23.7956 30.0212C24.1991 30.3442 24.4811 32.1214 24.4337 33.7324C24.3862 35.3435 24.3545 36.4483 24.671 37.313C24.9874 38.178 25.3039 40.1212 28.0065 39.5542C30.2649 39.0705 31.4342 37.814 31.599 35.7232C31.715 34.236 31.976 34.4548 31.9946 33.126L32.2055 32.4958C32.4467 30.4787 32.2449 29.8288 33.6358 30.132L33.9746 30.1623C34.9991 30.2085 36.3399 29.9975 37.1255 29.6323C38.8196 28.8467 39.8242 27.5334 38.1538 27.879H38.1525Z" fill="#336791"/>
<path d="M27.3882 9.11176C26.9663 9.24361 34.1963 6.46846 38.3068 11.7195C39.7571 13.5744 38.0762 21.155 34.0512 27.1271M24.0184 28.8345C23.913 32.5865 24.0448 36.3649 24.4114 37.272C24.7778 38.1789 25.5649 39.9746 28.2688 39.3971C30.5273 38.9134 31.3498 37.9759 31.7059 35.9074L32.5403 29.2933L24.0184 28.8345ZM20.778 10.0254C20.778 10.0254 8.53831 5.0209 9.10784 16.397C9.22913 18.8175 12.5751 34.7222 16.5698 29.9102C18.0279 28.1527 19.3463 26.7778 19.3463 26.7778L20.778 10.0254Z" stroke="white" stroke-width="0.943875" stroke-linecap="round" stroke-linejoin="round"/>
<path d="M34.0525 27.1245C34.0525 27.1245 34.3163 28.4165 38.1394 27.6281C39.8098 27.2827 38.8039 28.5958 37.1112 29.3816C35.7216 30.0275 32.605 30.1923 32.5536 29.3025C32.4218 27.0018 34.1937 27.7007 34.0658 27.1245C33.9497 26.6051 33.156 26.0962 32.634 24.8253C32.1765 23.7178 26.3586 15.2144 34.2477 16.4761C34.5377 16.4168 32.191 8.96146 24.8082 8.85336C17.4254 8.74525 17.6587 17.9303 17.6587 17.9303" stroke="white" stroke-width="0.943875" stroke-linecap="round" stroke-linejoin="bevel"/>
<path d="M21.9525 27.9129C20.9243 29.0625 21.2275 29.2642 19.171 29.6874C17.0905 30.1159 18.3139 30.8792 19.1102 31.0796C20.0779 31.3222 22.3165 31.665 23.83 29.5462C24.2914 28.9003 23.8273 27.8721 23.1945 27.6111C22.8887 27.4845 22.48 27.3262 21.9553 27.9142L21.9525 27.9129Z" stroke="white" stroke-width="0.943875" stroke-linejoin="round"/>
<path d="M21.8854 27.8931C21.7798 27.2168 22.1068 26.4139 22.4561 25.4726C22.9809 24.0621 24.1912 22.6513 23.2235 18.1729C22.5024 14.8374 17.66 17.4781 17.66 17.9303C17.66 18.3825 17.8788 20.2243 17.5809 22.3665C17.1893 25.1642 19.3607 27.5293 21.8602 27.288" stroke="white" stroke-width="0.943875" stroke-linecap="round" stroke-linejoin="round"/>
<path d="M20.7332 17.863C20.7107 18.0173 21.0165 18.4299 21.4134 18.4853C21.8102 18.5407 22.149 18.219 22.1715 18.0634C22.1938 17.9079 21.888 17.7391 21.4912 17.6837C21.0943 17.6284 20.7528 17.7101 20.7332 17.863Z" fill="white" stroke="white" stroke-width="0.315"/>
<path d="M32.8145 17.548C32.8355 17.7022 32.531 18.1149 32.1343 18.1702C31.7374 18.2256 31.3959 17.9039 31.3762 17.7484C31.3564 17.5928 31.6597 17.4241 32.0565 17.3687C32.4532 17.3133 32.7947 17.395 32.8145 17.548Z" fill="white" stroke="white" stroke-width="0.156938"/>
<path d="M34.2332 16.4788C34.299 17.6917 33.972 18.5156 33.9298 19.8064C33.8693 21.681 34.8238 23.8273 33.3853 25.9763" stroke="white" stroke-width="0.943875" stroke-linecap="round" stroke-linejoin="round"/>
</g>
</g>
<defs>
<clipPath id="clip0_1459_192">
<rect width="48" height="48" fill="white"/>
</clipPath>
<clipPath id="clip1_1459_192">
<rect width="48" height="48" fill="white"/>
</clipPath>
</defs>
</svg>
