<svg width="67" height="67" viewBox="0 0 67 67" fill="none" xmlns="http://www.w3.org/2000/svg">
<path d="M61.7802 39.306C61.6034 38.7914 61.2847 38.3373 60.8609 37.9961C60.4371 37.6549 59.9254 37.4405 59.3849 37.3776C58.7464 37.3008 58.0994 37.337 57.4734 37.4844C56.5051 37.6983 55.5202 37.8279 54.5295 37.8717C57.1786 33.4024 59.2019 28.5908 60.5428 23.5714C62.5381 15.8476 61.4724 12.3301 60.2266 10.7367C58.5723 8.64372 56.455 6.96294 54.0412 5.82654C51.6275 4.69014 48.983 4.12909 46.3158 4.18748C43.8689 4.16456 41.4323 4.50609 39.086 5.20086C37.6886 4.96127 36.2744 4.83245 34.8567 4.81561C32.2797 4.71777 29.7272 5.34682 27.4909 6.63089C25.7948 6.05745 24.0557 5.62055 22.29 5.32439C20.2317 4.83061 18.0962 4.74731 16.0057 5.07927C13.9152 5.41122 11.9106 6.15192 10.1064 7.25901C6.47588 9.82176 4.79251 14.2773 5.10448 20.502C5.66305 25.1457 6.64849 29.7281 8.04829 34.1909C8.85446 36.9785 9.91558 39.686 11.2182 42.2791C12.1803 44.6446 14.0091 46.5535 16.3312 47.616C17.1823 47.8965 18.093 47.9442 18.9688 47.7542C19.8446 47.5643 20.6537 47.1436 21.3122 46.5357C21.6111 46.8895 21.9645 47.1935 22.3591 47.436C22.9707 47.8156 23.6374 48.0981 24.3356 48.2735C26.6208 48.91 29.0533 48.7626 31.2449 47.8547C31.2575 48.2128 31.268 48.5561 31.2743 48.8535C31.2868 49.3329 31.3015 49.804 31.3182 50.2458C31.2934 52.5813 31.6043 54.9082 32.2416 57.1552C32.2751 57.2452 32.319 57.3792 32.3651 57.5237C32.7329 58.899 33.4473 60.1569 34.44 61.1773C35.6302 62.2702 37.2008 62.8541 38.8159 62.8041C39.5039 62.7998 40.1895 62.7233 40.8615 62.5759C42.1355 62.4159 43.3644 62.0025 44.476 61.3599C45.5875 60.7173 46.559 59.8585 47.3333 58.8344C49.0314 56.4161 49.8584 52.775 50.007 47.0361C50.0259 46.8728 50.0447 46.7178 50.0615 46.5713L50.0971 46.2677L50.497 46.3033H50.5996C52.8638 46.3992 55.1221 46.0079 57.2221 45.1559C58.5433 44.5424 62.7789 42.3063 61.7802 39.2934" fill="black"/>
<path d="M57.9739 39.8922C51.3514 41.2574 50.8971 39.017 50.8971 39.017C57.8881 28.6425 60.811 15.4728 58.288 12.2505C51.408 3.4568 39.4966 7.61708 39.2977 7.72386L39.2328 7.73642C37.7779 7.44444 36.2988 7.29021 34.815 7.2758C32.3127 7.15025 29.8434 7.88955 27.8219 9.36955C27.8219 9.36955 6.57448 0.615578 7.56273 20.3785C7.77211 24.5827 13.5885 52.1909 20.5251 43.8515C23.0607 40.803 25.5104 38.2235 25.5104 38.2235C26.7441 39.0562 28.2285 39.4351 29.7104 39.2955L29.8298 39.195C29.7947 39.5912 29.8109 39.9902 29.8779 40.3822C28.0899 42.3796 28.6217 42.7293 25.0435 43.4642C21.4296 44.2096 23.5527 45.5349 24.9388 45.8825C26.4114 46.3588 27.9969 46.3578 29.469 45.8795C30.941 45.4013 32.2244 44.4702 33.1358 43.2192L33.0311 43.638C33.7304 44.1991 34.2224 47.2853 34.1408 50.0846C33.9124 52.1666 34.0542 54.2726 34.5595 56.3051C35.1123 57.8064 35.6609 61.1815 40.3571 60.1765C42.0271 60.0115 43.5804 59.2457 44.728 58.0214C45.8757 56.7971 46.5397 55.1976 46.5965 53.5205C46.8059 50.9368 47.2519 51.3178 47.2791 49.0084L47.6434 47.9155C48.0621 44.4126 47.7104 43.282 50.1266 43.8075L50.7149 43.8599C52.5843 43.9384 54.4494 43.6246 56.1901 42.9386C59.1339 41.5735 60.878 39.2913 57.976 39.8922" fill="#336791"/>
<path d="M29.0654 22.2587C28.5851 22.1576 28.0845 22.2319 27.6542 22.4681C27.5981 22.5084 27.5507 22.5596 27.5148 22.6186C27.4788 22.6776 27.455 22.7431 27.4448 22.8115C27.4449 23.0529 27.5318 23.2863 27.6898 23.4689C27.9707 23.8547 28.3902 24.1166 28.8602 24.1996C28.9226 24.2083 28.9856 24.2124 29.0486 24.2122C29.3597 24.2162 29.6645 24.1246 29.9218 23.9497C30.179 23.7748 30.3764 23.5251 30.487 23.2344C30.5603 22.7151 29.8045 22.3676 29.0717 22.265M48.8409 22.2817C48.7843 21.8735 48.0578 21.7583 47.3752 21.863C46.6927 21.9677 46.0206 22.2692 46.0771 22.6775C46.1836 22.9336 46.3639 23.1522 46.5951 23.3055C46.8263 23.4587 47.0979 23.5397 47.3752 23.538C47.4334 23.5379 47.4914 23.5337 47.549 23.5254C47.9121 23.4617 48.244 23.2799 48.4933 23.0083C48.7017 22.8252 48.829 22.5669 48.8471 22.2901" fill="white"/>
<path d="M60.1765 39.7373C59.9232 38.9731 59.1108 38.7281 57.7603 39.0066C53.7508 39.8441 52.3166 39.2599 51.8434 38.9144C55.0185 34.0404 57.402 28.6945 58.9056 23.0752C59.5142 20.8525 59.8654 18.5672 59.9525 16.2642C60.1138 14.6534 59.7392 13.0343 58.8868 11.658C57.3777 9.75884 55.4483 8.23606 53.2505 7.20964C51.0527 6.18322 48.6465 5.6812 46.2217 5.74315C43.7308 5.70417 41.2519 6.09442 38.8935 6.8968C37.5447 6.56397 36.1622 6.38625 34.773 6.36708C32.2737 6.25726 29.8033 6.93786 27.7129 8.31218C25.8521 7.63185 23.9313 7.12851 21.976 6.80887C18.2383 5.90435 14.2947 6.50996 11.0006 8.49433C7.85997 10.7221 6.39435 14.7044 6.68538 20.3303C7.23535 24.8392 8.19762 29.2882 9.5601 33.6214C11.8004 40.96 14.2354 45.1161 16.7982 45.9746C17.1295 46.0862 17.4766 46.1434 17.8262 46.1441C18.4768 46.1039 19.1096 45.9159 19.6767 45.5944C20.2437 45.273 20.73 44.8266 21.0988 44.2891C22.5532 42.5443 24.0572 40.8428 25.6108 39.1845C26.6095 39.725 27.721 40.0241 28.8561 40.0576V40.1456C28.6607 40.3773 28.4701 40.6132 28.2845 40.8532C27.4993 41.8478 27.3381 42.055 24.8131 42.5764C24.0949 42.725 22.1875 43.1187 22.1603 44.4608C22.131 45.9264 24.4153 46.5357 24.6728 46.6006C25.5273 46.8203 26.4056 46.9343 27.2879 46.9398C29.2175 46.9754 31.0886 46.2763 32.5223 44.9842C32.3082 48.9688 32.576 52.9647 33.32 56.8851C33.6637 58.1402 34.4078 59.2487 35.4391 60.0423C36.4704 60.8359 37.7326 61.2712 39.0338 61.282C39.6794 61.28 40.323 61.2098 40.9538 61.0726C42.6762 60.9238 44.2888 60.1643 45.5005 58.9311C46.7122 57.6979 47.4432 56.0723 47.5617 54.3475C47.9323 52.1993 48.5688 47.0717 48.8682 44.3205C49.6248 44.5285 50.4077 44.6251 51.1922 44.6073C52.9991 44.6204 54.7909 44.2789 56.4664 43.6023C57.9571 42.9093 60.6539 41.2134 60.1577 39.7373H60.1765ZM50.3568 21.1469C50.33 21.9242 50.2488 22.6987 50.1139 23.4646C49.9583 24.3648 49.8604 25.2739 49.8208 26.1865C49.8137 27.2162 49.8837 28.2451 50.0302 29.2643C50.4825 31.3505 50.3158 33.5234 49.5507 35.5163C49.3882 35.2281 49.2435 34.9302 49.1173 34.6243C48.9959 34.3291 48.73 33.8538 48.3657 33.1985C46.9419 30.6441 43.6045 24.6602 45.313 22.2189C45.8218 21.4923 47.1136 20.7532 50.3547 21.1469H50.3568ZM46.4268 7.39302C48.57 7.34921 50.6941 7.8033 52.632 8.71957C54.5699 9.63584 56.2688 10.9893 57.5949 12.6735C59.6363 15.2802 57.3855 27.1455 50.8844 37.3797L50.6876 37.1306L50.606 37.028C51.8975 34.5874 52.2733 31.7652 51.6654 29.0717C51.5254 28.1346 51.4555 27.1884 51.456 26.241C51.494 25.3943 51.5856 24.5509 51.7303 23.7159C51.9187 22.6849 52.005 21.6378 51.9878 20.5899C52.0219 20.446 52.0312 20.2973 52.0151 20.1502C51.3213 17.3466 49.9462 14.7575 48.0118 12.6127C46.2736 10.5645 44.0997 8.93066 41.6489 7.83062C43.2184 7.50335 44.8197 7.35305 46.4227 7.38255L46.4268 7.39302ZM19.8467 43.2443C18.5339 44.823 17.6252 44.5215 17.3342 44.421C15.3912 43.7719 13.1341 39.664 11.1472 33.1482C9.82785 28.9424 8.88887 24.6266 8.34153 20.2528C8.09028 15.2278 9.30885 11.7229 11.9637 9.83852C16.2831 6.77536 23.3872 8.60949 26.241 9.53912C26.1991 9.5789 26.1573 9.61658 26.1175 9.65846C21.4338 14.3882 21.5447 22.4701 21.5573 22.9642C21.5573 23.1548 21.5719 23.4249 21.595 23.8017C21.7667 26.0532 21.7098 28.3162 21.4254 30.5562C21.2307 31.8387 21.3307 33.1488 21.7178 34.3869C22.1049 35.6251 22.7689 36.7588 23.6594 37.7021C23.8451 37.8948 24.0391 38.0776 24.2415 38.2507C23.4396 39.1091 21.6955 41.0103 19.8446 43.2443H19.8467ZM24.8508 36.5652C24.1287 35.8018 23.5903 34.8838 23.2764 33.881C22.9626 32.8781 22.8816 31.8169 23.0397 30.7781C23.3398 28.4307 23.4008 26.0589 23.2218 23.6991C23.2093 23.5002 23.1988 23.3265 23.1925 23.1904C24.9464 21.8685 27.123 21.2333 29.3125 21.4044C29.8163 21.5186 30.272 21.7867 30.6165 22.1717C30.9609 22.5566 31.1769 23.0393 31.2346 23.5526C32.5872 29.8108 31.4126 32.4175 30.4704 34.5134C30.2757 34.9447 30.0914 35.3509 29.9365 35.7696L29.815 36.0962C29.5141 36.8549 29.2569 37.6302 29.0445 38.4182C28.2574 38.407 27.4806 38.2367 26.761 37.9176C26.0414 37.5984 25.3937 37.137 24.857 36.5611L24.8508 36.5652ZM25.0873 45.003C24.6989 44.9075 24.3289 44.7483 23.9923 44.532C24.3666 44.3721 24.7578 44.2555 25.1585 44.1844C28.1275 43.573 28.586 43.1375 29.5889 41.8708C29.8192 41.5798 30.0788 41.2427 30.439 40.847C30.975 40.2461 31.222 40.3486 31.6659 40.5329C31.8765 40.6472 32.061 40.8039 32.2081 40.9931C32.3551 41.1823 32.4613 41.3999 32.5202 41.6321C32.5787 41.8007 32.5996 41.9801 32.5815 42.1577C32.5635 42.3353 32.5068 42.5068 32.4155 42.6601C31.6038 43.7809 30.4552 44.613 29.1373 45.0348C27.8193 45.4567 26.4011 45.4463 25.0894 45.0051L25.0873 45.003ZM40.6313 59.4625C40.0437 59.6668 39.4197 59.7449 38.7999 59.6916C38.18 59.6384 37.5784 59.455 37.0343 59.1535C36.4901 58.852 36.0157 58.4391 35.6419 57.9418C35.2682 57.4445 35.0035 56.874 34.8652 56.2674C34.1278 51.5223 33.9172 46.7103 34.237 41.919C34.2391 41.8311 34.2271 41.7434 34.2014 41.6593C34.1795 41.4966 34.1459 41.3357 34.1009 41.1778C33.9769 40.7068 33.751 40.2688 33.4391 39.8947C33.1273 39.5207 32.7371 39.2196 32.2961 39.0128C31.7821 38.7579 31.197 38.6842 30.6358 38.8035C30.8342 38.0773 31.0732 37.3629 31.3518 36.6636L31.4733 36.3349C31.6115 35.9643 31.7832 35.5812 31.9653 35.175C32.9515 32.9828 34.304 29.9783 32.8363 23.1946C32.7434 22.6175 32.5333 22.0656 32.219 21.5729C31.9046 21.0802 31.4926 20.657 31.0085 20.3296C30.5243 20.0022 29.9782 19.7774 29.4039 19.6692C28.8295 19.5609 28.2391 19.5714 27.6689 19.7001C26.2899 19.879 24.9528 20.2978 23.718 20.9375C23.5547 21.0212 23.404 21.1008 23.2658 21.1783C23.4241 17.3739 24.836 13.7286 27.2816 10.81C28.2639 9.84874 29.4362 9.10335 30.7234 8.62164C32.0106 8.13993 33.3842 7.93254 34.7563 8.01277C37.0742 8.03289 39.3594 8.56138 41.4508 9.56094C43.5422 10.5605 45.3887 12.0068 46.8603 13.7978C48.2964 15.4747 49.4184 17.3968 50.1726 19.4719C47.1094 19.1599 45.0261 19.765 43.9709 21.2746C41.6678 24.5576 45.2271 30.931 46.9356 33.9941C47.2497 34.5552 47.5198 35.041 47.6035 35.2504C48.0547 36.3037 48.6625 37.2827 49.4063 38.1544C49.5675 38.3638 49.7245 38.5501 49.8418 38.7218C48.9142 38.9898 47.2476 39.6075 47.4004 42.6999C47.279 44.2493 46.408 51.5041 45.9641 54.069C45.38 57.4546 44.1342 58.7171 40.6293 59.4688L40.6313 59.4625ZM55.7943 42.1095C54.5053 42.6209 53.1373 42.9042 51.7513 42.947C50.8291 43.0828 49.8873 42.9618 49.0294 42.5973C48.9352 40.6732 49.6575 40.4722 50.4113 40.2586C50.5306 40.2251 50.6458 40.1916 50.7588 40.1539C50.8327 40.2136 50.9096 40.2695 50.9891 40.3214C52.327 41.205 54.716 41.2992 58.0869 40.6041H58.1246C57.4278 41.2236 56.6397 41.7321 55.788 42.1116L55.7943 42.1095Z" fill="white"/>
</svg>
