<svg width="114" height="60" viewBox="0 0 114 60" fill="none" xmlns="http://www.w3.org/2000/svg">
<path d="M56.7188 0C25.394 0 0 13.4326 0 30C0 46.5673 25.394 60 56.7188 60C88.0424 60 113.438 46.5673 113.438 30C113.438 13.4326 88.0438 0 56.7188 0ZM51.4173 8.74124H57.8806L56.3341 16.7348H62.0911C65.714 16.7348 68.2126 17.3702 69.5868 18.6408C70.9622 19.9121 71.3749 21.9704 70.8258 24.8159L68.1201 38.8054H61.5549L64.1268 25.5028C64.4192 23.9904 64.3114 22.9589 63.8033 22.4082C63.2952 21.8588 62.2146 21.584 60.5614 21.584H55.3965L52.0678 38.8036H45.6063L51.4173 8.74124ZM23.6889 16.7358H36.214C39.9829 16.7358 42.7317 17.7302 44.4604 19.719C46.1886 21.7073 46.7079 24.4832 46.0184 28.0468C45.7342 29.5153 45.2542 30.8578 44.5782 32.0744C43.9024 33.291 43.0191 34.4033 41.9285 35.4113C40.6275 36.6351 39.1826 37.5072 37.5939 38.0275C36.004 38.5479 33.9781 38.8077 31.5161 38.8072H25.9382L24.3918 46.7999H17.878L23.6889 16.7358ZM74.5284 16.7358H87.0505C90.8188 16.7358 93.5675 17.7302 95.2953 19.719C97.0238 21.7073 97.5456 24.4832 96.8572 28.0468C96.5736 29.5153 96.0936 30.8578 95.4187 32.0744C94.743 33.291 93.8596 34.4033 92.7671 35.4113C91.4675 36.6351 90.0219 37.5072 88.4309 38.0275C86.8414 38.5479 84.8165 38.8077 82.3556 38.8072H76.7766L75.231 46.7999H68.7175L74.5284 16.7358ZM29.2855 21.4806L26.8554 34.0623H30.8151C33.4419 34.0629 35.3981 33.566 36.6838 32.5716C37.9682 31.5766 38.8358 29.9157 39.2866 27.5888C39.7167 25.354 39.52 23.7772 38.6964 22.8582C37.8727 21.9392 36.2232 21.4797 33.7477 21.4797L29.2855 21.4806ZM80.1223 21.4806L77.6905 34.0623H81.6523C84.2791 34.0629 86.2352 33.566 87.5206 32.5716C88.8045 31.5766 89.6716 29.9157 90.1218 27.5888C90.5529 25.354 90.3565 23.7772 89.5334 22.8582C88.7095 21.9392 87.0597 21.4797 84.5847 21.4797L80.1223 21.4806Z" fill="#6280B6"/>
</svg>
