<svg width="60" height="61" viewBox="0 0 60 61" fill="none" xmlns="http://www.w3.org/2000/svg">
<path d="M54.6661 46.1448L34.3217 2.86885C34.0689 2.33636 33.6771 1.88224 33.1877 1.55453C32.6984 1.22683 32.1297 1.03772 31.5418 1.00724C30.9528 0.967702 30.3643 1.09068 29.8402 1.3628C29.3161 1.63492 28.8766 2.04577 28.5693 2.55066L6.50388 38.3489C6.16837 38.8894 5.99364 39.5145 6.00018 40.151C6.00672 40.7875 6.19426 41.4088 6.54081 41.9423L17.3287 58.6763C17.7368 59.3045 18.3368 59.7837 19.039 60.0424C19.7413 60.3011 20.5082 60.3254 21.2254 60.1118L52.5322 50.836C53.0036 50.6979 53.4399 50.4601 53.8116 50.1386C54.1833 49.8171 54.4818 49.4194 54.6869 48.9724C54.8891 48.5278 54.9921 48.0443 54.9888 47.5557C54.9855 47.0671 54.8758 46.5851 54.6676 46.1432L54.6661 46.1448ZM50.1112 48.0008L23.5457 55.8693C22.7353 56.1109 21.9574 55.4072 22.126 54.5879L31.6172 9.06668C31.7946 8.21503 32.9688 8.08009 33.34 8.86828L50.9098 46.241C50.9875 46.4075 51.0282 46.5889 51.0291 46.7727C51.03 46.9565 50.9911 47.1383 50.915 47.3056C50.839 47.4729 50.7276 47.6216 50.5886 47.7416C50.4496 47.8616 50.2863 47.95 50.1099 48.0006L50.1112 48.0008Z" fill="black"/>
</svg>
