<svg width="60" height="60" viewBox="0 0 60 60" fill="none" xmlns="http://www.w3.org/2000/svg">
<g clip-path="url(#clip0_939_499)">
<path d="M29.7312 2C15.5492 2 16.4346 8.17427 16.4346 8.17427L16.4504 14.571H29.984V16.4915H11.0751C11.0751 16.4915 2 15.4582 2 29.8239C2 44.1901 9.92094 43.6805 9.92094 43.6805H14.6481V37.0141C14.6481 37.0141 14.3933 29.0621 22.4426 29.0621H35.8656C35.8656 29.0621 43.407 29.1844 43.407 21.745V9.44426C43.407 9.44426 44.5523 2 29.7312 2ZM22.2687 6.30168C22.5885 6.30139 22.9052 6.3644 23.2008 6.48713C23.4963 6.60989 23.7648 6.78992 23.9909 7.01692C24.2171 7.24396 24.3964 7.51352 24.5187 7.81021C24.6409 8.10689 24.7037 8.42485 24.7034 8.74591C24.7037 9.06696 24.6409 9.38496 24.5187 9.68164C24.3964 9.97829 24.2171 10.2479 23.9909 10.4749C23.7648 10.7019 23.4963 10.882 23.2008 11.0047C22.9052 11.1274 22.5885 11.1904 22.2687 11.1902C21.9489 11.1904 21.6322 11.1274 21.3367 11.0047C21.0412 10.882 20.7726 10.7019 20.5465 10.4749C20.3203 10.2479 20.141 9.97829 20.0188 9.68164C19.8965 9.38496 19.8337 9.06696 19.834 8.74591C19.8337 8.42485 19.8965 8.10689 20.0188 7.81021C20.141 7.51352 20.3203 7.24396 20.5465 7.01692C20.7726 6.78992 21.0412 6.60989 21.3367 6.48713C21.6322 6.3644 21.9489 6.30139 22.2687 6.30168Z" fill="url(#paint0_linear_939_499)"/>
<path d="M30.1338 57.7922C44.3159 57.7922 43.4302 51.6178 43.4302 51.6178L43.4146 45.2214H29.8807V43.3009H48.7897C48.7897 43.3009 57.8646 44.3339 57.8646 29.968C57.8646 15.6021 49.9439 16.1116 49.9439 16.1116H45.2166V22.7778C45.2166 22.7778 45.4715 30.7298 37.422 30.7298H23.9992C23.9992 30.7298 16.4578 30.6075 16.4578 38.0472V50.348C16.4578 50.348 15.3128 57.7922 30.1338 57.7922ZM37.5959 53.4908C37.2761 53.4911 36.9595 53.428 36.6639 53.3054C36.3683 53.1825 36.0998 53.0027 35.8737 52.7755C35.6477 52.5485 35.4682 52.2789 35.3462 51.9824C35.2238 51.6856 35.1611 51.3675 35.1614 51.0466C35.1611 50.7256 35.2238 50.4076 35.3459 50.1108C35.4682 49.814 35.6477 49.5446 35.8737 49.3173C36.0998 49.0904 36.3683 48.9103 36.6639 48.7877C36.9595 48.6648 37.2761 48.6017 37.5959 48.602C37.9157 48.6017 38.2325 48.6648 38.5281 48.7877C38.8235 48.9103 39.092 49.0904 39.3183 49.3173C39.5444 49.5443 39.7236 49.814 39.8459 50.1108C39.9682 50.4073 40.031 50.7253 40.0307 51.0463C40.031 51.3675 39.9682 51.6856 39.8459 51.9821C39.7236 52.2789 39.5444 52.5482 39.3183 52.7755C39.092 53.0024 38.8235 53.1825 38.5281 53.3051C38.2325 53.4277 37.9157 53.4911 37.5959 53.4908Z" fill="url(#paint1_linear_939_499)"/>
</g>
<defs>
<linearGradient id="paint0_linear_939_499" x1="538.86" y1="503.819" x2="3318.08" y2="3244.55" gradientUnits="userSpaceOnUse">
<stop stop-color="#387EB8"/>
<stop offset="1" stop-color="#366994"/>
</linearGradient>
<linearGradient id="paint1_linear_939_499" x1="808.863" y1="873.896" x2="3792.88" y2="3683.76" gradientUnits="userSpaceOnUse">
<stop stop-color="#FFE052"/>
<stop offset="1" stop-color="#FFC331"/>
</linearGradient>
<clipPath id="clip0_939_499">
<rect width="56" height="56" fill="white" transform="translate(2 2)"/>
</clipPath>
</defs>
</svg>
