<svg width="60" height="60" viewBox="0 0 60 60" fill="none" xmlns="http://www.w3.org/2000/svg">
<g clip-path="url(#clip0_939_499)">
<path d="M29.712 0C14.517 0 15.4657 6.61528 15.4657 6.61528L15.4826 13.4689H29.9829V15.5266H9.72328C9.72328 15.5266 0 14.4195 0 29.8113C0 45.2037 8.48672 44.6577 8.48672 44.6577H13.5516V37.5152C13.5516 37.5152 13.2785 28.9951 21.9028 28.9951H36.2845C36.2845 28.9951 44.3646 29.1261 44.3646 21.1553V7.97599C44.3646 7.97599 45.5918 0 29.712 0ZM21.7165 4.60895C22.0591 4.60863 22.3985 4.67615 22.7151 4.80764C23.0318 4.93917 23.3194 5.13205 23.5617 5.37527C23.804 5.61853 23.9961 5.90735 24.1271 6.22522C24.2581 6.54309 24.3254 6.88377 24.3251 7.22776C24.3254 7.57175 24.2581 7.91245 24.1271 8.23033C23.9961 8.54817 23.804 8.83699 23.5617 9.08024C23.3194 9.32349 23.0318 9.51638 22.7151 9.64787C22.3985 9.77937 22.0591 9.84688 21.7165 9.8466C21.3738 9.84688 21.0345 9.77937 20.7178 9.64787C20.4012 9.51638 20.1135 9.32349 19.8712 9.08024C19.6289 8.83699 19.4368 8.54817 19.3058 8.23033C19.1748 7.91245 19.1076 7.57175 19.1079 7.22776C19.1076 6.88377 19.1748 6.54309 19.3058 6.22522C19.4368 5.90735 19.6289 5.61853 19.8712 5.37527C20.1135 5.13205 20.4012 4.93917 20.7178 4.80764C21.0345 4.67615 21.3738 4.60863 21.7165 4.60895Z" fill="url(#paint0_linear_939_499)"/>
<path d="M30.1434 59.7774C45.3385 59.7774 44.3895 53.1619 44.3895 53.1619L44.3728 46.3086H29.8722V44.2509H50.1318C50.1318 44.2509 59.855 45.3578 59.855 29.9657C59.855 14.5737 51.3685 15.1196 51.3685 15.1196H46.3035V22.2619C46.3035 22.2619 46.5767 30.7819 37.9522 30.7819H23.5706C23.5706 30.7819 15.4905 30.6509 15.4905 38.622V51.8015C15.4905 51.8015 14.2638 59.7774 30.1434 59.7774ZM38.1385 55.1687C37.7958 55.169 37.4567 55.1015 37.1399 54.9701C36.8232 54.8384 36.5355 54.6458 36.2933 54.4023C36.0511 54.1591 35.8588 53.8702 35.728 53.5525C35.597 53.2345 35.5297 52.8938 35.53 52.5499C35.5297 52.206 35.597 51.8653 35.7277 51.5473C35.8588 51.2293 36.0511 50.9406 36.2933 50.6972C36.5355 50.454 36.8232 50.261 37.1399 50.1297C37.4567 49.998 37.7958 49.9304 38.1385 49.9307C38.4811 49.9304 38.8206 49.998 39.1373 50.1297C39.4537 50.261 39.7414 50.454 39.9839 50.6972C40.2262 50.9403 40.4182 51.2293 40.5492 51.5473C40.6803 51.8649 40.7475 52.2057 40.7472 52.5496C40.7475 52.8938 40.6803 53.2345 40.5492 53.5522C40.4182 53.8702 40.2262 54.1588 39.9839 54.4023C39.7414 54.6455 39.4537 54.8384 39.1373 54.9698C38.8206 55.1012 38.4811 55.169 38.1385 55.1687Z" fill="url(#paint1_linear_939_499)"/>
</g>
<defs>
<linearGradient id="paint0_linear_939_499" x1="575.207" y1="537.663" x2="3552.95" y2="3474.16" gradientUnits="userSpaceOnUse">
<stop stop-color="#387EB8"/>
<stop offset="1" stop-color="#366994"/>
</linearGradient>
<linearGradient id="paint1_linear_939_499" x1="864.496" y1="934.175" x2="4061.65" y2="3944.75" gradientUnits="userSpaceOnUse">
<stop stop-color="#FFE052"/>
<stop offset="1" stop-color="#FFC331"/>
</linearGradient>
<clipPath id="clip0_939_499">
<rect width="60" height="60" fill="white"/>
</clipPath>
</defs>
</svg>
