<svg width="60" height="60" viewBox="0 0 60 60" fill="none" xmlns="http://www.w3.org/2000/svg">
<path fill-rule="evenodd" clip-rule="evenodd" d="M45.0283 5.27229C47.7096 5.27229 50.9999 5.47718 52.7572 7.24287C54.5144 9.00857 54.7389 12.3361 54.7389 15.0305V44.9695C54.7389 47.6642 53.652 50.1038 51.8948 51.8697C50.994 52.7772 49.9237 53.4969 48.7453 53.9874C47.5669 54.4778 46.3037 54.7295 45.0283 54.7277H14.9718C12.2904 54.7277 9.86281 53.6352 8.10555 51.8695C6.34829 50.1038 5.26111 47.6639 5.26111 44.9695V15.0305C5.26111 12.3359 6.34802 9.89624 8.10529 8.13028C9.00603 7.22278 10.0763 6.50311 11.2547 6.01264C12.4331 5.52217 13.6963 5.27057 14.9718 5.27229H45.0283Z" fill="#EC5990"/>
<path fill-rule="evenodd" clip-rule="evenodd" d="M38.4817 16.7951H32.9306C32.5237 15.5211 31.3396 14.6562 30.0021 14.6562C28.6647 14.6562 27.4806 15.5211 27.0736 16.7951H21.5186C19.3314 16.7951 17.5585 18.568 17.5585 20.755V41.3865C17.5585 43.5735 19.3314 45.3464 21.5186 45.3464H38.4817C40.6689 45.3464 42.4418 43.5735 42.4418 41.3865V20.755C42.4418 18.568 40.6689 16.7951 38.4817 16.7951ZM27.3506 17.515C27.4341 17.5171 27.5158 17.4899 27.5815 17.4379C27.6472 17.386 27.6928 17.3127 27.7105 17.2306C27.9462 16.149 28.9038 15.3775 30.0109 15.3775C31.1181 15.3775 32.0757 16.1487 32.3114 17.2306C32.3291 17.3127 32.3747 17.386 32.4404 17.4379C32.5061 17.4899 32.5877 17.5171 32.6713 17.515H34.6081V19.8731C34.6081 20.4695 34.1245 20.9531 33.5281 20.9531H26.49C25.8936 20.9531 25.41 20.4695 25.41 19.8731V17.515H27.3506ZM41.7217 41.3865C41.7217 43.176 40.2712 44.6265 38.4817 44.6265H21.5186C19.7291 44.6265 18.2786 43.176 18.2786 41.3865V20.755C18.2786 18.9656 19.7291 17.515 21.5186 17.515H24.6902V19.8731C24.6902 20.8673 25.4962 21.673 26.4903 21.673H33.5103C34.5044 21.673 35.3104 20.8671 35.3104 19.8731V17.515H38.482C40.2715 17.515 41.722 18.9656 41.722 20.755L41.7217 41.3865ZM37.776 28.5599H31.4399C31.3928 28.5598 31.3461 28.569 31.3024 28.5871C31.2588 28.6051 31.2192 28.6316 31.1858 28.665C31.1523 28.6985 31.1258 28.7382 31.1077 28.782C31.0895 28.8257 31.0801 28.8726 31.08 28.92C31.0801 28.9674 31.0895 29.0143 31.1077 29.058C31.1258 29.1018 31.1523 29.1415 31.1858 29.175C31.2192 29.2084 31.2588 29.2349 31.3024 29.2529C31.3461 29.271 31.3928 29.2802 31.4399 29.2801H37.776C37.8232 29.2802 37.8699 29.271 37.9135 29.2529C37.9571 29.2349 37.9968 29.2084 38.0302 29.175C38.0636 29.1415 38.0901 29.1018 38.1083 29.058C38.1264 29.0143 38.1358 28.9674 38.1359 28.92C38.1358 28.8726 38.1264 28.8257 38.1083 28.782C38.0901 28.7382 38.0636 28.6985 38.0302 28.665C37.9968 28.6316 37.9571 28.6051 37.9135 28.5871C37.8699 28.569 37.8232 28.5598 37.776 28.5599ZM28.4162 28.5599H22.0801C22.0329 28.5598 21.9862 28.569 21.9426 28.5871C21.899 28.6051 21.8594 28.6316 21.8259 28.665C21.7925 28.6985 21.766 28.7382 21.7478 28.782C21.7297 28.8257 21.7203 28.8726 21.7202 28.92C21.7203 28.9674 21.7297 29.0143 21.7478 29.058C21.766 29.1018 21.7925 29.1415 21.8259 29.175C21.8594 29.2084 21.899 29.2349 21.9426 29.2529C21.9862 29.271 22.0329 29.2802 22.0801 29.2801H28.4162C28.4634 29.2802 28.5101 29.271 28.5537 29.2529C28.5973 29.2349 28.6369 29.2084 28.6704 29.175C28.7038 29.1415 28.7303 29.1018 28.7485 29.058C28.7666 29.0143 28.776 28.9674 28.7761 28.92C28.776 28.8726 28.7666 28.8257 28.7485 28.782C28.7303 28.7382 28.7038 28.6985 28.6704 28.665C28.6369 28.6316 28.5973 28.6051 28.5537 28.5871C28.5101 28.569 28.4634 28.5598 28.4162 28.5599ZM37.7941 37.2718H31.4402C31.393 37.2717 31.3463 37.281 31.3027 37.299C31.2591 37.317 31.2195 37.3435 31.186 37.377C31.1526 37.4104 31.1261 37.4501 31.1079 37.4939C31.0898 37.5376 31.0804 37.5845 31.0803 37.6319C31.0804 37.6793 31.0898 37.7262 31.1079 37.77C31.1261 37.8137 31.1526 37.8534 31.186 37.8869C31.2195 37.9203 31.2591 37.9468 31.3027 37.9648C31.3463 37.9829 31.393 37.9921 31.4402 37.992H37.7941C37.8413 37.9921 37.888 37.9829 37.9316 37.9648C37.9752 37.9468 38.0149 37.9203 38.0483 37.8869C38.0817 37.8534 38.1082 37.8137 38.1264 37.77C38.1445 37.7262 38.1539 37.6793 38.154 37.6319C38.1539 37.5845 38.1445 37.5376 38.1264 37.4939C38.1082 37.4501 38.0817 37.4104 38.0483 37.377C38.0149 37.3435 37.9752 37.317 37.9316 37.299C37.888 37.281 37.8413 37.2717 37.7941 37.2718ZM28.434 37.2718H22.0801C22.0329 37.2717 21.9862 37.281 21.9426 37.299C21.899 37.317 21.8594 37.3435 21.8259 37.377C21.7925 37.4104 21.766 37.4501 21.7478 37.4939C21.7297 37.5376 21.7203 37.5845 21.7202 37.6319C21.7203 37.6793 21.7297 37.7262 21.7478 37.77C21.766 37.8137 21.7925 37.8534 21.8259 37.8869C21.8594 37.9203 21.899 37.9468 21.9426 37.9648C21.9862 37.9829 22.0329 37.9921 22.0801 37.992H28.434C28.4812 37.9921 28.5279 37.9829 28.5715 37.9648C28.6151 37.9468 28.6548 37.9203 28.6882 37.8869C28.7216 37.8534 28.7481 37.8137 28.7663 37.77C28.7844 37.7262 28.7938 37.6793 28.7939 37.6319C28.7938 37.5845 28.7844 37.5376 28.7663 37.4939C28.7481 37.4501 28.7216 37.4104 28.6882 37.377C28.6548 37.3435 28.6151 37.317 28.5715 37.299C28.5279 37.281 28.4812 37.2717 28.434 37.2718Z" fill="white"/>
</svg>
