<svg width="48" height="48" viewBox="0 0 48 48" fill="none" xmlns="http://www.w3.org/2000/svg">
<path fill-rule="evenodd" clip-rule="evenodd" d="M38.5794 8.47878e-06C41.1806 8.47878e-06 44.3726 0.198781 46.0774 1.91174C47.7822 3.62469 48 6.85286 48 9.46677V38.5115C48 41.1257 46.9455 43.4925 45.2408 45.2057C44.3669 46.0861 43.3286 46.7842 42.1854 47.26C41.0422 47.7359 39.8167 47.98 38.5794 47.9783H9.42065C6.81936 47.9783 4.46426 46.9184 2.75948 45.2054C1.05471 43.4925 0 41.1254 0 38.5115V9.46677C0 6.8526 1.05445 4.48585 2.75923 2.77263C3.63306 1.89224 4.67141 1.19407 5.8146 0.718253C6.95779 0.242433 8.18328 -0.00165829 9.42065 8.47878e-06H38.5794Z" fill="#EC5990"/>
<mask id="path-2-inside-1_1459_364" fill="white">
<path fill-rule="evenodd" clip-rule="evenodd" d="M32.2284 11.1787H26.8431C26.4483 9.94267 25.2997 9.1037 24.0021 9.1037C22.7046 9.1037 21.5559 9.94267 21.1611 11.1787H15.7719C13.6501 11.1787 11.9301 12.8987 11.9301 15.0203V35.0356C11.9301 37.1572 13.6501 38.8772 15.7719 38.8772H32.2284C34.3502 38.8772 36.0702 37.1572 36.0702 35.0356V15.0203C36.0702 12.8987 34.3502 11.1787 32.2284 11.1787ZM21.4297 11.8771C21.5108 11.8791 21.59 11.8527 21.6537 11.8023C21.7175 11.7519 21.7617 11.6808 21.7789 11.6012C22.0075 10.5519 22.9366 9.8034 24.0106 9.8034C25.0847 9.8034 26.0137 10.5516 26.2424 11.6012C26.2595 11.6808 26.3038 11.7519 26.3675 11.8023C26.4313 11.8527 26.5105 11.8791 26.5915 11.8771H28.4705V14.1648C28.4705 14.7434 28.0013 15.2125 27.4228 15.2125H20.5949C20.0163 15.2125 19.5471 14.7434 19.5471 14.1648V11.8771H21.4297ZM35.3717 35.0356C35.3717 36.7716 33.9644 38.1788 32.2284 38.1788H15.7719C14.0359 38.1788 12.6287 36.7716 12.6287 35.0356V15.0203C12.6287 13.2843 14.0359 11.8771 15.7719 11.8771H18.8488V14.1648C18.8488 15.1293 19.6308 15.9109 20.5951 15.9109H27.4055C28.3699 15.9109 29.1518 15.129 29.1518 14.1648V11.8771H32.2287C33.9647 11.8771 35.3719 13.2843 35.3719 15.0203L35.3717 35.0356ZM31.5438 22.5921H25.397C25.3512 22.592 25.3059 22.6009 25.2636 22.6184C25.2213 22.6359 25.1828 22.6616 25.1504 22.6941C25.118 22.7265 25.0922 22.7651 25.0746 22.8075C25.057 22.8499 25.0479 22.8954 25.0478 22.9414C25.0479 22.9874 25.057 23.0329 25.0746 23.0753C25.0922 23.1178 25.118 23.1563 25.1504 23.1888C25.1828 23.2212 25.2213 23.2469 25.2636 23.2644C25.3059 23.2819 25.3512 23.2908 25.397 23.2907H31.5438C31.5895 23.2908 31.6349 23.2819 31.6772 23.2644C31.7195 23.2469 31.7579 23.2212 31.7904 23.1888C31.8228 23.1563 31.8485 23.1178 31.8661 23.0753C31.8837 23.0329 31.8929 22.9874 31.893 22.9414C31.8929 22.8954 31.8837 22.8499 31.8661 22.8075C31.8485 22.7651 31.8228 22.7265 31.7904 22.6941C31.7579 22.6616 31.7195 22.6359 31.6772 22.6184C31.6349 22.6009 31.5895 22.592 31.5438 22.5921ZM22.4635 22.5921H16.3167C16.2709 22.592 16.2256 22.6009 16.1833 22.6184C16.141 22.6359 16.1025 22.6616 16.0701 22.6941C16.0377 22.7265 16.012 22.7651 15.9944 22.8075C15.9767 22.8499 15.9676 22.8954 15.9675 22.9414C15.9676 22.9874 15.9767 23.0329 15.9944 23.0753C16.012 23.1178 16.0377 23.1563 16.0701 23.1888C16.1025 23.2212 16.141 23.2469 16.1833 23.2644C16.2256 23.2819 16.2709 23.2908 16.3167 23.2907H22.4635C22.5093 23.2908 22.5546 23.2819 22.5969 23.2644C22.6392 23.2469 22.6777 23.2212 22.7101 23.1888C22.7425 23.1563 22.7683 23.1178 22.7859 23.0753C22.8035 23.0329 22.8126 22.9874 22.8127 22.9414C22.8126 22.8954 22.8035 22.8499 22.7859 22.8075C22.7683 22.7651 22.7425 22.7265 22.7101 22.6941C22.6777 22.6616 22.6392 22.6359 22.5969 22.6184C22.5546 22.6009 22.5093 22.592 22.4635 22.5921ZM31.5613 31.0438H25.3972C25.3515 31.0437 25.3061 31.0526 25.2638 31.0701C25.2215 31.0876 25.1831 31.1133 25.1506 31.1458C25.1182 31.1782 25.0925 31.2168 25.0749 31.2592C25.0573 31.3016 25.0482 31.3471 25.048 31.3931C25.0482 31.4391 25.0573 31.4846 25.0749 31.527C25.0925 31.5695 25.1182 31.608 25.1506 31.6405C25.1831 31.6729 25.2215 31.6986 25.2638 31.7161C25.3061 31.7336 25.3515 31.7425 25.3972 31.7424H31.5613C31.6071 31.7425 31.6524 31.7336 31.6947 31.7161C31.737 31.6986 31.7755 31.6729 31.8079 31.6405C31.8403 31.608 31.8661 31.5695 31.8837 31.527C31.9013 31.4846 31.9104 31.4391 31.9105 31.3931C31.9104 31.3471 31.9013 31.3016 31.8837 31.2592C31.8661 31.2168 31.8403 31.1782 31.8079 31.1458C31.7755 31.1133 31.737 31.0876 31.6947 31.0701C31.6524 31.0526 31.6071 31.0437 31.5613 31.0438ZM22.4808 31.0438H16.3167C16.2709 31.0437 16.2256 31.0526 16.1833 31.0701C16.141 31.0876 16.1025 31.1133 16.0701 31.1458C16.0377 31.1782 16.012 31.2168 15.9944 31.2592C15.9767 31.3016 15.9676 31.3471 15.9675 31.3931C15.9676 31.4391 15.9767 31.4846 15.9944 31.527C16.012 31.5695 16.0377 31.608 16.0701 31.6405C16.1025 31.6729 16.141 31.6986 16.1833 31.7161C16.2256 31.7336 16.2709 31.7425 16.3167 31.7424H22.4808C22.5266 31.7425 22.5719 31.7336 22.6142 31.7161C22.6565 31.6986 22.695 31.6729 22.7274 31.6405C22.7598 31.608 22.7856 31.5695 22.8032 31.527C22.8208 31.4846 22.8299 31.4391 22.83 31.3931C22.8299 31.3471 22.8208 31.3016 22.8032 31.2592C22.7856 31.2168 22.7598 31.1782 22.7274 31.1458C22.695 31.1133 22.6565 31.0876 22.6142 31.0701C22.5719 31.0526 22.5266 31.0437 22.4808 31.0438Z"/>
</mask>
<path fill-rule="evenodd" clip-rule="evenodd" d="M32.2284 11.1787H26.8431C26.4483 9.94267 25.2997 9.1037 24.0021 9.1037C22.7046 9.1037 21.5559 9.94267 21.1611 11.1787H15.7719C13.6501 11.1787 11.9301 12.8987 11.9301 15.0203V35.0356C11.9301 37.1572 13.6501 38.8772 15.7719 38.8772H32.2284C34.3502 38.8772 36.0702 37.1572 36.0702 35.0356V15.0203C36.0702 12.8987 34.3502 11.1787 32.2284 11.1787ZM21.4297 11.8771C21.5108 11.8791 21.59 11.8527 21.6537 11.8023C21.7175 11.7519 21.7617 11.6808 21.7789 11.6012C22.0075 10.5519 22.9366 9.8034 24.0106 9.8034C25.0847 9.8034 26.0137 10.5516 26.2424 11.6012C26.2595 11.6808 26.3038 11.7519 26.3675 11.8023C26.4313 11.8527 26.5105 11.8791 26.5915 11.8771H28.4705V14.1648C28.4705 14.7434 28.0013 15.2125 27.4228 15.2125H20.5949C20.0163 15.2125 19.5471 14.7434 19.5471 14.1648V11.8771H21.4297ZM35.3717 35.0356C35.3717 36.7716 33.9644 38.1788 32.2284 38.1788H15.7719C14.0359 38.1788 12.6287 36.7716 12.6287 35.0356V15.0203C12.6287 13.2843 14.0359 11.8771 15.7719 11.8771H18.8488V14.1648C18.8488 15.1293 19.6308 15.9109 20.5951 15.9109H27.4055C28.3699 15.9109 29.1518 15.129 29.1518 14.1648V11.8771H32.2287C33.9647 11.8771 35.3719 13.2843 35.3719 15.0203L35.3717 35.0356ZM31.5438 22.5921H25.397C25.3512 22.592 25.3059 22.6009 25.2636 22.6184C25.2213 22.6359 25.1828 22.6616 25.1504 22.6941C25.118 22.7265 25.0922 22.7651 25.0746 22.8075C25.057 22.8499 25.0479 22.8954 25.0478 22.9414C25.0479 22.9874 25.057 23.0329 25.0746 23.0753C25.0922 23.1178 25.118 23.1563 25.1504 23.1888C25.1828 23.2212 25.2213 23.2469 25.2636 23.2644C25.3059 23.2819 25.3512 23.2908 25.397 23.2907H31.5438C31.5895 23.2908 31.6349 23.2819 31.6772 23.2644C31.7195 23.2469 31.7579 23.2212 31.7904 23.1888C31.8228 23.1563 31.8485 23.1178 31.8661 23.0753C31.8837 23.0329 31.8929 22.9874 31.893 22.9414C31.8929 22.8954 31.8837 22.8499 31.8661 22.8075C31.8485 22.7651 31.8228 22.7265 31.7904 22.6941C31.7579 22.6616 31.7195 22.6359 31.6772 22.6184C31.6349 22.6009 31.5895 22.592 31.5438 22.5921ZM22.4635 22.5921H16.3167C16.2709 22.592 16.2256 22.6009 16.1833 22.6184C16.141 22.6359 16.1025 22.6616 16.0701 22.6941C16.0377 22.7265 16.012 22.7651 15.9944 22.8075C15.9767 22.8499 15.9676 22.8954 15.9675 22.9414C15.9676 22.9874 15.9767 23.0329 15.9944 23.0753C16.012 23.1178 16.0377 23.1563 16.0701 23.1888C16.1025 23.2212 16.141 23.2469 16.1833 23.2644C16.2256 23.2819 16.2709 23.2908 16.3167 23.2907H22.4635C22.5093 23.2908 22.5546 23.2819 22.5969 23.2644C22.6392 23.2469 22.6777 23.2212 22.7101 23.1888C22.7425 23.1563 22.7683 23.1178 22.7859 23.0753C22.8035 23.0329 22.8126 22.9874 22.8127 22.9414C22.8126 22.8954 22.8035 22.8499 22.7859 22.8075C22.7683 22.7651 22.7425 22.7265 22.7101 22.6941C22.6777 22.6616 22.6392 22.6359 22.5969 22.6184C22.5546 22.6009 22.5093 22.592 22.4635 22.5921ZM31.5613 31.0438H25.3972C25.3515 31.0437 25.3061 31.0526 25.2638 31.0701C25.2215 31.0876 25.1831 31.1133 25.1506 31.1458C25.1182 31.1782 25.0925 31.2168 25.0749 31.2592C25.0573 31.3016 25.0482 31.3471 25.048 31.3931C25.0482 31.4391 25.0573 31.4846 25.0749 31.527C25.0925 31.5695 25.1182 31.608 25.1506 31.6405C25.1831 31.6729 25.2215 31.6986 25.2638 31.7161C25.3061 31.7336 25.3515 31.7425 25.3972 31.7424H31.5613C31.6071 31.7425 31.6524 31.7336 31.6947 31.7161C31.737 31.6986 31.7755 31.6729 31.8079 31.6405C31.8403 31.608 31.8661 31.5695 31.8837 31.527C31.9013 31.4846 31.9104 31.4391 31.9105 31.3931C31.9104 31.3471 31.9013 31.3016 31.8837 31.2592C31.8661 31.2168 31.8403 31.1782 31.8079 31.1458C31.7755 31.1133 31.737 31.0876 31.6947 31.0701C31.6524 31.0526 31.6071 31.0437 31.5613 31.0438ZM22.4808 31.0438H16.3167C16.2709 31.0437 16.2256 31.0526 16.1833 31.0701C16.141 31.0876 16.1025 31.1133 16.0701 31.1458C16.0377 31.1782 16.012 31.2168 15.9944 31.2592C15.9767 31.3016 15.9676 31.3471 15.9675 31.3931C15.9676 31.4391 15.9767 31.4846 15.9944 31.527C16.012 31.5695 16.0377 31.608 16.0701 31.6405C16.1025 31.6729 16.141 31.6986 16.1833 31.7161C16.2256 31.7336 16.2709 31.7425 16.3167 31.7424H22.4808C22.5266 31.7425 22.5719 31.7336 22.6142 31.7161C22.6565 31.6986 22.695 31.6729 22.7274 31.6405C22.7598 31.608 22.7856 31.5695 22.8032 31.527C22.8208 31.4846 22.8299 31.4391 22.83 31.3931C22.8299 31.3471 22.8208 31.3016 22.8032 31.2592C22.7856 31.2168 22.7598 31.1782 22.7274 31.1458C22.695 31.1133 22.6565 31.0876 22.6142 31.0701C22.5719 31.0526 22.5266 31.0437 22.4808 31.0438Z" fill="white" stroke="white" stroke-width="2" mask="url(#path-2-inside-1_1459_364)"/>
</svg>
