<svg width="48" height="48" viewBox="0 0 48 48" fill="none" xmlns="http://www.w3.org/2000/svg">
<path d="M36.75 0H11.25C5.0368 0 0 5.0368 0 11.25V36.75C0 42.9632 5.0368 48 11.25 48H36.75C42.9632 48 48 42.9632 48 36.75V11.25C48 5.0368 42.9632 0 36.75 0Z" fill="#242938"/>
<g clip-path="url(#clip0_1459_379)">
<path d="M28.8332 28.0637L28.1234 29.3242C28.0183 29.5107 27.8671 29.6656 27.6848 29.7734C27.5027 29.881 27.2958 29.9378 27.0854 29.9378H21.6484C21.438 29.9378 21.2312 29.881 21.049 29.7734C20.8668 29.6656 20.7155 29.5107 20.6104 29.3242L19.9006 28.0637H28.8332ZM30.8199 24.535L29.5686 26.7574H19.1652L17.9139 24.535H30.8199ZM29.6145 21.0845L30.8219 23.2289H17.9119L19.1193 21.0845H29.6145ZM27.0852 17.8226C27.2958 17.8226 27.5025 17.8793 27.6848 17.987C27.8671 18.0947 28.0183 18.2497 28.1234 18.4362L28.8791 19.7783H19.8548L20.6106 18.4362C20.7156 18.2497 20.8669 18.0948 21.0491 17.987C21.2314 17.8793 21.4381 17.8226 21.6486 17.8226H27.0852Z" fill="#00435B"/>
<path d="M13.7358 17.2373C13.1335 14.2503 13.0041 11.9593 13.3935 10.2958C13.625 9.30642 14.0482 8.49929 14.692 7.91685C15.3716 7.30205 16.2307 7.00033 17.1961 7.00033C18.7886 7.00033 20.4628 7.74316 22.2518 9.15415C22.9817 9.72979 23.739 10.4235 24.5256 11.2358C24.5883 11.1535 24.6589 11.0757 24.738 11.0038C26.9617 8.97707 28.8339 7.71758 30.4353 7.23212C31.3876 6.94327 32.2814 6.91578 33.0954 7.19605C33.9548 7.49171 34.6395 8.10326 35.1227 8.95962C35.9199 10.373 36.1299 12.2301 35.8328 14.5233C35.7117 15.4581 35.5046 16.4761 35.212 17.5794C35.3223 17.593 35.433 17.6181 35.5427 17.6552C38.3641 18.6116 40.3621 19.6399 41.5716 20.8153C42.2915 21.5145 42.7612 22.2929 42.9312 23.1548C43.1105 24.0643 42.9356 24.9766 42.4531 25.8323C41.6572 27.2438 40.1941 28.3568 38.1096 29.2384C37.2727 29.5925 36.3257 29.9131 35.2675 30.2014C35.3159 30.3129 35.3534 30.4314 35.3785 30.5555C35.9808 33.5424 36.1099 35.8335 35.7208 37.497C35.4892 38.4864 35.0659 39.2935 34.4221 39.876C33.7426 40.4908 32.8834 40.7924 31.918 40.7924C30.3255 40.7924 28.6514 40.0497 26.8625 38.6387C26.1246 38.0568 25.3589 37.3545 24.5632 36.531C24.4796 36.6648 24.3782 36.7864 24.2622 36.8919C22.0384 38.9189 20.1661 40.178 18.5647 40.6637C17.6125 40.9526 16.7186 40.9801 15.9046 40.6998C15.0452 40.4041 14.3606 39.7927 13.8774 38.9362C13.0802 37.5228 12.87 35.6657 13.1672 33.3724C13.2928 32.4041 13.5106 31.346 13.8202 30.1965C13.6968 30.1837 13.5751 30.1571 13.4574 30.1171C10.636 29.1607 8.638 28.1324 7.42841 26.957C6.70864 26.2578 6.23877 25.4793 6.0688 24.6174C5.88958 23.7079 6.06447 22.7955 6.54691 21.9398C7.3427 20.5285 8.80593 19.4154 10.8904 18.5339C11.7522 18.1692 12.7308 17.8401 13.8272 17.5451C13.7877 17.4455 13.7571 17.3425 13.7358 17.2373Z" fill="#002B3B"/>
<path d="M33.4099 30.8496C33.5446 30.8253 33.6834 30.8547 33.7972 30.9321C33.9113 31.0094 33.9916 31.1286 34.0221 31.2651L34.0255 31.2816L34.0552 31.4405C35.0251 36.6553 34.342 39.2627 32.0059 39.2627C29.7203 39.2627 26.8108 37.0378 23.2773 32.588C23.2146 32.5088 23.1747 32.4133 23.1624 32.3123C23.15 32.2111 23.1656 32.1086 23.2075 32.0162C23.2492 31.9237 23.3155 31.845 23.3989 31.7892C23.4821 31.7334 23.5792 31.7025 23.6787 31.7003H23.6952L23.8812 31.7017C25.3683 31.7098 26.8138 31.6568 28.2178 31.5425C29.8751 31.4076 31.6058 31.1765 33.4099 30.8496ZM17.3669 26.9077L17.3758 26.9233L17.4692 27.0899C18.2174 28.4203 18.9969 29.6831 19.8077 30.8782C20.7628 32.2854 21.8366 33.7102 23.0292 35.1525C23.1179 35.2594 23.1626 35.3973 23.1543 35.5372C23.1459 35.6771 23.0852 35.8083 22.9847 35.9037L22.9712 35.916L22.8513 36.0217C18.9046 39.4803 16.3394 40.1709 15.1558 38.093C13.9972 36.0593 14.4172 32.3613 16.416 26.9991C16.4514 26.9041 16.5121 26.8211 16.5912 26.7596C16.6703 26.698 16.7647 26.6603 16.8636 26.6508C16.9626 26.6414 17.0622 26.6603 17.1511 26.7057C17.24 26.7513 17.3148 26.8211 17.3669 26.9077ZM35.4126 19.2128L35.4288 19.2183L35.5774 19.2706C40.4488 21.0039 42.2995 22.9086 41.1296 24.9848C39.9855 27.0154 36.6593 28.4939 31.1511 29.4203C31.0513 29.4369 30.9487 29.4243 30.8557 29.3837C30.7627 29.3431 30.6828 29.2763 30.6257 29.1909C30.5685 29.1056 30.5362 29.0053 30.5327 28.9019C30.5291 28.7986 30.5545 28.6962 30.6058 28.607C31.3948 27.2344 32.1053 25.8686 32.7375 24.5096C33.4543 22.9686 34.1272 21.3144 34.7559 19.5472C34.8014 19.4187 34.8928 19.3125 35.0113 19.2497C35.1301 19.1868 35.2675 19.1719 35.3965 19.2079L35.4126 19.2128ZM18.2051 18.3402C18.2654 18.3764 18.3181 18.4244 18.3603 18.4815C18.4024 18.5385 18.4332 18.6035 18.4508 18.6727C18.4683 18.7419 18.4724 18.814 18.4628 18.8848C18.4531 18.9557 18.4299 19.0239 18.3945 19.0855C17.6053 20.458 16.8947 21.8238 16.2626 23.1828C15.5458 24.7238 14.873 26.3781 14.2443 28.1453C14.1976 28.2765 14.1034 28.3844 13.9812 28.4467C13.859 28.5089 13.718 28.5208 13.5875 28.4796L13.5713 28.4742L13.4227 28.4218C8.55137 26.6885 6.70059 24.7838 7.87044 22.7077C9.01454 20.6771 12.3407 19.1986 17.849 18.2722C17.9719 18.2515 18.0979 18.2756 18.2051 18.3402ZM33.8443 9.80338C35.0029 11.8372 34.5828 15.5352 32.5841 20.8974C32.5486 20.9924 32.4881 21.0754 32.4089 21.1369C32.3298 21.1985 32.2355 21.2361 32.1364 21.2457C32.0375 21.2552 31.938 21.2361 31.849 21.1907C31.76 21.1453 31.6854 21.0754 31.6332 20.9888L31.6243 20.9733L31.531 20.8067C30.7827 19.4762 30.0032 18.2134 29.1924 17.0183C28.2373 15.611 27.1635 14.1863 25.9707 12.7441C25.8823 12.637 25.8375 12.4992 25.8458 12.3593C25.8542 12.2193 25.9149 12.0881 26.0155 11.9928L26.0289 11.9805L26.1488 11.8749C30.0955 8.41622 32.6607 7.72572 33.8443 9.80338ZM17.194 8.56592C19.4796 8.56592 22.3891 10.7908 25.9225 15.2406C25.9854 15.3197 26.0252 15.4152 26.0375 15.5162C26.0498 15.6173 26.0343 15.7199 25.9924 15.8124C25.9505 15.9048 25.8843 15.9835 25.801 16.0393C25.7176 16.0951 25.6207 16.126 25.5212 16.1283H25.5047L25.3185 16.1271C23.8316 16.1188 22.3862 16.1718 20.9822 16.2861C19.3247 16.4212 17.5939 16.6521 15.7899 16.979C15.6552 17.0034 15.5166 16.9738 15.4027 16.8965C15.2888 16.8192 15.2083 16.7 15.1779 16.5636L15.1745 16.5469L15.1445 16.3881C14.1746 11.1733 14.8578 8.56592 17.194 8.56592Z" fill="#FF4154"/>
<path d="M22.0857 17.8908H26.6494C26.9773 17.8908 27.2994 17.9793 27.5831 18.1474C27.8668 18.3154 28.1023 18.5571 28.2654 18.848L30.5569 22.9318C30.719 23.2205 30.8043 23.5476 30.8043 23.8804C30.8043 24.2133 30.719 24.5404 30.5569 24.8291L28.2654 28.9128C28.1023 29.2037 27.8668 29.4454 27.5831 29.6135C27.2994 29.7815 26.9773 29.8701 26.6494 29.8701H22.0857C21.4183 29.8701 20.8018 29.5049 20.4695 28.9128L18.1783 24.8291C18.0163 24.5404 17.931 24.2133 17.931 23.8804C17.931 23.5476 18.0163 23.2205 18.1783 22.9318L20.4697 18.848C20.6329 18.5571 20.8683 18.3154 21.152 18.1473C21.4358 17.9793 21.7578 17.8908 22.0857 17.8908ZM25.9539 19.1234C26.6216 19.1234 27.2385 19.489 27.5705 20.0814L29.1684 22.9327C29.3302 23.2212 29.4153 23.5479 29.4153 23.8804C29.4153 24.213 29.3302 24.5397 29.1684 24.8282L27.5705 27.6795C27.4074 27.9705 27.1719 28.2124 26.8882 28.3805C26.6043 28.5488 26.2821 28.6374 25.9539 28.6374H22.7815C22.1137 28.6374 21.4969 28.2719 21.1649 27.6795L19.567 24.8282C19.4053 24.5397 19.3202 24.213 19.3202 23.8804C19.3202 23.5479 19.4053 23.2212 19.567 22.9327L21.1649 20.0814C21.328 19.7904 21.5634 19.5485 21.8472 19.3803C22.1311 19.2121 22.4533 19.1235 22.7813 19.1235L25.9539 19.1234ZM25.2042 20.4716H23.5311C23.2033 20.4715 22.8814 20.5599 22.5977 20.7279C22.314 20.8958 22.0787 21.1373 21.9154 21.428L21.0711 22.9309C20.9088 23.2198 20.8233 23.5472 20.8233 23.8804C20.8233 24.2137 20.9088 24.5411 21.0711 24.8299L21.9154 26.3331C22.0787 26.6238 22.314 26.8652 22.5977 27.0331C22.8814 27.2011 23.2033 27.2895 23.5311 27.2895H25.2042C25.8714 27.2895 26.4878 26.9247 26.8199 26.3331L27.6644 24.8299C27.8266 24.5411 27.9121 24.2137 27.9121 23.8804C27.9121 23.5472 27.8266 23.2198 27.6644 22.9309L26.8199 21.4278C26.6568 21.1371 26.4213 20.8956 26.1378 20.7277C25.854 20.5598 25.532 20.4715 25.2042 20.4716ZM24.4825 21.7618C25.149 21.7618 25.7649 22.126 26.0972 22.7167L26.2171 22.9296C26.3799 23.2188 26.4656 23.5466 26.4656 23.8803C26.4656 24.214 26.3799 24.5418 26.2171 24.8309L26.0972 25.0438C25.9339 25.3341 25.6986 25.5752 25.4151 25.7428C25.1317 25.9106 24.81 25.9988 24.4825 25.9988H24.253C23.9255 25.9988 23.6038 25.9106 23.3202 25.7428C23.0368 25.5752 22.8015 25.3341 22.6381 25.0438L22.5183 24.8309C22.3555 24.5418 22.2699 24.214 22.2699 23.8803C22.2699 23.5466 22.3555 23.2188 22.5183 22.9296L22.6381 22.7167C22.8015 22.4264 23.0368 22.1853 23.3202 22.0177C23.6038 21.85 23.9255 21.7618 24.253 21.7618H24.4825ZM24.368 23.0329C24.2225 23.0329 24.0794 23.072 23.9534 23.1464C23.8273 23.2208 23.7225 23.3277 23.6497 23.4566C23.5769 23.5854 23.5387 23.7315 23.5387 23.8803C23.5387 24.029 23.5769 24.1751 23.6497 24.3039C23.7225 24.4328 23.8271 24.5399 23.9533 24.6144C24.0792 24.6886 24.2222 24.7279 24.3678 24.7279C24.5133 24.7279 24.6563 24.6886 24.7824 24.6144C24.9084 24.5399 25.0131 24.4328 25.086 24.3039C25.1586 24.1751 25.197 24.029 25.197 23.8803C25.197 23.7315 25.1586 23.5854 25.086 23.4566C25.013 23.3278 24.9084 23.2209 24.7824 23.1465C24.6564 23.0722 24.5135 23.033 24.368 23.0329Z" fill="#FFD94C"/>
</g>
<defs>
<clipPath id="clip0_1459_379">
<rect width="37" height="34" fill="white" transform="translate(6 7)"/>
</clipPath>
</defs>
</svg>
