<svg width="61" height="60" viewBox="0 0 61 60" fill="none" xmlns="http://www.w3.org/2000/svg">
<g clip-path="url(#clip0_1399_443)">
<path d="M30.3437 35.5469C33.295 35.5469 35.6875 33.1544 35.6875 30.2031C35.6875 27.2518 33.295 24.8594 30.3437 24.8594C27.3925 24.8594 25 27.2518 25 30.2031C25 33.1544 27.3925 35.5469 30.3437 35.5469Z" fill="#61DAFB"/>
<path d="M50.6406 21.3906C49.6094 21.0156 48.5313 20.6406 47.4062 20.3125C47.6875 19.1875 47.9219 18.0625 48.1094 16.9844C49.0937 10.7969 48.0156 6.4375 45.0156 4.75C44.125 4.23437 43.1406 4 42.0156 4C38.7344 4 34.5625 6.4375 30.3437 10.5156C26.125 6.4375 21.9531 4 18.6719 4C17.5469 4 16.5625 4.23437 15.6719 4.75C12.6719 6.48438 11.5938 10.8438 12.5781 16.9844C12.7656 18.0625 13 19.1875 13.2813 20.3125C12.1563 20.6406 11.0781 20.9687 10.0469 21.3906C4.1875 23.6406 1 26.7344 1 30.2031C1 33.6719 4.23437 36.7656 10.0469 39.0156C11.0781 39.3906 12.1563 39.7656 13.2813 40.0938C13 41.2188 12.7656 42.3437 12.5781 43.4219C11.5938 49.6094 12.6719 53.9687 15.6719 55.6562C16.5625 56.1719 17.5469 56.4063 18.6719 56.4063C22 56.4063 26.1719 53.9688 30.3437 49.8906C34.5625 53.9688 38.7344 56.4063 42.0156 56.4063C43.1406 56.4063 44.125 56.1719 45.0156 55.6562C48.0156 53.9219 49.0937 49.5625 48.1094 43.4219C47.9219 42.3437 47.6875 41.2188 47.4062 40.0938C48.5313 39.7656 49.6094 39.4375 50.6406 39.0156C56.5 36.7656 59.6875 33.6719 59.6875 30.2031C59.6875 26.7344 56.5 23.6406 50.6406 21.3906ZM43.7031 7.09375C45.625 8.21875 46.2813 11.6875 45.4844 16.6094C45.3438 17.5937 45.1094 18.625 44.8281 19.7031C42.3906 19.1406 39.8125 18.7656 37.0938 18.5312C35.5 16.2812 33.8594 14.2656 32.2187 12.4375C35.6875 9.01562 39.2031 6.67187 42.0625 6.67187C42.6719 6.67187 43.2344 6.8125 43.7031 7.09375ZM38.4531 34.8906C37.6094 36.3906 36.625 37.8906 35.5938 39.3906C33.8594 39.5313 32.125 39.5781 30.3437 39.5781C28.5156 39.5781 26.7813 39.5313 25.0938 39.3906C24.0625 37.8906 23.125 36.3906 22.2813 34.8906C21.3906 33.3438 20.5469 31.75 19.7969 30.2031C20.5469 28.6563 21.3906 27.0625 22.2813 25.5156C23.125 24.0156 24.1094 22.5156 25.1406 21.0156C26.875 20.875 28.6094 20.8281 30.3906 20.8281C32.2188 20.8281 33.9531 20.875 35.6406 21.0156C36.6719 22.5156 37.6094 24.0156 38.4531 25.5156C39.3438 27.0625 40.1875 28.6563 40.9375 30.2031C40.1406 31.75 39.3438 33.2969 38.4531 34.8906ZM42.3437 33.3437C43.0469 34.9844 43.6094 36.5781 44.125 38.1719C42.5312 38.5469 40.8437 38.8281 39.0625 39.0625C39.625 38.1719 40.2344 37.2344 40.75 36.25C41.3125 35.2656 41.8281 34.2812 42.3437 33.3437ZM30.3437 46.0469C29.2187 44.8281 28.1406 43.5156 27.1094 42.1563C28.1875 42.2031 29.2656 42.25 30.3437 42.25C31.4219 42.25 32.5 42.2031 33.5781 42.1563C32.5469 43.5156 31.4687 44.8281 30.3437 46.0469ZM21.625 39.0156C19.8438 38.7812 18.1563 38.5 16.5625 38.125C17.0781 36.5781 17.6406 34.9375 18.3438 33.2969C18.8594 34.2344 19.375 35.2187 19.9375 36.1562C20.5 37.1875 21.0625 38.0781 21.625 39.0156ZM18.3438 27.0625C17.6406 25.4219 17.0781 23.8281 16.5625 22.2344C18.1563 21.8594 19.8438 21.5781 21.625 21.3438C21.0625 22.2344 20.4531 23.1719 19.9375 24.1562C19.375 25.1406 18.8594 26.125 18.3438 27.0625ZM30.3437 14.3594C31.4687 15.5781 32.5469 16.8906 33.5781 18.25C32.5 18.2031 31.4219 18.1563 30.3437 18.1563C29.2656 18.1563 28.1875 18.2031 27.1094 18.25C28.1406 16.8906 29.2187 15.5781 30.3437 14.3594ZM40.75 24.2031L39.0625 21.3906C40.8437 21.625 42.5312 21.9062 44.125 22.2812C43.6094 23.8281 43.0469 25.4687 42.3437 27.1094C41.8281 26.125 41.3125 25.1406 40.75 24.2031ZM15.2031 16.6094C14.4062 11.6875 15.0625 8.21875 16.9844 7.09375C17.4531 6.8125 18.0156 6.67187 18.625 6.67187C21.4375 6.67187 24.9531 8.96875 28.4687 12.4375C26.8281 14.2187 25.1875 16.2812 23.5938 18.5312C20.875 18.7656 18.2969 19.1875 15.8594 19.7031C15.5781 18.625 15.3906 17.5937 15.2031 16.6094ZM3.625 30.2031C3.625 28 6.29687 25.6563 10.9844 23.9219C11.9219 23.5469 12.9531 23.2188 13.9844 22.9375C14.7344 25.2813 15.6719 27.7656 16.7969 30.25C15.6719 32.7344 14.6875 35.1719 13.9844 37.5156C7.51563 35.6406 3.625 32.8281 3.625 30.2031ZM16.9844 53.3125C15.0625 52.1875 14.4062 48.7188 15.2031 43.7969C15.3437 42.8125 15.5781 41.7813 15.8594 40.7031C18.2969 41.2656 20.875 41.6406 23.5938 41.875C25.1875 44.125 26.8281 46.1406 28.4687 47.9688C25 51.3906 21.4844 53.7344 18.625 53.7344C18.0156 53.7344 17.4531 53.5937 16.9844 53.3125ZM45.4844 43.7969C46.2813 48.7188 45.625 52.1875 43.7031 53.3125C43.2344 53.5937 42.6719 53.7344 42.0625 53.7344C39.25 53.7344 35.7344 51.4375 32.2187 47.9688C33.8594 46.1875 35.5 44.125 37.0938 41.875C39.8125 41.6406 42.3906 41.2188 44.8281 40.7031C45.1094 41.7813 45.2969 42.8125 45.4844 43.7969ZM49.7031 36.4844C48.7656 36.8594 47.7344 37.1875 46.7031 37.4688C45.9531 35.125 45.0156 32.6406 43.8906 30.1562C45.0156 27.6719 46 25.2344 46.7031 22.8906C53.1719 24.7656 57.0625 27.5781 57.0625 30.2031C57.0625 32.4063 54.3438 34.75 49.7031 36.4844Z" fill="#61DAFB"/>
<rect x="12.5455" y="15.8182" width="33.8182" height="29.4545" fill="white"/>
<path d="M30 6C16.746 6 6 16.746 6 30C6 43.254 16.746 54 30 54C43.254 54 54 43.254 54 30C54 16.746 43.254 6 30 6ZM32.782 43.082L32.304 35.562L27.522 32.346L27.826 42.604L19.176 42.908L18.83 16.09L27 15.96L27.174 26.652L31.608 23.436L31.826 15.874L40.65 16.44L39.954 25.612L34.738 28.828L40.084 31.176L41.91 42.564L32.782 43.082Z" fill="#37CD1A"/>
</g>
<defs>
<clipPath id="clip0_1399_443">
<rect width="60" height="52.5" fill="white" transform="translate(1 4)"/>
</clipPath>
</defs>
</svg>
