<svg width="48" height="48" viewBox="0 0 48 48" fill="none" xmlns="http://www.w3.org/2000/svg">
<path d="M36.75 0H11.25C5.0368 0 0 5.0368 0 11.25V36.75C0 42.9632 5.0368 48 11.25 48H36.75C42.9632 48 48 42.9632 48 36.75V11.25C48 5.0368 42.9632 0 36.75 0Z" fill="#242938"/>
<g clip-path="url(#clip0_1459_389)">
<path d="M23.5625 28.0313C25.53 28.0313 27.125 26.4363 27.125 24.4688C27.125 22.5012 25.53 20.9062 23.5625 20.9062C21.595 20.9062 20 22.5012 20 24.4688C20 26.4363 21.595 28.0313 23.5625 28.0313Z" fill="#61DAFB"/>
<path d="M37.0938 18.5937C36.4063 18.3437 35.6875 18.0937 34.9375 17.875C35.125 17.125 35.2812 16.375 35.4062 15.6563C36.0625 11.5313 35.3438 8.625 33.3438 7.5C32.75 7.15625 32.0938 7 31.3438 7C29.1562 7 26.375 8.625 23.5625 11.3437C20.75 8.625 17.9688 7 15.7813 7C15.0313 7 14.375 7.15625 13.7812 7.5C11.7812 8.65625 11.0625 11.5625 11.7188 15.6563C11.8438 16.375 12 17.125 12.1875 17.875C11.4375 18.0937 10.7187 18.3125 10.0312 18.5937C6.125 20.0937 4 22.1563 4 24.4688C4 26.7813 6.15625 28.8437 10.0312 30.3437C10.7187 30.5937 11.4375 30.8438 12.1875 31.0625C12 31.8125 11.8438 32.5625 11.7188 33.2812C11.0625 37.4062 11.7812 40.3125 13.7812 41.4375C14.375 41.7812 15.0313 41.9375 15.7813 41.9375C18 41.9375 20.7812 40.3125 23.5625 37.5938C26.375 40.3125 29.1562 41.9375 31.3438 41.9375C32.0938 41.9375 32.75 41.7812 33.3438 41.4375C35.3438 40.2812 36.0625 37.375 35.4062 33.2812C35.2812 32.5625 35.125 31.8125 34.9375 31.0625C35.6875 30.8438 36.4063 30.625 37.0938 30.3437C41 28.8437 43.125 26.7813 43.125 24.4688C43.125 22.1563 41 20.0937 37.0938 18.5937ZM32.4687 9.0625C33.75 9.8125 34.1875 12.125 33.6563 15.4062C33.5625 16.0625 33.4063 16.75 33.2188 17.4688C31.5938 17.0937 29.875 16.8438 28.0625 16.6875C27 15.1875 25.9062 13.8438 24.8125 12.625C27.125 10.3437 29.4687 8.78125 31.375 8.78125C31.7812 8.78125 32.1562 8.875 32.4687 9.0625ZM28.9688 27.5938C28.4063 28.5938 27.75 29.5937 27.0625 30.5938C25.9063 30.6875 24.75 30.7188 23.5625 30.7188C22.3437 30.7188 21.1875 30.6875 20.0625 30.5938C19.375 29.5937 18.75 28.5938 18.1875 27.5938C17.5938 26.5625 17.0312 25.5 16.5312 24.4688C17.0312 23.4375 17.5938 22.375 18.1875 21.3438C18.75 20.3438 19.4062 19.3437 20.0938 18.3437C21.25 18.25 22.4063 18.2188 23.5938 18.2188C24.8125 18.2188 25.9688 18.25 27.0938 18.3437C27.7813 19.3437 28.4063 20.3438 28.9688 21.3438C29.5625 22.375 30.125 23.4375 30.625 24.4688C30.0937 25.5 29.5625 26.5313 28.9688 27.5938ZM31.5625 26.5625C32.0312 27.6562 32.4062 28.7188 32.75 29.7813C31.6875 30.0313 30.5625 30.2188 29.375 30.375C29.75 29.7813 30.1563 29.1563 30.5 28.5C30.875 27.8438 31.2187 27.1875 31.5625 26.5625ZM23.5625 35.0312C22.8125 34.2187 22.0938 33.3438 21.4063 32.4375C22.125 32.4688 22.8437 32.5 23.5625 32.5C24.2812 32.5 25 32.4688 25.7188 32.4375C25.0312 33.3438 24.3125 34.2187 23.5625 35.0312ZM17.75 30.3437C16.5625 30.1875 15.4375 30 14.375 29.75C14.7188 28.7188 15.0938 27.625 15.5625 26.5312C15.9063 27.1562 16.25 27.8125 16.625 28.4375C17 29.125 17.375 29.7187 17.75 30.3437ZM15.5625 22.375C15.0938 21.2813 14.7188 20.2188 14.375 19.1563C15.4375 18.9063 16.5625 18.7188 17.75 18.5625C17.375 19.1562 16.9688 19.7813 16.625 20.4375C16.25 21.0937 15.9063 21.75 15.5625 22.375ZM23.5625 13.9063C24.3125 14.7188 25.0312 15.5937 25.7188 16.5C25 16.4687 24.2812 16.4375 23.5625 16.4375C22.8437 16.4375 22.125 16.4687 21.4063 16.5C22.0938 15.5937 22.8125 14.7188 23.5625 13.9063ZM30.5 20.4687L29.375 18.5937C30.5625 18.75 31.6875 18.9375 32.75 19.1875C32.4062 20.2187 32.0312 21.3125 31.5625 22.4062C31.2187 21.75 30.875 21.0937 30.5 20.4687ZM13.4687 15.4062C12.9375 12.125 13.375 9.8125 14.6562 9.0625C14.9687 8.875 15.3437 8.78125 15.75 8.78125C17.625 8.78125 19.9687 10.3125 22.3125 12.625C21.2187 13.8125 20.125 15.1875 19.0625 16.6875C17.25 16.8438 15.5313 17.125 13.9063 17.4688C13.7188 16.75 13.5937 16.0625 13.4687 15.4062ZM5.75 24.4688C5.75 23 7.53125 21.4375 10.6562 20.2812C11.2812 20.0312 11.9688 19.8125 12.6563 19.625C13.1563 21.1875 13.7813 22.8437 14.5313 24.5C13.7813 26.1563 13.125 27.7812 12.6563 29.3438C8.34375 28.0938 5.75 26.2188 5.75 24.4688ZM14.6562 39.875C13.375 39.125 12.9375 36.8125 13.4687 33.5313C13.5625 32.875 13.7188 32.1875 13.9063 31.4688C15.5313 31.8438 17.25 32.0938 19.0625 32.25C20.125 33.75 21.2187 35.0938 22.3125 36.3125C20 38.5938 17.6562 40.1562 15.75 40.1562C15.3437 40.1562 14.9687 40.0625 14.6562 39.875ZM33.6563 33.5313C34.1875 36.8125 33.75 39.125 32.4687 39.875C32.1562 40.0625 31.7812 40.1562 31.375 40.1562C29.5 40.1562 27.1562 38.625 24.8125 36.3125C25.9062 35.125 27 33.75 28.0625 32.25C29.875 32.0938 31.5938 31.8125 33.2188 31.4688C33.4063 32.1875 33.5313 32.875 33.6563 33.5313ZM36.4688 28.6563C35.8438 28.9063 35.1563 29.125 34.4688 29.3125C33.9687 27.75 33.3438 26.0937 32.5938 24.4375C33.3438 22.7812 34 21.1562 34.4688 19.5937C38.7813 20.8437 41.375 22.7188 41.375 24.4688C41.375 25.9375 39.5625 27.5 36.4688 28.6563Z" fill="#61DAFB"/>
<rect x="11.697" y="14.8788" width="22.5455" height="19.6364" fill="white"/>
<path d="M23.3333 8.33331C14.4973 8.33331 7.33331 15.4973 7.33331 24.3333C7.33331 33.1693 14.4973 40.3333 23.3333 40.3333C32.1693 40.3333 39.3333 33.1693 39.3333 24.3333C39.3333 15.4973 32.1693 8.33331 23.3333 8.33331ZM25.188 33.0546L24.8693 28.0413L21.6813 25.8973L21.884 32.736L16.1173 32.9386L15.8866 15.06L21.3333 14.9733L21.4493 22.1013L24.4053 19.9573L24.5506 14.916L30.4333 15.2933L29.9693 21.408L26.492 23.552L30.056 25.1173L31.2733 32.7093L25.188 33.0546Z" fill="#37CD1A"/>
</g>
<defs>
<clipPath id="clip0_1459_389">
<rect width="40" height="35" fill="white" transform="translate(4 7)"/>
</clipPath>
</defs>
</svg>
