<svg width="60" height="60" viewBox="0 0 60 60" fill="none" xmlns="http://www.w3.org/2000/svg">
<g clip-path="url(#clip0_939_512)">
<path d="M37.0269 36.792L35.8759 38.8143C35.7055 39.1135 35.4603 39.3619 35.1647 39.5349C34.8693 39.7075 34.5339 39.7986 34.1927 39.7986H25.376C25.0347 39.7986 24.6994 39.7075 24.4039 39.5349C24.1084 39.3619 23.8631 39.1135 23.6927 38.8143L22.5417 36.792H37.0269ZM40.2486 31.131L38.2195 34.6964H21.3492L19.32 31.131H40.2486ZM38.2939 25.5955L40.2519 29.0356H19.3167L21.2746 25.5955H38.2939ZM34.1924 20.3624C34.5339 20.3624 34.869 20.4534 35.1647 20.6262C35.4603 20.799 35.7055 21.0476 35.8759 21.3469L37.1013 23.5H22.4674L23.6929 21.3469C23.8633 21.0476 24.1086 20.7991 24.4041 20.6263C24.6996 20.4535 25.0349 20.3625 25.3762 20.3624H34.1924Z" fill="#00435B"/>
<path d="M12.5445 19.4234C11.5678 14.6315 11.3581 10.9561 11.9895 8.28742C12.3649 6.70015 13.0512 5.40527 14.0951 4.47089C15.1971 3.48457 16.5902 3.00053 18.1559 3.00053C20.7382 3.00053 23.4532 4.19223 26.3543 6.45586C27.5378 7.37935 28.7659 8.49232 30.0415 9.79546C30.1432 9.66338 30.2577 9.53864 30.3859 9.42314C33.9919 6.17176 37.0279 4.1512 39.6248 3.37239C41.169 2.90899 42.6185 2.86488 43.9385 3.31453C45.3322 3.78883 46.4425 4.76994 47.226 6.14378C48.5187 8.41121 48.8594 11.3906 48.3775 15.0695C48.1811 16.5691 47.8454 18.2024 47.3708 19.9722C47.5497 19.994 47.7292 20.0344 47.907 20.0939C52.4823 21.6283 55.7223 23.2779 57.6837 25.1635C58.851 26.2853 59.6127 27.5341 59.8885 28.9167C60.1792 30.3758 59.8955 31.8395 59.1131 33.2122C57.8225 35.4766 55.4498 37.2622 52.0696 38.6765C50.7125 39.2446 49.1768 39.759 47.4608 40.2215C47.5394 40.4005 47.6002 40.5905 47.6408 40.7896C48.6175 45.5815 48.8269 49.257 48.1958 51.9256C47.8203 53.5129 47.1338 54.8078 46.0898 55.7422C44.988 56.7286 43.5946 57.2125 42.0292 57.2125C39.4467 57.2125 36.732 56.0209 33.831 53.7573C32.6345 52.8237 31.3928 51.6971 30.1025 50.376C29.967 50.5906 29.8025 50.7856 29.6144 50.955C26.0081 54.2067 22.972 56.2268 20.3752 57.006C18.8311 57.4694 17.3815 57.5135 16.0615 57.0638C14.6679 56.5895 13.5577 55.6085 12.7742 54.2345C11.4813 51.9671 11.1406 48.9878 11.6224 45.3087C11.8261 43.7553 12.1793 42.0578 12.6813 40.2136C12.4812 40.1932 12.2839 40.1504 12.0931 40.0863C7.51784 38.5519 4.27784 36.9022 2.31634 35.0165C1.14915 33.8948 0.387199 32.646 0.111574 31.2633C-0.179052 29.8042 0.104542 28.3405 0.886887 26.9676C2.17735 24.7034 4.55015 22.9177 7.93034 21.5035C9.3279 20.9185 10.9148 20.3906 12.6928 19.9172C12.6287 19.7575 12.579 19.5922 12.5445 19.4234Z" fill="#002B3B"/>
<path d="M44.4486 41.2615C44.667 41.2225 44.892 41.2696 45.0766 41.3937C45.2616 41.5178 45.3919 41.709 45.4413 41.928L45.4467 41.9545L45.495 42.2095C47.0678 50.5754 45.96 54.7585 42.1718 54.7585C38.4655 54.7585 33.7473 51.189 28.0173 44.0504C27.9156 43.9233 27.8509 43.77 27.831 43.608C27.8108 43.4457 27.8362 43.2813 27.9041 43.1329C27.9717 42.9845 28.0792 42.8583 28.2145 42.7688C28.3495 42.6794 28.5068 42.6297 28.6683 42.6262H28.695L28.9966 42.6284C31.4081 42.6415 33.7522 42.5564 36.0289 42.3731C38.7164 42.1565 41.523 41.7859 44.4486 41.2615ZM18.4328 34.9375L18.4473 34.9625L18.5987 35.2298C19.812 37.3642 21.0761 39.39 22.3909 41.3073C23.9397 43.5649 25.6811 45.8506 27.615 48.1645C27.7587 48.336 27.8313 48.5572 27.8179 48.7816C27.8043 49.0061 27.7058 49.2166 27.5427 49.3696L27.5209 49.3893L27.3265 49.5589C20.9264 55.1075 16.7667 56.2154 14.8473 52.8818C12.9684 49.6192 13.6496 43.6865 16.8909 35.0842C16.9482 34.9317 17.0466 34.7986 17.1749 34.6999C17.3032 34.6012 17.4563 34.5406 17.6168 34.5254C17.7772 34.5104 17.9387 34.5406 18.0829 34.6135C18.2272 34.6865 18.3484 34.7986 18.4328 34.9375ZM47.6962 22.5928L47.7224 22.6015L47.9635 22.6855C55.863 25.4662 58.8641 28.5219 56.967 31.8526C55.1116 35.1104 49.7179 37.4823 40.7856 38.9684C40.6238 38.9951 40.4575 38.9749 40.3066 38.9097C40.1558 38.8445 40.0263 38.7374 39.9336 38.6005C39.8408 38.4635 39.7885 38.3026 39.7827 38.1368C39.777 37.971 39.8182 37.8068 39.9014 37.6636C41.1807 35.4616 42.333 33.2705 43.3582 31.0904C44.5206 28.6181 45.6117 25.9643 46.6312 23.1292C46.7051 22.9231 46.8532 22.7528 47.0455 22.652C47.238 22.5511 47.4608 22.5272 47.67 22.5849L47.6962 22.5928ZM19.7922 21.1928C19.8899 21.2509 19.9754 21.328 20.0438 21.4195C20.1121 21.511 20.162 21.6153 20.1905 21.7264C20.219 21.8374 20.2256 21.953 20.2099 22.0666C20.1943 22.1803 20.1567 22.2897 20.0992 22.3886C18.8195 24.5905 17.6672 26.7815 16.6422 28.9618C15.4797 31.434 14.3887 34.0879 13.3691 36.9229C13.2934 37.1335 13.1407 37.3066 12.9425 37.4065C12.7443 37.5063 12.5158 37.5254 12.3041 37.4594L12.2779 37.4506L12.0369 37.3666C4.13742 34.5859 1.13616 31.5303 3.0332 28.1996C4.88851 24.9419 10.2823 22.5699 19.2147 21.0838C19.4139 21.0505 19.6183 21.0892 19.7922 21.1928ZM45.153 7.49744C47.0318 10.7602 46.3506 16.6928 43.1095 25.2954C43.0519 25.4478 42.9537 25.5809 42.8253 25.6796C42.6971 25.7783 42.5441 25.8388 42.3835 25.854C42.2231 25.8693 42.0616 25.8388 41.9174 25.7659C41.7731 25.6931 41.652 25.5809 41.5675 25.4419L41.553 25.417L41.4016 25.1498C40.1883 23.0154 38.9242 20.9895 37.6094 19.0722C36.0606 16.8145 34.3192 14.5288 32.385 12.2151C32.2416 12.0434 32.169 11.8223 32.1824 11.5978C32.196 11.3733 32.2945 11.1628 32.4576 11.0099L32.4794 10.9902L32.6738 10.8207C39.0739 5.27205 43.2336 4.1643 45.153 7.49744ZM18.1525 5.51221C21.8589 5.51221 26.577 9.08154 32.3067 16.2202C32.4087 16.3471 32.4734 16.5003 32.4933 16.6625C32.5132 16.8246 32.4881 16.9892 32.4202 17.1376C32.3523 17.2859 32.2448 17.412 32.1098 17.5016C31.9746 17.5912 31.8175 17.6406 31.656 17.6443H31.6293L31.3274 17.6424C28.9162 17.6291 26.5723 17.7142 24.2955 17.8976C21.6076 18.1142 18.801 18.4847 15.8755 19.0091C15.6572 19.0482 15.4324 19.0008 15.2476 18.8768C15.0629 18.7527 14.9324 18.5615 14.8832 18.3427L14.8776 18.3159L14.829 18.0612C13.2562 9.69521 14.364 5.51221 18.1525 5.51221Z" fill="#FF4154"/>
<path d="M26.085 20.4719H33.4856C34.0174 20.4719 34.5397 20.6139 34.9998 20.8835C35.4598 21.1531 35.8417 21.5409 36.1062 22.0075L39.8221 28.5591C40.085 29.0223 40.2233 29.547 40.2233 30.081C40.2233 30.615 40.085 31.1397 39.8221 31.6028L36.1062 38.1543C35.8417 38.6209 35.4598 39.0087 34.9998 39.2785C34.5397 39.5479 34.0174 39.69 33.4856 39.69H26.085C25.0027 39.69 24.0031 39.1042 23.4642 38.1543L19.7487 31.6028C19.486 31.1397 19.3477 30.615 19.3477 30.081C19.3477 29.547 19.486 29.0223 19.7487 28.5591L23.4645 22.0075C23.7291 21.5408 24.1108 21.1531 24.571 20.8834C25.0311 20.6138 25.5533 20.4719 26.085 20.4719ZM32.3578 22.4493C33.4406 22.4493 34.4409 23.0358 34.9793 23.9863L37.5705 28.5606C37.8328 29.0233 37.9708 29.5475 37.9708 30.081C37.9708 30.6145 37.8328 31.1386 37.5705 31.6015L34.9793 36.1756C34.7148 36.6426 34.3329 37.0306 33.8728 37.3004C33.4125 37.5704 32.8899 37.7125 32.3578 37.7125H27.2133C26.1305 37.7125 25.1302 37.1261 24.5918 36.1756L22.0006 31.6015C21.7384 31.1386 21.6004 30.6145 21.6004 30.081C21.6004 29.5475 21.7384 29.0233 22.0006 28.5606L24.5918 23.9863C24.8563 23.5193 25.2381 23.1313 25.6983 22.8615C26.1586 22.5916 26.6811 22.4495 27.2131 22.4496L32.3578 22.4493ZM31.142 24.6122H28.4289C27.8974 24.6121 27.3754 24.7539 26.9153 25.0233C26.4553 25.2927 26.0737 25.6802 25.8089 26.1466L24.4397 28.5577C24.1765 29.0212 24.0379 29.5464 24.0379 30.081C24.0379 30.6156 24.1765 31.1408 24.4397 31.6042L25.8089 34.0156C26.0737 34.482 26.4553 34.8693 26.9153 35.1387C27.3754 35.4082 27.8974 35.55 28.4289 35.55H31.142C32.2239 35.55 33.2235 34.9647 33.7621 34.0156L35.1315 31.6042C35.3947 31.1408 35.5332 30.6156 35.5332 30.081C35.5332 29.5464 35.3947 29.0212 35.1315 28.5577L33.7621 26.1463C33.4976 25.68 33.1158 25.2925 32.6559 25.0231C32.1958 24.7537 31.6736 24.6121 31.142 24.6122ZM29.9718 26.6821C31.0526 26.6821 32.0513 27.2664 32.5902 28.214L32.7847 28.5556C33.0487 29.0195 33.1875 29.5454 33.1875 30.0807C33.1875 30.6161 33.0487 31.1419 32.7847 31.6058L32.5902 31.9473C32.3254 32.4131 31.9438 32.7998 31.484 33.0687C31.0245 33.3379 30.5028 33.4795 29.9718 33.4795H29.5995C29.0685 33.4795 28.5468 33.3379 28.0869 33.0687C27.6274 32.7998 27.2457 32.4131 26.9808 31.9473L26.7865 31.6058C26.5226 31.1419 26.3836 30.6161 26.3836 30.0807C26.3836 29.5454 26.5226 29.0195 26.7865 28.5556L26.9808 28.214C27.2457 27.7483 27.6274 27.3615 28.0869 27.0925C28.5468 26.8236 29.0685 26.682 29.5995 26.6821H29.9718ZM29.786 28.7213C29.5501 28.7213 29.318 28.7841 29.1138 28.9034C28.9092 29.0227 28.7393 29.1943 28.6212 29.401C28.5031 29.6077 28.4412 29.8421 28.4412 30.0807C28.4412 30.3194 28.5031 30.5536 28.6212 30.7604C28.7393 30.9671 28.9089 31.1389 29.1135 31.2584C29.3178 31.3775 29.5496 31.4406 29.7858 31.4406C30.0217 31.4406 30.2535 31.3775 30.458 31.2584C30.6623 31.1389 30.8322 30.9671 30.9503 30.7604C31.0681 30.5536 31.1303 30.3194 31.1303 30.0807C31.1303 29.8421 31.0681 29.6077 30.9503 29.401C30.8319 29.1944 30.6623 29.0228 30.458 28.9035C30.2538 28.7842 30.0219 28.7214 29.786 28.7213Z" fill="#FFD94C"/>
</g>
<defs>
<clipPath id="clip0_939_512">
<rect width="60" height="54.5455" fill="white" transform="translate(0 3)"/>
</clipPath>
</defs>
</svg>
