<svg width="64" height="55" viewBox="0 0 64 55" fill="none" xmlns="http://www.w3.org/2000/svg">
<g clip-path="url(#clip0_938_342)">
<path d="M61.4925 42.2358C58.077 44.016 40.384 51.2908 36.6172 53.2545C32.8505 55.2183 30.758 55.1995 27.7822 53.777C24.8067 52.3545 5.97825 44.749 2.5865 43.1278C0.8915 42.3178 0 41.6338 0 40.9878V34.5188C0 34.5188 24.5125 29.1825 28.4697 27.7628C32.4267 26.343 33.7998 26.2918 37.1673 27.5253C40.5353 28.7593 60.6718 32.3923 64 33.6113L63.9985 39.9888C63.999 40.6283 63.231 41.3298 61.4925 42.2358Z" fill="#912626"/>
<path d="M61.4912 35.805C58.0759 37.5845 40.3834 44.8595 36.6167 46.823C32.8502 48.7872 30.7577 48.768 27.7822 47.3455C24.8064 45.924 5.97869 38.3172 2.58719 36.697C-0.804306 35.0757 -0.875306 33.96 2.45619 32.6555C5.78769 31.3505 24.5122 24.0042 28.4699 22.5845C32.4269 21.1652 33.7997 21.1135 37.1672 22.3475C40.5349 23.581 58.1219 30.5812 61.4497 31.8C64.7787 33.0202 64.9064 34.025 61.4912 35.805Z" fill="#C6302B"/>
<path d="M61.4925 31.7685C58.077 33.549 40.384 40.8235 36.6172 42.788C32.8505 44.7512 30.758 44.7322 27.7822 43.3097C24.8065 41.888 5.97825 34.2817 2.5865 32.6605C0.8915 31.8505 0 31.1675 0 30.5213V24.0515C0 24.0515 24.5125 18.7155 28.4697 17.2958C32.4267 15.876 33.7998 15.8245 37.1673 17.0583C40.5355 18.292 60.672 21.9242 64 23.1435L63.9985 29.5218C63.999 30.161 63.231 30.8625 61.4925 31.7685Z" fill="#912626"/>
<path d="M61.4912 25.3378C58.0759 27.1178 40.3834 34.3923 36.6167 36.3565C32.8502 38.32 30.7577 38.3008 27.7822 36.8783C24.8064 35.4568 5.97869 27.8503 2.58719 26.2298C-0.804306 24.609 -0.875306 23.493 2.45619 22.188C5.78769 20.8838 24.5124 13.537 28.4699 12.1175C32.4269 10.698 33.7997 10.6465 37.1672 11.8803C40.5349 13.1138 58.1219 20.1135 61.4497 21.3328C64.7787 22.5528 64.9064 23.5578 61.4912 25.3378Z" fill="#C6302B"/>
<path d="M61.4925 20.9132C58.077 22.6932 40.384 29.9682 36.6172 31.9327C32.8505 33.8962 30.758 33.877 27.7822 32.4545C24.8065 31.0327 5.97825 23.4262 2.5865 21.8057C0.8915 20.995 0 20.3117 0 19.6662V13.1962C0 13.1962 24.5125 7.8605 28.4697 6.441C32.4267 5.021 33.7998 4.97 37.1673 6.2035C40.5355 7.43725 60.672 11.0695 64 12.2887L63.9985 18.6667C63.999 19.3055 63.231 20.007 61.4925 20.9132Z" fill="#912626"/>
<path d="M61.4911 14.4825C58.0759 16.2625 40.3834 23.5375 36.6166 25.501C32.8501 27.4645 30.7576 27.4452 27.7821 26.0235C24.8066 24.601 5.97863 16.995 2.58738 15.3742C-0.803871 13.7535 -0.875122 12.6375 2.45613 11.3327C5.78763 10.0282 24.5124 2.6825 28.4699 1.2625C32.4269 -0.157252 33.7996 -0.208252 37.1671 1.0255C40.5346 2.25925 58.1219 9.259 61.4496 10.4782C64.7786 11.6972 64.9064 12.7025 61.4911 14.4825Z" fill="#C6302B"/>
<path d="M39.8208 8.18925L34.3183 8.7605L33.0865 11.7245L31.097 8.417L24.7433 7.846L29.4843 6.13625L28.0618 3.51175L32.5005 5.24775L36.685 3.87775L35.554 6.5915L39.8208 8.18925ZM32.758 22.5688L22.4888 18.3095L37.2038 16.0507L32.758 22.5688ZM18.5205 9.83675C22.8643 9.83675 26.3855 11.2017 26.3855 12.8852C26.3855 14.5692 22.8643 15.934 18.5205 15.934C14.1768 15.934 10.6555 14.569 10.6555 12.8852C10.6555 11.2017 14.1768 9.83675 18.5205 9.83675Z" fill="white"/>
<path d="M46.3237 8.9995L55.0327 12.441L46.3312 15.8792L46.3237 8.9995Z" fill="#621B1C"/>
<path d="M36.6887 12.8107L46.3237 8.9995L46.3312 15.8792L45.3865 16.2487L36.6887 12.8107Z" fill="#9A2928"/>
</g>
<defs>
<clipPath id="clip0_938_342">
<rect width="64" height="55" fill="white"/>
</clipPath>
</defs>
</svg>
