<svg width="60" height="60" viewBox="0 0 60 60" fill="none" xmlns="http://www.w3.org/2000/svg">
<g clip-path="url(#clip0_939_511)">
<mask id="mask0_939_511" style="mask-type:luminance" maskUnits="userSpaceOnUse" x="0" y="4" width="60" height="52">
<path d="M60 4H0V55.5625H60V4Z" fill="white"/>
</mask>
<g mask="url(#mask0_939_511)">
<path d="M57.6492 43.596C54.4472 45.265 37.86 52.0851 34.3286 53.9261C30.7973 55.7671 28.8356 55.7495 26.0458 54.4159C23.2563 53.0823 5.60461 45.9522 2.42484 44.4323C0.835781 43.6729 0 43.0317 0 42.426V36.3614C0 36.3614 22.9805 31.3586 26.6903 30.0276C30.4 28.6965 31.6873 28.6485 34.8443 29.8049C38.0018 30.9618 56.8798 34.3678 60 35.5106L59.9986 41.4895C59.9991 42.089 59.2791 42.7467 57.6492 43.596Z" fill="#912626"/>
<path d="M57.648 37.5671C54.4462 39.2354 37.8594 46.0557 34.3282 47.8965C30.7971 49.7379 28.8353 49.7199 26.0458 48.3863C23.256 47.0537 5.60502 39.9223 2.42549 38.4033C-0.754036 36.8834 -0.820598 35.8374 2.30268 34.6144C5.42596 33.391 22.9802 26.5038 26.6905 25.1729C30.4002 23.8423 31.6872 23.7938 34.8442 24.9507C38.0015 26.1071 54.4893 32.6698 57.6091 33.8124C60.73 34.9563 60.8497 35.8983 57.648 37.5671Z" fill="#C6302B"/>
<path d="M57.6492 33.7829C54.4472 35.4521 37.86 42.2719 34.3286 44.1137C30.7973 45.9542 28.8356 45.9364 26.0458 44.6028C23.2561 43.2699 5.60461 36.139 2.42484 34.6191C0.835781 33.8598 0 33.2194 0 32.6136V26.5482C0 26.5482 22.9805 21.5457 26.6903 20.2147C30.4 18.8837 31.6873 18.8354 34.8443 19.9921C38.002 21.1487 56.88 24.5539 60 25.6969L59.9986 31.6766C59.9991 32.2759 59.2791 32.9335 57.6492 33.7829Z" fill="#912626"/>
<path d="M57.648 27.7541C54.4462 29.4229 37.8594 36.2427 34.3282 38.0842C30.7971 39.9249 28.8353 39.9069 26.0458 38.5734C23.256 37.2407 5.60502 30.1096 2.42549 28.5904C-0.754036 27.0709 -0.820598 26.0246 2.30268 24.8012C5.42596 23.5785 22.9804 16.6909 26.6905 15.3601C30.4002 14.0293 31.6872 13.981 34.8442 15.1377C38.0015 16.2941 54.4893 22.8564 57.6091 23.9994C60.73 25.1432 60.8497 26.0854 57.648 27.7541Z" fill="#C6302B"/>
<path d="M57.6492 23.6061C54.4472 25.2749 37.86 32.0952 34.3286 33.9369C30.7973 35.7777 28.8356 35.7597 26.0458 34.4261C23.2561 33.0931 5.60461 25.962 2.42484 24.4428C0.835781 23.6828 0 23.0422 0 22.437V16.3714C0 16.3714 22.9805 11.3692 26.6903 10.0384C30.4 8.70716 31.6873 8.65935 34.8443 9.81576C38.002 10.9724 56.88 14.3776 60 15.5206L59.9986 21.5C59.9991 22.0989 59.2791 22.7565 57.6492 23.6061Z" fill="#912626"/>
<path d="M57.6479 17.5773C54.4462 19.2461 37.8595 26.0664 34.3281 27.9071C30.797 29.7479 28.8353 29.7298 26.0457 28.397C23.2562 27.0634 5.60498 19.9328 2.42568 18.4133C-0.753614 16.8939 -0.820412 15.8476 2.30264 14.6244C5.42592 13.4014 22.9804 6.51481 26.6905 5.18356C30.4002 3.85254 31.6871 3.80473 34.8442 4.96137C38.0012 6.11801 54.4893 12.6803 57.609 13.8233C60.73 14.9661 60.8498 15.9086 57.6479 17.5773Z" fill="#C6302B"/>
<path d="M37.332 11.6774L32.1734 12.2129L31.0186 14.9917L29.1534 11.8909L23.1968 11.3556L27.6415 9.75271L26.3079 7.29224L30.4692 8.91974L34.3922 7.63536L33.3318 10.1795L37.332 11.6774ZM30.7106 25.1582L21.0832 21.1651L34.8785 19.0475L30.7106 25.1582ZM17.3629 13.2219C21.4353 13.2219 24.7364 14.5016 24.7364 16.0798C24.7364 17.6586 21.4353 18.9381 17.3629 18.9381C13.2907 18.9381 9.9895 17.6584 9.9895 16.0798C9.9895 14.5016 13.2907 13.2219 17.3629 13.2219Z" fill="white"/>
<path d="M43.4285 12.437L51.5932 15.6634L43.4355 18.8867L43.4285 12.437Z" fill="#621B1C"/>
<path d="M34.3958 16.01L43.4286 12.437L43.4356 18.8867L42.5499 19.2331L34.3958 16.01Z" fill="#9A2928"/>
</g>
</g>
<defs>
<clipPath id="clip0_939_511">
<rect width="60" height="51.5625" fill="white" transform="translate(0 4)"/>
</clipPath>
</defs>
</svg>
