<svg width="48" height="48" viewBox="0 0 48 48" fill="none" xmlns="http://www.w3.org/2000/svg">
<g clip-path="url(#clip0_1459_210)">
<g clip-path="url(#clip1_1459_210)">
<path d="M36.75 0H11.25C5.0368 0 0 5.0368 0 11.25V36.75C0 42.9632 5.0368 48 11.25 48H36.75C42.9632 48 48 42.9632 48 36.75V11.25C48 5.0368 42.9632 0 36.75 0Z" fill="#242938"/>
<mask id="mask0_1459_210" style="mask-type:luminance" maskUnits="userSpaceOnUse" x="5" y="5" width="38" height="38">
<path d="M42.75 5.25H5.25V42.75H42.75V5.25Z" fill="white"/>
</mask>
<g mask="url(#mask0_1459_210)">
<path d="M41.2802 32.7127C39.279 33.7565 28.9132 38.0184 26.7064 39.1685C24.4993 40.3189 23.2736 40.308 21.5299 39.4747C19.7861 38.6417 8.75522 34.1861 6.76695 33.2357C5.77282 32.7604 5.25189 32.3608 5.25189 31.983V28.1925C5.25189 28.1925 19.6142 25.0659 21.9334 24.2338C24.2527 23.4017 25.0551 23.3719 27.0294 24.0947C29.0038 24.8173 40.8011 26.9458 42.7506 27.6605V31.3985C42.7506 31.7734 42.3013 32.1937 41.2822 32.7148L41.2802 32.7127Z" fill="#A41E11"/>
<path d="M41.2804 28.9211C39.279 29.9649 28.9133 34.2268 26.7064 35.3769C24.4993 36.5272 23.2736 36.5162 21.5299 35.6831C19.7861 34.8501 8.75525 30.3943 6.76698 29.4441C4.77871 28.4936 4.73895 27.8406 6.69043 27.0759L21.9325 21.1747C24.2509 20.3437 25.0541 20.3128 27.0283 21.0356C29.0027 21.7584 39.306 25.8592 41.2545 26.5849C43.203 27.3107 43.2795 27.8872 41.2783 28.9311L41.2804 28.9211Z" fill="#D82C20"/>
<path d="M41.2802 26.5313C39.279 27.5751 28.9132 31.8369 26.7064 32.9871C24.4993 34.1374 23.2736 34.1263 21.5299 33.2933C19.7861 32.4602 8.75522 28.0044 6.76695 27.0542C5.77282 26.5789 5.25189 26.1793 5.25189 25.8015V22.0108C5.25189 22.0108 19.6142 18.8843 21.9334 18.0523C24.2527 17.2202 25.0551 17.1903 27.0294 17.9131C29.0038 18.6358 40.8011 20.7643 42.7506 21.4791V25.2171C42.7506 25.5917 42.3013 26.0123 41.2822 26.5331L41.2802 26.5313Z" fill="#A41E11"/>
<path d="M41.2804 22.7405C39.279 23.7843 28.9133 28.0462 26.7064 29.1965C24.4993 30.3467 23.2736 30.3358 21.5299 29.5027C19.7861 28.6695 8.75525 24.2139 6.76698 23.2635C4.77871 22.313 4.73895 21.66 6.69043 20.8953L21.9325 14.9952C24.2509 14.1632 25.0541 14.1333 27.0283 14.8561C29.0027 15.5788 39.306 19.6805 41.2564 20.3934C43.207 21.1063 43.2816 21.6958 41.2804 22.7396V22.7405Z" fill="#D82C20"/>
<path d="M41.2802 20.121C39.279 21.1648 28.9132 25.4267 26.7064 26.5779C24.4993 27.7292 23.2736 27.7172 21.5299 26.8841C19.7861 26.051 8.75522 21.5953 6.76695 20.6449C5.77282 20.1697 5.25189 19.7702 5.25189 19.3924V15.5997C5.25189 15.5997 19.6142 12.4732 21.9334 11.6411C24.2527 10.809 25.0551 10.7791 27.0294 11.5019C29.0038 12.2246 40.8011 14.3531 42.7506 15.0678V18.8059C42.7506 19.1807 42.3013 19.601 41.2822 20.1221L41.2802 20.121Z" fill="#A41E11"/>
<path d="M41.2804 16.3294C39.279 17.3732 28.9133 21.6351 26.7064 22.7854C24.4993 23.9355 23.2736 23.9246 21.5299 23.0916C19.7861 22.2585 8.75525 17.8027 6.76698 16.8523C4.77871 15.9019 4.73895 15.2488 6.69043 14.4843L21.9325 8.58412C24.2509 7.75203 25.0541 7.7222 27.0283 8.44494C29.0027 9.16768 39.306 13.2695 41.2564 13.9823C43.207 14.695 43.2816 15.2846 41.2804 16.3284V16.3294Z" fill="#D82C20"/>
<path d="M24.9367 14.7666L23.7617 12.8131L20.0098 12.4751L22.8094 11.4651L21.9692 9.91425L24.5899 10.9382L27.0611 10.129L26.3931 11.7315L28.9123 12.676L25.6635 13.014L24.9367 14.7666ZM18.6777 18.6557L27.3664 17.3215L24.7419 21.1708L18.6777 18.6557Z" fill="white"/>
<path d="M16.3355 17.253C18.9006 17.253 20.9801 16.4469 20.9801 15.4526C20.9801 14.4583 18.9006 13.6522 16.3355 13.6522C13.7704 13.6522 11.6909 14.4583 11.6909 15.4526C11.6909 16.4469 13.7704 17.253 16.3355 17.253Z" fill="white"/>
<path d="M37.8962 15.1901L32.7566 17.2201L32.7527 13.1571L37.8962 15.1901Z" fill="#7A0C00"/>
<path d="M32.7576 17.2201L32.2009 17.4388L27.0652 15.4088L32.7546 13.1581L32.7576 17.2201Z" fill="#AD2115"/>
</g>
</g>
</g>
<defs>
<clipPath id="clip0_1459_210">
<rect width="48" height="48" fill="white"/>
</clipPath>
<clipPath id="clip1_1459_210">
<rect width="48" height="48" fill="white"/>
</clipPath>
</defs>
</svg>
