<svg width="60" height="60" viewBox="0 0 60 60" fill="none" xmlns="http://www.w3.org/2000/svg">
<g clip-path="url(#clip0_939_511)">
<mask id="mask0_939_511" style="mask-type:luminance" maskUnits="userSpaceOnUse" x="2" y="9" width="55" height="47">
<path d="M57 9H2V56H57V9Z" fill="white"/>
</mask>
<g mask="url(#mask0_939_511)">
<path d="M54.8451 45.0924C51.9099 46.6136 36.705 52.8303 33.4679 54.5083C30.2309 56.1865 28.4327 56.1704 25.8753 54.9548C23.3183 53.7392 7.13756 47.24 4.22277 45.8546C2.76613 45.1624 2 44.5779 2 44.0259V38.4978C2 38.4978 23.0654 33.9377 26.4661 32.7245C29.8667 31.5112 31.0467 31.4675 33.9406 32.5216C36.835 33.5761 54.1398 36.6806 57 37.7223L56.9987 43.1722C56.9991 43.7187 56.3391 44.3181 54.8451 45.0924Z" fill="#912626"/>
<path d="M54.844 39.597C51.909 41.1177 36.7045 47.3345 33.4675 49.0124C30.2306 50.6909 28.4324 50.6745 25.8753 49.4589C23.318 48.2442 7.13794 41.7438 4.22337 40.3593C1.3088 38.9738 1.24778 38.0204 4.11079 36.9056C6.9738 35.7904 23.0652 29.5127 26.4663 28.2995C29.8669 27.0866 31.0466 27.0425 33.9406 28.097C36.8347 29.1511 51.9485 35.133 54.8083 36.1746C57.6692 37.2173 57.7789 38.0759 54.844 39.597Z" fill="#C6302B"/>
<path d="M54.8451 36.1476C51.9099 37.6691 36.705 43.8855 33.4679 45.5643C30.2309 47.2419 28.4327 47.2257 25.8753 46.0101C23.3181 44.7952 7.13756 38.2953 4.22277 36.9099C2.76613 36.2177 2 35.634 2 35.0818V29.5531C2 29.5531 23.0654 24.9932 26.4661 23.78C29.8667 22.5668 31.0467 22.5227 33.9406 23.5771C36.8352 24.6313 54.14 27.7352 57 28.7772L56.9987 34.2277C56.9991 34.7739 56.3391 35.3734 54.8451 36.1476Z" fill="#912626"/>
<path d="M54.844 30.6522C51.909 32.1733 36.7045 38.3897 33.4675 40.0682C30.2306 41.7461 28.4324 41.7297 25.8753 40.5141C23.318 39.2994 7.13794 32.7993 4.22337 31.4145C1.3088 30.0294 1.24778 29.0758 4.11079 27.9606C6.9738 26.8461 23.0653 20.5679 26.4663 19.3549C29.8669 18.1419 31.0466 18.0978 33.9406 19.1522C36.8347 20.2063 51.9485 26.1878 54.8083 27.2298C57.6692 28.2723 57.7789 29.1311 54.844 30.6522Z" fill="#C6302B"/>
<path d="M54.8451 26.8713C51.9099 28.3924 36.705 34.6092 33.4679 36.2879C30.2309 37.9658 28.4327 37.9494 25.8753 36.7338C23.3181 35.5188 7.13756 29.0187 4.22277 27.634C2.76613 26.9412 2 26.3573 2 25.8057V20.2767C2 20.2767 23.0654 15.7171 26.4661 14.5041C29.8667 13.2907 31.0467 13.2471 33.9406 14.3012C36.8352 15.3555 54.14 18.4594 57 19.5012L56.9987 24.9515C56.9991 25.4974 56.3391 26.0969 54.8451 26.8713Z" fill="#912626"/>
<path d="M54.8439 21.3759C51.909 22.897 36.7045 29.1139 33.4674 30.7918C30.2306 32.4697 28.4323 32.4532 25.8753 31.2383C23.3182 30.0227 7.13792 23.523 4.22356 22.1379C1.30921 20.753 1.24798 19.7993 4.11077 18.6843C6.97378 17.5695 23.0654 11.2923 26.4664 10.0789C29.8669 8.86561 31.0466 8.82203 33.9405 9.87633C36.8345 10.9306 51.9485 16.9122 54.8083 17.9541C57.6691 18.9958 57.779 19.8549 54.8439 21.3759Z" fill="#C6302B"/>
<path d="M36.2209 15.9981L31.4922 16.4863L30.4336 19.0191L28.7239 16.1927L23.2637 15.7048L27.338 14.2437L26.1155 12.001L29.93 13.4845L33.5261 12.3137L32.5541 14.6328L36.2209 15.9981ZM30.1513 28.2861L21.3262 24.6463L33.9719 22.7161L30.1513 28.2861ZM17.916 17.406C21.6489 17.406 24.6749 18.5724 24.6749 20.011C24.6749 21.4501 21.6489 22.6164 17.916 22.6164C14.1831 22.6164 11.157 21.4499 11.157 20.011C11.157 18.5724 14.1831 17.406 17.916 17.406Z" fill="white"/>
<path d="M41.8093 16.6904L49.2936 19.6313L41.8158 22.5694L41.8093 16.6904Z" fill="#621B1C"/>
<path d="M33.5293 19.9473L41.8094 16.6904L41.8158 22.5694L41.004 22.8852L33.5293 19.9473Z" fill="#9A2928"/>
</g>
</g>
<defs>
<clipPath id="clip0_939_511">
<rect width="55" height="47" fill="white" transform="translate(2 9)"/>
</clipPath>
</defs>
</svg>
