<svg width="60" height="60" viewBox="0 0 60 60" fill="none" xmlns="http://www.w3.org/2000/svg">
<path d="M41.5721 39.783C37.3534 48.408 29.9659 54.2111 20.1925 56.1188C18.6939 56.4859 17.1556 56.6655 15.6128 56.6531C9.98779 56.6531 4.83154 54.3094 2.3284 50.4705C-1.03254 45.3563 -2.17629 34.5141 8.90497 26.4938C9.12997 27.7172 9.58935 29.3953 9.89404 30.3891C7.7187 32.0052 5.93812 34.0935 4.68622 36.4969C2.62371 40.5469 2.8534 44.5924 5.2956 48.333C6.9831 50.8549 9.65497 52.3875 13.0909 52.8563C17.3825 53.3996 21.7362 52.5795 25.5362 50.5125C31.494 47.3813 35.4644 43.6406 38.0614 38.5267C37.3269 37.7677 36.8923 36.7686 36.8378 35.7141C36.7985 34.5824 37.2098 33.4815 37.9815 32.6528C38.7529 31.824 39.822 31.3353 40.9534 31.2938H41.1127C42.2134 31.2882 43.2739 31.706 44.0752 32.4607C44.8762 33.2154 45.3566 34.2491 45.417 35.3481C45.477 36.4471 45.1125 37.527 44.3985 38.3648C43.6849 39.2025 42.6761 39.7335 41.5815 39.8486L41.5721 39.783ZM55.0114 30.3141C60.7346 36.8016 60.8895 44.4375 58.677 48.867C56.6145 52.9125 51.177 56.9625 43.8645 56.9625C40.4509 56.8927 37.0927 56.085 34.0206 54.5955C35.094 53.8312 36.6175 52.6076 37.4565 51.8437C39.8254 52.8705 42.375 53.4154 44.9565 53.4469C49.6909 53.4469 53.277 51.2344 55.4145 47.1893C56.7877 44.5174 56.8676 41.3861 55.569 38.1799C53.976 34.1454 51.141 30.7225 47.4739 28.4062C42.6626 25.1632 36.9913 23.4343 31.1893 23.4422H29.8159C29.4956 24.182 28.9746 24.8173 28.3119 25.2763C27.6491 25.7353 26.8711 25.9995 26.0659 26.0391H25.9206C24.8069 26.0254 23.7425 25.5781 22.9533 24.7921C22.1641 24.0063 21.7124 22.9437 21.6941 21.83C21.6758 20.7164 22.0923 19.6395 22.8552 18.8281C23.6181 18.0167 24.6674 17.5347 25.78 17.4844H25.9347C26.71 17.4849 27.4702 17.6992 28.1317 18.1036C28.7933 18.5079 29.3306 19.0868 29.6847 19.7766H30.9081C40.6582 19.7766 49.2176 23.5172 55.0114 30.3141ZM16.2222 41.0955C16.1415 40.317 16.3301 39.5344 16.7565 38.8781C12.4815 31.4719 10.194 22.0828 13.705 12.3094C16.2222 4.96406 22.5597 0 29.4315 0C36.7628 0 44.3989 6.41719 45.3127 18.7828C44.169 18.4031 42.5002 17.8453 41.4971 17.6391C41.2489 13.5938 37.8315 3.51563 29.7362 3.66563C26.8347 3.74531 22.5597 5.11875 20.3612 7.94063C17.6421 11.3093 16.0602 15.4529 15.8425 19.7766C15.3268 25.7052 16.7178 31.6436 19.8128 36.7266C19.9836 36.6641 20.1657 36.6386 20.3472 36.6516H20.4972C21.6309 36.6311 22.7265 37.0618 23.5427 37.8491C24.3589 38.6362 24.829 39.7155 24.8495 40.8491C24.87 41.9831 24.4393 43.0785 23.6521 43.8949C22.8648 44.7109 21.7856 45.1811 20.6519 45.2017H20.4972C19.391 45.1976 18.3291 44.7671 17.5327 43.9995C16.7363 43.2319 16.2668 42.1864 16.2222 41.0812V41.0955Z" fill="#764ABC"/>
</svg>
