<svg width="60" height="60" viewBox="0 0 60 60" fill="none" xmlns="http://www.w3.org/2000/svg">
<path d="M29.5704 35.7924C28.5397 36.2659 27.4104 36.8831 25.1497 38.1238C24.2925 38.6059 23.3968 39.0881 22.5632 39.5424C22.5054 39.4845 22.4454 39.4116 22.3875 39.3516C17.9154 34.5731 9.64394 31.1981 9.99537 24.7802C10.1261 22.4424 10.9297 16.3052 25.8804 8.85236C38.1847 2.78807 47.9753 4.46807 49.666 8.1945C52.096 13.5066 44.4182 23.3916 31.7111 24.8252C30.3047 25.1103 28.8523 25.0758 27.461 24.7242C26.0698 24.3726 24.7753 23.7129 23.6732 22.7938C23.0004 22.0631 22.8997 22.0202 22.6511 22.1659C22.2418 22.3802 22.5054 23.0424 22.6511 23.4216C23.1358 24.2992 23.7916 25.0707 24.5796 25.6905C25.3676 26.3104 26.2719 26.7659 27.2389 27.0302C32.2396 28.1111 37.4533 27.5946 42.1447 25.5538C49.846 22.5731 55.8589 14.2866 54.0974 7.3395C52.3296 0.295926 40.6382 -2.02693 29.5768 1.90307C22.6495 4.23748 16.2494 7.91228 10.7411 12.7181C4.64681 18.4181 3.68253 23.3724 4.07682 25.4466C5.49539 32.8116 15.6482 37.6052 19.7197 41.1559C19.5082 41.2702 19.3232 41.3724 19.1647 41.4624C17.1332 42.4716 9.38894 46.5193 7.45825 50.8007C5.2661 55.6521 7.80967 59.13 9.48966 59.5971C12.0214 60.2044 14.6796 60.0056 17.0927 59.028C19.5058 58.0504 21.5533 56.3439 22.9489 54.1457C24.1345 52.3239 24.8626 50.2423 25.0711 48.0784C25.2797 45.9146 24.9626 43.7323 24.1468 41.7174C24.6279 41.3332 25.1413 40.9912 25.6811 40.6952C26.7182 40.0824 27.7061 39.4781 28.5825 39.0109C31.5839 37.607 34.8583 36.8834 38.1718 36.8916C45.1275 37.7102 46.5011 42.0495 46.2375 43.8771C46.1138 44.5256 45.8529 45.1401 45.4722 45.6793C45.0915 46.2184 44.5999 46.6701 44.0304 47.0036C43.5482 47.31 43.3875 47.4129 43.4304 47.6314C43.4882 47.9529 43.7218 47.9379 44.1311 47.88C45.1762 47.55 46.0969 46.9114 46.7722 46.0479C47.4477 45.1847 47.8463 44.1377 47.9153 43.0436C48.1296 38.7581 44.0432 34.0566 36.8089 34.0995C34.643 34.1058 32.499 34.533 30.4961 35.3574C30.1747 35.4902 29.8625 35.6331 29.5597 35.7859L29.5704 35.7924ZM19.2311 52.59C16.9211 55.1036 13.7068 56.0533 12.3182 55.2497C10.8182 54.3926 11.4118 50.6743 14.2468 48.015C15.9245 46.5009 17.7394 45.1457 19.6682 43.9671C20.0047 43.7529 20.5018 43.47 21.0997 43.11L21.2604 43.0221L21.6118 42.8081C22.117 44.5033 22.1628 46.3024 21.7444 48.021C21.3262 49.74 20.4588 51.3167 19.2311 52.59Z" fill="#CD6799"/>
</svg>
