<svg width="48" height="48" viewBox="0 0 48 48" fill="none" xmlns="http://www.w3.org/2000/svg">
<g clip-path="url(#clip0_1459_176)">
<g clip-path="url(#clip1_1459_176)">
<path d="M36.75 0H11.25C5.0368 0 0 5.0368 0 11.25V36.75C0 42.9632 5.0368 48 11.25 48H36.75C42.9632 48 48 42.9632 48 36.75V11.25C48 5.0368 42.9632 0 36.75 0Z" fill="#CD6799"/>
<mask id="mask0_1459_176" style="mask-type:luminance" maskUnits="userSpaceOnUse" x="5" y="9" width="38" height="30">
<path d="M42.75 9.9375H5.25V38.0454H42.75V9.9375Z" fill="white"/>
</mask>
<g mask="url(#mask0_1459_176)">
<path d="M37.5201 26.093C36.2124 26.0998 35.0762 26.4148 34.1246 26.8802C33.7755 26.1889 33.4264 25.5727 33.3647 25.1209C33.2963 24.5938 33.2141 24.272 33.2963 23.6422C33.3784 23.0124 33.7481 22.1158 33.7412 22.0474C33.7344 21.9787 33.6591 21.6572 32.9061 21.6502C32.1531 21.6435 31.5028 21.794 31.4274 21.9926C31.3521 22.191 31.2084 22.6429 31.1126 23.1084C30.9825 23.793 29.6064 26.2369 28.8193 27.5169C28.566 27.0172 28.347 26.579 28.299 26.2299C28.2306 25.7029 28.1484 25.3811 28.2306 24.7513C28.3127 24.1215 28.6824 23.2247 28.6755 23.1562C28.6688 23.0878 28.5934 22.766 27.8404 22.7593C27.0874 22.7524 26.4369 22.9029 26.3617 23.1015C26.2864 23.3 26.2042 23.7656 26.0467 24.2173C25.8894 24.6692 24.0617 28.7492 23.5824 29.8033C23.3361 30.344 23.1238 30.7753 22.9733 31.0697C22.9733 31.0697 22.9663 31.0903 22.9459 31.1244C22.8157 31.3777 22.7404 31.5146 22.7404 31.5146C22.7404 31.5146 22.7404 31.5146 22.7404 31.5215C22.6378 31.7064 22.5281 31.8774 22.4734 31.8774C22.4323 31.8774 22.3571 31.3847 22.4871 30.7138C22.761 29.2967 23.4112 27.0924 23.4045 27.0172C23.4045 26.9762 23.5277 26.5927 22.98 26.3942C22.446 26.1956 22.2544 26.5243 22.2064 26.5243C22.1586 26.5243 22.1243 26.6407 22.1243 26.6407C22.1243 26.6407 22.7199 24.1625 20.988 24.1625C19.9063 24.1625 18.414 25.3468 17.6747 26.4148C17.2092 26.6681 16.2166 27.2089 15.1555 27.7907C14.7517 28.0166 14.3341 28.2425 13.9439 28.4548C13.9165 28.4274 13.8891 28.3931 13.8617 28.3657C11.767 26.1272 7.8924 24.546 8.05669 21.5407C8.1183 20.4454 8.4948 17.5703 15.4978 14.079C21.2618 11.2381 25.8484 12.0254 26.6424 13.771C27.7787 16.2628 24.1849 20.8903 18.2292 21.5612C15.9565 21.8145 14.7653 20.9383 14.4641 20.6098C14.1492 20.2674 14.1013 20.247 13.985 20.3154C13.7933 20.418 13.9165 20.726 13.985 20.904C14.1629 21.3695 14.8954 22.191 16.1345 22.5949C17.2298 22.9509 19.8926 23.1495 23.1169 21.9035C26.7246 20.507 29.5449 16.6256 28.7166 13.3739C27.8884 10.0744 22.4119 8.98594 17.2298 10.8274C14.1492 11.9227 10.8086 13.6478 8.40581 15.8931C5.55122 18.5629 5.0994 20.8835 5.28424 21.8555C5.94825 25.3057 10.7059 27.551 12.609 29.2145C12.5132 29.2693 12.4242 29.3173 12.3489 29.3584C11.3973 29.8307 7.76918 31.7269 6.86556 33.7327C5.83873 36.0054 7.02986 37.6346 7.8171 37.8536C10.261 38.5314 12.7733 37.3129 14.1219 35.3002C15.4704 33.2876 15.3062 30.6727 14.6832 29.4748C14.6764 29.4611 14.6695 29.4474 14.6558 29.4337C14.9023 29.2899 15.1555 29.1394 15.402 28.9955C15.888 28.7081 16.3672 28.4411 16.7779 28.2219C16.5452 28.8587 16.3741 29.6184 16.2919 30.7138C16.1892 32.0008 16.7163 33.671 17.4077 34.3282C17.7158 34.6157 18.0786 34.6226 18.3113 34.6226C19.1192 34.6226 19.482 33.9517 19.8859 33.1577C20.3786 32.1855 20.8237 31.056 20.8237 31.056C20.8237 31.056 20.2691 34.1092 21.7751 34.1092C22.3228 34.1092 22.8773 33.3973 23.1238 33.0345C23.1238 33.0412 23.1238 33.0412 23.1238 33.0412C23.1238 33.0412 23.1375 33.0208 23.1649 32.9728C23.2196 32.8837 23.2537 32.829 23.2537 32.829C23.2537 32.829 23.2537 32.8222 23.2537 32.8153C23.4729 32.432 23.9657 31.5626 24.6982 30.1181C25.6429 28.2562 26.5534 25.9288 26.5534 25.9288C26.5534 25.9288 26.6355 26.4969 26.9162 27.4415C27.0804 27.9962 27.4228 28.6054 27.6966 29.1941C27.4776 29.5022 27.3407 29.6732 27.3407 29.6732C27.3407 29.6732 27.3407 29.6732 27.3474 29.6801C27.1695 29.9128 26.9779 30.1661 26.7656 30.4125C26.0194 31.3025 25.1295 32.3225 25.0063 32.6169C24.8625 32.966 24.8968 33.2192 25.1706 33.4247C25.3691 33.5752 25.725 33.5957 26.0878 33.5752C26.7587 33.5272 27.2312 33.363 27.4639 33.2602C27.8267 33.1303 28.2512 32.9317 28.6481 32.6374C29.3807 32.0966 29.8256 31.323 29.7846 30.303C29.7639 29.7416 29.5791 29.1804 29.3533 28.6532C29.4217 28.5574 29.4832 28.4615 29.5517 28.3657C30.7087 26.6749 31.6054 24.8197 31.6054 24.8197C31.6054 24.8197 31.6875 25.3879 31.9682 26.3327C32.1051 26.8117 32.3858 27.332 32.6323 27.8387C31.5439 28.7218 30.873 29.7485 30.6334 30.4194C30.2021 31.6654 30.5376 32.2265 31.1741 32.3567C31.4617 32.4184 31.8724 32.2815 32.1737 32.1514C32.5569 32.0282 33.0088 31.8159 33.4401 31.5009C34.1724 30.9602 34.8776 30.2072 34.8366 29.1872C34.8159 28.7218 34.6928 28.263 34.5216 27.818C35.4458 27.4348 36.6369 27.2225 38.1566 27.4005C41.4152 27.7839 42.0587 29.817 41.9353 30.6727C41.8121 31.5283 41.1276 31.9939 40.9016 32.1377C40.6759 32.2815 40.6005 32.3293 40.6211 32.432C40.6485 32.5826 40.758 32.5757 40.9496 32.5483C41.2166 32.5005 42.6609 31.857 42.7226 30.2825C42.8254 28.2699 40.9086 26.0724 37.5201 26.093ZM12.3831 34.5679C11.3015 35.7452 9.79547 36.1903 9.14515 35.8138C8.4469 35.4097 8.72072 33.671 10.0487 32.4251C10.8565 31.6654 11.897 30.9602 12.5885 30.5289C12.7459 30.4331 12.9787 30.2962 13.2593 30.125C13.3072 30.0977 13.3346 30.084 13.3346 30.084C13.3894 30.0497 13.4441 30.0155 13.4989 29.9812C13.985 31.7612 13.5194 33.3289 12.3831 34.5679ZM20.2554 29.2145C19.8789 30.132 19.0918 32.4799 18.6125 32.3499C18.2018 32.2402 17.9485 30.4605 18.5304 28.7012C18.8248 27.818 19.4477 26.7639 19.8105 26.3531C20.3992 25.6959 21.0495 25.4769 21.207 25.7439C21.4056 26.093 20.4883 28.6395 20.2554 29.2145ZM26.7519 32.3225C26.5944 32.4047 26.4439 32.4594 26.3754 32.4184C26.3274 32.391 26.4439 32.2815 26.4439 32.2815C26.4439 32.2815 27.2586 31.4051 27.5803 31.0082C27.765 30.7753 27.9842 30.5015 28.2169 30.1935C28.2169 30.2209 28.2169 30.2552 28.2169 30.2825C28.2169 31.3299 27.2038 32.0349 26.7519 32.3225ZM31.7629 31.1792C31.6464 31.097 31.6671 30.8233 32.0573 29.9675C32.2078 29.6321 32.5639 29.0709 33.1731 28.53C33.2415 28.7492 33.2895 28.9612 33.2826 29.1598C33.2758 30.4811 32.331 30.9739 31.7629 31.1792Z" fill="white"/>
</g>
</g>
</g>
<defs>
<clipPath id="clip0_1459_176">
<rect width="48" height="48" fill="white"/>
</clipPath>
<clipPath id="clip1_1459_176">
<rect width="48" height="48" fill="white"/>
</clipPath>
</defs>
</svg>
