<svg width="55" height="56" viewBox="0 0 55 56" fill="none" xmlns="http://www.w3.org/2000/svg">
<g clip-path="url(#clip0_939_509)">
<path d="M27.1063 33.3097C26.1614 33.7438 25.1263 34.3095 23.0539 35.4468C22.2682 35.8888 21.4471 36.3307 20.683 36.7472C20.63 36.6941 20.575 36.6273 20.522 36.5723C16.4225 32.192 8.84036 29.0982 9.16251 23.2152C9.28233 21.0722 10.0189 15.4464 23.7238 8.61466C35.0027 3.05573 43.9774 4.59573 45.5272 8.01162C47.7547 12.8811 40.7168 21.9423 29.0686 23.2564C27.7794 23.5178 26.448 23.4861 25.1726 23.1638C23.8974 22.8415 22.7108 22.2368 21.7005 21.3943C21.0838 20.7245 20.9914 20.6852 20.7636 20.8188C20.3884 21.0152 20.63 21.6222 20.7636 21.9698C21.2079 22.7743 21.809 23.4815 22.5314 24.0497C23.2537 24.6179 24.0826 25.0354 24.9691 25.2777C29.553 26.2685 34.3323 25.7951 38.6327 23.9243C45.6922 21.192 51.204 13.5961 49.5894 7.22787C47.9689 0.771265 37.2518 -1.35802 27.1121 2.24448C20.7622 4.38436 14.8954 7.75293 9.84608 12.1582C4.25966 17.3832 3.37573 21.9247 3.73716 23.8261C5.03752 30.5773 14.3443 34.9714 18.0764 38.2263C17.8826 38.331 17.713 38.4247 17.5677 38.5072C15.7055 39.4323 8.60661 43.1427 6.83681 47.0673C4.82734 51.5145 7.15895 54.7025 8.69893 55.1307C11.0197 55.6874 13.4564 55.5051 15.6684 54.609C17.8804 53.7129 19.7573 52.1485 21.0366 50.1336C22.1234 48.4635 22.7908 46.5554 22.9819 44.5719C23.1731 42.5884 22.8825 40.5879 22.1346 38.7409C22.5757 38.3888 23.0462 38.0753 23.5411 37.8039C24.4918 37.2422 25.3973 36.6882 26.2007 36.26C28.952 34.9731 31.9536 34.3098 34.9909 34.3173C41.367 35.0677 42.6261 39.0454 42.3845 40.7207C42.2711 41.3151 42.0319 41.8785 41.6829 42.3727C41.334 42.8669 40.8834 43.281 40.3613 43.5866C39.9193 43.8675 39.772 43.9618 39.8113 44.1621C39.8643 44.4568 40.0784 44.443 40.4536 44.39C41.4116 44.0875 42.2555 43.5021 42.8746 42.7105C43.4938 41.9193 43.8592 40.9596 43.9224 39.9566C44.1189 36.0282 40.373 31.7186 33.7416 31.7579C31.7562 31.7636 29.7908 32.1552 27.9548 32.9109C27.6602 33.0327 27.3741 33.1636 27.0964 33.3038L27.1063 33.3097ZM17.6286 48.7075C15.5111 51.0116 12.5646 51.8822 11.2918 51.1456C9.91679 50.3599 10.4609 46.9514 13.0596 44.5137C14.5975 43.1258 16.2612 41.8836 18.0293 40.8032C18.3377 40.6068 18.7934 40.3475 19.3414 40.0175L19.4888 39.937L19.8109 39.7407C20.274 41.2947 20.316 42.9439 19.9325 44.5192C19.5491 46.095 18.754 47.5403 17.6286 48.7075Z" fill="#CD6799"/>
</g>
<defs>
<clipPath id="clip0_939_509">
<rect width="47.1429" height="55" fill="white" transform="translate(3.66675 0.5)"/>
</clipPath>
</defs>
</svg>
