<svg width="56" height="58" viewBox="0 0 56 58" fill="none" xmlns="http://www.w3.org/2000/svg">
<g clip-path="url(#clip0_939_508)">
<path fill-rule="evenodd" clip-rule="evenodd" d="M27.9993 8.46525L45.9916 18.6567L53.1994 14.5132L28.0648 0.0655245L2.80469 14.5132L10.0126 18.6567L27.9983 8.46525" fill="#52B0E7"/>
<path fill-rule="evenodd" clip-rule="evenodd" d="M2.93155 14.5907L10.2047 18.7712V39.4567L28.0001 49.689V57.8959L2.80078 43.4859L2.93228 14.5902" fill="#3C76C3"/>
<path fill-rule="evenodd" clip-rule="evenodd" d="M21.0281 24.9871L28.0336 29.014V37.2198L24.4007 35.1296L21.0294 33.1917L21.0281 24.9871" fill="#2E9D4D"/>
<path fill-rule="evenodd" clip-rule="evenodd" d="M35.1693 24.911L28.0342 29.012V37.2183L35.0384 33.1893L35.1693 24.911Z" fill="#256F44"/>
<path fill-rule="evenodd" clip-rule="evenodd" d="M53.0693 14.5907L45.7961 18.7711V39.2283L37.0953 44.4572L28.0007 49.6886V57.8954L28.0662 57.9331L53.093 43.5479L53.0699 14.5897" fill="#2E3B69"/>
<path fill-rule="evenodd" clip-rule="evenodd" d="M28.0326 29.0122L21.0271 24.9854V24.9362L28.0326 20.9088L28.1191 20.859L31.665 22.8977L35.1678 24.9108L28.0326 29.0122Z" fill="#9FD62B"/>
<path fill-rule="evenodd" clip-rule="evenodd" d="M12.1194 29.9141L19.1249 33.9411V42.147L15.492 40.0566L12.1208 38.1186L12.1195 29.9141" fill="#3C76C3"/>
<path fill-rule="evenodd" clip-rule="evenodd" d="M26.131 29.9141L19.1255 33.9411V42.147L26.1303 38.1182L26.131 29.9141Z" fill="#2E3B69"/>
<path fill-rule="evenodd" clip-rule="evenodd" d="M19.1251 33.941L12.1201 29.9146L15.666 27.8269L19.1253 25.8376L26.1312 29.9146L19.1253 33.941" fill="#52B0E7"/>
<path fill-rule="evenodd" clip-rule="evenodd" d="M30.1482 30.1249L37.1537 34.1519V42.3578L33.5208 40.2674L30.1496 38.3296L30.1482 30.1249" fill="#3C76C3"/>
<path fill-rule="evenodd" clip-rule="evenodd" d="M44.1606 30.1249L37.155 34.1519V42.3578L44.1596 38.3292L44.1606 30.1249Z" fill="#2E3B69"/>
<path fill-rule="evenodd" clip-rule="evenodd" d="M37.1533 34.1519L30.1482 30.1252V30.076L33.6941 28.0376L37.1533 26.0484L44.1593 30.1252L37.1533 34.1519Z" fill="#52B0E7"/>
<path fill-rule="evenodd" clip-rule="evenodd" d="M21.3111 35.2996L28.3164 39.3267V47.5323L24.6837 45.4421L21.3123 43.5041L21.311 35.2996" fill="#3C76C3"/>
<path fill-rule="evenodd" clip-rule="evenodd" d="M35.3222 35.2996L28.3167 39.3267V47.5323L35.3214 43.5038L35.3222 35.2996Z" fill="#2E3B69"/>
<path fill-rule="evenodd" clip-rule="evenodd" d="M28.317 39.3256L21.312 35.2989V35.2497L24.8577 33.2113L28.317 31.222L35.3229 35.2989L28.317 39.3256Z" fill="#52B0E7"/>
<path fill-rule="evenodd" clip-rule="evenodd" d="M21.0281 14.0149L28.0336 18.0419V26.2478L24.4007 24.1574L21.0294 22.2196L21.0281 14.0149" fill="#3C76C3"/>
<path fill-rule="evenodd" clip-rule="evenodd" d="M35.1693 13.9406L28.0342 18.0416V26.2479L35.0384 22.2188L35.1693 13.9406Z" fill="#2E3B69"/>
<path fill-rule="evenodd" clip-rule="evenodd" d="M28.0326 18.0419L21.0271 14.0149V13.9657L28.0326 9.93826L28.1191 9.88868L31.665 11.9272L35.1678 13.9405L28.0326 18.0419Z" fill="#52B0E7"/>
<path fill-rule="evenodd" clip-rule="evenodd" d="M12.1194 18.9437L19.1249 22.9705V31.1764L15.492 29.0862L12.1208 27.1482L12.1195 18.9437" fill="#3C76C3"/>
<path fill-rule="evenodd" clip-rule="evenodd" d="M26.131 18.9437L19.1255 22.9705V31.1764L26.1303 27.1478L26.131 18.9437Z" fill="#2E3B69"/>
<path fill-rule="evenodd" clip-rule="evenodd" d="M19.1251 22.9707L12.1201 18.9443L15.666 16.8566L19.1253 14.8671L26.1312 18.9443L19.1253 22.9707" fill="#52B0E7"/>
<path fill-rule="evenodd" clip-rule="evenodd" d="M30.1482 19.1545L37.1537 23.1816V31.3875L33.5208 29.297L30.1496 27.3591L30.1482 19.1545Z" fill="#3C76C3"/>
<path fill-rule="evenodd" clip-rule="evenodd" d="M44.1606 19.1545L37.155 23.1816V31.3875L44.1596 27.3587L44.1606 19.1545Z" fill="#2E3B69"/>
<path fill-rule="evenodd" clip-rule="evenodd" d="M37.1533 23.1815L30.1482 19.1549V19.1057L33.6941 17.0672L37.1533 15.0779L44.1593 19.1549L37.1533 23.1815Z" fill="#52B0E7"/>
<path fill-rule="evenodd" clip-rule="evenodd" d="M21.3111 24.3293L28.3164 28.3561V36.562L24.6837 34.4718L21.3123 32.5338L21.311 24.3293" fill="#3C76C3"/>
<path fill-rule="evenodd" clip-rule="evenodd" d="M35.3222 24.3293L28.3167 28.3561V36.562L35.3214 32.5332L35.3222 24.3293Z" fill="#2E3B69"/>
<path fill-rule="evenodd" clip-rule="evenodd" d="M28.317 28.3544L21.312 24.3279V24.2788L24.8577 22.2401L28.317 20.2508L35.3229 24.3279L28.317 28.3544Z" fill="#52B0E7"/>
</g>
<defs>
<clipPath id="clip0_939_508">
<rect width="50.4" height="57.8667" fill="white" transform="translate(2.80005 0.0666504)"/>
</clipPath>
</defs>
</svg>
