<svg width="48" height="48" viewBox="0 0 48 48" fill="none" xmlns="http://www.w3.org/2000/svg">
<g clip-path="url(#clip0_1459_139)">
<g clip-path="url(#clip1_1459_139)">
<path d="M36.75 0H11.25C5.0368 0 0 5.0368 0 11.25V36.75C0 42.9632 5.0368 48 11.25 48H36.75C42.9632 48 48 42.9632 48 36.75V11.25C48 5.0368 42.9632 0 36.75 0Z" fill="#242938"/>
<path d="M35.9923 17.246V30.7472L24.0174 37.4689L23.9074 37.5649V42.654L24.0174 42.75L40.8774 33.4262V14.625H40.7166L35.9629 17.1705V17.2757" fill="#2F406A"/>
<path d="M11.928 30.8261L24.0261 37.5088V42.75L6.9375 33.375V14.625H7.10953L11.8782 17.2694L11.9286 17.4234V30.8848" fill="#2379BD"/>
<path d="M11.9596 17.3544L6.9375 14.5944L23.9533 5.25L40.8774 14.5558L35.9856 17.1723L23.9319 10.6265L11.9394 17.3352" fill="#03AFEF"/>
<path d="M23.802 29.2215L23.6702 29.0981V24.0887L23.802 24.0219V23.8987L28.3931 21.3892H28.5356V26.5603L23.7716 29.2031" fill="#2F406A"/>
<path d="M18.9636 26.8286V21.3892H19.0961L23.7887 23.969V29.3402L18.9232 26.828" fill="#2379BD"/>
<path d="M23.7487 18.6891L19.0419 21.4185L23.8288 24.1187L28.5356 21.4288L23.748 18.6598" fill="#03AFEF"/>
<path d="M17.9807 32.663L17.8552 32.538V27.4488L17.9807 27.3813V27.2563L22.348 24.7121H22.4833V29.955L17.9518 32.6342" fill="#2F406A"/>
<path d="M13.1084 30.1507V24.7121H13.2419L17.9739 27.2919V32.663L13.109 30.1507" fill="#2379BD"/>
<path d="M17.8252 21.9922L13.1084 24.7121L17.8956 27.4415L22.602 24.7515L17.8149 21.9827" fill="#03AFEF"/>
<path d="M29.9728 32.7818L29.841 32.6586V27.6454L29.9728 27.579V27.4557L34.5641 24.9493H34.7064V30.114L29.9424 32.7533" fill="#2F406A"/>
<path d="M25.2334 30.2683V24.8308H25.3862L30.0784 27.4106V32.7817L25.2127 30.2683" fill="#2379BD"/>
<path d="M29.9792 22.1014L25.3314 24.7714L30.0589 27.4416L34.7064 24.81L29.9792 22.1014Z" fill="#03AFEF"/>
<path d="M24.1579 36.1044L24.0261 35.9794V30.8899L24.1579 30.8224V30.6973L28.7492 28.1535H28.8917V33.3954L24.1275 36.0744" fill="#2F406A"/>
<path d="M19.2793 33.5828V28.1535H19.4128L24.1447 30.7333V36.1044L19.2799 33.5822" fill="#2379BD"/>
<path d="M24.0502 25.4254L19.2793 28.1138L24.1312 30.7643L28.8917 28.1138L24.0497 25.4241" fill="#03AFEF"/>
<path d="M23.802 22.1014L23.6702 21.9759V16.8939L23.802 16.8262V16.7009L28.3931 14.1504H28.5356V19.4061L23.802 22.1014Z" fill="#2F406A"/>
<path d="M18.9636 19.6024V14.1504H19.0961L23.7887 16.7365V22.1014L18.9232 19.5829" fill="#2379BD"/>
<path d="M23.7484 11.5396L19.0419 14.2096L23.8292 16.8797L28.5356 14.2483L23.7484 11.5396Z" fill="#03AFEF"/>
<path d="M17.9807 25.424L17.8552 25.2977V20.1189L17.9807 20.0507V19.9243L22.348 17.3544H22.4833V22.6502L17.9518 25.3563" fill="#2F406A"/>
<path d="M13.1084 22.9123V17.4731H13.2419L17.9739 20.0529V25.424L13.109 22.9117" fill="#2379BD"/>
<path d="M17.8252 14.7437L13.1084 17.3994L17.8956 20.0839L22.602 17.4573L17.8149 14.7536" fill="#03AFEF"/>
<path d="M29.9728 25.6615L29.841 25.5343V20.3726L29.9728 20.3038V20.1767L34.5641 17.5918H34.7064V22.9189L29.9424 25.641" fill="#2F406A"/>
<path d="M25.3314 23.1379V17.5918H25.4782L29.9597 20.2037V25.6615L25.3314 23.1379Z" fill="#2379BD"/>
<path d="M29.9792 14.8635L25.3314 17.5325L30.0589 20.2025L34.7064 17.5712L29.9792 14.8624" fill="#03AFEF"/>
<path d="M24.1579 28.8649L24.0261 28.7376V23.5838L24.1579 23.515V23.3875L28.7492 20.796H28.8917V26.1364L24.1579 28.8656" fill="#2F406A"/>
<path d="M19.2793 26.3346V20.796H19.4128L24.1447 23.4236V28.8656L19.2793 26.3346Z" fill="#2379BD"/>
<path d="M24.0551 18.1851L19.2793 20.8504L24.1262 23.5253L28.8917 20.8892L24.0557 18.1863" fill="#03AFEF"/>
</g>
</g>
<defs>
<clipPath id="clip0_1459_139">
<rect width="48" height="48" fill="white"/>
</clipPath>
<clipPath id="clip1_1459_139">
<rect width="48" height="48" fill="white"/>
</clipPath>
</defs>
</svg>
