<svg width="60" height="62" viewBox="0 0 60 62" fill="none" xmlns="http://www.w3.org/2000/svg">
<g clip-path="url(#clip0_939_508)">
<path fill-rule="evenodd" clip-rule="evenodd" d="M29.9991 8.99852L49.2765 19.918L56.9993 15.4784L30.0693 -0.0011884L3.00488 15.4784L10.7276 19.918L29.9981 8.99852" fill="#52B0E7"/>
<path fill-rule="evenodd" clip-rule="evenodd" d="M3.14084 15.5615L10.9335 20.0405V42.2036L30 53.1668V61.9598L3.00073 46.5206L3.14162 15.5609" fill="#3C76C3"/>
<path fill-rule="evenodd" clip-rule="evenodd" d="M22.53 26.7005L30.036 31.015V39.807L26.1435 37.5675L22.5315 35.4911L22.5301 26.7005" fill="#2E9D4D"/>
<path fill-rule="evenodd" clip-rule="evenodd" d="M37.6812 26.6189L30.0364 31.0129V39.8053L37.5408 35.4885L37.6812 26.6189Z" fill="#256F44"/>
<path fill-rule="evenodd" clip-rule="evenodd" d="M56.8599 15.5615L49.0672 20.0405V41.9589L39.7449 47.5612L30.0007 53.1663V61.9594L30.0709 61.9998L56.8853 46.587L56.8605 15.5604" fill="#2E3B69"/>
<path fill-rule="evenodd" clip-rule="evenodd" d="M30.035 31.0131L22.5291 26.6986V26.6459L30.035 22.3308L30.1276 22.2775L33.9268 24.4618L37.6798 26.6187L30.035 31.0131Z" fill="#9FD62B"/>
<path fill-rule="evenodd" clip-rule="evenodd" d="M12.9851 31.9794L20.491 36.294V45.0861L16.5986 42.8463L12.9866 40.77L12.9852 31.9794" fill="#3C76C3"/>
<path fill-rule="evenodd" clip-rule="evenodd" d="M27.9974 31.9794L20.4915 36.294V45.0861L27.9966 40.7695L27.9974 31.9794Z" fill="#2E3B69"/>
<path fill-rule="evenodd" clip-rule="evenodd" d="M20.4909 36.2939L12.9856 31.9799L16.7848 29.7431L20.4911 27.6117L27.9975 31.9799L20.4911 36.2939" fill="#52B0E7"/>
<path fill-rule="evenodd" clip-rule="evenodd" d="M32.3015 32.2052L39.8075 36.5199V45.3119L35.915 43.0722L32.303 40.996L32.3015 32.2052" fill="#3C76C3"/>
<path fill-rule="evenodd" clip-rule="evenodd" d="M47.3148 32.2052L39.8088 36.5199V45.3119L47.3137 40.9956L47.3148 32.2052Z" fill="#2E3B69"/>
<path fill-rule="evenodd" clip-rule="evenodd" d="M39.807 36.5199L32.3015 32.2057V32.153L36.1007 29.9689L39.807 27.8377L47.3134 32.2057L39.807 36.5199Z" fill="#52B0E7"/>
<path fill-rule="evenodd" clip-rule="evenodd" d="M22.8331 37.7496L30.3388 42.0643V50.8561L26.4466 48.6166L22.8343 46.5401L22.833 37.7496" fill="#3C76C3"/>
<path fill-rule="evenodd" clip-rule="evenodd" d="M37.8451 37.7496L30.3391 42.0643V50.8561L37.8442 46.5397L37.8451 37.7496Z" fill="#2E3B69"/>
<path fill-rule="evenodd" clip-rule="evenodd" d="M30.3395 42.063L22.8342 37.7487V37.696L26.6332 35.5119L30.3395 33.3806L37.8459 37.7487L30.3395 42.063Z" fill="#52B0E7"/>
<path fill-rule="evenodd" clip-rule="evenodd" d="M22.53 14.9445L30.036 19.2591V28.0511L26.1435 25.8114L22.5315 23.7352L22.5301 14.9445" fill="#3C76C3"/>
<path fill-rule="evenodd" clip-rule="evenodd" d="M37.6812 14.865L30.0364 19.2589V28.0514L37.5408 23.7344L37.6812 14.865Z" fill="#2E3B69"/>
<path fill-rule="evenodd" clip-rule="evenodd" d="M30.035 19.2592L22.5291 14.9445V14.8918L30.035 10.5767L30.1276 10.5236L33.9268 12.7077L37.6798 14.8648L30.035 19.2592Z" fill="#52B0E7"/>
<path fill-rule="evenodd" clip-rule="evenodd" d="M12.9851 20.2254L20.491 24.5399V33.3319L16.5986 31.0924L12.9866 29.016L12.9852 20.2254" fill="#3C76C3"/>
<path fill-rule="evenodd" clip-rule="evenodd" d="M27.9974 20.2254L20.4915 24.5399V33.3319L27.9966 29.0156L27.9974 20.2254Z" fill="#2E3B69"/>
<path fill-rule="evenodd" clip-rule="evenodd" d="M20.4909 24.54L12.9856 20.226L16.7848 17.9892L20.4911 15.8576L27.9975 20.226L20.4911 24.54" fill="#52B0E7"/>
<path fill-rule="evenodd" clip-rule="evenodd" d="M32.3015 20.4513L39.8075 24.766V33.558L35.915 31.3183L32.303 29.2419L32.3015 20.4513Z" fill="#3C76C3"/>
<path fill-rule="evenodd" clip-rule="evenodd" d="M47.3148 20.4513L39.8088 24.766V33.558L47.3137 29.2414L47.3148 20.4513Z" fill="#2E3B69"/>
<path fill-rule="evenodd" clip-rule="evenodd" d="M39.807 24.7659L32.3015 20.4516V20.3989L36.1007 18.2148L39.807 16.0834L47.3134 20.4516L39.807 24.7659Z" fill="#52B0E7"/>
<path fill-rule="evenodd" clip-rule="evenodd" d="M22.8331 25.9957L30.3388 30.3101V39.1022L26.4466 36.8626L22.8343 34.7863L22.833 25.9957" fill="#3C76C3"/>
<path fill-rule="evenodd" clip-rule="evenodd" d="M37.8451 25.9957L30.3391 30.3101V39.1022L37.8442 34.7856L37.8451 25.9957Z" fill="#2E3B69"/>
<path fill-rule="evenodd" clip-rule="evenodd" d="M30.3395 30.3082L22.8342 25.9942V25.9415L26.6332 23.7572L30.3395 21.6258L37.8459 25.9942L30.3395 30.3082Z" fill="#52B0E7"/>
</g>
<defs>
<clipPath id="clip0_939_508">
<rect width="54" height="62" fill="white" transform="translate(3)"/>
</clipPath>
</defs>
</svg>
