<svg width="116" height="52" viewBox="0 0 116 52" fill="none" xmlns="http://www.w3.org/2000/svg">
<path d="M44.0883 25.5421C42.5449 25.5421 41.2843 26.0025 40.3219 26.9223C39.3595 27.8421 38.8701 29.0502 38.8701 30.5292C38.8701 31.2941 38.9906 31.9964 39.2317 32.6362C39.4682 33.2769 39.8434 33.8687 40.3427 34.4061C40.8457 34.9444 41.8471 35.674 43.3379 36.6047C45.1685 37.7302 46.3684 38.6437 46.9448 39.3552C47.5211 40.0666 47.8093 40.8142 47.8093 41.5927C47.8093 42.6331 47.4695 43.4686 46.7644 44.0921C46.0639 44.7147 45.1259 45.0301 43.9578 45.0301C42.7337 45.0295 41.6622 44.5963 40.7433 43.7305C39.8262 42.8632 39.3622 41.7205 39.3477 40.2832H38.7822V45.4941H39.3486C39.5253 45.002 39.7691 44.7464 40.0808 44.7464C40.2367 44.7464 40.591 44.8497 41.1466 45.0482C42.4951 45.5331 43.5998 45.766 44.4707 45.766C45.9678 45.766 47.2493 45.2358 48.315 44.1628C49.3808 43.0898 49.9191 41.7948 49.9191 40.2832C49.9191 39.1114 49.5647 38.0665 48.8705 37.1602C48.17 36.2512 46.8179 35.1891 44.7924 33.9747C43.0515 32.9199 41.9187 32.0662 41.394 31.3974C40.8693 30.7286 40.601 29.9927 40.601 29.1816C40.601 28.3034 40.9236 27.5993 41.5535 27.0718C42.1879 26.548 43.0125 26.2852 44.0529 26.2852C45.2138 26.2852 46.188 26.6359 46.9556 27.3337C47.7241 28.0379 48.1664 29.0076 48.2969 30.2573H48.8705V25.7406H48.3404C48.2724 25.9744 48.2126 26.1194 48.1591 26.1864C48.103 26.2535 48.0033 26.2861 47.8447 26.2861C47.6604 26.2855 47.3348 26.2088 46.8677 26.0559C45.8654 25.7161 44.9419 25.5394 44.0883 25.5394V25.5421ZM62.7516 25.5421C60.8684 25.5421 59.1628 25.988 57.615 26.8833C56.0683 27.7757 54.8421 29.0112 53.9365 30.5899C53.0363 32.165 52.5856 33.8442 52.5844 35.6277C52.5844 38.0239 53.3664 40.1626 54.9388 42.0349C56.5175 43.9082 58.4007 45.0763 60.5884 45.5222C61.0913 45.7841 61.8064 46.4602 62.7452 47.5612C63.7992 48.7937 64.6919 49.6855 65.4277 50.2166C66.1458 50.7396 66.9461 51.139 67.7958 51.3983C68.6307 51.6533 69.5382 51.7807 70.5181 51.7807C71.7044 51.7807 72.7702 51.5723 73.7045 51.1436L73.4961 50.6198C72.9391 50.818 72.3518 50.9174 71.7606 50.9135C70.9359 50.9135 70.0967 50.6416 69.2585 50.0851C68.4187 49.5323 67.3731 48.4787 66.1219 46.9241C65.5338 46.1774 65.1269 45.7062 64.9003 45.5222C67.2928 45.0509 69.2648 43.8864 70.8018 42.0177C72.3352 40.1478 73.1022 38.0178 73.1028 35.6277C73.1028 32.7885 72.1005 30.4059 70.1076 28.4629C68.1139 26.519 65.6615 25.5421 62.7516 25.5421ZM74.405 25.5421L74.4368 26.1583C75.6874 26.1583 76.3906 26.5263 76.5465 27.273C76.6072 27.5422 76.6353 28.0379 76.6426 28.7457L76.6281 42.3394C76.6178 43.355 76.4749 44.003 76.1994 44.2833C75.9239 44.5625 75.4527 44.7401 74.7766 44.8072L74.7449 45.4234H87.2484L87.5701 42.3394H86.9974C86.8343 43.1786 86.4627 43.7804 85.8646 44.1202C85.2689 44.4646 84.2116 44.6368 82.6927 44.6368H81.5064C80.135 44.6356 79.3444 44.1353 79.1348 43.136C79.0936 42.9225 79.0732 42.7055 79.074 42.4881L79.1203 28.7457C79.1203 27.7334 79.2471 27.0537 79.5136 26.7211C79.7791 26.3885 80.2603 26.2073 80.9581 26.1583L80.9255 25.5421H74.405ZM62.9564 26.2852C65.077 26.2852 66.8152 27.128 68.1528 28.8236C69.4941 30.5265 70.1565 32.8519 70.1565 35.7972C70.1572 38.5903 69.4835 40.8278 68.1356 42.5098C66.7862 44.1945 64.9882 45.0292 62.7507 45.0292C60.6056 45.0292 58.8674 44.1664 57.5361 42.4282C56.2021 40.6937 55.5396 38.4417 55.5396 35.6667C55.5384 32.8199 56.21 30.5422 57.5542 28.8336C58.9003 27.1353 60.701 26.2858 62.9564 26.2852ZM91.7054 29.2097C91.4009 29.2097 91.167 29.3157 90.994 29.5214C90.8172 29.7299 90.7638 29.9782 90.8236 30.2854C90.8852 30.5826 91.0492 30.8424 91.3157 31.0648C91.5785 31.2805 91.8649 31.3974 92.1694 31.3974C92.3012 31.4017 92.4321 31.3737 92.5506 31.3157C92.6691 31.2577 92.7716 31.1716 92.849 31.0648C93.0079 30.8424 93.0575 30.5826 92.9977 30.2854C92.9344 29.9836 92.7677 29.7134 92.5264 29.5214C92.2986 29.3231 92.0074 29.2125 91.7054 29.2097ZM99.9504 31.2941C99.4339 33.2987 98.3074 34.3844 96.5873 34.5584L96.6055 35.132H98.6191L98.5802 41.9217C98.5838 43.0871 98.6164 43.8583 98.6971 44.2507C98.8955 45.1932 99.5109 45.6708 100.534 45.6708C102.014 45.6708 103.568 44.7682 105.189 42.9521L104.7 42.527C103.526 43.7233 102.492 44.3259 101.583 44.3259C101.026 44.3259 100.683 44.0033 100.552 43.3662C100.515 43.1871 100.499 43.0044 100.502 42.8216L100.524 35.132H103.596L103.568 34.2185H100.534V31.295L99.9504 31.2941ZM111.84 33.8542C110.12 33.8542 108.726 34.697 107.632 36.3645C106.552 38.0347 106.216 39.8862 106.644 41.9217C106.892 43.1179 107.396 44.0432 108.156 44.6975C108.92 45.3482 109.887 45.6708 111.041 45.6708C112.118 45.6708 113.618 45.3989 114.249 44.8461C114.878 44.2969 115.463 43.4016 116.001 42.1763L115.572 41.7232C114.711 43.3091 112.978 44.1093 111.675 44.1093C109.877 44.1093 108.779 43.1215 108.365 41.1504C108.313 40.8834 108.274 40.6139 108.248 40.343C110.388 40.004 112.004 39.3999 113.095 38.5305C114.189 37.6605 115.286 36.7325 115.08 35.7582C114.971 35.2029 114.655 34.7097 114.196 34.378C113.728 34.0346 112.517 33.8542 111.841 33.8542H111.84ZM93.0403 33.9249L89.3337 34.7813V35.4474L90.6151 35.2879C91.235 35.2879 91.5993 35.5679 91.7162 36.1307C91.7555 36.3216 91.7791 36.5835 91.7869 36.9164L91.748 43.0155C91.7335 43.8547 91.6419 44.3477 91.4543 44.4954C91.2695 44.641 90.7725 44.7141 89.9635 44.7147L89.9427 45.292H95.8225L95.8116 44.7147C94.9978 44.7147 94.4667 44.6513 94.2329 44.5244C93.9991 44.4002 93.8405 44.1701 93.7689 43.8193C93.7163 43.5683 93.6946 43.1324 93.6919 42.5306L93.71 33.9249H93.0403ZM110.9 35.0541C111.256 35.0541 111.608 35.1909 111.955 35.4646C112.298 35.741 112.507 36.0446 112.574 36.3745C112.91 37.9922 111.483 39.115 108.265 39.7376C108.177 38.5549 108.379 37.4828 108.896 36.5159C109.413 35.5462 110.086 35.0541 110.9 35.0541ZM10.4338 37.2173C10.4301 37.2599 10.4301 37.2744 10.4265 37.2989C10.4307 37.3998 10.4332 37.5001 10.4338 37.5997C10.4374 37.5327 10.4374 37.5001 10.4374 37.4257L10.4338 37.2173Z" fill="#0F7BCB"/>
<path d="M43.239 1.11231C41.0513 -0.848818 38.4105 -0.0630986 35.7942 2.26959C35.3945 2.63481 35.0084 3.01271 34.6369 3.41328C30.1691 8.18196 26.0239 17.0143 24.7352 23.7577C25.2336 24.7845 25.6269 26.0904 25.8861 27.0891C26.0166 27.5811 26.1335 28.0832 26.2359 28.5862C26.2359 28.5862 26.1933 28.4339 26.0311 27.9518L25.9242 27.6446C25.9035 27.5869 25.8799 27.5304 25.8535 27.4751C25.5635 26.7918 24.7569 25.3509 24.4026 24.7237C24.1202 25.5539 23.8543 26.3897 23.6051 27.2304C24.6292 29.1172 25.2518 32.3489 25.2518 32.3489C25.2518 32.3489 25.1992 32.1369 24.94 31.4073C24.7134 30.7594 23.577 28.752 23.3051 28.2853C22.8447 29.9981 22.6644 31.1563 22.8266 31.4363C23.1492 31.981 23.4538 32.9226 23.7193 33.9639C24.3283 36.3111 24.7488 39.1676 24.7488 39.1676L24.785 39.6415C24.7056 41.5951 24.7456 43.5517 24.9047 45.5004C25.1031 47.9473 25.4819 50.0426 25.9632 51.1681L26.2894 50.9869C25.5843 48.7756 25.2943 45.872 25.4221 42.5307C25.6124 37.4194 26.7815 31.2524 28.9402 24.8271C32.5942 15.1275 37.6565 7.34277 42.2892 3.62534C38.0661 7.4624 32.3486 19.8916 30.6358 24.4899C28.7209 29.6438 27.3615 34.4768 26.5441 39.1105C27.956 34.7668 32.5235 32.9008 32.5235 32.9008C32.5235 32.9008 34.7601 30.1223 37.3765 26.1538C35.8114 26.5109 33.2349 27.1271 32.374 27.4914C31.1034 28.0297 30.7608 28.2101 30.7608 28.2101C30.7608 28.2101 34.8807 25.6862 38.4141 24.5434C43.2743 16.8403 48.5705 5.89821 43.239 1.11231ZM3.88781 2.26959C1.74272 2.27684 0.00815625 4.02499 0 6.18096V41.5918C0.00815625 43.7487 1.74634 45.4932 3.88781 45.5004H23.8434C23.6934 43.5809 23.6568 41.6542 23.7338 39.7303C23.7193 39.5953 23.7084 39.4286 23.6975 39.3017C23.438 37.598 23.1039 35.9065 22.6961 34.2321C22.4378 33.2307 22.1125 32.3172 21.914 31.981C21.6693 31.5596 21.7056 31.3194 21.7083 31.0566C21.7083 30.802 21.7409 30.5364 21.7862 30.2356C21.9119 29.4852 22.0772 28.7418 22.282 28.0053L22.7423 27.9491C22.7061 27.8739 22.7142 27.8068 22.6753 27.7397L22.5901 26.9296C22.8438 26.0753 23.1142 25.2264 23.4012 24.383L23.8217 24.3413C23.8081 24.3096 23.8008 24.2597 23.7827 24.228L23.6948 23.5556C25.0288 16.5639 29.1749 7.68534 33.862 2.68375C34.0034 2.53512 34.1448 2.41187 34.2834 2.26959H3.88781Z" fill="#0F7BCB"/>
</svg>
