<svg width="116" height="52" viewBox="0 0 116 52" fill="none" xmlns="http://www.w3.org/2000/svg">
<g clip-path="url(#clip0_939_155)">
<path d="M44.0881 25.5421C42.5447 25.5421 41.2841 26.0025 40.3217 26.9223C39.3593 27.8421 38.8699 29.0502 38.8699 30.5292C38.8699 31.2941 38.9904 31.9964 39.2315 32.6362C39.468 33.2769 39.8432 33.8687 40.3425 34.4061C40.8455 34.9444 41.8469 35.674 43.3377 36.6047C45.1683 37.7302 46.3682 38.6437 46.9446 39.3552C47.5209 40.0666 47.8091 40.8142 47.8091 41.5927C47.8091 42.6331 47.4693 43.4686 46.7642 44.0921C46.0637 44.7147 45.1257 45.0301 43.9576 45.0301C42.7335 45.0295 41.662 44.5963 40.7431 43.7305C39.826 42.8632 39.362 41.7205 39.3475 40.2832H38.782V45.4941H39.3484C39.5251 45.002 39.7689 44.7464 40.0806 44.7464C40.2365 44.7464 40.5908 44.8497 41.1464 45.0482C42.4949 45.5331 43.5996 45.766 44.4705 45.766C45.9676 45.766 47.2491 45.2358 48.3148 44.1628C49.3806 43.0898 49.9189 41.7948 49.9189 40.2832C49.9189 39.1114 49.5645 38.0665 48.8703 37.1602C48.1698 36.2512 46.8177 35.1891 44.7922 33.9747C43.0513 32.9199 41.9185 32.0662 41.3938 31.3974C40.8691 30.7286 40.6008 29.9927 40.6008 29.1816C40.6008 28.3034 40.9234 27.5993 41.5533 27.0718C42.1877 26.548 43.0123 26.2852 44.0527 26.2852C45.2136 26.2852 46.1878 26.6359 46.9554 27.3337C47.7239 28.0379 48.1662 29.0076 48.2967 30.2573H48.8703V25.7406H48.3402C48.2722 25.9744 48.2124 26.1194 48.1589 26.1864C48.1028 26.2535 48.0031 26.2861 47.8445 26.2861C47.6602 26.2855 47.3346 26.2088 46.8675 26.0559C45.8652 25.7161 44.9417 25.5394 44.0881 25.5394V25.5421ZM62.7514 25.5421C60.8682 25.5421 59.1626 25.988 57.6148 26.8833C56.0681 27.7757 54.8419 29.0112 53.9363 30.5899C53.0361 32.165 52.5854 33.8442 52.5842 35.6277C52.5842 38.0239 53.3662 40.1626 54.9386 42.0349C56.5173 43.9082 58.4005 45.0763 60.5882 45.5222C61.0911 45.7841 61.8062 46.4602 62.745 47.5612C63.799 48.7937 64.6917 49.6855 65.4275 50.2166C66.1456 50.7396 66.9459 51.139 67.7956 51.3983C68.6305 51.6533 69.538 51.7807 70.5179 51.7807C71.7042 51.7807 72.77 51.5723 73.7043 51.1436L73.4959 50.6198C72.9389 50.818 72.3516 50.9174 71.7604 50.9135C70.9357 50.9135 70.0965 50.6416 69.2583 50.0851C68.4185 49.5323 67.3729 48.4787 66.1217 46.9241C65.5336 46.1774 65.1267 45.7062 64.9001 45.5222C67.2926 45.0509 69.2646 43.8864 70.8016 42.0177C72.335 40.1478 73.102 38.0178 73.1026 35.6277C73.1026 32.7885 72.1003 30.4059 70.1074 28.4629C68.1137 26.519 65.6613 25.5421 62.7514 25.5421ZM74.4048 25.5421L74.4366 26.1583C75.6872 26.1583 76.3904 26.5263 76.5463 27.273C76.607 27.5422 76.6351 28.0379 76.6424 28.7457L76.6279 42.3394C76.6176 43.355 76.4747 44.003 76.1992 44.2833C75.9237 44.5625 75.4525 44.7401 74.7764 44.8072L74.7447 45.4234H87.2482L87.5699 42.3394H86.9972C86.8341 43.1786 86.4625 43.7804 85.8644 44.1202C85.2687 44.4646 84.2114 44.6368 82.6925 44.6368H81.5062C80.1348 44.6356 79.3442 44.1353 79.1346 43.136C79.0934 42.9225 79.073 42.7055 79.0738 42.4881L79.1201 28.7457C79.1201 27.7334 79.2469 27.0537 79.5134 26.7211C79.7789 26.3885 80.2601 26.2073 80.9579 26.1583L80.9253 25.5421H74.4048ZM62.9562 26.2852C65.0768 26.2852 66.815 27.128 68.1526 28.8236C69.4939 30.5265 70.1563 32.8519 70.1563 35.7972C70.157 38.5903 69.4833 40.8278 68.1354 42.5098C66.786 44.1945 64.988 45.0292 62.7505 45.0292C60.6054 45.0292 58.8672 44.1664 57.5359 42.4282C56.2019 40.6937 55.5394 38.4417 55.5394 35.6667C55.5382 32.8199 56.2098 30.5422 57.554 28.8336C58.9001 27.1353 60.7008 26.2858 62.9562 26.2852ZM91.7052 29.2097C91.4007 29.2097 91.1668 29.3157 90.9938 29.5214C90.817 29.7299 90.7636 29.9782 90.8234 30.2854C90.885 30.5826 91.049 30.8424 91.3155 31.0648C91.5783 31.2805 91.8647 31.3974 92.1692 31.3974C92.301 31.4017 92.4319 31.3737 92.5504 31.3157C92.6689 31.2577 92.7714 31.1716 92.8488 31.0648C93.0077 30.8424 93.0573 30.5826 92.9975 30.2854C92.9342 29.9836 92.7675 29.7134 92.5262 29.5214C92.2984 29.3231 92.0072 29.2125 91.7052 29.2097ZM99.9502 31.2941C99.4337 33.2987 98.3072 34.3844 96.5871 34.5584L96.6053 35.132H98.6189L98.58 41.9217C98.5836 43.0871 98.6162 43.8583 98.6969 44.2507C98.8953 45.1932 99.5107 45.6708 100.534 45.6708C102.014 45.6708 103.568 44.7682 105.189 42.9521L104.7 42.527C103.526 43.7233 102.492 44.3259 101.583 44.3259C101.026 44.3259 100.683 44.0033 100.552 43.3662C100.515 43.1871 100.499 43.0044 100.502 42.8216L100.524 35.132H103.596L103.568 34.2185H100.534V31.295L99.9502 31.2941ZM111.84 33.8542C110.12 33.8542 108.726 34.697 107.632 36.3645C106.552 38.0347 106.216 39.8862 106.644 41.9217C106.892 43.1179 107.396 44.0432 108.156 44.6975C108.92 45.3482 109.887 45.6708 111.041 45.6708C112.118 45.6708 113.618 45.3989 114.249 44.8461C114.878 44.2969 115.463 43.4016 116.001 42.1763L115.572 41.7232C114.711 43.3091 112.978 44.1093 111.675 44.1093C109.877 44.1093 108.779 43.1215 108.365 41.1504C108.313 40.8834 108.274 40.6139 108.248 40.343C110.388 40.004 112.004 39.3999 113.095 38.5305C114.189 37.6605 115.286 36.7325 115.08 35.7582C114.971 35.2029 114.655 34.7097 114.196 34.378C113.728 34.0346 112.517 33.8542 111.841 33.8542H111.84ZM93.0401 33.9249L89.3335 34.7813V35.4474L90.6149 35.2879C91.2348 35.2879 91.5991 35.5679 91.716 36.1307C91.7553 36.3216 91.7789 36.5835 91.7867 36.9164L91.7478 43.0155C91.7333 43.8547 91.6417 44.3477 91.4541 44.4954C91.2693 44.641 90.7723 44.7141 89.9633 44.7147L89.9425 45.292H95.8223L95.8114 44.7147C94.9976 44.7147 94.4665 44.6513 94.2327 44.5244C93.9989 44.4002 93.8403 44.1701 93.7687 43.8193C93.7161 43.5683 93.6944 43.1324 93.6917 42.5306L93.7098 33.9249H93.0401ZM110.9 35.0541C111.256 35.0541 111.608 35.1909 111.955 35.4646C112.298 35.741 112.507 36.0446 112.574 36.3745C112.91 37.9922 111.483 39.115 108.265 39.7376C108.177 38.5549 108.379 37.4828 108.896 36.5159C109.413 35.5462 110.086 35.0541 110.9 35.0541ZM10.4336 37.2173C10.4299 37.2599 10.4299 37.2744 10.4263 37.2989C10.4305 37.3998 10.433 37.5001 10.4336 37.5997C10.4372 37.5327 10.4372 37.5001 10.4372 37.4257L10.4336 37.2173Z" fill="#0F7BCB"/>
<path d="M43.239 1.11231C41.0513 -0.848819 38.4105 -0.0630994 35.7942 2.26959C35.3945 2.63481 35.0084 3.01271 34.6369 3.41328C30.1691 8.18196 26.0239 17.0143 24.7352 23.7577C25.2336 24.7845 25.6269 26.0904 25.8861 27.0891C26.0166 27.5811 26.1335 28.0832 26.2359 28.5862C26.2359 28.5862 26.1933 28.4339 26.0311 27.9518L25.9242 27.6446C25.9035 27.5869 25.8799 27.5304 25.8535 27.4751C25.5635 26.7918 24.7569 25.3509 24.4026 24.7237C24.1202 25.5539 23.8543 26.3897 23.6051 27.2304C24.6292 29.1172 25.2518 32.3489 25.2518 32.3489C25.2518 32.3489 25.1992 32.1369 24.94 31.4073C24.7134 30.7594 23.577 28.752 23.3051 28.2853C22.8447 29.9981 22.6644 31.1563 22.8266 31.4363C23.1492 31.981 23.4538 32.9226 23.7193 33.9639C24.3283 36.3111 24.7488 39.1676 24.7488 39.1676L24.785 39.6415C24.7056 41.5951 24.7456 43.5517 24.9047 45.5004C25.1031 47.9473 25.4819 50.0426 25.9632 51.1681L26.2894 50.9869C25.5843 48.7756 25.2943 45.872 25.4221 42.5307C25.6124 37.4194 26.7815 31.2524 28.9402 24.8271C32.5942 15.1275 37.6565 7.34277 42.2892 3.62534C38.0661 7.4624 32.3486 19.8916 30.6358 24.4899C28.7209 29.6438 27.3615 34.4768 26.5441 39.1105C27.956 34.7668 32.5235 32.9008 32.5235 32.9008C32.5235 32.9008 34.7601 30.1223 37.3765 26.1538C35.8114 26.5109 33.2349 27.1271 32.374 27.4914C31.1034 28.0297 30.7608 28.2101 30.7608 28.2101C30.7608 28.2101 34.8807 25.6862 38.4141 24.5434C43.2743 16.8403 48.5705 5.89821 43.239 1.11231ZM3.88781 2.26959C1.74272 2.27684 0.00815625 4.02499 0 6.18096V41.5918C0.00815625 43.7487 1.74634 45.4932 3.88781 45.5004H23.8434C23.6934 43.5809 23.6568 41.6542 23.7338 39.7303C23.7193 39.5953 23.7084 39.4286 23.6975 39.3017C23.438 37.598 23.1039 35.9065 22.6961 34.2321C22.4378 33.2307 22.1125 32.3172 21.914 31.981C21.6693 31.5596 21.7056 31.3194 21.7083 31.0566C21.7083 30.802 21.7409 30.5364 21.7862 30.2356C21.9119 29.4852 22.0772 28.7418 22.282 28.0053L22.7423 27.9491C22.7061 27.8739 22.7142 27.8068 22.6753 27.7397L22.5901 26.9296C22.8438 26.0753 23.1142 25.2264 23.4012 24.383L23.8217 24.3413C23.8081 24.3096 23.8008 24.2597 23.7827 24.228L23.6948 23.5556C25.0288 16.5639 29.1749 7.68534 33.862 2.68375C34.0034 2.53512 34.1448 2.41187 34.2834 2.26959H3.88781Z" fill="#0F7BCB"/>
</g>
<defs>
<clipPath id="clip0_939_155">
<rect width="116" height="52" fill="white"/>
</clipPath>
</defs>
</svg>
