<svg width="48" height="48" viewBox="0 0 48 48" fill="none" xmlns="http://www.w3.org/2000/svg">
<g clip-path="url(#clip0_1459_129)">
<g clip-path="url(#clip1_1459_129)">
<path d="M36.75 0H11.25C5.0368 0 0 5.0368 0 11.25V36.75C0 42.9632 5.0368 48 11.25 48H36.75C42.9632 48 48 42.9632 48 36.75V11.25C48 5.0368 42.9632 0 36.75 0Z" fill="#FF3E00"/>
<mask id="mask0_1459_129" style="mask-type:luminance" maskUnits="userSpaceOnUse" x="9" y="7" width="29" height="34">
<path d="M37.9958 7.125H9.9375V40.875H37.9958V7.125Z" fill="white"/>
</mask>
<g mask="url(#mask0_1459_129)">
<path d="M36.1939 11.5868C33.0763 7.09637 26.8697 5.7807 22.4079 8.61227L14.5424 13.6462C12.3972 14.9904 10.91 17.1928 10.4809 19.6811C10.1091 21.7691 10.4237 23.9141 11.4248 25.7734C10.7383 26.8029 10.2807 27.947 10.0805 29.1484C9.62288 31.6939 10.2235 34.3252 11.7108 36.413C14.857 40.9037 21.0349 42.2192 25.4968 39.3877L33.3622 34.3824C35.5074 33.038 36.9947 30.8359 37.4237 28.3474C37.7955 26.2595 37.4809 24.1144 36.4798 22.2553C37.1662 21.2255 37.6239 20.0816 37.8242 18.8803C38.3104 16.3061 37.7098 13.6748 36.1939 11.5868Z" fill="white"/>
<path d="M21.6356 36.842C19.0901 37.5 16.4301 36.4989 14.9428 34.3537C14.0275 33.0952 13.6843 31.5223 13.9417 29.9777C13.9989 29.7202 14.0561 29.4915 14.1133 29.234L14.2563 28.7765L14.6568 29.0625C15.6006 29.7489 16.6303 30.2638 17.7457 30.6069L18.0318 30.6928L18.0032 30.9787C17.9746 31.3792 18.089 31.8082 18.3178 32.1515C18.7755 32.8093 19.5763 33.1239 20.3484 32.9237C20.5202 32.8665 20.6917 32.8093 20.8348 32.7234L28.6716 27.7181C29.0721 27.4609 29.3295 27.089 29.4152 26.6314C29.5011 26.1737 29.3867 25.6875 29.1292 25.3157C28.6716 24.6577 27.8707 24.3718 27.0984 24.572C26.9269 24.6292 26.7553 24.6864 26.6122 24.7723L23.6091 26.6885C23.1229 27.0032 22.5795 27.2319 22.0074 27.375C19.4619 28.0327 16.8019 27.0317 15.3146 24.8867C14.428 23.6282 14.0561 22.055 14.3422 20.5106C14.5996 19.0234 15.5148 17.679 16.8019 16.8781L24.6673 11.8729C25.1535 11.5582 25.6971 11.3294 26.2691 11.1578C28.8146 10.5 31.4745 11.501 32.9619 13.6462C33.8771 14.9046 34.2202 16.4777 33.963 18.0222C33.9056 18.2796 33.8484 18.5084 33.7627 18.7659L33.6197 19.2234L33.2192 18.9375C32.2755 18.251 31.2457 17.7362 30.1303 17.393L29.8442 17.3072L29.8729 17.0212C29.9016 16.6207 29.787 16.1917 29.5582 15.8485C29.1006 15.1906 28.2997 14.9046 27.5276 15.1048C27.3559 15.1621 27.1843 15.2192 27.0412 15.3051L19.2045 20.3104C18.804 20.5678 18.5466 20.9396 18.4608 21.3973C18.375 21.8548 18.4894 22.3412 18.7468 22.713C19.2045 23.3707 20.0053 23.6567 20.7776 23.4566C20.9492 23.3994 21.1207 23.342 21.2638 23.2564L24.267 21.3401C24.7532 21.0255 25.2966 20.7965 25.8686 20.625C28.4141 19.967 31.0742 20.9681 32.5614 23.1133C33.4766 24.3718 33.8199 25.9449 33.5625 27.4894C33.3051 28.9766 32.3899 30.321 31.1027 31.1218L23.2372 36.1271C22.7511 36.4417 22.2077 36.6705 21.6356 36.842Z" fill="#FF3E00"/>
</g>
</g>
</g>
<defs>
<clipPath id="clip0_1459_129">
<rect width="48" height="48" fill="white"/>
</clipPath>
<clipPath id="clip1_1459_129">
<rect width="48" height="48" fill="white"/>
</clipPath>
</defs>
</svg>
