<svg width="60" height="60" viewBox="0 0 60 60" fill="none" xmlns="http://www.w3.org/2000/svg">
<g clip-path="url(#clip0_953_95)">
<path d="M47.4506 11.476C42.9867 4.97097 34.1706 3.04295 27.7963 7.17788L16.6013 14.4429C15.089 15.4117 13.7919 16.691 12.7928 18.1992C11.7937 19.7074 11.1146 21.4112 10.799 23.2018C10.265 26.218 10.7343 29.3295 12.1328 32.0435C11.1744 33.5235 10.5208 35.186 10.2115 36.9306C9.89264 38.7573 9.9352 40.6304 10.3367 42.4401C10.7382 44.2498 11.4906 45.9596 12.5496 47.4694C17.0143 53.9751 25.8304 55.9023 32.2038 51.7674L43.3988 44.5027C44.9113 43.5341 46.2086 42.2547 47.2077 40.7465C48.2068 39.2382 48.8858 37.5343 49.2012 35.7436C49.7352 32.7274 49.2662 29.6161 47.8684 26.9018C48.8264 25.4218 49.4797 23.7593 49.7887 22.0149C50.1078 20.1882 50.0654 18.315 49.664 16.5053C49.2625 14.6955 48.5099 12.9857 47.4506 11.476Z" fill="#FF3E00"/>
<path d="M26.7014 48.0883C23.0917 49.044 19.28 47.6053 17.1541 44.4852C16.517 43.577 16.0643 42.5484 15.8228 41.4598C15.5812 40.3711 15.5556 39.2443 15.7473 38.1455C15.8123 37.7847 15.9018 37.4289 16.015 37.0807L16.2259 36.426L16.7995 36.8551C18.1246 37.8462 19.6061 38.5998 21.1802 39.0835L21.5963 39.212L21.558 39.635C21.5071 40.2367 21.6671 40.8373 22.0095 41.3303C22.3218 41.7892 22.7649 42.1395 23.279 42.3337C23.7931 42.528 24.3533 42.5569 24.8841 42.4166C25.1275 42.3503 25.3595 42.2465 25.572 42.1087L36.7705 34.8427C37.0445 34.6671 37.2796 34.4352 37.4608 34.1619C37.6419 33.8887 37.7652 33.58 37.8227 33.2555C37.8802 32.9243 37.8723 32.5847 37.7995 32.2567C37.7267 31.9286 37.5905 31.6185 37.3988 31.3446C37.0862 30.8858 36.6429 30.5355 36.1287 30.3412C35.6145 30.1468 35.0541 30.1177 34.5231 30.2577C34.2801 30.324 34.0485 30.4277 33.8363 30.5653L29.5628 33.3389C28.8602 33.7937 28.0933 34.1366 27.2889 34.3556C23.6794 35.3113 19.8675 33.8726 17.7419 30.7524C17.1046 29.8443 16.6519 28.8157 16.4103 27.7271C16.1687 26.6384 16.1431 25.5116 16.335 24.4127C16.5248 23.3357 16.9333 22.3108 17.5344 21.4037C18.1354 20.4965 18.9158 19.7271 19.8256 19.1446L31.0231 11.8778C31.7261 11.4222 32.4935 11.0789 33.2986 10.8599C36.9081 9.90429 40.72 11.3429 42.8456 14.463C43.4828 15.3712 43.9354 16.3998 44.177 17.4885C44.4186 18.5771 44.4442 19.7039 44.2525 20.8028C44.187 21.1634 44.0976 21.5191 43.9848 21.8674L43.7739 22.5223L43.2005 22.0938C41.8756 21.1021 40.394 20.3482 38.8197 19.8645L38.4034 19.7358L38.4419 19.3129C38.4923 18.7113 38.3324 18.1109 37.9903 17.6176C37.678 17.1587 37.2349 16.8084 36.7208 16.6142C36.2067 16.4199 35.6464 16.391 35.1156 16.5314C34.8723 16.5977 34.6403 16.7015 34.4278 16.8392L23.2294 24.1055C22.9554 24.2811 22.7203 24.5129 22.5393 24.7861C22.3582 25.0594 22.2351 25.368 22.1778 25.6925C22.12 26.0237 22.1277 26.3632 22.2004 26.6914C22.2731 27.0195 22.4093 27.3296 22.6011 27.6035C22.9137 28.0624 23.357 28.4126 23.8712 28.607C24.3854 28.8013 24.9458 28.8304 25.4767 28.6904C25.7201 28.6241 25.952 28.5203 26.1645 28.3825L30.4372 25.6101C31.1396 25.1546 31.9064 24.8114 32.7109 24.5924C36.3205 23.6369 40.1323 25.0755 42.2581 28.1958C42.8954 29.1039 43.348 30.1324 43.5896 31.221C43.8312 32.3096 43.8567 33.4364 43.6648 34.5352C43.475 35.6124 43.0664 36.6374 42.4654 37.5447C41.8643 38.4519 41.084 39.2215 40.1742 39.8043L28.9767 47.0705C28.2738 47.5261 27.5065 47.8694 26.7014 48.0883Z" fill="white"/>
</g>
<defs>
<clipPath id="clip0_953_95">
<rect width="40" height="49" fill="white" transform="translate(10 5)"/>
</clipPath>
</defs>
</svg>
