<svg width="60" height="60" viewBox="0 0 60 60" fill="none" xmlns="http://www.w3.org/2000/svg">
<g clip-path="url(#clip0_939_507)">
<path d="M30 7C22 7 17 11.0635 15 19.1905C18 15.127 21.5 13.6032 25.5 14.619C27.7821 15.1986 29.4134 16.8807 31.219 18.7424C34.1603 21.7755 37.5643 25.2857 45 25.2857C53 25.2857 58 21.2222 60 13.0952C57 17.1587 53.5 18.6825 49.5 17.6667C47.218 17.0871 45.5867 15.405 43.781 13.5433C40.8397 10.5102 37.4357 7 30 7ZM15 25.2857C7 25.2857 2 29.3492 0 37.4762C3 33.4127 6.5 31.8889 10.5 32.9048C12.7821 33.4843 14.4134 35.1664 16.219 37.0281C19.1604 40.0612 22.5645 43.5713 30 43.5713C38 43.5713 43 39.5079 45 31.381C42 35.4444 38.5 36.9683 34.5 35.9524C32.2179 35.3729 30.5866 33.6907 28.781 31.829C25.8396 28.796 22.4355 25.2857 15 25.2857Z" fill="url(#paint0_linear_939_507)"/>
</g>
<defs>
<linearGradient id="paint0_linear_939_507" x1="-166.68" y1="1177.29" x2="5055.7" y2="4141.37" gradientUnits="userSpaceOnUse">
<stop stop-color="#2298BD"/>
<stop offset="1" stop-color="#0ED7B5"/>
</linearGradient>
<clipPath id="clip0_939_507">
<rect width="60" height="36.6667" fill="white" transform="translate(0 7)"/>
</clipPath>
</defs>
</svg>
