<svg width="60" height="60" viewBox="0 0 60 60" fill="none" xmlns="http://www.w3.org/2000/svg">
<path d="M30 11C22 11 17 15.0635 15 23.1905C18 19.127 21.5 17.6032 25.5 18.619C27.7821 19.1986 29.4134 20.8807 31.219 22.7424C34.1603 25.7755 37.5643 29.2857 45 29.2857C53 29.2857 58 25.2222 60 17.0952C57 21.1587 53.5 22.6825 49.5 21.6667C47.218 21.0871 45.5867 19.405 43.781 17.5433C40.8397 14.5102 37.4357 11 30 11ZM15 29.2857C7 29.2857 2 33.3492 0 41.4762C3 37.4127 6.5 35.8889 10.5 36.9048C12.7821 37.4843 14.4134 39.1664 16.219 41.0281C19.1604 44.0612 22.5645 47.5713 30 47.5713C38 47.5713 43 43.5079 45 35.381C42 39.4444 38.5 40.9683 34.5 39.9524C32.2179 39.3729 30.5866 37.6907 28.781 35.829C25.8396 32.796 22.4355 29.2857 15 29.2857Z" fill="url(#paint0_linear_939_507)"/>
<defs>
<linearGradient id="paint0_linear_939_507" x1="-166.68" y1="1181.29" x2="5055.7" y2="4145.37" gradientUnits="userSpaceOnUse">
<stop stop-color="#2298BD"/>
<stop offset="1" stop-color="#0ED7B5"/>
</linearGradient>
</defs>
</svg>
