<svg width="60" height="60" viewBox="0 0 60 60" fill="none" xmlns="http://www.w3.org/2000/svg">
<g clip-path="url(#clip0_939_518)">
<path d="M38.8235 0H21.1765C9.48103 0 0 9.48103 0 21.1765V38.8235C0 50.519 9.48103 60 21.1765 60H38.8235C50.519 60 60 50.519 60 38.8235V21.1765C60 9.48103 50.519 0 38.8235 0Z" fill="#106CB0"/>
<path d="M29.1175 45.8824C39.3511 45.8824 47.647 38.7716 47.647 30C47.647 21.2284 39.3511 14.1177 29.1175 14.1177C18.884 14.1177 10.5881 21.2284 10.5881 30C10.5881 38.7716 18.884 45.8824 29.1175 45.8824Z" fill="#EFEFEF"/>
<path d="M29.9999 1.76465C14.406 1.76465 1.76465 14.406 1.76465 29.9999C1.76465 45.5939 14.406 58.2352 29.9999 58.2352C45.5939 58.2352 58.2352 45.5939 58.2352 29.9999C58.2352 14.406 45.5939 1.76465 29.9999 1.76465ZM43.0875 20.9669C42.6626 25.4316 40.8239 36.2661 39.8881 41.2669C39.4925 43.3824 38.713 44.092 37.9586 44.1614C36.3192 44.3122 35.074 43.078 33.4858 42.0368C31.0007 40.4078 29.5969 39.3936 27.1845 37.8042C24.3968 35.9671 26.2039 34.9579 27.7926 33.307C28.2084 32.875 35.4329 26.3041 35.5729 25.7078C35.5902 25.6332 35.6069 25.3549 35.4414 25.2088C35.2759 25.0625 35.0327 25.1121 34.8568 25.1518C34.6076 25.2082 30.6377 27.8325 22.9469 33.0236C21.82 33.7974 20.7995 34.1745 19.885 34.1548C18.8768 34.1331 16.9376 33.5848 15.4959 33.1161C13.7276 32.5413 12.3222 32.2376 12.4446 31.2614C12.5084 30.7528 13.2086 30.2329 14.5452 29.7017C22.7763 26.1153 28.2651 23.7509 31.0113 22.6085C38.8526 19.3471 40.4819 18.7805 41.5439 18.7616C41.7776 18.7577 42.2998 18.8156 42.6381 19.09C42.8632 19.2855 43.0065 19.5585 43.0401 19.8546C43.0972 20.2226 43.1131 20.5956 43.0875 20.9669Z" fill="#106CB0"/>
</g>
<defs>
<clipPath id="clip0_939_518">
<rect width="60" height="60" fill="white"/>
</clipPath>
</defs>
</svg>
