<svg width="60" height="60" viewBox="0 0 60 60" fill="none" xmlns="http://www.w3.org/2000/svg">
<g clip-path="url(#clip0_939_518)">
<rect x="4" y="4" width="52" height="52" fill="#106CB0"/>
<path d="M30.4334 46.4666C39.7671 46.4666 47.3335 39.6763 47.3335 31.3C47.3335 22.9236 39.7671 16.1333 30.4334 16.1333C21.0998 16.1333 13.5334 22.9236 13.5334 31.3C13.5334 39.6763 21.0998 46.4666 30.4334 46.4666Z" fill="#EFEFEF"/>
<path d="M29.9999 5.52942C16.4851 5.52942 5.5293 16.4852 5.5293 30C5.5293 43.5148 16.4851 54.4706 29.9999 54.4706C43.5147 54.4706 54.4705 43.5148 54.4705 30C54.4705 16.4852 43.5147 5.52942 29.9999 5.52942ZM41.3425 22.1714C40.9742 26.0408 39.3807 35.4306 38.5696 39.7647C38.2267 41.5981 37.5512 42.2131 36.8974 42.2732C35.4766 42.404 34.3974 41.3343 33.0209 40.432C30.8672 39.0202 29.6506 38.1412 27.5599 36.7637C25.1439 35.1716 26.71 34.2969 28.0869 32.8661C28.4472 32.4917 34.7085 26.797 34.8298 26.2802C34.8448 26.2155 34.8593 25.9743 34.7158 25.8477C34.5724 25.7209 34.3616 25.7638 34.2091 25.7983C33.9932 25.8472 30.5526 28.1216 23.8873 32.6205C22.9106 33.2911 22.0261 33.618 21.2336 33.6009C20.3599 33.582 18.6792 33.1069 17.4297 32.7006C15.8972 32.2025 14.6792 31.9393 14.7853 31.0932C14.8406 30.6525 15.4474 30.2019 16.6058 29.7415C23.7394 26.6333 28.4963 24.5842 30.8764 23.5941C37.6722 20.7676 39.0843 20.2765 40.0047 20.2601C40.2072 20.2567 40.6597 20.3069 40.9529 20.5447C41.1481 20.7142 41.2723 20.9508 41.3013 21.2074C41.3509 21.5263 41.3646 21.8496 41.3425 22.1714Z" fill="#106CB0"/>
</g>
<defs>
<clipPath id="clip0_939_518">
<rect x="4" y="4" width="52" height="52" rx="10" fill="white"/>
</clipPath>
</defs>
</svg>
