<svg width="60" height="60" viewBox="0 0 60 60" fill="none" xmlns="http://www.w3.org/2000/svg">
<g clip-path="url(#clip0_939_501)">
<path d="M57.1886 0H2.81143C1.25872 0 0 1.25872 0 2.81143V57.1886C0 58.7413 1.25872 60 2.81143 60H57.1886C58.7413 60 60 58.7413 60 57.1886V2.81143C60 1.25872 58.7413 0 57.1886 0Z" fill="#3178C6"/>
<path fill-rule="evenodd" clip-rule="evenodd" d="M34.8106 46.6269V53.2012C36.0052 53.7904 37.2782 54.2053 38.5906 54.4333C40.1074 54.7127 41.6469 54.8503 43.1892 54.8447C44.6922 54.8512 46.1922 54.6994 47.6635 54.3926C48.9848 54.126 50.2452 53.6173 51.3814 52.8926C52.4365 52.2116 53.3061 51.2794 53.9121 50.1797C54.9972 47.9023 55.1408 45.2889 54.3107 42.9069C53.9605 42.0157 53.4385 41.2023 52.7742 40.5131C52.0619 39.7792 51.2524 39.1469 50.3678 38.6338C49.3499 38.0376 48.2927 37.5121 47.2028 37.061C46.3457 36.7053 45.5742 36.3595 44.8885 36.0238C44.2795 35.7322 43.6967 35.3888 43.1464 34.9974C42.7157 34.6949 42.3415 34.3192 42.0406 33.8874C41.7821 33.4945 41.6471 33.0334 41.6528 32.5631C41.6472 32.1302 41.7678 31.705 41.9999 31.3396C42.2522 30.9571 42.5886 30.6375 42.9835 30.4053C43.4657 30.1197 43.9911 29.9149 44.5392 29.7988C45.2117 29.6492 45.8991 29.5774 46.5878 29.5846C47.1672 29.5869 47.7454 29.6284 48.3192 29.7088C48.9389 29.7905 49.5522 29.9173 50.1535 30.0881C50.7655 30.2578 51.3647 30.4727 51.9449 30.731C52.5081 30.9825 53.0468 31.2852 53.5542 31.6353V25.5003C52.4982 25.1005 51.4028 24.8132 50.2864 24.6431C48.9381 24.4468 47.5769 24.3543 46.2149 24.3667C44.7261 24.3593 43.2411 24.5284 41.792 24.8703C40.4817 25.1678 39.2359 25.7 38.1149 26.441C37.0731 27.1355 36.2126 28.0694 35.6056 29.1646C34.9626 30.3809 34.6445 31.7428 34.682 33.1181C34.6368 34.9366 35.2356 36.7126 36.3728 38.1324C37.7703 39.7054 39.5326 40.9114 41.5049 41.6446C42.4049 42.016 43.2441 42.3796 44.0228 42.7353C44.7252 43.0483 45.4002 43.4186 46.0414 43.8433C46.5574 44.1806 47.0112 44.6049 47.3828 45.0969C47.7085 45.5439 47.8812 46.0843 47.8757 46.6376C47.8787 47.052 47.7719 47.46 47.5671 47.8204C47.3369 48.2057 47.0172 48.5302 46.6349 48.7654C46.1541 49.0577 45.6287 49.269 45.0792 49.3912C44.3631 49.5506 43.6311 49.626 42.8978 49.6162C41.4585 49.6123 40.0309 49.3586 38.6785 48.8662C37.2665 48.3553 35.9567 47.5967 34.8106 46.6269ZM23.7663 30.2596H32.3378V24.8446H8.43848V30.2596H16.9713V54.3754H23.7663V30.2596Z" fill="white"/>
</g>
<defs>
<clipPath id="clip0_939_501">
<rect width="60" height="60" fill="white"/>
</clipPath>
</defs>
</svg>
