<svg width="60" height="60" viewBox="0 0 60 60" fill="none" xmlns="http://www.w3.org/2000/svg">
<g clip-path="url(#clip0_939_501)">
<path d="M53.6103 5H7.38971C6.06991 5 5 6.06991 5 7.38971V53.6103C5 54.9301 6.06991 56 7.38971 56H53.6103C54.9301 56 56 54.9301 56 53.6103V7.38971C56 6.06991 54.9301 5 53.6103 5Z" fill="#3178C6"/>
<path fill-rule="evenodd" clip-rule="evenodd" d="M34.5892 44.6328V50.2209C35.6046 50.7218 36.6866 51.0744 37.8022 51.2682C39.0915 51.5058 40.4 51.6227 41.711 51.6179C42.9885 51.6234 44.2635 51.4945 45.5141 51.2336C46.6372 51.007 47.7086 50.5746 48.6743 49.9586C49.5712 49.3798 50.3103 48.5875 50.8254 47.6527C51.7478 45.7169 51.8698 43.4955 51.1642 41.4708C50.8666 40.7132 50.4229 40.0219 49.8582 39.4361C49.2528 38.8123 48.5647 38.2748 47.8128 37.8387C46.9476 37.3319 46.0489 36.8852 45.1225 36.5018C44.394 36.1994 43.7382 35.9055 43.1554 35.6202C42.6377 35.3723 42.1423 35.0804 41.6746 34.7477C41.3085 34.4906 40.9904 34.1713 40.7347 33.8042C40.515 33.4703 40.4002 33.0783 40.405 32.6786C40.4003 32.3106 40.5028 31.9492 40.7001 31.6386C40.9145 31.3135 41.2004 31.0418 41.5361 30.8444C41.946 30.6017 42.3926 30.4276 42.8585 30.3289C43.4301 30.2018 44.0144 30.1407 44.5998 30.1468C45.0923 30.1488 45.5837 30.1841 46.0715 30.2524C46.5983 30.3218 47.1195 30.4296 47.6306 30.5748C48.1508 30.7191 48.6601 30.9017 49.1533 31.1213C49.632 31.3351 50.0899 31.5924 50.5212 31.8899V26.6752C49.6236 26.3354 48.6925 26.0912 47.7436 25.9466C46.5975 25.7797 45.4405 25.7011 44.2828 25.7116C43.0173 25.7054 41.7551 25.849 40.5234 26.1397C39.4096 26.3926 38.3507 26.8449 37.3978 27.4748C36.5123 28.0651 35.7809 28.8589 35.2649 29.7898C34.7184 30.8237 34.448 31.9813 34.4799 33.1503C34.4415 34.696 34.9504 36.2056 35.917 37.4125C37.1049 38.7496 38.6028 39.7747 40.2793 40.3978C41.0443 40.7135 41.7576 41.0226 42.4195 41.3249C43.0166 41.591 43.5903 41.9057 44.1353 42.2667C44.5739 42.5534 44.9597 42.9141 45.2755 43.3323C45.5524 43.7122 45.6992 44.1716 45.6945 44.6419C45.697 44.9941 45.6063 45.3409 45.4322 45.6473C45.2366 45.9748 44.9648 46.2506 44.6399 46.4506C44.2311 46.699 43.7845 46.8786 43.3175 46.9824C42.7088 47.1179 42.0866 47.182 41.4633 47.1737C40.2399 47.1704 39.0264 46.9547 37.8769 46.5362C36.6766 46.1019 35.5633 45.4571 34.5892 44.6328ZM25.2015 30.7206H32.4872V26.1178H12.1729V30.7206H19.4258V51.2191H25.2015V30.7206Z" fill="white"/>
</g>
<defs>
<clipPath id="clip0_939_501">
<rect width="51" height="51" fill="white" transform="translate(5 5)"/>
</clipPath>
</defs>
</svg>
