<svg width="61" height="60" viewBox="0 0 61 60" fill="none" xmlns="http://www.w3.org/2000/svg">
<path d="M56.9936 8.32556L30.6033 55.5156C30.0582 56.49 28.6585 56.496 28.1055 55.5264L1.19187 8.3298C0.589431 7.2734 1.4928 5.99372 2.69037 6.20776L29.1088 10.93C29.2773 10.96 29.4499 10.9596 29.6184 10.9288L55.4844 6.21424C56.6776 5.99684 57.5852 7.26668 56.9936 8.32556Z" fill="url(#paint0_linear_939_506)"/>
<path d="M41.6931 0.0140451L22.1638 3.84045C22.0077 3.87104 21.8663 3.95262 21.7617 4.07237C21.6571 4.19209 21.5952 4.34321 21.5858 4.50197L20.3843 24.7916C20.3777 24.9028 20.3972 25.0141 20.4411 25.1165C20.485 25.2189 20.5522 25.3097 20.6373 25.3816C20.7224 25.4535 20.8231 25.5046 20.9314 25.5308C21.0397 25.5571 21.1527 25.5577 21.2612 25.5327L26.6987 24.278C27.2074 24.1608 27.667 24.6088 27.5627 25.1204L25.9471 33.0308C25.8383 33.5633 26.3384 34.0183 26.8581 33.8605L30.2165 32.8401C30.7371 32.6821 31.2375 33.1385 31.1272 33.6715L28.5599 46.0968C28.3994 46.8744 29.4332 47.298 29.8644 46.6316L30.1524 46.1868L46.0659 14.4278C46.3327 13.8962 45.8731 13.2899 45.2891 13.4024L39.6924 14.4827C39.1665 14.5839 38.719 14.0942 38.8672 13.5798L42.5203 0.916294C42.6687 0.401046 42.2195 -0.0888924 41.6931 0.0140451Z" fill="url(#paint1_linear_939_506)"/>
<defs>
<linearGradient id="paint0_linear_939_506" x1="0.534866" y1="4.52112" x2="33.3795" y2="49.1268" gradientUnits="userSpaceOnUse">
<stop stop-color="#41D1FF"/>
<stop offset="1" stop-color="#BD34FE"/>
</linearGradient>
<linearGradient id="paint1_linear_939_506" x1="27.5925" y1="1.0527" x2="33.5339" y2="41.8108" gradientUnits="userSpaceOnUse">
<stop stop-color="#FFEA83"/>
<stop offset="0.083" stop-color="#FFDD35"/>
<stop offset="1" stop-color="#FFA800"/>
</linearGradient>
</defs>
</svg>
