<svg width="60" height="60" viewBox="0 0 60 60" fill="none" xmlns="http://www.w3.org/2000/svg">
<g clip-path="url(#clip0_953_93)">
<path d="M46 5H13C6.52791 5 5 10.2467 5 16.7188V43.2812C5 49.7533 6.52791 55 13 55H46C52.4721 55 55 49.7533 55 43.2812V16.7188C55 10.2467 52.4721 5 46 5Z" fill="#0073AA"/>
<path d="M13.2449 29.9988C13.2449 36.6307 17.099 42.3619 22.6877 45.0779L14.6955 23.1803C13.7377 25.3258 13.2434 27.6493 13.2449 29.9988ZM41.3102 29.1533C41.3102 27.0828 40.5664 25.6488 39.9285 24.5326C39.0791 23.1526 38.283 21.9838 38.283 20.6037C38.283 19.0635 39.4512 17.6299 41.0965 17.6299C41.1709 17.6299 41.2412 17.6391 41.3137 17.6432C38.3328 14.9123 34.3615 13.2449 29.9994 13.2449C24.1463 13.2449 18.9965 16.2481 16.0008 20.7969C16.3938 20.8086 16.7643 20.817 17.0789 20.817C18.8315 20.817 21.5442 20.6041 21.5442 20.6041C22.4473 20.551 22.5539 21.8776 21.6516 21.9844C21.6516 21.9844 20.744 22.0912 19.734 22.1442L25.8352 40.2922L29.5018 29.2955L26.8914 22.1436C25.9893 22.0906 25.1346 21.9838 25.1346 21.9838C24.2317 21.9309 24.3375 20.5504 25.2404 20.6037C25.2404 20.6037 28.0072 20.8162 29.6535 20.8162C31.4059 20.8162 34.1188 20.6037 34.1188 20.6037C35.0227 20.5504 35.1287 21.877 34.2262 21.9838C34.2262 21.9838 33.3166 22.0906 32.3086 22.1436L38.3635 40.1541L40.0346 34.5697C40.759 32.2522 41.3102 30.5877 41.3102 29.1533Z" fill="white"/>
<path d="M30.2936 31.4644L25.2666 46.0719C26.8035 46.5245 28.3974 46.7544 29.9996 46.7545C31.8946 46.7551 33.7759 46.4339 35.5633 45.8047C35.5168 45.7314 35.4769 45.6542 35.4441 45.5738L30.2936 31.4644ZM44.701 21.9605C44.7771 22.5316 44.8148 23.1071 44.8139 23.6832C44.8139 25.3834 44.4963 27.2947 43.5398 29.6846L38.4221 44.4812C43.4031 41.5766 46.7535 36.1803 46.7535 29.9992C46.7537 27.0861 46.0098 24.3469 44.701 21.9605Z" fill="white"/>
<path d="M29.9996 10.4688C19.2305 10.4688 10.4688 19.2299 10.4688 29.9988C10.4688 40.7691 19.2305 49.5299 29.9996 49.5299C40.7682 49.5299 49.5312 40.7691 49.5312 29.9988C49.5309 19.2299 40.7682 10.4688 29.9996 10.4688ZM29.9996 48.6348C19.7242 48.6348 11.3643 40.2746 11.3643 29.9988C11.3643 19.7236 19.724 11.3643 29.9996 11.3643C40.2744 11.3643 48.6338 19.7236 48.6338 29.9988C48.6338 40.2746 40.2744 48.6348 29.9996 48.6348Z" fill="white"/>
</g>
<defs>
<clipPath id="clip0_953_93">
<rect width="50" height="50" fill="white" transform="translate(5 5)"/>
</clipPath>
</defs>
</svg>
