<svg width="48" height="48" viewBox="0 0 48 48" fill="none" xmlns="http://www.w3.org/2000/svg">
<g clip-path="url(#clip0_1459_322)">
<g clip-path="url(#clip1_1459_322)">
<path d="M36.75 0H11.25C5.0368 0 0 5.0368 0 11.25V36.75C0 42.9632 5.0368 48 11.25 48H36.75C42.9632 48 48 42.9632 48 36.75V11.25C48 5.0368 42.9632 0 36.75 0Z" fill="#0073AA"/>
<path d="M7.91516 23.9989C7.91516 30.3655 11.6151 35.8675 16.9802 38.4748L9.3077 17.4531C8.41526 19.4535 7.91516 21.6671 7.91516 23.9989Z" fill="white"/>
<path d="M34.8578 23.1872C34.8578 21.1995 34.1438 19.8229 33.5314 18.7513C32.7159 17.4264 31.9517 16.3044 31.9517 14.9795C31.9517 13.501 33.0731 12.1246 34.6526 12.1246C34.7241 12.1246 34.7916 12.1335 34.8611 12.1375C31.9995 9.51581 28.1871 7.91516 23.9995 7.91516C18.3804 7.91516 13.4367 10.7982 10.5607 15.165C10.938 15.1763 11.2937 15.1843 11.5957 15.1843C13.2781 15.1843 15.8824 14.9801 15.8824 14.9801C16.7494 14.929 16.8516 16.2025 15.9855 16.305C15.9855 16.305 15.1141 16.4076 14.1446 16.4584L20.0018 33.8805L23.5217 23.3237L21.0158 16.4578C20.1497 16.407 19.3292 16.3044 19.3292 16.3044C18.4624 16.2536 18.564 14.9284 19.4308 14.9795C19.4308 14.9795 22.0869 15.1837 23.6674 15.1837C25.3496 15.1837 27.954 14.9795 27.954 14.9795C28.8218 14.9284 28.9236 16.2019 28.0571 16.3044C28.0571 16.3044 27.184 16.407 26.2163 16.4578L32.0289 33.748L33.6332 28.387C34.3286 26.1621 34.8578 24.5642 34.8578 23.1872Z" fill="white"/>
<path d="M24.2818 25.4059L19.4559 39.429C20.8967 39.8526 22.4207 40.0843 23.9996 40.0843C25.8726 40.0843 27.6688 39.7605 29.3407 39.1725C29.2976 39.1037 29.2584 39.0306 29.2264 38.9509L24.2818 25.4059Z" fill="white"/>
<path d="M38.113 16.282C38.1821 16.7944 38.2213 17.3444 38.2213 17.936C38.2213 19.5681 37.9165 21.4029 36.9983 23.6972L32.0852 37.902C36.867 35.1135 40.0834 29.9331 40.0834 23.9993C40.0836 21.2027 39.3694 18.5732 38.113 16.282Z" fill="white"/>
<path d="M23.9996 5.25C13.6613 5.25 5.25 13.6607 5.25 23.9989C5.25 34.3384 13.6613 42.7487 23.9996 42.7487C34.3374 42.7487 42.75 34.3384 42.75 23.9989C42.7496 13.6607 34.3374 5.25 23.9996 5.25ZM23.9996 41.8894C14.1354 41.8894 6.10971 33.8636 6.10971 23.9989C6.10971 14.1348 14.1351 6.10971 23.9996 6.10971C33.8634 6.10971 41.8884 14.1348 41.8884 23.9989C41.8884 33.8636 33.8634 41.8894 23.9996 41.8894Z" fill="white"/>
</g>
</g>
<defs>
<clipPath id="clip0_1459_322">
<rect width="48" height="48" fill="white"/>
</clipPath>
<clipPath id="clip1_1459_322">
<rect width="48" height="48" fill="white"/>
</clipPath>
</defs>
</svg>
