<svg width="60" height="60" viewBox="0 0 60 60" fill="none" xmlns="http://www.w3.org/2000/svg">
<path d="M37.2474 13C27.3598 13 19.4948 20.9775 19.4948 30.7526C19.4948 40.6402 27.4721 48.5053 37.2474 48.5053C47.0225 48.5053 55 40.5278 55 30.7526C55 20.9775 47.0225 13 37.2474 13ZM37.2474 37.2694C33.6519 37.2694 30.6182 34.2357 30.6182 30.6403C30.6182 27.0448 33.6519 24.0111 37.2474 24.0111C40.8428 24.0111 43.8765 27.0448 43.8765 30.6403C43.7642 34.3482 40.8428 37.2694 37.2474 37.2694Z" fill="url(#paint0_linear_960_93)"/>
<path d="M19.3819 18.0562V43.8987H13.0898L5 18.0562H19.3819Z" fill="url(#paint1_linear_960_93)"/>
<defs>
<linearGradient id="paint0_linear_960_93" x1="37.2474" y1="13" x2="37.2474" y2="48.5053" gradientUnits="userSpaceOnUse">
<stop stop-color="#0160D1"/>
<stop offset="1" stop-color="#00479C"/>
</linearGradient>
<linearGradient id="paint1_linear_960_93" x1="12.1909" y1="18.0562" x2="12.1909" y2="43.8987" gradientUnits="userSpaceOnUse">
<stop stop-color="#0160D1"/>
<stop offset="1" stop-color="#00479C"/>
</linearGradient>
</defs>
</svg>
