<svg width="48" height="48" viewBox="0 0 48 48" fill="none" xmlns="http://www.w3.org/2000/svg">
<path d="M36.75 0H11.25C5.0368 0 0 5.0368 0 11.25V36.75C0 42.9632 5.0368 48 11.25 48H36.75C42.9632 48 48 42.9632 48 36.75V11.25C48 5.0368 42.9632 0 36.75 0Z" fill="#242938"/>
<path d="M29.508 11C21.9934 11 16.016 17.0629 16.016 24.492C16.016 32.0065 22.0788 37.984 29.508 37.984C36.9371 37.984 43 31.9211 43 24.492C43 17.0629 36.9371 11 29.508 11ZM29.508 29.4448C26.7754 29.4448 24.4698 27.1391 24.4698 24.4067C24.4698 21.6741 26.7754 19.3685 29.508 19.3685C32.2405 19.3685 34.5461 21.6741 34.5461 24.4067C34.4608 27.2246 32.2405 29.4448 29.508 29.4448Z" fill="url(#paint0_linear_1459_390)"/>
<path d="M15.9302 14.8427V34.483H11.1483L5 14.8427H15.9302Z" fill="url(#paint1_linear_1459_390)"/>
<defs>
<linearGradient id="paint0_linear_1459_390" x1="29.508" y1="11" x2="29.508" y2="37.984" gradientUnits="userSpaceOnUse">
<stop stop-color="#0160D1"/>
<stop offset="1" stop-color="#00479C"/>
</linearGradient>
<linearGradient id="paint1_linear_1459_390" x1="10.4651" y1="14.8427" x2="10.4651" y2="34.483" gradientUnits="userSpaceOnUse">
<stop stop-color="#0160D1"/>
<stop offset="1" stop-color="#00479C"/>
</linearGradient>
</defs>
</svg>
